<svg xmlns="http://www.w3.org/2000/svg" width="25" height="24" viewBox="0 0 25 24" fill="currentColor"><script xmlns=""/>
  <rect width="24" height="24" transform="translate(0.304688 -0.00390625)" fill="currentColor"/>
  <path fill-rule="evenodd" clip-rule="evenodd" d="M23.3447 12.2585C23.3447 11.4431 23.2715 10.659 23.1356 9.90625H12.3047V14.3547H18.4938C18.2272 15.7922 17.417 17.0101 16.199 17.8256V20.711H19.9156C22.0901 18.709 23.3447 15.7608 23.3447 12.2585Z" fill="#4285F4"/>
  <path fill-rule="evenodd" clip-rule="evenodd" d="M12.3042 23.4947C15.4092 23.4947 18.0123 22.4649 19.9151 20.7086L16.1985 17.8231C15.1687 18.5131 13.8514 18.9208 12.3042 18.9208C9.30894 18.9208 6.77371 16.8979 5.86939 14.1797H2.02734V17.1592C3.91962 20.9176 7.80871 23.4947 12.3042 23.4947Z" fill="#34A853"/>
  <path fill-rule="evenodd" clip-rule="evenodd" d="M5.86991 14.1816C5.63991 13.4916 5.50923 12.7545 5.50923 11.9966C5.50923 11.2386 5.63991 10.5016 5.86991 9.81158V6.83203H2.02787C1.24901 8.38453 0.804688 10.1409 0.804688 11.9966C0.804688 13.8523 1.24901 15.6086 2.02787 17.1611L5.86991 14.1816Z" fill="#FBBC05"/>
  <path fill-rule="evenodd" clip-rule="evenodd" d="M12.3042 5.06996C13.9926 5.06996 15.5085 5.65018 16.7003 6.78973L19.9987 3.49132C18.0071 1.63564 15.4039 0.496094 12.3042 0.496094C7.80871 0.496094 3.91962 3.07314 2.02734 6.83155L5.86939 9.81109C6.77371 7.09291 9.30894 5.06996 12.3042 5.06996Z" fill="#EA4335"/>
<script xmlns=""/></svg>
