<?xml version="1.0" standalone="no"?>
<!DOCTYPE svg PUBLIC "-//W3C//DTD SVG 20010904//EN"
 "http://www.w3.org/TR/2001/REC-SVG-20010904/DTD/svg10.dtd">
<svg version="1.0" xmlns="http://www.w3.org/2000/svg"
 width="2053.000000pt" height="2053.000000pt" viewBox="0 0 2053.000000 2053.000000"
 preserveAspectRatio="xMidYMid meet">
<metadata>
Created by potrace 1.14, written by Peter Selinger 2001-2017
</metadata>
<g transform="translate(0.000000,2053.000000) scale(0.100000,-0.100000)"
fill="#000000" stroke="none">
<path d="M7762 13607 c-86 -33 -146 -120 -145 -212 1 -63 25 -117 76 -167 l38
-37 0 -2927 0 -2927 -39 -37 c-51 -49 -75 -102 -75 -166 0 -166 167 -271 319
-200 143 66 170 254 52 366 -17 17 -34 30 -37 30 -3 0 -6 1321 -6 2936 0 2791
1 2936 18 2945 9 6 29 22 43 37 89 94 70 251 -40 331 -39 28 -57 34 -109 37
-35 2 -76 -2 -95 -9z"/>
<path d="M1807 13294 c-1 -1 -37 -4 -80 -8 -423 -36 -815 -274 -1038 -631 -65
-105 -66 -106 -94 -164 -142 -301 -185 -659 -119 -991 120 -597 585 -1044
1174 -1127 101 -15 398 -8 490 11 201 40 392 119 548 224 64 44 232 184 270
224 l22 25 -65 64 c-36 35 -70 64 -74 64 -5 0 -38 -25 -72 -56 -144 -128 -235
-192 -364 -256 -169 -85 -316 -117 -530 -117 -171 -1 -274 17 -420 71 -361
133 -644 462 -749 870 -26 102 -31 154 -31 343 0 141 4 205 18 270 84 391 318
705 652 872 73 37 211 84 274 94 20 3 56 10 81 14 44 9 306 6 363 -4 16 -2 50
-9 75 -16 26 -6 50 -11 54 -11 12 1 159 -55 214 -80 115 -54 234 -137 364
-256 l46 -42 73 75 c40 41 70 81 68 88 -7 19 -198 170 -282 224 -131 84 -306
158 -447 188 -90 19 -131 25 -207 30 -86 6 -211 10 -214 8z"/>
<path d="M9887 13294 c-1 -1 -38 -4 -82 -8 -168 -14 -310 -54 -470 -131 -424
-204 -716 -612 -790 -1102 -14 -92 -21 -337 -11 -393 3 -14 7 -47 11 -74 37
-291 187 -604 389 -808 40 -40 83 -82 97 -93 157 -129 350 -230 525 -275 157
-40 240 -49 419 -45 94 2 184 6 200 10 17 3 55 10 85 16 154 31 352 113 489
205 109 72 311 241 311 260 0 6 -53 59 -119 118 -21 19 -21 19 -73 -31 -211
-198 -443 -326 -668 -368 -109 -20 -279 -26 -395 -14 -253 28 -510 156 -693
347 -168 174 -284 399 -336 652 -21 99 -24 138 -21 280 3 205 7 236 50 386 53
183 167 381 299 518 219 229 487 345 811 351 356 8 640 -101 912 -350 l70 -64
77 78 76 79 -52 47 c-209 188 -488 338 -693 371 -16 3 -46 9 -65 14 -48 12
-342 32 -353 24z"/>
<path d="M3669 13205 c0 -22 0 -658 0 -1414 -1 -896 3 -1376 9 -1380 8 -5 159
-6 195 -2 4 1 6 639 5 1418 l-3 1418 -102 0 -103 1 -1 -41z"/>
<path d="M4430 13238 c0 -6 122 -290 230 -533 10 -22 127 -290 260 -595 291
-668 308 -707 325 -745 7 -16 61 -140 120 -275 58 -135 117 -267 129 -295 13
-27 56 -126 96 -220 40 -93 76 -174 80 -178 10 -12 189 -14 194 -2 7 18 808
1849 826 1890 10 23 40 90 65 150 26 60 55 127 66 150 36 78 280 640 282 649
3 13 -212 14 -222 1 -6 -9 -47 -102 -144 -330 -16 -38 -35 -83 -43 -100 -33
-75 -96 -221 -98 -230 -3 -10 -26 -65 -51 -120 -7 -16 -45 -106 -85 -200 -39
-93 -80 -188 -90 -210 -23 -51 -529 -1238 -566 -1328 -15 -37 -31 -64 -36 -59
-9 9 -16 26 -448 1042 -78 184 -151 354 -161 377 -11 24 -23 53 -28 65 -10 26
-373 881 -400 943 -10 22 -28 66 -41 98 -13 31 -26 58 -29 58 -27 6 -231 3
-231 -3z"/>
<path d="M20167 12026 c-40 -15 -66 -34 -104 -77 l-23 -26 -4082 -1 c-2246 0
-4095 -1 -4109 -1 l-27 -1 0 -105 0 -105 4107 0 4107 0 51 -49 c63 -60 124
-79 204 -62 163 35 231 233 123 359 -62 73 -158 99 -247 68z"/>
<path d="M9877 10174 c-1 -1 -39 -4 -84 -8 -376 -29 -731 -226 -963 -534 -171
-227 -262 -461 -298 -763 -11 -88 -6 -304 8 -408 56 -411 263 -762 577 -978
80 -56 239 -135 335 -167 163 -55 276 -71 503 -70 204 0 216 1 433 49 155 35
485 207 632 332 l45 38 0 545 0 545 -577 2 -577 2 1 -99 1 -98 471 0 471 1 3
-404 2 -404 -22 -17 c-155 -122 -381 -227 -591 -274 -210 -48 -507 -34 -706
33 -453 151 -742 541 -788 1063 -13 147 -6 301 19 425 80 399 307 710 645 881
48 24 95 44 103 44 9 0 20 4 26 9 11 10 115 37 199 50 73 11 349 7 425 -7 143
-27 219 -51 330 -107 84 -42 212 -124 280 -179 l45 -36 24 27 c13 16 43 50 67
78 24 27 44 52 44 55 0 9 -123 100 -205 153 -105 66 -301 153 -388 171 -12 3
-33 7 -47 10 -23 6 -40 8 -115 21 -59 10 -320 25 -328 19z"/>
<path d="M5908 10165 c-2 -1 -39 -5 -83 -8 -349 -26 -649 -240 -753 -536 -23
-68 -26 -91 -26 -216 0 -117 4 -152 22 -212 70 -227 245 -376 573 -487 90 -30
267 -78 343 -92 250 -46 455 -115 592 -200 127 -78 195 -176 213 -307 44 -312
-130 -548 -470 -638 -68 -19 -112 -23 -234 -23 -197 -1 -316 17 -474 70 -154
53 -349 172 -502 307 l-44 39 -35 -39 c-76 -86 -99 -115 -94 -126 6 -14 167
-139 234 -183 76 -49 82 -53 162 -94 226 -117 446 -168 733 -171 366 -3 668
136 829 381 79 121 114 244 114 398 0 292 -131 488 -420 626 -106 51 -266 105
-388 132 -14 3 -83 19 -155 35 -71 16 -139 32 -150 34 -100 22 -298 95 -385
143 -93 51 -191 152 -219 225 -35 94 -46 207 -29 300 26 142 143 287 290 360
87 43 114 52 213 71 78 15 76 15 195 15 273 1 510 -77 736 -244 l98 -72 55 71
c30 39 59 73 63 74 17 8 6 32 -24 53 -18 13 -35 26 -38 29 -15 16 -155 101
-225 136 -130 66 -249 107 -349 120 -22 3 -43 7 -46 9 -12 7 -315 26 -322 20z"/>
<path d="M16075 10095 c-12 -27 -39 -86 -60 -130 -20 -44 -76 -163 -122 -265
-47 -102 -107 -232 -134 -289 -27 -57 -49 -104 -49 -106 0 -2 -22 -49 -49
-106 -26 -57 -60 -129 -74 -159 -14 -30 -42 -91 -62 -135 -21 -44 -61 -132
-90 -195 -29 -63 -68 -149 -88 -190 -34 -74 -198 -426 -256 -552 -76 -167
-284 -616 -297 -642 -8 -16 -12 -31 -10 -34 10 -9 208 -7 216 3 5 6 26 51 48
100 22 50 53 119 70 155 17 36 50 110 75 165 25 55 61 134 80 175 19 41 47
101 60 133 25 55 27 57 64 58 49 0 1592 0 1616 0 16 -1 24 -14 95 -171 220
-488 275 -607 286 -615 13 -10 212 -12 222 -3 2 3 -13 43 -34 89 -66 143 -93
201 -129 279 -20 41 -116 251 -215 465 -99 215 -195 422 -213 461 -19 39 -47
100 -63 135 -16 35 -87 188 -157 339 -142 306 -136 294 -303 655 -188 407
-194 420 -199 425 -2 2 -49 5 -105 5 l-100 1 -23 -51z m156 -262 c17 -38 141
-309 274 -603 134 -294 256 -564 273 -600 16 -36 53 -117 81 -180 29 -63 57
-126 64 -140 6 -14 12 -27 13 -30 2 -4 -1477 -5 -1483 -1 -1 0 35 79 79 174
44 94 97 210 118 257 21 47 58 129 84 183 25 55 46 100 46 102 0 2 21 47 46
102 25 54 77 166 114 248 37 83 83 182 100 220 18 39 45 97 60 130 51 116 94
205 97 205 2 0 17 -30 34 -67z"/>
<path d="M11826 10121 c-2 -3 -4 -642 -4 -1418 1 -1296 2 -1413 17 -1414 18
-1 160 -1 178 0 9 1 12 283 10 1256 -1 690 -1 1255 0 1255 1 0 57 -69 124
-152 66 -84 134 -169 149 -188 16 -19 112 -141 214 -270 209 -264 285 -360
508 -640 85 -107 302 -382 483 -610 522 -659 514 -650 538 -651 59 -3 129 0
134 5 8 8 8 2810 0 2822 -7 11 -182 12 -193 2 -4 -4 -7 -558 -7 -1230 l0
-1222 -33 40 c-17 21 -107 134 -198 249 -92 116 -177 224 -191 240 -13 17 -78
99 -144 182 -67 84 -127 161 -135 170 -24 29 -149 186 -176 222 -14 18 -30 38
-35 44 -8 9 -416 524 -541 682 -13 17 -108 136 -211 266 -103 129 -201 253
-218 274 -75 96 -62 89 -169 90 -54 1 -99 -1 -100 -4z"/>
<path d="M18220 8708 l0 -1418 23 -1 c29 -1 1828 -1 1844 0 9 1 12 28 11 96 0
80 -3 95 -17 96 -9 0 -383 1 -832 1 l-817 0 0 1296 c0 714 -1 1308 -1 1322
l-1 26 -105 -1 -105 0 0 -1417z"/>
<path d="M192 8918 c-51 -24 -104 -84 -119 -132 -26 -83 6 -192 69 -239 57
-42 81 -51 148 -51 70 1 118 23 169 78 l24 26 1974 0 1974 0 -2 105 c-1 70 -5
105 -13 106 -6 0 -892 1 -1968 1 -1077 1 -1958 4 -1958 7 0 16 -79 86 -115
102 -53 25 -129 23 -183 -3z"/>
</g>
</svg>
