<svg width="136" height="91" viewBox="0 0 136 61" fill="none" xmlns="http://www.w3.org/2000/svg">
<g clip-path="url(#clip0_6925_19929)">
<path d="M135.089 39.9473H130.965V42.3129H132.432V43.9182H129.011V50.393H132.872V47.9889H131.629V46.3376H135.05V46.2147V40.0702L135.089 39.9473Z" fill="black"/>
<path d="M101.231 12.051H84.4109V10.3152H119.975V4.35495H88.311V2.36565H103.039V0H85.2605V6.47482H116.924V8.20297H81.3218V14.1632H101.216L101.231 12.051Z" fill="black"/>
<path d="M82.3802 19.7471V18.0343H125.953V12.051H103.247V14.1632H122.856V15.9144H79.291V21.8439H80.9978H132.911V23.549H93.3389V29.5399H114.361V27.4431H96.4358V25.6766H136.008V19.7471H82.3802Z" fill="#1020E1"/>
<path d="M112.345 42.8658V45.0164H123.319V46.7676H102.946V52.7739H117.62V54.456H108.236V60.7695H115.913V58.3731H111.333V56.5375H120.709V50.608H117.62H106.035V48.8568H126.439V42.8658H112.345Z" fill="#ED1C24"/>
<path d="M116.384 27.4508V29.563H129.204V31.2758H102.49V37.2053H103.625H122.346V38.9411H104.637V45.0165H110.329V42.8659H107.726V41.084H125.435V35.1238H105.587V33.3957H132.293V27.4508H116.384Z" fill="black"/>
<path d="M2.54834 33.1883C2.54834 27.95 5.16641 25.0314 9.29043 25.0314C10.5029 24.9461 11.7111 25.248 12.7391 25.8931C13.767 26.5383 14.561 27.493 15.0054 28.6182L12.4723 29.9547C12.294 29.2626 11.8788 28.6539 11.2981 28.2334C10.7174 27.8128 10.0074 27.6067 9.29043 27.6505C7.09713 27.6505 5.68383 29.2327 5.68383 31.8825V34.3327C5.68383 37.0055 7.09713 38.5186 9.29043 38.5186C10.0483 38.5297 10.789 38.294 11.3997 37.8475C12.0104 37.401 12.4575 36.7682 12.673 36.0455L15.0671 37.451C14.5977 38.5779 13.7923 39.5346 12.7595 40.1924C11.7266 40.8502 10.516 41.1775 9.29043 41.1301C5.13551 41.1224 2.54834 38.4265 2.54834 33.1883Z" fill="#ED1C24"/>
<path d="M17.0986 33.073C17.0986 27.8195 19.8094 25.0314 23.9102 25.0314C28.0111 25.0314 30.7141 27.8195 30.7141 33.073C30.7141 38.3266 28.0265 41.1224 23.9102 41.1224C19.7939 41.1224 17.0986 38.3343 17.0986 33.073ZM27.5786 34.2636V31.8749C27.5786 29.225 26.1499 27.6428 23.9102 27.6428C21.6706 27.6428 20.2341 29.225 20.2341 31.8749V34.2636C20.2341 36.9134 21.6629 38.4956 23.9102 38.4956C26.1576 38.4956 27.5786 36.9288 27.5786 34.2636Z" fill="#ED1C24"/>
<path d="M34.2124 25.3002H39.9042C43.9818 25.3002 46.6463 27.9039 46.6463 33.073C46.6463 38.2421 43.9818 40.8536 39.9042 40.8536H34.2124V25.3002ZM39.9042 38.2421C42.0975 38.2421 43.5108 36.9518 43.5108 34.3019V31.8518C43.5108 29.202 42.0975 27.9039 39.9042 27.9039H37.1703V38.2421H39.9042Z" fill="#ED1C24"/>
<path d="M50.1294 40.8536V25.3002H60.4703V27.9039H53.1182V31.6751H59.6131V34.2635H53.1182V38.2268H60.4703V40.8382L50.1294 40.8536Z" fill="#ED1C24"/>
<path d="M10.9124 60.7311L9.79261 57.0367H4.57193L3.45213 60.7311H0L5.15115 45.1777H9.36784L14.4495 60.7311H10.9124ZM7.18227 48.2577H7.07414L5.34422 54.1565H8.92765L7.18227 48.2577Z" fill="black"/>
<path d="M18.8594 60.7311V45.1777H29.2312V48.1886H22.2806V51.376H28.2195V54.3562H22.2806V60.7311H18.8594Z" fill="black"/>
<path d="M37.6028 60.7311H34.2124V45.1777H41.6264C44.5147 45.1777 46.3528 47.1824 46.3528 50.1471C46.3528 52.244 45.4106 53.9107 43.503 54.625L46.5922 60.7695H42.8002L40.0509 55.0013H37.6028V60.7311ZM41.163 52.1748C41.3763 52.203 41.5933 52.1833 41.798 52.1173C42.0028 52.0513 42.1901 51.9407 42.3463 51.7934C42.5025 51.6462 42.6236 51.4661 42.7008 51.2663C42.778 51.0665 42.8093 50.8521 42.7925 50.6387V49.6249C42.8079 49.4118 42.7756 49.198 42.6979 48.9989C42.6202 48.7998 42.499 48.6203 42.3432 48.4734C42.1873 48.3264 42.0006 48.2157 41.7965 48.1492C41.5925 48.0827 41.3761 48.062 41.163 48.0887H37.5719V52.1441L41.163 52.1748Z" fill="black"/>
<path d="M50.9326 60.7311V58.0736H52.9483V47.8737H50.9326V45.1777H58.3698V47.8737H56.3541V58.0736H58.3698V60.7695L50.9326 60.7311Z" fill="black"/>
<path d="M62.8486 53.0658C62.8486 47.8122 65.5516 44.9166 69.7992 44.9166C72.6644 44.9166 74.5025 46.0687 75.6455 48.565L72.7108 50.1011C72.5693 49.4518 72.1968 48.8751 71.6619 48.4772C71.1269 48.0792 70.4655 47.8867 69.7992 47.9351C67.8067 47.9351 66.4861 49.2716 66.4861 51.7217V54.2333C66.4861 56.6834 67.8067 58.0199 69.7992 58.0199C70.4957 58.0207 71.1736 57.7964 71.7307 57.3808C72.2879 56.9653 72.6942 56.3808 72.8884 55.7157L75.6686 57.3132C75.1859 58.4579 74.3626 59.4283 73.3093 60.0942C72.256 60.7601 71.0231 61.0895 69.7761 61.0384C65.5516 61 62.8486 58.3271 62.8486 53.0658Z" fill="black"/>
<path d="M89.7245 60.7311L88.6046 57.0367H83.384L82.2641 60.7311H78.812L83.9632 45.1777H88.1799L93.2615 60.7311H89.7245ZM86.0252 48.2577H85.9557L84.2258 54.1565H87.8092L86.0252 48.2577Z" fill="black"/>
<path d="M65.6987 40.6308V32.8196H70.1935V33.411H66.3783V36.3681H69.9309V36.9595H66.3783V40.6308H65.6987Z" fill="#ED1C24"/>
<path d="M72.4795 36.7213C72.4795 34.0792 73.692 32.6813 75.6999 32.6813C77.7079 32.6813 78.9049 34.0792 78.9049 36.7213C78.9049 39.3635 77.6847 40.7614 75.6999 40.7614C73.7152 40.7614 72.4795 39.3635 72.4795 36.7213ZM78.1867 37.2129V36.2297C78.1867 34.371 77.1905 33.288 75.6999 33.288C74.2094 33.288 73.1977 34.371 73.1977 36.2297V37.2129C73.1977 39.0716 74.1863 40.1623 75.6999 40.1623C77.2136 40.1623 78.1867 39.0716 78.1867 37.2129Z" fill="#ED1C24"/>
<path d="M82.5269 40.6308H81.855V32.8196H84.9441C85.4752 32.8443 85.9792 33.06 86.3623 33.4266C86.7454 33.7932 86.9816 34.2857 87.0269 34.8125C87.0722 35.3394 86.9236 35.8646 86.6087 36.2906C86.2937 36.7166 85.834 37.0144 85.3148 37.1284L87.2533 40.6308H86.481L84.6043 37.1745H82.5191L82.5269 40.6308ZM84.9364 36.5985C85.1185 36.6167 85.3024 36.5953 85.4753 36.5357C85.6482 36.476 85.806 36.3796 85.9376 36.2531C86.0692 36.1266 86.1715 35.9731 86.2373 35.8032C86.3031 35.6334 86.331 35.4513 86.3188 35.2697V34.7321C86.3298 34.5511 86.3011 34.3699 86.2347 34.201C86.1684 34.0321 86.0659 33.8796 85.9345 33.7539C85.803 33.6283 85.6457 33.5326 85.4733 33.4734C85.301 33.4141 85.1178 33.3929 84.9364 33.411H82.5269V36.5678L84.9364 36.5985Z" fill="#ED1C24"/>
</g>
<defs>
<clipPath id="clip0_6925_19929">
<rect width="136" height="61" fill="white"/>
</clipPath>
</defs>
</svg>
