<svg width="175" height="174" viewBox="0 0 175 174" fill="none" xmlns="http://www.w3.org/2000/svg">
<path d="M87.5 173.75C39.6669 173.75 0.75 134.833 0.75 87C0.75 39.1669 39.6669 0.25 87.5 0.25C135.333 0.25 174.25 39.1669 174.25 87C174.25 134.833 135.333 173.75 87.5 173.75ZM87.5 3.14167C41.2598 3.14167 3.64167 40.7631 3.64167 87C3.64167 133.237 41.2598 170.858 87.5 170.858C133.74 170.858 171.358 133.237 171.358 87C171.358 40.7631 133.74 3.14167 87.5 3.14167Z" fill="#3E202C"/>
<path d="M111.889 133.776H63.1071C59.1219 133.776 55.8779 130.534 55.8779 126.546V69.6979C55.8779 65.7104 59.122 62.4688 63.1071 62.4688H111.889C115.874 62.4688 119.118 65.7103 119.118 69.6979V126.546C119.118 130.534 115.874 133.776 111.889 133.776ZM63.1071 65.3604C60.7163 65.3604 58.7696 67.3071 58.7696 69.6979V126.546C58.7696 128.937 60.7163 130.884 63.1071 130.884H111.889C114.279 130.884 116.226 128.937 116.226 126.546V69.6979C116.226 67.3071 114.279 65.3604 111.889 65.3604H63.1071Z" fill="#3E202C"/>
<path d="M67.5 76.5869H107.504V79.4786H67.5V76.5869Z" fill="#3E202C"/>
<path d="M67.5 89.9775H107.504V92.8692H67.5V89.9775Z" fill="#3E202C"/>
<path d="M67.5 103.372H100.726V106.264H67.5V103.372Z" fill="#3E202C"/>
<path d="M67.5 116.763H83.0981V119.654H67.5V116.763Z" fill="#3E202C"/>
<path d="M151.057 85.1687L148.182 84.8538C148.402 82.867 148.515 80.8494 148.515 78.8536C148.515 73.0756 147.601 67.3735 145.797 61.9141C139.936 44.151 124.977 33.5926 120.532 30.7769C101.612 18.5996 74.7841 18.6435 55.1671 30.7911C52.0069 32.7482 36.0239 43.3905 29.9346 61.9114C27.4095 69.5834 27.2159 76.8176 27.2159 78.8536C27.2159 80.4879 27.2907 82.139 27.4379 83.7605L24.5579 84.0213C24.4017 82.3121 24.3242 80.5771 24.3242 78.8536C24.3242 76.7107 24.5295 69.0851 27.1875 61.0066C33.5891 41.5369 50.335 30.3807 53.6296 28.345C74.1772 15.6127 102.272 15.5817 121.972 28.2675C126.732 31.278 142.384 42.3323 148.543 61.0065C150.443 66.7614 151.409 72.7668 151.409 78.8535C151.406 80.9551 151.29 83.0839 151.056 85.1686L151.057 85.1687Z" fill="#3E202C"/>
<path d="M136.866 118.313H135.136C130.533 118.313 126.785 114.565 126.785 109.962V81.9332C126.785 77.3296 130.53 73.582 135.136 73.582H136.866C141.47 73.582 145.215 77.3296 145.215 81.9332V109.962C145.215 114.565 141.47 118.313 136.866 118.313ZM135.138 76.4711C132.127 76.4711 129.678 78.92 129.678 81.9305V109.959C129.678 112.969 132.127 115.418 135.138 115.418H136.867C139.878 115.418 142.324 112.969 142.324 109.959V81.9305C142.324 78.9201 139.875 76.4711 136.867 76.4711H135.138Z" fill="#3E202C"/>
<path d="M39.8615 118.313H38.1317C33.5282 118.313 29.7832 114.565 29.7832 109.962V81.9332C29.7832 77.3296 33.5282 73.582 38.1317 73.582H39.8615C44.4651 73.582 48.2127 77.3296 48.2127 81.9332V109.962C48.2127 114.565 44.4651 118.313 39.8615 118.313ZM38.133 76.4711C35.1225 76.4711 32.6762 78.92 32.6762 81.9305V109.959C32.6762 112.969 35.1251 115.418 38.133 115.418H39.8628C42.8733 115.418 45.3223 112.969 45.3223 109.959V81.9305C45.3223 78.9201 42.8734 76.4711 39.8628 76.4711H38.133Z" fill="#3E202C"/>
<path d="M111.939 45.4162C111.606 45.4162 111.276 45.3039 111.008 45.078C98.1801 34.2744 77.3158 34.2744 64.4868 45.078C63.9484 45.5259 63.1623 45.5324 62.624 45.078C60.1428 42.9867 57.6011 40.8799 55.0567 38.7678C53.0442 37.0961 51.0289 35.4257 49.0424 33.7654C48.7042 33.4814 48.5157 33.0632 48.5247 32.623C48.5338 32.1866 48.7416 31.7722 49.0914 31.5063C50.6767 30.289 52.2929 29.1607 53.6431 28.3306C74.1739 15.6099 102.269 15.5749 121.969 28.2635V28.2609V28.2635L121.185 29.4783L122.081 28.3332C122.576 28.6456 124.08 29.5996 126.139 31.1526C126.488 31.4159 126.7 31.8239 126.714 32.2602C126.729 32.6966 126.544 33.1187 126.213 33.4053C124.313 35.0396 122.414 36.7282 120.511 38.414C117.964 40.6718 115.416 42.9335 112.872 45.0764C112.602 45.3023 112.27 45.4159 111.94 45.4159L111.939 45.4162ZM52.3042 32.7212C53.8275 33.9902 55.3663 35.2682 56.9051 36.5435C59.141 38.3999 61.3781 40.2538 63.5701 42.0959C77.1699 31.4575 98.3296 31.4522 111.919 42.0933C114.139 40.1995 116.366 38.2244 118.59 36.2518C120.045 34.9622 121.496 33.6699 122.951 32.406C121.743 31.5437 120.878 30.9976 120.533 30.7782C120.531 30.7756 120.405 30.6968 120.403 30.6968C101.607 18.5918 74.7839 18.6358 55.1635 30.7898C54.3025 31.3242 53.3188 31.9891 52.3041 32.721L52.3042 32.7212Z" fill="#3E202C"/>
<path d="M32.677 110.448L31.115 110.324C22.9694 109.673 16.8271 103.542 16.8271 96.0592C16.8271 88.5782 22.9694 82.4452 31.115 81.7919L32.677 81.6641V110.448ZM29.7853 84.8825C23.8665 85.981 19.72 90.4864 19.72 96.0618C19.72 101.643 23.8691 106.143 29.7853 107.239V84.8825Z" fill="#3E202C"/>
<path d="M142.322 110.447V81.666L143.884 81.7938C152.03 82.447 158.172 88.5802 158.172 96.0611C158.172 103.545 152.03 109.675 143.884 110.326L142.322 110.447ZM145.214 84.8819V107.237C151.13 106.141 155.279 101.638 155.279 96.0602C155.281 90.4835 151.133 85.9781 145.214 84.8822V84.8819Z" fill="#3E202C"/>
<path d="M68.1142 149.953H48.0288C35.4218 149.953 24.6152 134.557 24.6152 121.95V107.581H27.5069V121.95C27.5069 133.02 37.168 147.061 48.0288 147.061H68.1142V149.953Z" fill="#3E202C"/>
<path d="M87.6519 155.286H73.1536C69.5854 155.286 66.7364 152.577 66.668 149.118V147.915C66.668 144.497 69.5764 141.719 73.1536 141.719H87.6519C91.229 141.719 94.1375 144.498 94.1375 147.915V149.089C94.1375 152.507 91.229 155.286 87.6519 155.286V155.286ZM73.1522 144.613C71.1681 144.613 69.5583 146.096 69.5583 147.918V149.091C69.5958 150.933 71.1745 152.396 73.1522 152.396H87.6506C89.6347 152.396 91.2445 150.913 91.2445 149.091V147.918C91.2445 146.096 89.6308 144.613 87.6506 144.613H73.1522Z" fill="#3E202C"/>
</svg>
