<svg width="251" height="113" viewBox="0 0 251 113" fill="none" xmlns="http://www.w3.org/2000/svg">
<g clip-path="url(#clip0_6925_42409)">
<path d="M249.318 74.0006H241.707V78.3829H244.415V81.3566H238.144V93.3082H245.27V88.8548H242.975V85.7958H249.29V85.5681V74.1856L249.318 74.0006Z" fill="white"/>
<path d="M186.832 22.324H155.817V19.1084H221.382V8.06737H162.943V4.38227H190.253V0H157.356V11.9943H215.795V15.1957H150.229V26.2225H186.832V22.324Z" fill="white"/>
<path d="M152.054 36.5806V33.4646H232.442V22.324H190.566V26.2225H226.741V29.4807H146.338V40.4649H149.488H245.27V43.6235H172.265V54.8069H211.062V50.8372H177.981V47.5647H250.972V36.5806H152.054Z" fill="white"/>
<path d="M207.342 79.4074V83.2632H227.596V86.5072H189.939V97.6479H217.02V100.764H199.774V112.459H213.913V108.02H205.461V104.677H222.764V93.6925H217.063H195.683V90.3773H233.34V79.322L207.342 79.4074Z" fill="white"/>
<path d="M214.797 50.8372V54.8068H238.457V57.937H189.169V68.9211H191.265H225.8V72.1225H193.118V83.2631H203.622V79.3646H198.819V76.149H231.516V65.108H194.871V61.9209H244.158V50.8372H214.797Z" fill="white"/>
<path d="M4.64648 61.4799C4.64648 51.7763 9.49261 46.3696 17.0896 46.3696C19.3274 46.2116 21.5572 46.7709 23.4544 47.966C25.3515 49.1612 26.8169 50.9297 27.637 53.0142L22.9192 55.4899C22.5902 54.2078 21.8239 53.0802 20.7522 52.3012C19.6804 51.5221 18.3702 51.1403 17.0468 51.2214C12.9989 51.2214 10.3905 54.1524 10.3905 59.0753V63.6141C10.3905 68.5655 12.9989 71.3685 17.0468 71.3685C18.4456 71.3889 19.8126 70.9523 20.9397 70.1251C22.0667 69.298 22.892 68.1258 23.2898 66.787L27.7225 69.3908C26.8496 71.4755 25.3593 73.2441 23.4513 74.4596C21.5432 75.6752 19.3086 76.2796 17.0468 76.1918C9.49261 76.1491 4.64648 71.1693 4.64648 61.4799Z" fill="white"/>
<path d="M31.5566 61.2664C31.5566 51.5343 36.5595 46.3695 44.128 46.3695C51.6965 46.3695 56.6994 51.5343 56.6994 61.2664C56.6994 70.9984 51.7393 76.149 44.128 76.149C36.5168 76.149 31.5566 71.0127 31.5566 61.2664ZM50.9126 63.5002V59.0752C50.9126 54.1523 48.2615 51.2213 44.128 51.2213C39.9946 51.2213 37.3435 54.1523 37.3435 59.0752V63.5287C37.3435 68.4374 39.9946 71.3684 44.128 71.3684C48.2615 71.3684 50.9126 68.4089 50.9126 63.5002Z" fill="white"/>
<path d="M63.1421 46.8676H73.6325C81.1582 46.8676 86.0899 51.6909 86.0899 61.2664C86.0899 70.842 81.1582 75.6796 73.6325 75.6796H63.1421V46.8676ZM73.6325 70.842C77.6947 70.842 80.2888 68.4517 80.2888 63.543V59.0753C80.2888 54.1666 77.6947 51.762 73.6325 51.762H68.5298V70.9131L73.6325 70.842Z" fill="white"/>
<path d="M92.5322 75.6796V46.8676H111.546V51.6909H97.9769V58.6769H109.978V63.5003H97.9769V70.842H111.546V75.6796H92.5322Z" fill="white"/>
<path d="M20.1398 112.502L18.0731 105.644H8.43791L6.37121 112.502H0L9.52117 83.6901H17.2892L26.6678 112.502H20.1398ZM13.3125 89.3955H13.113L9.93453 100.337H16.548L13.3125 89.3955Z" fill="white"/>
<path d="M34.8066 112.502V83.6901H53.9488V89.2675H41.1208V95.1722H52.0816V100.693H41.1208V112.502H34.8066Z" fill="white"/>
<path d="M69.4136 112.502H63.1279V83.6901H76.8111C82.1418 83.6901 85.5341 87.4036 85.5341 92.8957C85.5341 96.78 83.7952 99.8675 80.2889 101.191L85.9902 112.573H79.006L73.9604 102.002H69.4564L69.4136 112.502ZM76.0272 96.6519C76.421 96.701 76.8209 96.6626 77.1981 96.5394C77.5754 96.4163 77.9207 96.2114 78.2094 95.9395C78.4981 95.6677 78.723 95.3354 78.8682 94.9667C79.0133 94.5979 79.075 94.2016 79.0488 93.8063V91.9851C79.075 91.5897 79.0133 91.1935 78.8682 90.8247C78.723 90.4559 78.4981 90.1237 78.2094 89.8518C77.9207 89.5799 77.5754 89.3751 77.1981 89.2519C76.8209 89.1288 76.421 89.0904 76.0272 89.1394H69.4136V96.6519H76.0272Z" fill="white"/>
<path d="M94.0005 112.502V107.451H97.7206V88.6841H94.0005V83.6901H107.726V88.6841H104.006V107.451H107.726V112.445L94.0005 112.502Z" fill="white"/>
<path d="M115.993 98.3023C115.993 88.5703 120.996 83.192 128.821 83.192C134.109 83.192 137.501 85.3405 139.611 89.9646L134.195 92.8103C133.933 91.6086 133.245 90.542 132.258 89.8071C131.27 89.0723 130.049 88.7189 128.821 88.8121C125.144 88.8121 122.706 91.2878 122.706 95.8266V100.451C122.706 104.99 125.144 107.465 128.821 107.465C130.107 107.469 131.359 107.055 132.388 106.284C133.417 105.514 134.166 104.43 134.522 103.197L139.654 106.17C138.763 108.291 137.243 110.089 135.299 111.322C133.355 112.556 131.08 113.166 128.778 113.071C120.996 113 115.993 108.049 115.993 98.3023Z" fill="white"/>
<path d="M165.595 112.502L163.528 105.644H153.893L151.826 112.502H145.498L155.019 83.6901H162.787L172.165 112.502H165.595ZM158.767 89.3955H158.568L155.389 100.337H162.003L158.767 89.3955Z" fill="white"/>
<path d="M121.267 75.2669V60.7969H129.548V61.9209H122.507V67.3987H129.077V68.4943H122.507V75.2954L121.267 75.2669Z" fill="white"/>
<path d="M133.767 68.0248C133.767 63.1303 136.005 60.5408 139.711 60.5408C143.417 60.5408 145.626 63.1303 145.626 68.0248C145.626 72.9193 143.388 75.5088 139.711 75.5088C136.033 75.5088 133.767 72.9193 133.767 68.0248ZM144.3 68.9354V67.1142C144.3 63.671 142.476 61.6648 139.711 61.6648C136.946 61.6648 135.093 63.671 135.093 67.1142V68.9354C135.093 72.3786 136.931 74.399 139.711 74.399C142.49 74.399 144.3 72.3786 144.3 68.9354Z" fill="white"/>
<path d="M152.325 75.2669H151.07V60.7969H156.772C157.752 60.8427 158.682 61.2423 159.389 61.9214C160.096 62.6005 160.532 63.5129 160.616 64.4888C160.699 65.4647 160.425 66.4377 159.844 67.2269C159.263 68.016 158.414 68.5675 157.456 68.7789L161.019 75.2669H159.594L156.116 68.85H152.282L152.325 75.2669ZM156.772 67.7971C157.107 67.8285 157.446 67.7871 157.764 67.6757C158.082 67.5643 158.372 67.3855 158.614 67.1517C158.856 66.9179 159.045 66.6346 159.168 66.3211C159.29 66.0077 159.343 65.6715 159.323 65.3357V64.3397C159.341 64.005 159.286 63.6704 159.163 63.3587C159.04 63.047 158.85 62.7654 158.608 62.5332C158.366 62.301 158.077 62.1236 157.76 62.013C157.443 61.9024 157.106 61.8613 156.772 61.8924H152.325V67.7971H156.772Z" fill="white"/>
</g>
<defs>
<clipPath id="clip0_6925_42409">
<rect width="251" height="113" fill="white"/>
</clipPath>
</defs>
</svg>
