<svg width="136" height="62" viewBox="0 0 136 62" fill="none" xmlns="http://www.w3.org/2000/svg">
<g clip-path="url(#clip0_7506_2166)">
<path d="M135.089 40.4473H130.965V42.8129H132.432V44.4182H129.011V50.893H132.872V48.4889H131.629V46.8376H135.05V46.7147V40.5702L135.089 40.4473Z" fill="black"/>
<path d="M101.232 12.551H84.4112V10.8152H119.975V4.85495H88.3112V2.86565H103.039V0.5H85.2607V6.97482H116.924V8.70297H81.322V14.6632H101.216L101.232 12.551Z" fill="black"/>
<path d="M82.38 20.2468V18.534H125.953V12.5508H103.247V14.663H122.856V16.4142H79.2909V22.3437H80.9976H132.911V24.0488H93.3388V30.0397H114.361V27.9429H96.4357V26.1763H136.008V20.2468H82.38Z" fill="#1020E1"/>
<path d="M112.345 43.3662V45.5168H123.319V47.268H102.946V53.2743H117.62V54.9564H108.236V61.2699H115.913V58.8735H111.333V57.0378H120.709V51.1083H117.62H106.035V49.3571H126.439V43.3662H112.345Z" fill="#ED1C24"/>
<path d="M116.384 27.9512V30.0634H129.204V31.7762H102.49V37.7056H103.626H122.346V39.4415H104.637V45.5169H110.329V43.3663H107.726V41.5844H125.435V35.6242H105.587V33.896H132.293V27.9512H116.384Z" fill="black"/>
<path d="M2.54858 33.6886C2.54858 28.4504 5.16665 25.5317 9.29067 25.5317C10.5032 25.4464 11.7114 25.7483 12.7393 26.3935C13.7673 27.0387 14.5612 27.9934 15.0056 29.1186L12.4725 30.455C12.2943 29.763 11.8791 29.1543 11.2983 28.7337C10.7176 28.3132 10.0077 28.1071 9.29067 28.1508C7.09737 28.1508 5.68407 29.7331 5.68407 32.3829V34.833C5.68407 37.5059 7.09737 39.019 9.29067 39.019C10.0485 39.03 10.7892 38.7943 11.3999 38.3478C12.0106 37.9013 12.4578 37.2685 12.6733 36.5458L15.0674 37.9514C14.5979 39.0783 13.7926 40.035 12.7597 40.6928C11.7269 41.3506 10.5162 41.6778 9.29067 41.6304C5.13576 41.6228 2.54858 38.9268 2.54858 33.6886Z" fill="#ED1C24"/>
<path d="M17.0985 33.5729C17.0985 28.3193 19.8092 25.5312 23.9101 25.5312C28.011 25.5312 30.714 28.3193 30.714 33.5729C30.714 38.8265 28.0264 41.6223 23.9101 41.6223C19.7938 41.6223 17.0985 38.8342 17.0985 33.5729ZM27.5785 34.7634V32.3747C27.5785 29.7249 26.1497 28.1427 23.9101 28.1427C21.6705 28.1427 20.234 29.7249 20.234 32.3747V34.7634C20.234 37.4133 21.6627 38.9955 23.9101 38.9955C26.1575 38.9955 27.5785 37.4286 27.5785 34.7634Z" fill="#ED1C24"/>
<path d="M34.2124 25.7998H39.9042C43.9818 25.7998 46.6463 28.4036 46.6463 33.5727C46.6463 38.7418 43.9818 41.3532 39.9042 41.3532H34.2124V25.7998ZM39.9042 38.7418C42.0975 38.7418 43.5108 37.4514 43.5108 34.8016V32.3514C43.5108 29.7016 42.0975 28.4036 39.9042 28.4036H37.1703V38.7418H39.9042Z" fill="#ED1C24"/>
<path d="M50.1293 41.3532V25.7998H60.4702V28.4036H53.118V32.1748H59.613V34.7632H53.118V38.7264H60.4702V41.3378L50.1293 41.3532Z" fill="#ED1C24"/>
<path d="M10.9124 61.2311L9.79261 57.5367H4.57193L3.45213 61.2311H0L5.15115 45.6777H9.36784L14.4495 61.2311H10.9124ZM7.18227 48.7577H7.07414L5.34422 54.6565H8.92765L7.18227 48.7577Z" fill="black"/>
<path d="M18.8593 61.2311V45.6777H29.2311V48.6886H22.2805V51.876H28.2194V54.8562H22.2805V61.2311H18.8593Z" fill="black"/>
<path d="M37.6028 61.2311H34.2124V45.6777H41.6264C44.5147 45.6777 46.3528 47.6824 46.3528 50.6471C46.3528 52.744 45.4106 54.4107 43.503 55.125L46.5922 61.2695H42.8002L40.0509 55.5013H37.6028V61.2311ZM41.163 52.6748C41.3763 52.703 41.5933 52.6833 41.798 52.6173C42.0028 52.5513 42.1901 52.4407 42.3463 52.2934C42.5025 52.1462 42.6236 51.9661 42.7008 51.7663C42.778 51.5665 42.8093 51.3521 42.7925 51.1387V50.1249C42.8079 49.9118 42.7756 49.698 42.6979 49.4989C42.6202 49.2998 42.499 49.1203 42.3432 48.9734C42.1873 48.8264 42.0006 48.7157 41.7965 48.6492C41.5925 48.5827 41.3761 48.562 41.163 48.5887H37.5719V52.6441L41.163 52.6748Z" fill="black"/>
<path d="M50.9324 61.2311V58.5736H52.9481V48.3737H50.9324V45.6777H58.3695V48.3737H56.3538V58.5736H58.3695V61.2695L50.9324 61.2311Z" fill="black"/>
<path d="M62.8489 53.5662C62.8489 48.3126 65.5519 45.417 69.7995 45.417C72.6647 45.417 74.5027 46.5691 75.6457 49.0653L72.711 50.6015C72.5695 49.9522 72.197 49.3755 71.6621 48.9775C71.1272 48.5796 70.4657 48.3871 69.7995 48.4355C67.807 48.4355 66.4864 49.7719 66.4864 52.2221V54.7337C66.4864 57.1838 67.807 58.5202 69.7995 58.5202C70.4959 58.5211 71.1738 58.2968 71.731 57.8812C72.2881 57.4656 72.6944 56.8812 72.8886 56.216L75.6689 57.8136C75.1861 58.9583 74.3629 59.9287 73.3096 60.5946C72.2563 61.2604 71.0233 61.5899 69.7763 61.5387C65.5519 61.5003 62.8489 58.8275 62.8489 53.5662Z" fill="black"/>
<path d="M89.7245 61.2311L88.6046 57.5367H83.384L82.2641 61.2311H78.812L83.9632 45.6777H88.1799L93.2615 61.2311H89.7245ZM86.0252 48.7577H85.9557L84.2258 54.6565H87.8092L86.0252 48.7577Z" fill="black"/>
<path d="M65.6986 41.1306V33.3193H70.1933V33.9107H66.3782V36.8678H69.9308V37.4592H66.3782V41.1306H65.6986Z" fill="#ED1C24"/>
<path d="M72.4792 37.2217C72.4792 34.5795 73.6918 33.1816 75.6997 33.1816C77.7077 33.1816 78.9047 34.5795 78.9047 37.2217C78.9047 39.8638 77.6845 41.2617 75.6997 41.2617C73.7149 41.2617 72.4792 39.8638 72.4792 37.2217ZM78.1865 37.7132V36.7301C78.1865 34.8714 77.1902 33.7884 75.6997 33.7884C74.2092 33.7884 73.1975 34.8714 73.1975 36.7301V37.7132C73.1975 39.572 74.186 40.6626 75.6997 40.6626C77.2134 40.6626 78.1865 39.572 78.1865 37.7132Z" fill="#ED1C24"/>
<path d="M82.5267 41.1306H81.8549V33.3193H84.944C85.4751 33.3441 85.979 33.5598 86.3622 33.9264C86.7453 34.293 86.9815 34.7855 87.0268 35.3123C87.0721 35.8391 86.9235 36.3644 86.6085 36.7904C86.2936 37.2164 85.8338 37.5141 85.3147 37.6282L87.2531 41.1306H86.4809L84.6042 37.6743H82.519L82.5267 41.1306ZM84.9363 37.0982C85.1184 37.1165 85.3023 37.0951 85.4752 37.0354C85.6481 36.9758 85.8059 36.8793 85.9375 36.7528C86.0691 36.6263 86.1713 36.4728 86.2372 36.303C86.303 36.1332 86.3308 35.9511 86.3187 35.7695V35.2318C86.3297 35.0508 86.301 34.8696 86.2346 34.7007C86.1683 34.5319 86.0658 34.3793 85.9343 34.2537C85.8029 34.1281 85.6455 34.0323 85.4732 33.9731C85.3009 33.9139 85.1177 33.8926 84.9363 33.9107H82.5267V37.0675L84.9363 37.0982Z" fill="#ED1C24"/>
</g>
<defs>
<clipPath id="clip0_7506_2166">
<rect width="136" height="61" fill="white" transform="translate(0 0.5)"/>
</clipPath>
</defs>
</svg>
