<svg width="32" height="27" viewBox="0 0 32 27" fill="none" xmlns="http://www.w3.org/2000/svg">
<path d="M30.6666 1.99974C29.3898 2.90037 27.9761 3.58921 26.48 4.03974C25.677 3.11642 24.6098 2.46199 23.4227 2.16497C22.2356 1.86795 20.986 1.94266 19.8428 2.37901C18.6995 2.81535 17.7179 3.59227 17.0306 4.60469C16.3433 5.61711 15.9836 6.81618 16 8.03974V9.37307C13.6568 9.43383 11.335 8.91415 9.24132 7.86033C7.14764 6.80651 5.34707 5.25125 3.99998 3.33307C3.99998 3.33307 -1.33335 15.3331 10.6666 20.6664C7.92068 22.5304 4.64952 23.465 1.33331 23.3331C13.3333 29.9997 28 23.3331 28 7.99974C27.9988 7.62834 27.963 7.25786 27.8933 6.89307C29.2541 5.55106 30.2144 3.85669 30.6666 1.99974V1.99974Z" stroke="white" stroke-width="2" stroke-linecap="round" stroke-linejoin="round"/>
</svg>
