<svg width="24" height="20" viewBox="0 0 24 20" fill="none" xmlns="http://www.w3.org/2000/svg">
<path d="M23 1.0374C22.0424 1.71288 20.9821 2.22951 19.86 2.5674C19.2577 1.87491 18.4573 1.38409 17.567 1.16133C16.6767 0.93856 15.7395 0.994595 14.8821 1.32185C14.0247 1.64911 13.2884 2.2318 12.773 2.99112C12.2575 3.75043 11.9877 4.64974 12 5.5674V6.5674C10.2426 6.61297 8.50127 6.22321 6.93101 5.43285C5.36074 4.64248 4.01032 3.47603 3 2.0374C3 2.0374 -1 11.0374 8 15.0374C5.94053 16.4354 3.48716 17.1363 1 17.0374C10 22.0374 21 17.0374 21 5.5374C20.9991 5.25885 20.9723 4.98099 20.92 4.7074C21.9406 3.70089 22.6608 2.43011 23 1.0374V1.0374Z" stroke="black" stroke-width="2" stroke-linecap="round" stroke-linejoin="round"/>
</svg>
