<svg width="24" height="24" viewBox="0 0 24 24" fill="none" xmlns="http://www.w3.org/2000/svg">
<path d="M23 2.99834C22.0424 3.67381 20.9821 4.19045 19.86 4.52834C19.2577 3.83585 18.4573 3.34503 17.567 3.12226C16.6767 2.8995 15.7395 2.95553 14.8821 3.28279C14.0247 3.61005 13.2884 4.19274 12.773 4.95205C12.2575 5.71137 11.9877 6.61067 12 7.52834V8.52834C10.2426 8.5739 8.50127 8.18415 6.93101 7.39378C5.36074 6.60342 4.01032 5.43697 3 3.99834C3 3.99834 -1 12.9983 8 16.9983C5.94053 18.3963 3.48716 19.0973 1 18.9983C10 23.9983 21 18.9983 21 7.49834C20.9991 7.21979 20.9723 6.94193 20.92 6.66834C21.9406 5.66183 22.6608 4.39105 23 2.99834V2.99834Z" stroke="white" stroke-width="2" stroke-linecap="round" stroke-linejoin="round"/>
</svg>
