<svg width="70" height="70" viewBox="0 0 70 70" fill="none" xmlns="http://www.w3.org/2000/svg">
<rect x="2.0625" y="2.0625" width="65.875" height="65.875" stroke="#ED1C24" stroke-width="2.125" stroke-dasharray="4.25 4.25"/>
<path d="M52.1489 57.5943C47.8983 57.5568 42.8714 55.1215 38.3102 50.944C34.0985 47.0475 30.9542 42.3079 29.9256 38.2615C28.9745 34.5149 29.945 31.6861 32.6622 30.2624C36.8158 28.1081 40.8334 31.6112 44.7346 34.9832C47.7042 37.5684 50.7708 40.2285 53.5657 39.985C54.9632 39.8539 56.2442 39.0296 57.5058 37.456C57.7387 37.175 58.1657 37.1188 58.4568 37.3436C58.7479 37.5684 58.8062 37.9805 58.5733 38.2615C57.0788 40.1536 55.4678 41.1277 53.6822 41.2963C50.305 41.5961 47.0055 38.7299 43.803 35.9573C40.0959 32.7352 36.6023 29.7004 33.2833 31.4051C30.5661 32.8101 30.6631 35.7325 31.226 37.9243C33.2639 45.8673 43.7642 56.1893 52.1489 56.2642C52.5176 56.2642 52.8282 56.564 52.8282 56.9199C52.8282 57.3133 52.5176 57.5943 52.1489 57.5943Z" fill="#1020E1" stroke="#1020E1" stroke-width="1.0625"/>
<path d="M45.0048 61.4024C44.966 61.4024 44.9077 61.4025 44.8689 61.3837C36.6395 59.7726 25.8675 53.1972 22.6262 39.9528C21.8887 36.9742 22.141 33.2088 23.3055 29.893C24.6059 26.1463 26.838 23.4487 29.6135 22.2685C36.3678 19.4023 41.8605 23.8796 46.2664 27.4764C49.0224 29.7244 51.4097 31.6726 53.3506 31.3542C54.3211 31.2043 55.2139 30.4737 56.0485 29.1062C56.2426 28.7877 56.6502 28.694 56.9801 28.8814C57.3101 29.0687 57.4071 29.4621 57.213 29.7806C56.1455 31.4853 54.9616 32.422 53.5641 32.6468C51.0022 33.0589 48.3819 30.9233 45.3735 28.4692C41.0259 24.9286 36.1155 20.9197 30.1375 23.4487C27.7114 24.479 25.7317 26.8956 24.5671 30.2864C23.4996 33.3774 23.2473 36.8805 23.9266 39.6343C27.0321 52.2793 37.28 58.555 45.1212 60.0911C45.49 60.166 45.7229 60.5032 45.6453 60.8592C45.6065 61.1964 45.3153 61.4024 45.0048 61.4024Z" fill="#1020E1" stroke="#1020E1" stroke-width="1.0625"/>
<path d="M26.6424 58.7369C26.4677 58.7369 26.293 58.6619 26.1571 58.5308C20.6644 53.0794 17.229 47.628 15.6375 41.8581C13.9295 35.6199 13.9683 29.7938 15.7733 24.9794C17.7531 19.6966 21.7707 16.0061 27.3799 14.3201C36.8127 11.4914 42.8683 15.4254 47.2741 18.329C50.4184 20.371 52.1264 21.4013 53.6791 20.2398C53.9702 20.015 54.3972 20.0712 54.6301 20.371C54.8631 20.652 54.8048 21.0641 54.4943 21.2889C52.0876 23.0686 49.5062 21.3826 46.4978 19.4156C42.3054 16.6805 36.5798 12.9338 27.7681 15.5752C15.5016 19.2657 14.2594 31.8732 16.9185 41.5397C18.4324 47.1035 21.7707 52.3675 27.0888 57.6503C27.3411 57.9126 27.3411 58.3247 27.0694 58.5683C26.9917 58.6807 26.8171 58.7369 26.6424 58.7369Z" fill="#1020E1" stroke="#1020E1" stroke-width="1.0625"/>
<path d="M11.071 38.9728C10.7798 38.9728 10.4887 38.7854 10.411 38.4857C9.0136 33.4464 8.64483 22.6748 13.6135 15.2376C16.4861 10.9289 20.7366 8.28754 26.21 7.40707C33.2748 6.28307 38.8452 9.37407 43.3093 11.8656C45.813 13.2519 47.9674 14.4508 49.8113 14.6194C50.1801 14.6569 50.4518 14.9753 50.4324 15.3313C50.3936 15.6872 50.0636 15.9495 49.6948 15.9307C47.5598 15.7247 45.2696 14.4695 42.6494 13.0083C38.36 10.6292 33.0225 7.6506 26.4429 8.7184C21.3383 9.54267 17.4177 11.978 14.7587 15.9682C9.86759 23.3117 10.6051 34.1021 11.7309 38.1672C11.8279 38.5232 11.6144 38.8791 11.2456 38.9728C11.1874 38.9728 11.1292 38.9728 11.071 38.9728Z" fill="#1020E1" stroke="#1020E1" stroke-width="1.0625"/>
</svg>
