<svg width="70" height="70" viewBox="0 0 70 70" fill="none" xmlns="http://www.w3.org/2000/svg">
<g clip-path="url(#clip0_7239_36796)">
<path d="M22.216 16.1159L24.7691 15.6749C27.2251 15.2507 29.7362 16.0229 31.5295 17.7538C32.9869 19.1606 34.9335 19.9467 36.9592 19.9467H37.2497C40.4929 19.9467 43.456 21.7842 44.8976 24.6893L47.3195 29.5697C47.7183 30.3733 48.5381 30.8817 49.4352 30.8817C51.3516 30.8817 52.4702 33.0436 51.3633 34.6079L48.4378 38.7421C47.7475 39.7177 47.4308 40.909 47.5456 42.0986L47.7443 44.1576C47.8844 45.6098 47.2423 47.0271 46.0581 47.8793L45.7025 48.1352C44.8552 48.7451 44.3529 49.7253 44.3529 50.7693C44.3529 51.5443 44.0756 52.2938 43.571 52.8821L39.2918 57.8711C38.6772 58.5876 37.7803 59 36.8362 59C35.5435 59 34.3749 58.2305 33.8642 57.043L31.6004 51.7793C31.0636 50.5312 30.7868 49.1869 30.7868 47.8283V45.711C30.7868 44.513 30.5715 43.3248 30.1512 42.2029L29.3277 40.0045C28.2107 37.0229 25.3609 35.0473 22.177 35.0473C20.1609 35.0473 18.2266 34.25 16.7961 32.8293L14.9942 31.0398C13.7178 29.7721 13 28.0475 13 26.2485C13 24.8584 13.429 23.5022 14.2285 22.3649L15.7373 20.2188C17.2659 18.0445 19.597 16.5682 22.216 16.1159Z" stroke="#1020E1" stroke-width="2"/>
<path d="M49.4779 52.0526V49.8861C49.4779 49.3954 49.7092 48.9334 50.102 48.6394C51.3156 47.7311 52.9797 48.9159 52.5185 50.3599L51.8593 52.4237C51.6978 52.9291 51.2281 53.2722 50.6975 53.2722C50.024 53.2722 49.4779 52.7262 49.4779 52.0526Z" stroke="#1020E1" stroke-width="2"/>
<path d="M58.3741 19.052C58.6067 19.052 58.8296 18.9598 58.9938 18.7957L64.3364 13.4448L68.4769 17.5915C68.7272 17.8429 69.1051 17.9198 69.4306 17.7819C69.7584 17.647 69.9721 17.3278 69.9721 16.9738V0.8944C69.9721 0.411002 69.5807 0.019165 69.0966 0.019165H53.0408C52.6867 0.019165 52.368 0.232177 52.2324 0.559312C52.0975 0.885837 52.172 1.26182 52.4211 1.51206L56.5916 5.68855L51.2472 11.0413C50.9059 11.3824 50.9059 11.936 51.2472 12.2766L57.7559 18.7944C57.9196 18.9598 58.143 19.052 58.375 19.052H58.3741ZM58.4468 6.30691C58.788 5.96573 58.788 5.41215 58.4468 5.07159L55.1499 1.76962H68.2217V14.8595L64.9566 11.5893C64.7924 11.4245 64.5695 11.3323 64.337 11.3323C64.1043 11.3323 63.8815 11.4245 63.7173 11.5887L58.3746 16.9395L53.1029 11.6595L58.4468 6.30691Z" fill="#ED1C24"/>
<path d="M0.000626015 0.87611V16.9274C0.000626015 17.2814 0.213698 17.6 0.540926 17.7355C0.868169 17.8685 1.24424 17.7959 1.49395 17.5469L5.67162 13.3776L11.0259 18.7205C11.1956 18.8908 11.4196 18.9762 11.6431 18.9762C11.8671 18.9762 12.0912 18.8908 12.2609 18.7205L18.7806 12.2136C18.9455 12.0494 19.0376 11.8266 19.0376 11.5941C19.0376 11.3615 18.9455 11.1387 18.7812 10.9746L13.4289 5.63342L17.5761 1.49411C17.8276 1.24387 17.9027 0.866688 17.7666 0.540756C17.6322 0.213606 17.3129 0 16.9588 0H0.874875C0.39134 0 0 0.391228 0 0.875235L0.000626015 0.87611ZM1.75093 1.75073H14.8435L11.5735 5.0149C11.4087 5.17908 11.3165 5.40186 11.3165 5.63439C11.3165 5.86693 11.4087 6.08971 11.5729 6.25388L16.9253 11.595L11.6437 16.8653L6.2895 11.5224C6.11917 11.3521 5.89573 11.2666 5.67167 11.2666C5.44761 11.2666 5.22355 11.3521 5.05383 11.5224L1.75092 14.8183L1.75093 1.75073Z" fill="#ED1C24"/>
<path d="M18.7541 57.742L12.2453 51.2241C12.0811 51.0593 11.8583 50.9672 11.6257 50.9672C11.3931 50.9672 11.1702 51.0593 11.006 51.2235L5.66334 56.5737L1.52286 52.4277C1.27254 52.1762 0.894646 52.1006 0.569231 52.2373C0.241988 52.3722 0.0283203 52.692 0.0283203 53.0454V69.1248C0.0283203 69.6082 0.41966 70 0.903804 70H16.9596C17.3137 70 17.6324 69.787 17.768 69.4599C17.9029 69.1333 17.8284 68.7573 17.5793 68.5071L13.4088 64.3306L18.7532 58.9779C19.0945 58.6373 19.0945 58.0837 18.7532 57.7426L18.7541 57.742ZM11.5531 63.7123C11.2118 64.0535 11.2118 64.6071 11.5531 64.9476L14.8499 68.2496H1.7788V55.1608L5.04389 58.4298C5.37235 58.7594 5.95477 58.7588 6.28323 58.4304L11.6259 53.0796L16.8976 58.3596L11.5531 63.7123Z" fill="#ED1C24"/>
<path d="M69.4597 52.264C69.1325 52.1309 68.7564 52.2036 68.5067 52.4526L64.329 56.6219L58.9748 51.279C58.6347 50.9391 58.0792 50.9391 57.7391 51.279L51.2194 57.7859C51.0546 57.9501 50.9624 58.1729 50.9624 58.4054C50.9624 58.638 51.0546 58.8607 51.2188 59.0249L56.5712 64.3661L52.4234 68.5054C52.1718 68.7556 52.0967 69.1328 52.2329 69.4587C52.3672 69.7859 52.6871 69.9995 53.0406 69.9995H69.1245C69.6081 69.9995 70 69.6083 70 69.1242V53.073C70 52.719 69.7876 52.4004 69.4597 52.2649V52.264ZM68.2497 68.2497H55.156L58.4272 64.9855C58.5921 64.8213 58.6843 64.5985 58.6843 64.366C58.6843 64.1335 58.5921 63.9107 58.4278 63.7465L53.0755 58.4054L58.357 53.1351L63.7113 58.478C64.0513 58.818 64.6069 58.818 64.9469 58.478L68.2499 55.1821L68.2497 68.2497Z" fill="#ED1C24"/>
</g>
<defs>
<clipPath id="clip0_7239_36796">
<rect width="70" height="70" fill="white"/>
</clipPath>
</defs>
</svg>
