<svg width="70" height="70" viewBox="0 0 70 70" fill="none" xmlns="http://www.w3.org/2000/svg">
<path d="M35.3086 69L35.3361 69" stroke="#ED1C24" stroke-width="2" stroke-linecap="round" stroke-linejoin="round"/>
<path d="M26.0239 58.5915C28.7403 56.6617 31.9898 55.6249 35.3219 55.6249C38.654 55.6249 41.9036 56.6617 44.6199 58.5915" stroke="#ED1C24" stroke-width="2" stroke-linecap="round" stroke-linejoin="round"/>
<path d="M16.5786 49.0666C21.8673 44.6615 28.5325 42.2493 35.4155 42.2493C42.2984 42.2493 48.9636 44.6615 54.2523 49.0666" stroke="#ED1C24" stroke-width="2" stroke-linecap="round" stroke-linejoin="round"/>
<path d="M7 39.5677C14.8195 32.6751 24.8851 28.8721 35.3088 28.8721C45.7324 28.8721 55.798 32.6751 63.6175 39.5677" stroke="#ED1C24" stroke-width="2" stroke-linecap="round" stroke-linejoin="round"/>
<circle cx="49.5" cy="38.5" r="3.5" transform="rotate(-90 49.5 38.5)" stroke="#1020E1" stroke-width="2"/>
<circle cx="56.7555" cy="11.1012" r="4.1593" transform="rotate(-90 56.7555 11.1012)" stroke="#1020E1" stroke-width="2"/>
<circle cx="9.86628" cy="58.8663" r="1.86628" transform="rotate(-90 9.86628 58.8663)" stroke="#1020E1" stroke-width="2"/>
<circle cx="56.8663" cy="55.8663" r="1.86628" transform="rotate(-90 56.8663 55.8663)" stroke="#1020E1" stroke-width="2"/>
<circle cx="61.8663" cy="46.8663" r="1.86628" transform="rotate(-90 61.8663 46.8663)" stroke="#1020E1" stroke-width="2"/>
<circle cx="34.2647" cy="7.2221" r="1.86628" transform="rotate(-90 34.2647 7.2221)" stroke="#1020E1" stroke-width="2"/>
<circle cx="56.7554" cy="26.0058" r="1.86628" transform="rotate(-90 56.7554 26.0058)" stroke="#1020E1" stroke-width="2"/>
<circle cx="42.5705" cy="18.2605" r="5.87906" transform="rotate(-90 42.5705 18.2605)" stroke="#1020E1" stroke-width="2"/>
<circle cx="17.0672" cy="15.3941" r="11.0384" transform="rotate(-90 17.0672 15.3941)" stroke="#1020E1" stroke-width="2"/>
</svg>
