<svg width="32" height="32" viewBox="0 0 32 32" fill="none" xmlns="http://www.w3.org/2000/svg">
<path d="M20.6666 25.3333H18.6666V27.3333C18.6666 28.4399 19.56 29.3333 20.6666 29.3333C21.7733 29.3333 22.6666 28.4399 22.6666 27.3333C22.6666 26.2266 21.7733 25.3333 20.6666 25.3333Z" stroke="white" stroke-width="2" stroke-linecap="round" stroke-linejoin="round"/>
<path d="M12.6666 18.6667C13.7733 18.6667 14.6666 19.5601 14.6666 20.6667V27.3334C14.6666 28.4401 13.7733 29.3334 12.6666 29.3334C11.56 29.3334 10.6666 28.4401 10.6666 27.3334V20.6667C10.6666 19.5601 11.56 18.6667 12.6666 18.6667Z" stroke="white" stroke-width="2" stroke-linecap="round" stroke-linejoin="round"/>
<path d="M4.66663 18.6667H6.66663V20.6667C6.66663 21.7734 5.77329 22.6667 4.66663 22.6667C3.55996 22.6667 2.66663 21.7734 2.66663 20.6667C2.66663 19.5601 3.55996 18.6667 4.66663 18.6667Z" stroke="white" stroke-width="2" stroke-linecap="round" stroke-linejoin="round"/>
<path d="M18.6666 19.3333C18.6666 18.2266 19.56 17.3333 20.6666 17.3333H27.3333C28.44 17.3333 29.3333 18.2266 29.3333 19.3333C29.3333 20.4399 28.44 21.3333 27.3333 21.3333H20.6666C19.56 21.3333 18.6666 20.4399 18.6666 19.3333Z" stroke="white" stroke-width="2" stroke-linecap="round" stroke-linejoin="round"/>
<path d="M13.3333 12.6667C13.3333 11.5601 12.44 10.6667 11.3333 10.6667H4.66663C3.55996 10.6667 2.66663 11.5601 2.66663 12.6667C2.66663 13.7734 3.55996 14.6667 4.66663 14.6667H11.3333C12.44 14.6667 13.3333 13.7734 13.3333 12.6667Z" stroke="white" stroke-width="2" stroke-linecap="round" stroke-linejoin="round"/>
<path d="M27.3334 13.3333H25.3334V11.3333C25.3334 10.2266 26.2267 9.33325 27.3334 9.33325C28.44 9.33325 29.3334 10.2266 29.3334 11.3333C29.3334 12.4399 28.44 13.3333 27.3334 13.3333Z" stroke="white" stroke-width="2" stroke-linecap="round" stroke-linejoin="round"/>
<path d="M19.3334 13.3334C18.2267 13.3334 17.3334 12.4401 17.3334 11.3334V4.66675C17.3334 3.56008 18.2267 2.66675 19.3334 2.66675C20.44 2.66675 21.3334 3.56008 21.3334 4.66675V11.3334C21.3334 12.4401 20.44 13.3334 19.3334 13.3334Z" stroke="white" stroke-width="2" stroke-linecap="round" stroke-linejoin="round"/>
<path d="M11.3334 6.66675H13.3334V4.66675C13.3334 3.56008 12.44 2.66675 11.3334 2.66675C10.2267 2.66675 9.33337 3.56008 9.33337 4.66675C9.33337 5.77341 10.2267 6.66675 11.3334 6.66675Z" stroke="white" stroke-width="2" stroke-linecap="round" stroke-linejoin="round"/>
</svg>
