<svg width="16" height="16" viewBox="0 0 16 16" fill="none" xmlns="http://www.w3.org/2000/svg">
<g clip-path="url(#clip0_5098_9613)">
<path d="M8.00004 14.6666C11.6819 14.6666 14.6667 11.6819 14.6667 7.99998C14.6667 4.31808 11.6819 1.33331 8.00004 1.33331C4.31814 1.33331 1.33337 4.31808 1.33337 7.99998C1.33337 11.6819 4.31814 14.6666 8.00004 14.6666Z" stroke="currentColor" stroke-width="2" stroke-linecap="round" stroke-linejoin="round"/>
<path d="M1.33337 8H14.6667" stroke="currentColor" stroke-width="2" stroke-linecap="round" stroke-linejoin="round"/>
<path d="M8.00004 1.33331C9.66756 3.15888 10.6152 5.528 10.6667 7.99998C10.6152 10.472 9.66756 12.8411 8.00004 14.6666C6.33252 12.8411 5.38487 10.472 5.33337 7.99998C5.38487 5.528 6.33252 3.15888 8.00004 1.33331V1.33331Z" stroke="currentColor" stroke-width="2" stroke-linecap="round" stroke-linejoin="round"/>
</g>
<defs>
<clipPath id="clip0_5098_9613">
<rect width="16" height="16" fill="currentColor"/>
</clipPath>
</defs>
</svg>
