<svg width="64" height="64" viewBox="0 0 64 64" fill="none" xmlns="http://www.w3.org/2000/svg">
<path d="M57.1733 29.4661L32.6667 53.9728C29.6644 56.975 25.5925 58.6617 21.3467 58.6617C17.1008 58.6617 13.0289 56.975 10.0267 53.9728C7.02442 50.9705 5.33777 46.8986 5.33777 42.6528C5.33777 38.407 7.02442 34.335 10.0267 31.3328L34.5333 6.82613C36.5348 4.82463 39.2494 3.7002 42.08 3.7002C44.9105 3.7002 47.6252 4.82463 49.6267 6.82613C51.6282 8.82763 52.7526 11.5422 52.7526 14.3728C52.7526 17.2033 51.6282 19.918 49.6267 21.9195L25.0933 46.4261C24.0926 47.4269 22.7353 47.9891 21.32 47.9891C19.9047 47.9891 18.5474 47.4269 17.5467 46.4261C16.5459 45.4254 15.9837 44.0681 15.9837 42.6528C15.9837 41.2375 16.5459 39.8802 17.5467 38.8795L40.1867 16.2661" stroke="currentColor" stroke-width="2" stroke-linecap="round" stroke-linejoin="round"/>
</svg>
