<svg xmlns="http://www.w3.org/2000/svg" width="24" height="24" fill="none" viewBox="0 0 24 24">
  <path fill="#000" d="M5.822 22.57a1 1 0 1 1-1.644-1.14l1.644 1.14ZM20.607 8.38l.528.85-.528-.85Zm-3.23 2.008-.528-.849.528.85Zm-1.85 2.819.852.522-.853-.522Zm-1.272 6.325.539-.843-.539.843Zm-10.06-8.415.257.966-.258-.966Zm-.281 1.808-.538.843.538-.843Zm4.972-3.347-.853-.522.853.522Zm-.595.444.258.966-.258-.966Zm2.23-3.303.995.102-.995-.102Zm-.142.421-.852-.522.852.522Zm.567-4.577.995.102-.995-.102Zm.995.102-.425 4.156-1.99-.203.425-4.157 1.99.204Zm-.709 4.997L9.74 10.101 8.033 9.056l1.494-2.438 1.705 1.044Zm3.441 5.022 1.526-2.49 1.706 1.044-1.526 2.49-1.706-1.044ZM16.85 9.54l3.23-2.008 1.056 1.699-3.23 2.008L16.85 9.54Zm-8.3 1.45-4.097 1.094-.516-1.933 4.097-1.094.516 1.932ZM12.967.948l8.139 4.866-1.027 1.716-8.138-4.866L12.967.948Zm1.827 17.74-.408-4.79 1.993-.17.407 4.79-1.992.17ZM4.452 12.083l10.342 6.606-1.077 1.685-10.341-6.606 1.076-1.685Zm5.87 3.986-4.5 6.5-1.644-1.138 4.5-6.5 1.644 1.138Zm9.757-8.538 1.027-1.716c1.285.768 1.3 2.624.029 3.415l-1.056-1.7Zm-3.88 2.662a2 2 0 0 1 .65-.654l1.056 1.699-1.706-1.045Zm.18 3.536-1.993.17a2 2 0 0 1 .287-1.215l1.706 1.045Zm.407 4.79c.14 1.651-1.673 2.747-3.07 1.855l1.078-1.685 1.992-.17ZM4.452 12.083l-1.076 1.685c-1.466-.936-1.12-3.169.56-3.618l.516 1.933ZM9.74 10.1a2 2 0 0 1-1.19.887l-.516-1.932L9.74 10.1Zm1.777-3.28a2 2 0 0 1-.284.841L9.527 6.618l1.99.203ZM9.951 2.46A2 2 0 0 1 12.967.948l-1.026 1.717-1.99-.204Z"/>
</svg>
