<svg xmlns="http://www.w3.org/2000/svg" width="auto" height="auto" viewBox="0 0 60 61" fill="none">
<path d="M42.3068 44.2464V41.1695C42.3068 39.5374 41.6584 37.9721 40.5044 36.818C39.3503 35.664 37.785 35.0156 36.1529 35.0156H23.8453C22.2132 35.0156 20.6479 35.664 19.4938 36.818C18.3398 37.9721 17.6914 39.5374 17.6914 41.1695V44.2464" stroke="currentColor" stroke-width="2.30769" stroke-linecap="round" stroke-linejoin="round"/>
<path d="M30.0015 28.8614C33.4002 28.8614 36.1553 26.1062 36.1553 22.7076C36.1553 19.3089 33.4002 16.5537 30.0015 16.5537C26.6028 16.5537 23.8477 19.3089 23.8477 22.7076C23.8477 26.1062 26.6028 28.8614 30.0015 28.8614Z" stroke="currentColor" stroke-width="2.30769" stroke-linecap="round" stroke-linejoin="round"/>
<rect x="1.73077" y="2.13116" width="56.5385" height="56.5385" rx="28.2692" stroke="currentColor" stroke-width="3.46154"/>
</svg>
