<svg width="25" height="25" viewBox="0 0 25 25" fill="none" xmlns="http://www.w3.org/2000/svg">
<path d="M4.5 2C3.12479 2 2 3.12479 2 4.5V20.5C2 21.8752 3.12479 23 4.5 23H20.5C21.8752 23 23 21.8752 23 20.5V4.5C23 3.12479 21.8752 2 20.5 2H4.5ZM4.5 3H20.5C21.3358 3 22 3.66421 22 4.5V20.5C22 21.3358 21.3358 22 20.5 22H4.5C3.66421 22 3 21.3358 3 20.5V4.5C3 3.66421 3.66421 3 4.5 3ZM13.0215 5C12.889 5.00001 12.762 5.05256 12.6683 5.14612C12.5746 5.23967 12.5218 5.36659 12.5215 5.49902C12.5215 5.49902 12.516 7.93663 12.5107 10.3799C12.5081 11.6015 12.5049 12.8244 12.5029 13.7451C12.501 14.6658 12.5 15.2484 12.5 15.2969C12.5 16.2045 11.6757 16.9463 10.7363 16.9463C9.80443 16.9463 9.06055 16.2014 9.06055 15.2695C9.06055 14.3376 9.80443 13.5938 10.7363 13.5938C10.7679 13.5938 10.8315 13.6041 10.9404 13.6172C11.0107 13.6256 11.0819 13.619 11.1494 13.5979C11.2169 13.5767 11.2792 13.5415 11.332 13.4945C11.3849 13.4476 11.4272 13.3899 11.4562 13.3254C11.4852 13.2608 11.5001 13.1909 11.5 13.1201V11.0195C11.5 10.8923 11.4515 10.7699 11.3644 10.6772C11.2773 10.5845 11.1582 10.5285 11.0312 10.5205C10.9533 10.5156 10.8553 10.5059 10.7363 10.5059C8.11157 10.5059 5.97266 12.6448 5.97266 15.2695C5.97266 17.8943 8.11157 20.0332 10.7363 20.0332C13.361 20.0332 15.5 17.8943 15.5 15.2695V10.7451C16.2273 11.3268 17.1338 11.6953 18.1348 11.6953C18.2713 11.6953 18.4012 11.6872 18.5254 11.6758C18.6495 11.6643 18.7649 11.6069 18.849 11.5148C18.933 11.4226 18.9795 11.3024 18.9795 11.1777V8.84277C18.9796 8.71637 18.9318 8.59462 18.8457 8.50204C18.7596 8.40945 18.6417 8.3529 18.5156 8.34375C16.9433 8.23095 15.6899 7.00611 15.5264 5.44824C15.5136 5.32531 15.4557 5.21147 15.3639 5.12869C15.2721 5.04592 15.1529 5.00007 15.0293 5H13.0215ZM13.5205 6H14.6611C15.0245 7.64935 16.3134 8.9072 17.9795 9.22266V10.6553C16.9101 10.601 15.9707 10.0675 15.418 9.22656C15.3588 9.13657 15.2722 9.06807 15.1711 9.03124C15.0699 8.99442 14.9595 8.99124 14.8564 9.02218C14.7532 9.05312 14.6628 9.11653 14.5986 9.20297C14.5344 9.28941 14.4998 9.39427 14.5 9.50195V15.2695C14.5 17.3538 12.8206 19.0332 10.7363 19.0332C8.65209 19.0332 6.97266 17.3538 6.97266 15.2695C6.97266 13.2693 8.53304 11.6816 10.5 11.5537V12.6416C9.14321 12.7679 8.06055 13.8811 8.06055 15.2695C8.06055 16.7416 9.26422 17.9463 10.7363 17.9463C12.2009 17.9463 13.5 16.7932 13.5 15.2969C13.5 15.3213 13.5009 14.6678 13.5029 13.7471C13.5049 12.8264 13.5081 11.6035 13.5107 10.3818C13.5154 8.18839 13.5196 6.4246 13.5205 6Z" fill="black" stroke="black" stroke-width="0.3" stroke-linejoin="round"/>
</svg>
