<svg width="25" height="25" viewBox="0 0 25 25" fill="none" xmlns="http://www.w3.org/2000/svg">
<path d="M9.45312 3.5C9.45312 3.5 6.26953 3.71875 4.1875 5.39062C4.17773 5.39453 4.16602 5.40039 4.15625 5.40625C3.79492 5.74023 3.52344 6.25781 3.1875 7C2.85156 7.74219 2.49609 8.69727 2.17188 9.76562C1.52539 11.9043 1 14.5293 1 17C0.998047 17.0879 1.01953 17.1738 1.0625 17.25C1.79297 18.5332 3.13672 19.3086 4.39063 19.7969C5.64453 20.2852 6.80273 20.4805 7.39062 20.5C7.55664 20.5059 7.71484 20.4297 7.8125 20.2969L9.03125 18.6094C10.0137 18.8418 11.166 19 12.5 19C13.834 19 14.9863 18.8418 15.9688 18.6094L17.1875 20.2969C17.2852 20.4297 17.4434 20.5059 17.6094 20.5C18.1973 20.4805 19.3555 20.2852 20.6094 19.7969C21.8633 19.3086 23.207 18.5332 23.9375 17.25C23.9805 17.1738 24.002 17.0879 24 17C24 14.5293 23.4746 11.9043 22.8281 9.76562C22.5039 8.69727 22.1484 7.74219 21.8125 7C21.4766 6.25781 21.2051 5.74023 20.8438 5.40625C20.834 5.40039 20.8223 5.39453 20.8125 5.39062C18.7305 3.71875 15.5469 3.5 15.5469 3.5C15.5098 3.49609 15.4746 3.49609 15.4375 3.5C15.2637 3.52344 15.1172 3.63672 15.0469 3.79687C15.0469 3.79687 14.877 4.16992 14.7656 4.70312C13.791 4.54687 12.9707 4.5 12.5 4.5C12.0293 4.5 11.209 4.54687 10.2344 4.70312C10.123 4.16992 9.95312 3.79687 9.95312 3.79687C9.86719 3.60156 9.66602 3.48242 9.45312 3.5ZM9.14062 4.57812C9.17773 4.67969 9.20312 4.77539 9.23438 4.89062C8.10742 5.15234 6.87305 5.58008 5.71875 6.29687C5.53711 6.37305 5.41797 6.54883 5.41211 6.74609C5.4082 6.94141 5.51953 7.12305 5.69531 7.20898C5.87305 7.29297 6.08398 7.26758 6.23438 7.14062C8.55078 5.70508 11.498 5.5 12.5 5.5C13.502 5.5 16.4492 5.70508 18.7656 7.14062C18.916 7.26758 19.127 7.29297 19.3047 7.20898C19.4805 7.12305 19.5918 6.94141 19.5879 6.74609C19.582 6.54883 19.4629 6.37305 19.2812 6.29687C18.127 5.58008 16.8926 5.15234 15.7656 4.89062C15.7969 4.77539 15.8223 4.67969 15.8594 4.57812C16.4297 4.64844 18.6465 4.94727 20.1562 6.14062C20.2539 6.23047 20.5938 6.73047 20.9062 7.42187C21.2188 8.11328 21.5469 9.01367 21.8594 10.0469C22.4688 12.0625 22.9609 14.5488 22.9844 16.8281C22.416 17.748 21.3496 18.4316 20.25 18.8594C19.25 19.248 18.3164 19.4219 17.8281 19.4688L16.9844 18.3281C17.4141 18.1895 17.8008 18.0391 18.1406 17.8906C19.4023 17.3359 20.0781 16.75 20.0781 16.75C20.2852 16.5645 20.3027 16.2461 20.1172 16.0391C19.9316 15.832 19.6133 15.8145 19.4062 16C19.4062 16 18.8828 16.4785 17.7344 16.9844C17.3125 17.1699 16.8008 17.3535 16.2188 17.5156C16.084 17.5 15.9492 17.5391 15.8438 17.625C14.9121 17.8516 13.8047 18 12.5 18C11.1855 18 10.0762 17.8379 9.14062 17.6094C9.03516 17.5391 8.90625 17.5098 8.78125 17.5312C8.19727 17.3691 7.68945 17.1699 7.26562 16.9844C6.11719 16.4785 5.59375 16 5.59375 16C5.48047 15.8945 5.32422 15.8496 5.17188 15.875C4.97852 15.9043 4.81836 16.043 4.76563 16.2324C4.71094 16.4199 4.77344 16.623 4.92188 16.75C4.92188 16.75 5.59766 17.3359 6.85938 17.8906C7.19922 18.0391 7.58594 18.1895 8.01562 18.3281L7.17188 19.4688C6.68359 19.4219 5.75 19.248 4.75 18.8594C3.65039 18.4316 2.58398 17.748 2.01563 16.8281C2.03906 14.5488 2.53125 12.0625 3.14063 10.0469C3.45313 9.01367 3.78125 8.11328 4.09375 7.42187C4.40625 6.73047 4.74609 6.23047 4.84375 6.14062C6.35352 4.94727 8.57031 4.64844 9.14062 4.57812ZM9.25 10.5C7.97461 10.5 7 11.6582 7 13C7 14.3418 7.97461 15.5 9.25 15.5C10.5254 15.5 11.5 14.3418 11.5 13C11.5 11.6582 10.5254 10.5 9.25 10.5ZM15.75 10.5C14.4746 10.5 13.5 11.6582 13.5 13C13.5 14.3418 14.4746 15.5 15.75 15.5C17.0254 15.5 18 14.3418 18 13C18 11.6582 17.0254 10.5 15.75 10.5ZM9.25 11.5C9.9082 11.5 10.5 12.1328 10.5 13C10.5 13.8672 9.9082 14.5 9.25 14.5C8.5918 14.5 8 13.8672 8 13C8 12.1328 8.5918 11.5 9.25 11.5ZM15.75 11.5C16.4082 11.5 17 12.1328 17 13C17 13.8672 16.4082 14.5 15.75 14.5C15.0918 14.5 14.5 13.8672 14.5 13C14.5 12.1328 15.0918 11.5 15.75 11.5Z" fill="black" stroke="black" stroke-width="0.3" stroke-linejoin="round"/>
</svg>
