<svg width="16" height="16" viewBox="0 0 16 16" fill="none" xmlns="http://www.w3.org/2000/svg">
<g clip-path="url(#clip0_12143_17557)">
<path d="M7.33594 2.66602H2.66927C2.31565 2.66602 1.97651 2.80649 1.72646 3.05654C1.47641 3.30659 1.33594 3.64573 1.33594 3.99935V13.3327C1.33594 13.6863 1.47641 14.0254 1.72646 14.2755C1.97651 14.5255 2.31565 14.666 2.66927 14.666H12.0026C12.3562 14.666 12.6954 14.5255 12.9454 14.2755C13.1955 14.0254 13.3359 13.6863 13.3359 13.3327V8.66602" stroke="currentColor" stroke-width="2" stroke-linecap="round" stroke-linejoin="round"/>
<path d="M12.3359 1.66617C12.6012 1.40095 12.9609 1.25195 13.3359 1.25195C13.711 1.25195 14.0707 1.40095 14.3359 1.66617C14.6012 1.93138 14.7502 2.29109 14.7502 2.66617C14.7502 3.04124 14.6012 3.40095 14.3359 3.66617L8.0026 9.9995L5.33594 10.6662L6.0026 7.9995L12.3359 1.66617Z" stroke="currentColor" stroke-width="2" stroke-linecap="round" stroke-linejoin="round"/>
</g>
<defs>
<clipPath id="clip0_12143_17557">
<rect width="16" height="16" fill="currentColor"/>
</clipPath>
</defs>
</svg>
