<svg width="25" height="25" viewBox="0 0 25 25" fill="none" xmlns="http://www.w3.org/2000/svg">
<circle cx="9" cy="7" r="5" stroke="currentColor" stroke-width="1.5"/>
<path d="M18 6C18.5253 6 19.0454 6.10346 19.5307 6.30448C20.016 6.5055 20.457 6.80014 20.8284 7.17157C21.1999 7.54301 21.4945 7.98396 21.6955 8.46927C21.8965 8.95457 22 9.47471 22 10C22 10.5253 21.8965 11.0454 21.6955 11.5307C21.4945 12.016 21.1999 12.457 20.8284 12.8284C20.457 13.1999 20.016 13.4945 19.5307 13.6955C19.0454 13.8965 18.5253 14 18 14" stroke="currentColor" stroke-width="1.5"/>
<path d="M17 20C17 18.9494 16.7931 17.9091 16.391 16.9385C15.989 15.9679 15.3997 15.086 14.6569 14.3431C13.914 13.6003 13.0321 13.011 12.0615 12.609C11.0909 12.2069 10.0506 12 9 12C7.94942 12 6.90914 12.2069 5.93853 12.609C4.96793 13.011 4.08601 13.6003 3.34315 14.3431C2.60028 15.086 2.011 15.9679 1.60896 16.9385C1.20693 17.9091 1 18.9494 1 20" stroke="currentColor" stroke-width="1.5"/>
<path d="M24 20.5C24 19.6464 23.8319 18.8012 23.5052 18.0126C23.1786 17.2239 22.6998 16.5074 22.0962 15.9038C21.4926 15.3002 20.7761 14.8214 19.9874 14.4948C19.1988 14.1681 18.3536 14 17.5 14" stroke="currentColor" stroke-width="1.5"/>
</svg>
