<svg width="27" height="25" viewBox="0 0 27 25" fill="none" xmlns="http://www.w3.org/2000/svg">
<path d="M21.3647 4H25.7102C25.8206 4 25.9102 4.08954 25.9102 4.2V16.4667C25.9102 16.5771 25.8206 16.6667 25.7102 16.6667H22.4738C22.3633 16.6667 22.2738 16.7562 22.2738 16.8667V22.5188C22.2738 22.6967 22.0588 22.7861 21.9327 22.6605L15.9102 16.6667" stroke="currentColor" stroke-width="1.5"/>
<path d="M1.11016 14.6667H4.31016C4.42061 14.6667 4.51016 14.7562 4.51016 14.8667V20.5154C4.51016 20.6938 4.72611 20.7829 4.85195 20.6564L10.7515 14.7256C10.7891 14.6879 10.8401 14.6667 10.8933 14.6667H18.7102C18.8206 14.6667 18.9102 14.5771 18.9102 14.4667V2.2C18.9102 2.08954 18.8206 2 18.7102 2H1.11016C0.999699 2 0.910156 2.08954 0.910156 2.2V14.4667C0.910156 14.5771 0.999699 14.6667 1.11016 14.6667Z" stroke="currentColor" stroke-width="1.5"/>
</svg>
