<svg width="64" height="64" viewBox="0 0 64 64" fill="none" xmlns="http://www.w3.org/2000/svg">
<path d="M56 26.667C56 45.3337 32 61.3337 32 61.3337C32 61.3337 8 45.3337 8 26.667C8 20.3018 10.5286 14.1973 15.0294 9.69643C19.5303 5.19556 25.6348 2.66699 32 2.66699C38.3652 2.66699 44.4697 5.19556 48.9706 9.69643C53.4714 14.1973 56 20.3018 56 26.667Z" fill="#1020E1" stroke="white" stroke-width="2" stroke-linecap="round" stroke-linejoin="round"/>
<path d="M32 34.667C36.4183 34.667 40 31.0853 40 26.667C40 22.2487 36.4183 18.667 32 18.667C27.5817 18.667 24 22.2487 24 26.667C24 31.0853 27.5817 34.667 32 34.667Z" fill="#1020E1" stroke="white" stroke-width="2" stroke-linecap="round" stroke-linejoin="round"/>
</svg>
