<svg width="64" height="64" viewBox="0 0 64 64" fill="none" xmlns="http://www.w3.org/2000/svg">
<path d="M41.3333 50.667H37.3333V54.667C37.3333 56.8803 39.12 58.667 41.3333 58.667C43.5466 58.667 45.3333 56.8803 45.3333 54.667C45.3333 52.4537 43.5466 50.667 41.3333 50.667Z" stroke="currentColor" stroke-width="2" stroke-linecap="round" stroke-linejoin="round"/>
<path d="M25.3333 37.333C27.5466 37.333 29.3333 39.1197 29.3333 41.333V54.6663C29.3333 56.8797 27.5466 58.6663 25.3333 58.6663C23.12 58.6663 21.3333 56.8797 21.3333 54.6663V41.333C21.3333 39.1197 23.12 37.333 25.3333 37.333Z" stroke="currentColor" stroke-width="2" stroke-linecap="round" stroke-linejoin="round"/>
<path d="M9.33331 37.333H13.3333V41.333C13.3333 43.5463 11.5466 45.333 9.33331 45.333C7.11998 45.333 5.33331 43.5463 5.33331 41.333C5.33331 39.1197 7.11998 37.333 9.33331 37.333Z" stroke="currentColor" stroke-width="2" stroke-linecap="round" stroke-linejoin="round"/>
<path d="M37.3333 38.667C37.3333 36.4537 39.12 34.667 41.3333 34.667H54.6666C56.88 34.667 58.6666 36.4537 58.6666 38.667C58.6666 40.8803 56.88 42.667 54.6666 42.667H41.3333C39.12 42.667 37.3333 40.8803 37.3333 38.667Z" stroke="currentColor" stroke-width="2" stroke-linecap="round" stroke-linejoin="round"/>
<path d="M26.6666 25.333C26.6666 23.1197 24.88 21.333 22.6666 21.333H9.33331C7.11998 21.333 5.33331 23.1197 5.33331 25.333C5.33331 27.5463 7.11998 29.333 9.33331 29.333H22.6666C24.88 29.333 26.6666 27.5463 26.6666 25.333Z" stroke="currentColor" stroke-width="2" stroke-linecap="round" stroke-linejoin="round"/>
<path d="M54.6667 26.667H50.6667V22.667C50.6667 20.4537 52.4534 18.667 54.6667 18.667C56.88 18.667 58.6667 20.4537 58.6667 22.667C58.6667 24.8803 56.88 26.667 54.6667 26.667Z" stroke="currentColor" stroke-width="2" stroke-linecap="round" stroke-linejoin="round"/>
<path d="M38.6667 26.6663C36.4534 26.6663 34.6667 24.8797 34.6667 22.6663V9.33301C34.6667 7.11967 36.4534 5.33301 38.6667 5.33301C40.88 5.33301 42.6667 7.11967 42.6667 9.33301V22.6663C42.6667 24.8797 40.88 26.6663 38.6667 26.6663Z" stroke="currentColor" stroke-width="2" stroke-linecap="round" stroke-linejoin="round"/>
<path d="M22.6667 13.333H26.6667V9.33301C26.6667 7.11967 24.88 5.33301 22.6667 5.33301C20.4534 5.33301 18.6667 7.11967 18.6667 9.33301C18.6667 11.5463 20.4534 13.333 22.6667 13.333Z" stroke="currentColor" stroke-width="2" stroke-linecap="round" stroke-linejoin="round"/>
</svg>
