<svg width="20" height="20" viewBox="0 0 20 20" fill="none" xmlns="http://www.w3.org/2000/svg">
<path d="M11.6654 9.1665H6.66536M8.33203 12.4998H6.66536M13.332 5.83317H6.66536M16.6654 5.6665V14.3332C16.6654 15.7333 16.6654 16.4334 16.3929 16.9681C16.1532 17.4386 15.7707 17.821 15.3003 18.0607C14.7656 18.3332 14.0655 18.3332 12.6654 18.3332H7.33203C5.9319 18.3332 5.23183 18.3332 4.69705 18.0607C4.22665 17.821 3.8442 17.4386 3.60451 16.9681C3.33203 16.4334 3.33203 15.7333 3.33203 14.3332V5.6665C3.33203 4.26637 3.33203 3.56631 3.60451 3.03153C3.8442 2.56112 4.22665 2.17867 4.69705 1.93899C5.23183 1.6665 5.9319 1.6665 7.33203 1.6665H12.6654C14.0655 1.6665 14.7656 1.6665 15.3003 1.93899C15.7707 2.17867 16.1532 2.56112 16.3929 3.03153C16.6654 3.56631 16.6654 4.26637 16.6654 5.6665Z" stroke="currentColor" stroke-width="2" stroke-linecap="round" stroke-linejoin="round"/>
</svg>
