<?xml version="1.0" standalone="no"?>
<!DOCTYPE svg PUBLIC "-//W3C//DTD SVG 20010904//EN"
 "http://www.w3.org/TR/2001/REC-SVG-20010904/DTD/svg10.dtd">
<svg version="1.0" xmlns="http://www.w3.org/2000/svg"
 width="896.000000pt" height="896.000000pt" viewBox="0 0 896.000000 896.000000"
 preserveAspectRatio="xMidYMid meet">
<metadata>
Created by potrace 1.14, written by Peter Selinger 2001-2017
</metadata>
<g transform="translate(0.000000,896.000000) scale(0.100000,-0.100000)"
fill="#000000" stroke="none">
<path d="M3519 8851 c-1 -3 -1 -8 -1 -11 0 -3 -24 -5 -54 -5 -30 0 -54 4 -54
9 0 11 -15 -2 -16 -15 -1 -5 -2 -11 -3 -14 0 -3 -10 -1 -21 5 -11 6 -20 7 -20
1 0 -5 -16 -8 -36 -6 -22 2 -37 -1 -40 -9 -5 -13 -32 -15 -51 -3 -6 4 -14 3
-17 -2 -4 -5 -18 -8 -32 -5 -16 3 -23 1 -19 -6 6 -10 -15 -13 -84 -13 -19 1
-40 -5 -47 -11 -6 -7 -32 -12 -57 -11 -31 1 -44 -2 -41 -10 3 -8 -10 -12 -38
-12 -75 -1 -89 -3 -84 -11 2 -4 152 -8 333 -8 224 1 332 -2 340 -10 7 -7 66
-11 163 -10 84 1 154 -2 156 -6 3 -4 11 -2 18 4 10 9 -3 28 -63 87 l-76 76
-77 1 c-43 0 -79 -2 -79 -5z"/>
<path d="M2864 8396 c-3 -7 -54 -11 -159 -10 -86 1 -152 -2 -149 -7 6 -10 -3
-11 -88 -12 -36 0 -58 -4 -58 -11 0 -8 -25 -11 -72 -10 -40 0 -82 -4 -93 -10
-12 -6 -131 -10 -303 -10 -184 -1 -285 -5 -290 -11 -4 -6 -41 -10 -84 -10 -43
1 -78 -3 -78 -8 0 -13 -27 -37 -41 -37 -9 0 -10 -3 -2 -11 7 -7 2 -19 -19 -40
-16 -16 -34 -29 -38 -29 -5 0 -7 -7 -4 -15 4 -8 1 -15 -6 -15 -6 0 -9 -4 -6
-9 3 -5 0 -11 -8 -14 -8 -3 -16 -16 -18 -29 -2 -13 -8 -22 -14 -21 -17 3 -37
-47 -21 -51 39 -12 59 -13 70 -2 6 6 28 11 47 11 19 0 41 4 48 9 6 4 12 5 12
0 0 -15 84 -10 98 6 12 13 13 13 6 0 -6 -12 -5 -13 7 -3 9 7 32 11 52 10 20
-2 37 1 37 5 0 5 5 6 10 3 15 -9 154 -10 168 -1 7 4 12 3 12 -3 0 -6 11 -6 29
-1 16 4 32 6 35 3 8 -8 106 -9 106 -1 0 4 6 5 13 3 22 -9 97 -12 97 -4 0 4 10
5 22 1 16 -4 19 -2 13 8 -6 10 -3 12 13 8 12 -4 22 -2 22 3 0 5 11 4 26 -1 18
-7 23 -7 18 1 -4 8 0 8 15 0 12 -7 21 -8 21 -2 0 6 11 6 30 1 20 -6 34 -5 43
3 17 17 34 20 90 18 27 -1 55 3 63 10 8 6 14 9 14 5 0 -3 11 -1 25 4 13 5 27
5 29 1 3 -5 23 -5 45 -1 21 4 46 3 54 -1 9 -6 23 -1 38 12 14 12 25 16 27 10
2 -6 8 -9 12 -6 16 10 110 12 110 3 0 -5 5 -6 11 -3 14 10 103 10 117 1 7 -4
12 -3 12 2 0 5 7 9 15 9 8 0 15 -4 15 -9 0 -5 5 -6 12 -2 16 10 68 11 68 1 0
-5 6 -5 13 0 18 11 50 4 65 -15 9 -12 12 -13 12 -2 0 10 3 11 11 3 6 -6 25 -7
49 -3 21 4 45 3 53 -2 9 -5 18 -4 22 2 4 6 13 7 23 2 9 -5 24 -8 32 -7 8 1 20
-2 25 -5 19 -13 55 -18 55 -8 0 7 4 7 13 0 7 -6 18 -7 25 -3 17 10 105 -4 110
-18 3 -8 9 -8 23 -1 10 6 19 7 19 3 0 -4 16 -8 35 -8 19 0 35 4 35 8 0 5 5 5
12 1 17 -11 89 -11 95 -1 3 4 11 3 18 -3 7 -6 15 -7 18 -3 3 5 23 7 44 5 21
-1 44 -3 51 -2 6 0 18 0 25 0 6 1 27 -1 45 -3 18 -2 36 1 38 5 3 5 12 4 19 -2
10 -8 15 -8 20 0 5 8 10 8 20 0 10 -8 15 -8 20 0 5 8 10 8 20 0 7 -6 15 -7 18
-3 5 9 54 8 95 -1 12 -3 22 0 22 5 0 6 6 6 18 0 10 -5 24 -6 32 -1 8 5 22 4
32 -1 12 -7 18 -6 18 1 0 6 5 8 10 5 6 -3 10 3 10 14 0 11 -5 23 -12 27 -7 5
-8 2 -3 -7 11 -20 -33 21 -141 128 -51 50 -91 93 -89 95 2 2 -129 4 -291 3
-162 0 -305 4 -317 9 -12 5 -60 11 -106 12 -46 1 -86 6 -90 11 -3 6 -76 10
-169 10 -97 0 -167 4 -170 10 -10 14 -203 13 -208 -1z"/>
<path d="M4557 7864 c-12 -6 -58 -11 -105 -9 -52 1 -88 -2 -95 -10 -8 -7 -92
-11 -277 -10 -178 0 -269 -3 -276 -10 -7 -6 -44 -11 -85 -10 -41 1 -83 -3 -94
-9 -11 -6 -37 -11 -57 -11 -20 -1 -42 -6 -50 -12 -7 -5 -29 -9 -48 -9 -19 1
-42 -3 -50 -10 -8 -7 -34 -12 -58 -11 -26 1 -47 -4 -52 -12 -5 -9 -17 -11 -33
-7 -16 4 -27 1 -30 -7 -3 -7 -6 -8 -6 -1 -1 11 -40 9 -71 -4 -24 -10 -434 -11
-446 -1 -17 14 -113 18 -118 5 -3 -8 -5 -8 -5 0 -1 7 -12 9 -27 6 -16 -3 -29
1 -34 8 -6 9 -29 14 -69 13 -39 0 -61 4 -61 11 0 7 -28 11 -82 10 -46 -1 -89
4 -96 9 -19 15 -520 17 -547 3 -11 -6 -45 -11 -75 -11 -30 -1 -62 -5 -70 -10
-8 -6 -34 -10 -58 -11 -24 0 -47 -5 -50 -11 -4 -6 -22 -10 -40 -9 -18 1 -38
-4 -43 -11 -7 -8 -27 -12 -50 -10 -26 2 -45 -2 -56 -13 -13 -12 -28 -15 -61
-10 -28 5 -51 2 -69 -7 -15 -8 -35 -12 -45 -10 -11 3 -20 -2 -23 -14 -4 -11
-11 -17 -16 -14 -5 4 -12 -1 -15 -9 -3 -9 -10 -13 -15 -10 -5 3 -6 -2 -3 -11
4 -9 -2 -23 -15 -34 -11 -10 -21 -24 -21 -30 0 -7 -9 -21 -20 -33 -11 -12 -20
-28 -20 -35 0 -7 -7 -13 -15 -13 -9 0 -12 -6 -8 -17 5 -12 3 -14 -7 -8 -8 5
-11 3 -8 -6 4 -11 33 -14 138 -14 80 0 137 4 144 10 6 6 36 10 66 10 30 -1 64
3 75 8 11 6 37 11 57 12 21 1 43 7 50 12 7 6 28 11 47 11 19 0 37 5 40 10 3 6
25 9 48 8 24 -1 44 2 47 9 2 6 31 11 70 12 37 1 72 5 79 11 17 13 430 12 439
-1 3 -5 42 -10 87 -10 49 0 82 -5 84 -12 3 -6 29 -10 68 -9 36 1 67 -3 71 -9
3 -6 39 -11 80 -11 40 -1 80 -6 88 -11 21 -14 569 -13 574 1 2 6 32 10 70 10
40 -1 67 3 70 10 2 6 22 11 43 10 21 -1 47 4 58 10 11 7 34 12 52 10 19 -1 34
3 37 11 4 8 21 12 51 10 28 -2 45 2 45 9 0 7 33 10 104 10 57 -1 104 2 103 5
-1 4 1 6 4 5 3 0 13 5 22 13 10 7 17 10 17 5 0 -10 252 -10 269 0 6 4 11 4 11
-1 0 -12 211 -6 236 7 12 7 49 10 83 8 36 -2 61 1 61 7 0 6 4 5 8 -2 6 -10 14
-9 35 2 15 7 27 11 27 8 0 -3 7 0 15 7 8 7 15 9 15 4 0 -7 72 -10 90 -3 3 1
10 0 15 -1 24 -5 113 -2 124 4 6 4 11 4 11 -1 0 -7 73 -9 90 -2 3 1 10 0 15
-1 24 -5 113 -2 124 4 6 4 11 4 11 -1 0 -9 77 -9 87 1 3 3 15 -2 26 -11 15
-13 18 -14 12 -3 -8 13 -7 13 9 1 10 -9 37 -14 66 -14 36 1 50 -3 55 -15 5
-14 7 -14 15 -2 6 10 10 11 10 3 0 -7 6 -10 14 -7 8 3 25 0 38 -7 13 -7 33
-12 44 -10 12 1 29 -6 39 -15 13 -13 19 -14 25 -5 5 9 10 9 14 3 3 -6 20 -8
37 -5 21 3 29 1 24 -6 -7 -12 -7 -12 90 -14 39 0 73 -5 77 -11 10 -15 447 -14
452 1 4 8 33 11 95 10 50 -1 91 2 91 6 0 5 5 5 11 1 6 -3 4 5 -5 18 -9 14 -13
28 -9 33 5 4 3 5 -3 2 -6 -3 -16 10 -23 31 -8 20 -20 45 -29 55 -8 9 -11 17
-7 17 4 0 0 9 -10 20 -10 11 -15 23 -12 27 4 3 -3 13 -16 22 -25 18 -147 23
-147 6 0 -15 -313 -16 -322 -2 -4 6 -40 10 -86 10 -57 -1 -82 2 -85 11 -4 9
-20 12 -50 10 -29 -2 -47 1 -50 9 -3 7 -20 12 -38 12 -19 -1 -37 3 -40 8 -4 5
-22 10 -40 10 -19 1 -39 6 -45 12 -6 6 -35 10 -65 10 -30 0 -57 4 -61 10 -11
15 -751 14 -781 -1z"/>
<path d="M4882 7247 c-18 -11 -32 -15 -32 -10 0 10 -83 9 -100 -2 -5 -3 -10
-2 -10 4 0 11 -60 3 -78 -11 -6 -6 -26 -8 -43 -4 -16 3 -28 2 -25 -2 3 -5 -8
-6 -25 -4 -16 2 -29 0 -29 -6 0 -6 -13 -10 -28 -10 -15 1 -38 -4 -50 -11 -12
-7 -27 -9 -32 -6 -6 3 -10 1 -10 -6 0 -9 -3 -9 -14 0 -10 8 -16 9 -21 1 -3 -6
-10 -8 -15 -5 -5 3 -11 1 -15 -5 -4 -6 -11 -8 -16 -5 -5 4 -9 2 -9 -2 0 -5 -9
-9 -20 -9 -11 0 -20 4 -20 9 0 4 -5 5 -12 1 -7 -4 -25 -8 -41 -9 -16 -1 -32
-6 -35 -11 -10 -13 -32 -16 -32 -4 0 5 -6 7 -12 5 -26 -9 -88 -12 -88 -4 0 5
-6 6 -14 3 -24 -9 -146 -10 -146 -1 0 5 -5 5 -11 2 -14 -10 -103 -10 -117 -1
-7 4 -12 3 -12 -1 0 -10 -53 -9 -69 2 -6 3 -11 2 -11 -2 0 -5 -9 -9 -20 -9
-11 0 -20 5 -20 11 0 6 -3 7 -8 0 -8 -12 -132 -14 -132 -2 0 5 -4 5 -10 2 -17
-11 -90 -11 -94 0 -3 6 -5 6 -5 0 -1 -11 -83 -11 -100 0 -6 3 -11 2 -11 -2 0
-10 -53 -9 -69 2 -6 3 -11 2 -11 -2 0 -10 -53 -9 -69 2 -6 3 -11 2 -11 -2 0
-10 -53 -9 -69 2 -6 3 -11 2 -11 -3 0 -13 -33 -10 -42 3 -5 7 -8 7 -8 0 0 -11
-102 -11 -119 -1 -5 4 -12 2 -15 -3 -7 -10 -25 -9 -43 2 -6 4 -14 3 -18 -2 -3
-6 -12 -8 -20 -4 -9 3 -28 0 -44 -7 -38 -15 -80 -20 -87 -8 -3 4 -11 5 -17 1
-17 -10 -47 -11 -53 -2 -2 5 -16 4 -29 -1 -17 -6 -25 -6 -25 1 0 6 -5 7 -12 3
-14 -9 -69 -10 -91 -1 -9 3 -24 -1 -33 -10 -17 -17 -82 -25 -90 -11 -3 5 -10
5 -16 2 -15 -10 -219 -11 -225 -1 -2 4 -9 4 -15 1 -15 -10 -219 -11 -225 -1
-2 4 -9 4 -15 1 -6 -4 -50 -7 -99 -8 -65 -1 -90 3 -94 12 -3 7 -13 12 -22 10
-10 -1 -24 1 -30 5 -7 5 -13 5 -13 0 0 -13 -57 -8 -75 7 -8 7 -18 10 -22 7 -3
-4 -14 -2 -24 4 -11 5 -19 6 -19 2 0 -12 -68 -7 -85 7 -8 6 -19 9 -25 5 -5 -3
-10 -2 -10 4 0 7 -8 7 -23 2 -13 -5 -30 -6 -37 -1 -7 5 -24 4 -37 -1 -16 -6
-23 -5 -23 3 0 9 -3 9 -12 0 -8 -8 -17 -8 -31 -1 -15 8 -18 8 -12 -1 6 -9 2
-9 -15 0 -36 19 -80 30 -80 19 0 -6 -8 -5 -20 1 -11 6 -20 7 -20 3 0 -4 -45
-6 -100 -3 -55 3 -100 2 -100 -2 0 -4 -13 -3 -30 2 -17 5 -30 5 -30 0 0 -5 -8
-6 -17 -3 -12 5 -15 2 -10 -10 3 -8 1 -17 -6 -20 -8 -2 -12 -38 -13 -108 l-1
-105 260 0 c179 1 264 -2 272 -10 6 -6 43 -11 84 -11 40 0 76 -4 79 -10 4 -5
31 -10 61 -9 31 1 55 -4 58 -10 3 -7 39 -12 101 -12 132 -1 134 -1 128 -11 -3
-5 12 -11 34 -13 22 -2 40 0 40 4 0 6 41 2 68 -7 6 -2 12 0 12 5 0 8 38 5 68
-5 6 -2 12 0 12 5 0 8 38 5 68 -5 6 -2 12 -1 12 3 0 4 48 6 107 4 73 -1 109 2
114 10 5 8 51 11 151 11 87 -1 148 3 156 9 8 7 248 11 749 11 524 0 741 3 748
11 7 7 58 10 141 9 87 -1 132 3 139 10 6 7 36 13 69 13 32 1 61 6 65 11 3 5
20 9 36 8 17 -1 33 2 36 8 4 5 27 10 52 11 24 1 50 6 58 12 8 6 33 10 57 9 24
-2 48 3 55 9 16 15 834 16 845 0 9 -14 724 -14 734 0 4 6 61 11 133 11 71 0
129 5 133 10 4 6 31 10 60 10 52 0 73 7 52 20 -5 3 -10 15 -10 26 0 10 -4 19
-10 19 -5 0 -10 9 -10 19 0 11 -5 21 -10 23 -6 2 -12 13 -13 25 0 12 -5 19 -9
17 -4 -3 -8 4 -8 15 0 12 -4 21 -10 21 -5 0 -10 9 -10 20 0 23 5 22 -80 23
-47 2 -69 -2 -78 -13 -12 -13 -13 -13 -6 0 6 12 5 13 -7 3 -8 -7 -36 -11 -62
-10 -26 1 -47 -2 -47 -6 0 -5 -6 -5 -12 0 -17 10 -29 11 -55 1 -13 -4 -23 -4
-23 0 0 9 -77 8 -86 0 -3 -4 -19 -2 -35 2 -18 5 -29 5 -29 -1 0 -6 -5 -7 -12
-3 -17 10 -68 11 -68 0 0 -5 -6 -4 -12 2 -15 12 -25 12 -55 1 -13 -5 -23 -5
-23 -1 0 9 -77 8 -86 0 -3 -4 -19 -2 -35 2 -18 5 -29 5 -29 -1 0 -6 -6 -7 -12
-2 -17 10 -29 11 -55 1 -13 -4 -23 -4 -23 0 0 9 -72 8 -87 -1 -7 -4 -14 -3
-18 2 -4 7 -15 7 -30 1 -14 -5 -25 -6 -25 -2 0 4 -19 7 -42 5 -24 -1 -43 -2
-43 -3 0 -1 -10 -3 -22 -4 -13 -2 -23 0 -23 4 0 4 -18 5 -40 3 -30 -4 -41 -1
-46 11 -4 11 -11 13 -24 6 -9 -5 -20 -7 -23 -3 -3 3 -87 6 -185 7 -157 1 -183
-1 -210 -17z"/>
<path d="M3998 6714 c-4 -3 -77 -5 -162 -5 -103 1 -163 -2 -178 -10 -12 -6
-47 -12 -77 -11 -31 0 -58 -4 -62 -9 -3 -5 -32 -10 -65 -11 -33 -2 -58 -7 -57
-13 1 -6 -21 -9 -55 -8 -34 1 -61 -3 -67 -10 -12 -14 -445 -18 -445 -4 0 5 -7
1 -16 -7 -18 -19 -13 -18 -134 -18 -52 0 -97 -4 -101 -9 -3 -5 -26 -10 -53
-12 -26 -1 -50 -7 -54 -13 -4 -5 -23 -9 -42 -8 -19 1 -44 -4 -55 -10 -11 -7
-36 -12 -55 -10 -19 2 -41 -2 -48 -9 -9 -7 -57 -12 -129 -12 -66 0 -117 -5
-121 -10 -9 -14 -155 -14 -164 0 -4 5 -55 10 -113 10 -59 1 -110 6 -113 11 -4
6 -29 10 -56 9 -27 -1 -54 4 -61 11 -7 7 -24 11 -39 10 -15 -2 -33 2 -39 8 -7
6 -34 12 -61 13 -27 1 -52 6 -55 12 -3 5 -24 8 -46 7 -22 -1 -51 3 -65 10 -18
8 -100 11 -280 10 l-255 -1 -1 -113 c-1 -62 1 -110 4 -108 2 3 15 1 28 -4 15
-6 26 -6 30 1 4 7 10 6 19 -1 10 -8 15 -8 20 0 5 8 10 8 20 0 10 -8 15 -8 20
0 5 8 10 8 20 0 10 -8 15 -8 20 0 5 8 10 8 20 0 10 -8 15 -8 20 0 5 8 10 8 20
0 10 -8 15 -8 20 0 5 8 10 8 20 0 10 -8 15 -8 20 0 5 8 10 8 20 0 10 -8 15 -8
20 0 5 8 10 8 20 0 10 -8 15 -8 20 0 5 8 10 8 20 0 9 -7 15 -8 19 -1 5 7 15 7
32 1 16 -7 23 -7 19 0 -7 11 23 2 42 -12 7 -6 17 -7 23 -3 5 3 10 1 10 -5 0
-6 5 -8 12 -4 24 15 94 1 83 -16 -3 -4 10 -6 29 -3 21 3 39 -1 48 -10 9 -10
20 -12 29 -7 8 5 19 4 26 -2 9 -7 13 -7 13 1 0 8 12 4 30 -9 18 -13 30 -17 30
-9 0 8 4 9 13 0 10 -8 17 -7 25 1 9 9 12 9 12 -1 0 -7 4 -10 9 -7 5 4 11 2 13
-2 5 -14 58 -24 58 -12 0 7 6 8 17 1 10 -5 26 -5 40 0 13 5 23 5 23 1 0 -4 18
-7 40 -7 22 -1 40 3 40 8 0 4 8 4 17 -2 10 -5 26 -5 40 0 13 5 23 5 23 1 0 -4
18 -7 40 -7 22 -1 40 3 40 8 0 4 8 4 17 -2 10 -5 26 -5 40 0 13 5 23 5 23 1 0
-4 18 -7 40 -7 22 -1 40 3 40 8 0 4 8 4 17 -2 10 -5 26 -5 40 0 13 5 23 5 23
1 0 -4 16 -7 35 -7 19 0 35 3 35 6 0 10 49 28 54 20 7 -11 65 -4 83 10 7 7 16
9 20 6 3 -4 14 -2 24 3 12 7 20 6 25 -1 5 -9 11 -7 20 6 7 10 19 15 27 12 8
-3 20 -1 28 3 7 5 18 5 24 0 8 -6 18 -3 31 8 13 12 27 16 44 12 14 -4 34 -2
45 3 13 7 20 6 23 -1 2 -7 11 -8 26 -2 16 6 28 5 36 -3 10 -9 11 -9 6 0 -12
21 32 36 65 21 8 -3 21 -3 29 2 9 5 19 5 27 -2 8 -6 13 -7 13 -1 0 6 12 8 28
6 15 -2 33 -4 40 -4 6 1 19 1 27 1 8 0 22 0 30 0 8 0 22 0 30 0 8 0 22 0 30 0
8 0 22 0 30 0 8 0 22 0 30 0 8 0 22 0 30 0 8 0 23 0 33 0 9 0 27 0 39 0 13 0
22 5 20 11 -1 6 17 12 46 12 26 1 47 -1 47 -5 0 -3 9 -4 20 -1 11 3 20 10 20
15 0 5 5 6 10 3 6 -3 10 -2 10 3 0 4 17 7 37 5 20 -1 42 2 49 8 16 13 94 19
94 6 0 -5 7 -4 15 3 8 7 15 9 15 6 0 -4 10 -1 23 6 27 15 35 16 69 7 14 -4 29
-4 33 -1 10 10 85 10 85 0 0 -5 5 -6 12 -2 16 10 88 13 93 4 4 -6 50 -5 50 0
0 6 107 4 111 -2 3 -4 15 -4 27 0 20 8 39 8 52 2 6 -3 44 -3 48 0 8 7 87 5 87
-2 0 -5 5 -6 12 -2 16 10 88 13 93 4 4 -6 50 -5 50 0 0 6 107 4 111 -2 3 -4
15 -4 27 0 20 8 39 8 52 2 6 -3 44 -3 48 0 8 7 87 5 87 -2 0 -5 5 -6 12 -2 16
10 88 13 93 4 4 -6 50 -5 50 0 0 6 107 4 111 -2 3 -4 15 -4 27 0 20 8 39 8 52
2 6 -3 44 -3 48 0 8 7 87 5 87 -2 0 -5 8 -4 18 1 25 13 31 13 47 -3 11 -10 36
-14 95 -12 55 1 81 -2 84 -11 3 -6 14 -12 25 -12 32 -1 64 0 86 3 11 1 28 -2
38 -6 10 -5 17 -5 17 1 0 7 9 7 25 1 14 -5 25 -6 25 -1 0 5 9 7 20 4 11 -3 20
-9 20 -14 0 -4 23 -7 50 -6 28 1 50 -1 50 -5 0 -4 7 -5 15 -2 22 9 105 10 105
2 0 -4 7 -5 15 -2 22 9 105 10 105 2 0 -4 7 -5 15 -2 22 9 105 10 105 2 0 -4
12 -3 27 3 14 5 29 6 32 2 13 -18 57 -31 73 -22 10 6 19 6 23 0 3 -5 14 -8 25
-6 13 3 18 0 14 -7 -5 -7 0 -9 13 -6 12 3 27 2 34 -3 7 -4 21 -4 30 2 12 6 19
4 23 -7 3 -8 10 -13 15 -10 5 4 12 0 14 -6 4 -9 8 -9 14 -3 7 9 31 11 58 5 6
-1 13 -2 18 -1 4 0 7 -4 7 -10 0 -6 10 -10 23 -9 12 1 24 1 27 0 21 -7 40 -7
40 2 0 7 4 7 13 0 7 -6 18 -8 24 -4 17 10 93 2 93 -10 0 -5 5 -6 10 -3 6 3 10
3 10 -2 0 -4 16 -8 35 -8 19 0 35 4 35 8 0 4 8 4 18 0 21 -10 43 -10 60 0 9 7
8 15 -8 36 -10 16 -17 30 -14 33 2 3 -2 11 -10 17 -8 7 -12 20 -9 29 3 9 3 14
-2 10 -4 -4 -15 7 -24 25 -11 21 -13 35 -6 39 6 5 3 8 -7 8 -10 0 -18 6 -18
14 0 8 -9 12 -25 10 -14 -1 -31 3 -38 10 -8 8 -42 12 -97 11 -48 -1 -94 4
-105 10 -11 7 -36 11 -55 10 -19 0 -42 5 -50 11 -9 7 -24 12 -35 10 -11 -2
-33 1 -50 7 -16 5 -59 11 -95 13 -35 3 -67 8 -70 13 -3 5 -26 8 -52 7 -28 -1
-48 3 -48 9 0 6 -3 7 -8 0 -4 -5 -31 -10 -60 -10 -28 0 -52 5 -52 10 0 7 -3 7
-8 0 -4 -5 -29 -10 -57 -10 -27 0 -53 5 -57 10 -5 7 -8 6 -8 0 0 -14 -103 -13
-112 0 -5 6 -8 6 -8 -1 0 -13 -71 -8 -80 5 -3 5 -53 8 -113 7 -77 -1 -107 2
-107 11 0 9 -25 11 -90 10 -50 -1 -90 1 -90 5 0 4 -6 5 -13 2 -8 -3 -20 2 -27
11 -11 13 -15 13 -22 3 -6 -11 -10 -10 -17 1 -5 8 -11 9 -15 3 -3 -5 -22 -6
-45 -2 -27 5 -42 3 -45 -4 -3 -7 -8 -7 -14 3 -6 8 -12 9 -16 3 -3 -5 -22 -6
-45 -2 -27 5 -42 3 -45 -4 -3 -7 -8 -7 -14 3 -6 8 -12 9 -16 3 -3 -5 -22 -6
-45 -2 -26 5 -42 3 -46 -4 -3 -8 -7 -7 -11 2 -3 6 -10 10 -15 7 -11 -7 -547
-7 -559 0 -4 3 -11 -1 -13 -7 -4 -10 -8 -10 -15 1 -6 8 -12 9 -16 3 -3 -5 -22
-6 -45 -2 -27 5 -42 3 -45 -4 -3 -7 -8 -7 -14 3 -6 8 -12 9 -16 3 -3 -5 -22
-6 -45 -2 -27 5 -42 3 -45 -4 -3 -7 -8 -7 -14 3 -6 8 -12 9 -16 3 -3 -5 -22
-6 -45 -2 -27 5 -42 3 -45 -4 -3 -8 -7 -7 -13 2 -5 7 -12 10 -15 6z"/>
<path d="M5880 6127 c0 -4 -4 -6 -9 -2 -5 3 -12 2 -14 -2 -3 -5 -40 -8 -84 -8
-43 1 -81 -3 -85 -9 -3 -5 -27 -10 -53 -11 -26 -1 -50 -6 -54 -11 -3 -5 -22
-10 -41 -12 -19 -1 -37 -6 -40 -10 -3 -4 -14 -7 -25 -7 -11 0 -26 -5 -34 -13
-8 -8 -30 -12 -57 -9 -29 2 -44 0 -44 -8 0 -8 -20 -11 -57 -10 -32 0 -67 -4
-78 -10 -28 -14 -366 -15 -380 -1 -7 6 -41 11 -78 10 -41 0 -68 4 -71 11 -2 7
-23 11 -49 10 -28 -1 -45 2 -44 9 1 5 -16 10 -38 10 -22 0 -44 6 -48 13 -5 8
-19 11 -36 8 -17 -3 -33 0 -40 8 -7 9 -29 13 -62 12 -28 -1 -56 3 -62 9 -15
15 -1539 17 -1548 3 -4 -6 -39 -11 -79 -12 -40 -1 -75 -7 -79 -13 -3 -5 -23
-9 -44 -8 -21 2 -44 -3 -51 -9 -7 -7 -27 -12 -45 -10 -21 2 -34 -2 -38 -12 -4
-9 -15 -12 -34 -9 -16 2 -27 0 -24 -4 8 -13 -31 -22 -70 -16 -21 4 -34 2 -30
-3 7 -13 -22 -20 -72 -17 -23 1 -52 -2 -65 -8 -35 -15 -378 -17 -384 -2 -3 8
-30 11 -80 9 -51 -1 -77 2 -80 10 -3 8 -22 12 -47 11 -23 0 -51 4 -62 11 -11
6 -36 11 -55 10 -19 -1 -40 4 -46 10 -7 6 -38 10 -72 9 -39 -2 -62 2 -65 9 -3
9 -47 12 -146 11 -78 0 -144 3 -147 8 -3 4 -11 5 -17 1 -7 -5 -32 -9 -57 -9
-25 -1 -51 -2 -57 -3 -7 0 7 -21 32 -45 24 -24 41 -47 38 -50 -4 -3 -1 -6 6
-6 7 0 35 -23 63 -52 45 -47 53 -51 94 -51 25 0 48 3 51 7 4 3 14 -1 23 -9 12
-11 40 -16 94 -17 50 -1 80 -6 87 -15 9 -10 15 -10 25 -2 8 6 14 7 14 2 0 -5
12 -8 27 -7 15 0 33 -4 39 -10 6 -7 29 -11 52 -9 22 1 45 -4 50 -10 6 -7 35
-12 69 -11 32 0 61 -4 65 -9 9 -14 558 -16 572 -2 6 6 31 11 56 12 48 2 65 5
92 17 9 4 21 5 27 2 5 -4 12 -2 16 4 4 6 10 8 15 5 5 -3 11 -1 15 5 3 5 22 10
41 10 19 0 34 4 34 8 0 5 14 9 31 10 17 0 36 5 42 10 7 5 33 8 59 8 27 -1 46
2 45 9 -1 6 32 10 91 10 67 0 92 3 92 13 0 9 140 12 665 12 378 0 665 -4 665
-9 0 -5 9 -11 20 -14 11 -3 20 -2 20 1 0 4 22 5 50 4 27 -2 50 -8 50 -14 0 -5
5 -6 10 -3 6 3 10 3 10 -2 0 -4 20 -7 44 -6 26 1 49 -4 55 -11 6 -7 22 -11 35
-9 13 3 29 -1 37 -9 7 -8 25 -12 39 -10 15 2 33 -2 41 -10 8 -8 34 -13 64 -12
28 1 56 -3 63 -9 17 -14 552 -16 566 -2 6 6 34 11 63 12 29 1 60 6 70 11 10 5
30 9 45 8 15 -1 30 5 33 12 3 10 17 13 40 10 22 -2 36 1 39 9 3 8 22 13 46 13
22 0 40 4 40 10 0 5 21 9 47 8 27 0 49 4 51 11 3 8 155 11 558 11 368 0 553
-3 549 -10 -4 -6 44 -10 137 -11 79 0 164 -1 191 -2 26 -1 47 2 47 7 0 6 5 5
11 -1 9 -9 16 -9 29 -1 15 10 16 13 4 26 -8 7 -12 18 -9 23 4 5 -1 9 -10 9 -9
0 -15 6 -14 13 3 26 -1 38 -13 31 -7 -5 -9 -2 -5 9 3 8 -1 21 -9 28 -8 7 -13
18 -10 25 3 7 -2 15 -10 18 -9 3 -13 10 -9 15 7 12 -29 33 -39 23 -4 -3 -11 0
-16 8 -6 8 -10 11 -10 5 0 -14 -702 -14 -712 0 -9 12 -548 15 -548 2z"/>
<path d="M7818 5870 c-190 -3 -350 -8 -354 -12 -4 -5 0 -8 10 -8 9 0 14 -4 11
-10 -5 -9 24 -15 49 -11 5 1 12 -2 15 -8 4 -5 20 -12 36 -14 17 -2 29 -10 27
-16 -1 -7 8 -10 25 -6 15 2 30 0 34 -6 3 -6 26 -11 50 -12 24 -1 49 -6 55 -12
7 -6 38 -10 70 -9 34 1 62 -3 66 -9 4 -7 71 -11 200 -11 l193 -1 1 35 c0 37
-15 72 -28 64 -4 -3 -8 2 -8 10 0 12 -10 16 -35 16 -26 0 -35 4 -35 16 0 13
-3 14 -14 5 -8 -7 -16 -8 -18 -4 -1 4 -159 6 -350 3z"/>
<path d="M3622 5542 c-18 -2 -30 -8 -27 -13 6 -8 -18 -14 -40 -9 -30 6 -55 6
-66 -1 -7 -4 -21 -4 -30 2 -12 6 -19 4 -23 -7 -3 -9 -13 -14 -20 -11 -8 3 -17
1 -20 -6 -2 -7 -5 -7 -5 -2 -1 13 -113 8 -121 -5 -3 -5 -16 -8 -28 -5 -12 2
-22 -1 -22 -6 0 -6 -6 -7 -17 0 -10 5 -26 5 -40 0 -13 -5 -23 -5 -23 -1 0 9
-77 8 -86 0 -3 -4 -19 -2 -35 2 -18 5 -29 5 -29 -1 0 -6 -6 -7 -12 -2 -17 10
-29 11 -55 1 -13 -4 -23 -4 -23 0 0 9 -77 8 -86 0 -3 -4 -19 -2 -35 2 -19 6
-29 5 -29 -2 0 -6 -7 -5 -17 3 -9 8 -19 12 -22 10 -18 -11 -51 -19 -51 -13 0
4 -19 7 -42 5 -24 -1 -43 -2 -43 -3 0 -1 -10 -3 -22 -4 -13 -2 -23 2 -23 7 0
5 -6 7 -14 4 -7 -3 -18 -1 -24 5 -8 8 -152 11 -459 10 -519 -1 -466 0 -458
-11 3 -6 -12 -10 -32 -11 -21 0 -45 -1 -53 -2 -8 0 -19 1 -25 2 -35 8 -52 -31
-19 -44 8 -3 12 -10 9 -16 -3 -5 -1 -10 5 -10 11 0 116 -101 113 -110 -3 -10
252 -4 272 6 26 14 253 12 263 -1 4 -7 87 -10 222 -10 136 0 218 -3 222 -10
11 -15 665 -15 698 0 14 7 62 11 107 11 50 -1 81 2 80 8 -1 6 31 10 81 11 49
0 82 4 82 10 0 7 52 11 141 11 77 1 144 5 147 10 4 5 14 9 22 9 8 0 18 4 22
10 5 7 8 7 8 -1 0 -6 28 -10 75 -9 45 1 76 -3 78 -9 3 -7 53 -11 146 -10 95 0
141 -3 141 -10 0 -7 27 -11 73 -10 39 0 78 -4 85 -10 7 -5 52 -10 98 -11 47
-1 88 -6 92 -11 4 -6 117 -9 292 -9 167 0 288 -3 292 -9 3 -5 41 -10 85 -11
96 -3 95 -3 89 -14 -3 -4 28 -8 68 -7 45 1 74 -3 73 -9 -1 -6 46 -10 128 -10
84 0 133 -4 137 -11 9 -14 406 -13 428 1 23 14 1200 14 1225 0 23 -14 429 -14
458 -1 9 5 17 15 17 23 0 8 5 11 10 8 6 -3 10 3 10 13 0 11 7 23 16 26 8 3 12
10 9 16 -3 5 -1 10 4 10 6 0 11 7 11 15 0 8 5 15 10 15 6 0 10 7 10 16 0 8 4
13 9 10 5 -3 11 1 14 9 5 12 -8 14 -79 12 -46 -1 -84 2 -84 6 0 5 -6 5 -12 0
-21 -12 -42 -9 -56 9 -9 13 -19 15 -41 8 -15 -4 -34 -4 -41 0 -7 4 -25 4 -40
0 -15 -4 -33 -5 -39 -1 -7 4 -32 5 -57 1 -24 -4 -47 -3 -50 1 -2 5 -16 4 -29
-1 -18 -7 -25 -6 -25 2 0 9 -3 9 -11 1 -13 -13 -37 -6 -59 15 -9 10 -15 11
-18 4 -2 -7 -11 -8 -26 -2 -13 4 -29 4 -36 0 -9 -5 -20 -4 -27 2 -9 7 -13 7
-13 -2 0 -9 -4 -9 -13 -2 -7 6 -18 7 -27 2 -7 -4 -24 -4 -37 1 -14 5 -23 5
-23 -1 0 -6 -9 -6 -23 -1 -13 5 -30 6 -37 1 -7 -5 -24 -4 -37 1 -14 5 -23 5
-23 -1 0 -6 -9 -6 -23 -1 -13 5 -30 5 -37 1 -9 -5 -20 -4 -27 2 -9 7 -13 7
-13 -2 0 -9 -4 -9 -13 -2 -7 6 -18 7 -27 2 -7 -4 -24 -4 -37 1 -14 5 -23 5
-23 -1 0 -6 -9 -6 -23 -1 -13 5 -30 6 -37 1 -7 -5 -24 -4 -37 1 -14 5 -23 5
-23 -1 0 -6 -9 -6 -23 -1 -13 5 -30 5 -37 1 -9 -5 -20 -4 -27 2 -9 7 -13 7
-13 -2 0 -9 -4 -9 -13 -2 -7 6 -18 7 -27 2 -7 -4 -24 -4 -37 1 -14 5 -23 5
-23 -1 0 -6 -9 -6 -23 -1 -14 5 -30 5 -40 0 -11 -7 -17 -6 -17 1 0 6 -5 8 -12
4 -18 -11 -58 -11 -58 0 0 5 -9 1 -20 -9 -22 -20 -60 -28 -60 -13 0 5 -10 4
-21 -3 -17 -9 -20 -8 -14 2 6 8 4 10 -4 4 -17 -10 -71 -13 -71 -3 0 4 -12 3
-26 -2 -14 -6 -23 -6 -20 -1 4 5 -9 6 -29 1 -19 -4 -37 -5 -39 -1 -3 4 -19 6
-35 4 -17 -2 -44 -4 -61 -6 -16 -2 -30 0 -30 5 0 4 -12 3 -26 -2 -14 -6 -23
-6 -20 -1 4 5 -9 6 -29 1 -19 -4 -37 -5 -39 -1 -3 4 -20 6 -38 4 -74 -7 -96
-8 -93 -3 2 3 0 12 -6 20 -5 8 -9 11 -9 5 0 -12 -146 -8 -175 4 -39 17 -55 20
-55 10 0 -6 -7 -6 -20 1 -12 6 -20 7 -20 1 0 -5 -9 -7 -20 -4 -11 3 -20 8 -20
12 0 4 -16 8 -37 9 -20 2 -40 5 -45 8 -4 3 -8 1 -8 -5 0 -7 -8 -7 -23 -2 -13
5 -30 5 -38 1 -9 -6 -25 -4 -40 4 -36 18 -69 26 -69 14 0 -5 -6 -6 -12 -1 -17
10 -29 11 -55 1 -13 -4 -23 -4 -23 0 0 9 -77 8 -86 0 -3 -4 -19 -2 -35 2 -18
5 -29 5 -29 -1 0 -6 -6 -7 -12 -2 -17 10 -29 11 -55 1 -13 -4 -23 -4 -23 0 0
4 -19 7 -42 5 -24 -1 -43 -2 -43 -3 0 -1 -10 -3 -22 -4 -13 -2 -23 1 -23 5 0
4 -16 5 -37 2 -26 -4 -34 -3 -29 5 4 7 0 12 -11 13 -62 3 -111 2 -120 -4 -5
-3 -19 1 -29 11 -20 18 -134 26 -134 9 0 -5 -12 1 -26 12 -21 16 -30 18 -40
10 -8 -6 -14 -7 -14 -2 0 5 -9 9 -20 10 -11 1 -20 -3 -20 -8 0 -6 -5 -7 -11
-3 -16 9 -309 11 -309 1 0 -5 -5 -5 -11 -1 -16 9 -189 11 -189 1 0 -4 -5 -5
-12 -1 -17 11 -68 13 -68 2 0 -5 -8 -5 -17 -1 -10 5 -33 7 -51 5z"/>
<path d="M7755 4980 c5 -8 -65 -16 -97 -11 -5 0 -8 -4 -8 -10 0 -7 -15 -10
-40 -7 -22 2 -40 0 -40 -5 0 -5 -7 -6 -16 -3 -8 3 -12 2 -9 -4 7 -11 -5 -13
-44 -10 -13 1 -27 -4 -31 -10 -4 -7 -27 -12 -51 -13 -24 0 -50 -5 -57 -10 -9
-7 -287 -11 -803 -11 -644 -1 -789 1 -789 12 0 9 -10 12 -30 8 -16 -2 -30 0
-30 5 0 6 -5 7 -11 3 -19 -12 -128 -10 -133 2 -3 8 -36 12 -93 12 -56 0 -87 4
-86 10 2 7 -110 11 -352 11 -231 -1 -354 -4 -352 -11 1 -6 -33 -10 -88 -10
-65 -1 -93 -5 -104 -16 -10 -10 -16 -11 -19 -3 -2 6 -9 8 -15 4 -17 -11 -67
-10 -67 0 0 5 -6 4 -13 -2 -8 -6 -17 -8 -21 -4 -4 4 -11 1 -16 -6 -7 -12 -78
-14 -400 -14 -226 0 -395 4 -398 9 -13 17 -65 10 -68 -9 -1 -9 2 -15 7 -11 5
3 10 -3 11 -13 2 -33 4 -38 13 -53 5 -8 10 -22 10 -30 0 -8 6 -25 13 -36 6
-12 8 -24 5 -28 -8 -8 -2 -9 73 -11 34 -1 69 -5 78 -8 9 -4 15 -3 12 2 -6 10
57 7 74 -4 7 -5 11 -4 8 1 -4 5 32 9 83 9 49 0 89 -3 89 -6 0 -3 7 -6 15 -6 8
0 12 3 10 6 -2 4 19 6 46 6 27 0 49 -3 49 -8 0 -4 5 -5 12 -1 13 9 188 12 188
3 0 -3 7 -6 15 -6 8 0 12 3 10 7 -6 9 79 5 95 -5 8 -5 11 -4 7 2 -4 6 1 17 10
24 14 12 16 12 8 -1 -7 -12 -6 -13 6 -4 8 6 43 10 77 9 40 -2 65 2 68 9 5 13
112 15 132 3 7 -5 12 -3 12 3 0 6 4 9 9 5 5 -3 17 3 27 12 10 10 18 18 18 17
8 -8 46 -22 46 -17 0 12 214 10 223 -2 5 -7 9 -7 15 0 8 12 207 14 218 2 4 -4
13 -2 20 4 9 7 14 5 19 -11 4 -12 11 -17 18 -13 20 12 140 10 174 -3 18 -7 42
-11 53 -9 11 2 22 0 25 -5 3 -5 13 -6 22 -3 28 11 68 10 80 -2 7 -8 46 -12
102 -11 50 1 91 -2 91 -5 0 -3 7 -6 15 -6 8 0 12 3 10 6 -2 4 19 6 46 6 27 0
49 -3 49 -8 0 -4 5 -5 12 -1 13 9 188 12 188 3 0 -3 7 -6 15 -6 8 0 12 3 10 6
-2 4 19 6 46 6 27 0 49 -3 49 -8 0 -4 6 -5 12 0 17 10 47 10 76 1 13 -5 21 -4
18 0 -6 11 57 8 74 -3 7 -5 11 -4 8 1 -4 5 32 9 83 9 49 0 89 -4 89 -8 0 -5 5
-5 10 -2 6 3 10 2 10 -3 0 -9 20 -13 60 -11 14 1 36 1 50 0 29 -1 72 0 118 2
17 1 32 -1 32 -6 0 -4 5 -5 11 -2 16 11 69 12 69 2 0 -4 5 -5 12 -1 16 10 68
11 68 1 0 -5 5 -5 11 -1 19 11 69 12 69 1 0 -6 3 -7 8 -3 4 4 7 12 7 18 0 6
23 12 53 12 28 1 52 -1 52 -4 0 -4 7 -7 15 -7 8 0 12 3 10 7 -2 4 10 7 28 8
36 2 102 10 102 12 0 1 12 3 27 4 15 2 35 9 45 17 13 11 15 11 9 1 -7 -11 -4
-12 13 -3 12 7 26 9 32 5 6 -4 15 -1 19 7 5 7 25 13 49 12 23 0 39 4 38 10 -1
6 7 15 19 21 11 6 19 17 17 23 -3 7 7 24 21 38 14 14 26 31 26 38 0 7 14 24
30 39 40 35 31 58 -22 58 -23 0 -37 -4 -33 -10z"/>
<path d="M5602 4324 c-6 -7 -46 -11 -108 -10 -58 1 -101 -3 -108 -9 -7 -7
-113 -11 -326 -10 -204 1 -320 -3 -329 -10 -8 -5 -56 -10 -107 -11 -52 -1 -99
-6 -106 -11 -7 -6 -50 -10 -95 -9 -52 1 -84 -3 -87 -10 -3 -8 -93 -11 -305
-10 -227 1 -301 -2 -301 -11 0 -6 4 -14 10 -18 5 -3 7 -12 3 -21 -3 -8 3 -24
13 -36 12 -14 14 -18 4 -13 -13 8 -13 7 -1 -8 7 -9 11 -17 7 -17 -4 0 0 -10 9
-23 8 -13 12 -27 8 -30 -8 -9 -18 -8 230 -10 139 -1 212 2 218 9 5 6 55 11
125 11 64 0 119 5 123 10 3 6 39 10 78 10 40 0 79 5 86 11 9 8 73 11 190 9 97
-1 177 1 177 5 0 4 6 5 14 2 21 -8 226 -10 226 -2 0 4 7 5 15 2 8 -4 15 -1 15
4 0 6 37 12 90 14 50 2 90 1 90 -2 0 -3 18 -4 40 -2 22 2 40 8 40 12 0 4 59 9
132 9 76 1 135 6 139 12 3 6 65 9 162 7 87 -2 157 0 157 3 0 3 11 4 25 1 14
-2 25 -8 25 -13 0 -5 40 -9 88 -9 55 0 92 -4 100 -12 7 -7 29 -11 49 -10 20 2
39 -1 42 -7 3 -5 24 -10 46 -12 22 -2 45 -8 51 -14 6 -6 24 -10 40 -9 16 0 32
-4 36 -9 3 -6 28 -11 55 -11 27 -1 47 -5 46 -11 -1 -7 32 -10 95 -8 64 2 98
-1 103 -9 8 -13 227 -18 259 -6 12 5 17 13 14 23 -4 9 0 15 9 15 10 0 15 7 12
19 -2 11 3 22 12 25 8 3 13 11 11 18 -3 7 5 21 16 33 29 28 30 45 4 46 -90 4
-237 1 -247 -5 -6 -4 -11 -3 -11 1 0 5 -36 7 -80 6 -49 -1 -78 2 -75 8 7 10 6
10 -80 12 -33 0 -66 6 -73 13 -7 7 -22 11 -33 9 -12 -2 -31 1 -42 8 -12 7 -33
12 -47 12 -14 0 -31 5 -38 12 -7 6 -22 10 -34 8 -12 -3 -28 0 -35 7 -7 6 -39
11 -71 12 -31 1 -56 6 -55 11 2 15 -731 14 -745 -1z"/>
<path d="M5853 3793 c-3 -8 -25 -11 -64 -9 -32 2 -59 -1 -59 -6 0 -5 -4 -7 -9
-3 -5 3 -12 2 -15 -3 -2 -4 -17 -8 -33 -7 -15 0 -33 -5 -40 -11 -7 -7 -28 -11
-48 -10 -20 1 -37 -4 -40 -11 -2 -7 -18 -13 -35 -13 -18 0 -29 -4 -25 -10 4
-6 -10 -10 -34 -10 -22 0 -46 -6 -53 -14 -10 -9 -20 -11 -31 -4 -11 6 -17 5
-17 -1 0 -6 -7 -8 -15 -5 -8 4 -15 2 -15 -4 0 -11 -58 -22 -62 -11 -2 4 -21 1
-43 -7 -22 -7 -46 -12 -52 -9 -7 2 -13 0 -13 -5 0 -5 -12 -5 -29 0 -16 4 -32
6 -35 3 -7 -7 -76 -9 -76 -2 0 3 -7 6 -15 6 -8 0 -15 -4 -15 -8 0 -5 -11 -4
-24 1 -13 5 -26 6 -29 3 -10 -9 -77 -9 -80 1 -2 6 -9 6 -17 1 -18 -11 -80 -13
-80 -3 0 4 -11 3 -25 -2 -20 -7 -27 -6 -31 4 -3 8 -13 13 -22 11 -9 -1 -20 2
-23 8 -4 6 -13 6 -25 -1 -11 -6 -27 -7 -41 -1 -14 5 -23 5 -23 -1 0 -6 -9 -6
-23 -1 -14 5 -30 5 -40 0 -12 -7 -17 -6 -17 2 0 7 -3 9 -7 6 -3 -4 -17 0 -30
8 -13 9 -23 11 -23 5 0 -7 -6 -8 -18 -1 -10 6 -24 6 -32 1 -8 -5 -19 -6 -25
-2 -17 11 -35 11 -41 1 -4 -6 -11 -6 -19 1 -10 8 -15 8 -20 0 -5 -8 -10 -8
-20 0 -10 8 -15 8 -20 0 -5 -8 -10 -8 -20 0 -7 6 -16 7 -19 2 -5 -9 -64 -8
-73 2 -3 3 -14 1 -24 -5 -14 -7 -19 -6 -19 2 0 9 -3 9 -14 0 -10 -8 -16 -9
-21 -1 -4 6 -12 7 -23 1 -11 -6 -24 -6 -35 0 -11 7 -17 7 -17 0 0 -6 -7 -8
-15 -5 -10 4 -15 0 -15 -11 0 -10 5 -13 12 -9 7 5 9 2 5 -8 -3 -9 1 -28 9 -43
8 -15 14 -34 14 -41 0 -8 7 -14 16 -14 13 0 14 -3 5 -14 -17 -20 0 -22 236
-21 116 0 209 -3 206 -7 -6 -10 -7 -10 120 -12 60 -1 111 -7 115 -12 10 -15
554 -13 573 2 8 6 38 10 67 9 36 -1 52 2 52 10 0 9 12 12 35 9 22 -2 38 2 41
9 2 7 22 12 45 13 22 0 44 5 47 11 4 7 16 11 27 9 11 -2 23 1 26 7 6 9 24 13
77 16 14 0 20 5 17 12 -5 7 3 9 24 6 19 -3 37 0 45 9 8 8 22 11 30 8 9 -3 16
-1 16 5 0 7 8 8 23 3 28 -10 63 -8 79 5 8 6 85 10 191 9 112 -1 177 3 177 9 0
6 5 3 10 -5 5 -8 10 -12 10 -7 0 4 14 0 32 -9 22 -12 33 -13 36 -5 2 6 8 8 13
5 18 -11 109 -12 109 -1 0 8 4 7 11 0 6 -6 17 -9 24 -6 8 2 24 -1 37 -8 15 -9
69 -13 163 -14 77 0 147 -4 155 -10 21 -13 62 -15 78 -3 6 6 12 7 12 2 0 -10
270 -11 286 -2 11 7 12 154 1 164 -4 4 -7 2 -7 -4 0 -6 -6 -9 -14 -6 -26 10
-136 9 -140 -1 -3 -7 -5 -7 -5 0 -1 10 -87 12 -97 3 -2 -3 -22 -2 -44 2 -22 4
-40 5 -40 2 0 -2 -7 1 -16 9 -18 15 -54 20 -54 8 0 -5 -11 -4 -25 1 -16 6 -25
6 -25 -1 0 -6 -6 -6 -18 0 -11 6 -24 6 -35 0 -9 -6 -17 -6 -17 -2 0 5 -24 8
-52 7 -29 -1 -59 4 -66 9 -16 13 -132 16 -132 4 0 -4 -8 -4 -17 1 -10 4 -34 7
-53 6 -19 -1 -38 3 -42 9 -10 16 -479 17 -485 0z"/>
<path d="M4050 3181 c0 -76 3 -79 65 -76 22 1 49 -3 60 -10 11 -6 40 -11 65
-10 25 0 51 -5 58 -11 6 -7 24 -11 39 -10 15 2 33 -3 41 -10 7 -8 24 -12 37
-10 14 3 26 -1 29 -9 3 -8 14 -12 25 -10 11 2 25 -2 31 -10 6 -7 19 -12 28
-10 9 1 20 -3 24 -9 5 -7 8 -6 8 4 0 12 2 13 9 1 5 -7 25 -14 44 -15 19 -1 42
-8 51 -15 8 -7 20 -10 26 -6 5 3 10 0 10 -7 0 -9 3 -9 8 -2 8 13 42 14 42 2 0
-5 5 -6 10 -3 6 3 10 2 10 -4 0 -5 18 -8 40 -7 22 2 43 -1 46 -6 3 -4 10 -5
16 -2 16 10 118 11 118 1 0 -4 4 -6 9 -2 17 10 91 13 97 4 3 -5 11 -6 17 -2
18 11 37 12 37 2 0 -5 11 -4 26 1 32 12 37 12 29 0 -3 -6 1 -7 9 -4 9 3 35 7
58 8 24 1 50 6 58 11 19 12 70 14 70 2 0 -4 6 -5 12 -1 7 5 21 9 32 10 11 0
21 5 23 11 2 6 24 9 50 7 27 -3 55 1 67 9 12 7 44 12 73 11 30 -1 54 3 56 10
3 8 225 11 796 11 435 0 792 3 792 7 1 5 2 14 3 21 1 6 -3 18 -8 26 -8 11 -8
13 2 7 16 -10 15 9 -2 23 -7 6 -12 25 -11 41 2 20 -3 31 -14 34 -32 10 -1456
4 -1462 -5 -7 -12 -110 -16 -127 -5 -6 4 -12 3 -12 -2 0 -5 -11 -8 -25 -7 -14
2 -23 0 -20 -5 3 -4 -6 -10 -20 -12 -15 -3 -25 -1 -25 6 0 7 -3 8 -8 1 -4 -6
-20 -10 -37 -10 -16 1 -33 -3 -36 -8 -4 -6 -33 -11 -65 -11 -32 -1 -59 -6 -61
-11 -2 -6 -44 -9 -99 -8 -64 1 -97 -3 -100 -10 -5 -15 -273 -15 -282 0 -4 5
-36 9 -72 8 -36 -1 -74 4 -85 10 -11 7 -33 12 -50 11 -16 -1 -36 5 -43 12 -7
6 -24 12 -38 12 -13 0 -24 5 -24 10 0 6 -12 10 -27 10 -16 0 -37 7 -47 15 -13
10 -23 12 -32 4 -8 -7 -17 -5 -27 6 -9 8 -27 15 -41 15 -14 0 -28 5 -31 11 -4
6 -30 9 -58 8 -33 -2 -52 1 -55 9 -2 8 -36 12 -108 12 l-104 0 0 -69z"/>
<path d="M5726 2645 c-5 -13 -95 -13 -115 0 -9 5 -12 4 -7 -3 4 -7 -8 -9 -39
-7 -28 3 -43 0 -40 -5 7 -12 8 -12 -72 -14 -42 -2 -60 1 -56 8 4 6 -1 5 -10
-3 -9 -7 -17 -10 -17 -5 0 5 -5 2 -9 -6 -8 -13 -57 -15 -358 -15 -233 0 -352
-3 -359 -10 -7 -7 -89 -10 -234 -10 -160 0 -226 -3 -235 -11 -7 -7 -35 -11
-67 -10 l-55 2 -2 -63 -2 -62 260 -3 c144 -2 261 0 261 4 0 4 7 5 15 2 8 -4
15 -1 15 5 0 8 106 11 370 11 287 0 372 3 375 13 4 8 30 11 90 10 47 -1 85 3
85 8 0 5 40 9 88 9 53 0 93 5 100 12 17 17 558 17 591 0 14 -7 45 -12 69 -11
26 2 46 -2 51 -9 4 -7 26 -11 49 -10 24 1 48 -4 54 -10 7 -7 29 -12 50 -12 21
0 38 -4 38 -10 0 -5 18 -10 40 -10 22 0 40 5 40 10 0 6 8 10 18 10 9 0 26 12
37 26 10 14 34 32 52 39 48 20 43 41 -9 39 -24 -1 -46 3 -49 8 -4 6 -28 11
-55 12 -27 0 -52 5 -56 10 -3 5 -19 10 -35 11 -15 1 -38 7 -49 13 -12 6 -32 9
-45 7 -13 -3 -32 1 -44 8 -11 7 -47 12 -80 12 -33 0 -63 4 -67 10 -10 15 -576
15 -582 0z"/>
<path d="M7722 2512 c-29 -4 -63 -32 -55 -45 3 -6 1 -7 -5 -3 -7 4 -12 2 -12
-3 0 -6 -9 -11 -19 -11 -13 0 -21 -8 -23 -22 -2 -13 -9 -22 -15 -21 -6 1 -9
-6 -6 -17 4 -16 14 -20 47 -20 22 -1 80 -2 129 -3 53 -1 87 2 87 8 0 7 3 7 8
0 4 -5 21 -10 37 -10 17 0 33 5 37 10 5 7 8 7 8 0 0 -6 31 -9 77 -8 43 1 113
2 157 3 64 0 77 3 73 14 -3 8 -2 16 4 18 5 2 12 16 15 31 2 16 11 39 19 51 17
26 22 25 -85 29 -44 1 -85 -3 -99 -10 -19 -9 -28 -9 -39 -1 -13 11 -280 18
-340 10z"/>
<path d="M4120 2073 c0 -6 4 -14 10 -18 5 -3 7 -12 4 -19 -3 -7 2 -16 10 -19
9 -4 13 -13 10 -22 -8 -21 24 -44 53 -39 13 3 23 -1 23 -7 0 -6 9 -9 20 -6 10
3 20 1 22 -5 2 -6 14 -5 31 1 19 7 27 7 27 0 0 -6 9 -8 19 -4 11 3 25 -1 34
-10 10 -10 18 -12 22 -5 4 6 12 7 18 3 7 -5 21 -8 32 -8 11 0 26 -5 34 -13 10
-10 16 -10 27 -1 10 8 14 8 14 1 0 -6 7 -9 15 -6 8 4 25 0 38 -8 13 -9 41 -14
70 -12 30 2 50 -2 53 -9 5 -15 656 -16 676 0 7 5 46 9 85 9 50 -1 74 3 78 12
2 7 17 11 33 10 15 -1 33 1 40 6 7 4 12 3 12 -3 0 -11 19 -9 39 3 10 7 12 5 7
-5 -4 -8 -1 -6 8 5 8 10 19 15 25 11 6 -3 11 -1 11 5 0 6 5 8 12 4 17 -11 58
-11 58 -1 0 4 6 5 12 1 18 -11 48 -12 48 -2 0 5 6 6 12 2 18 -11 48 -12 48 -2
0 5 6 6 12 2 18 -11 48 -12 48 -2 0 5 6 6 12 2 18 -11 48 -12 48 -2 0 5 6 6
12 2 18 -11 48 -12 48 -2 0 5 6 6 12 2 18 -11 48 -12 48 -2 0 5 6 6 12 2 18
-11 48 -12 48 -2 0 5 6 6 12 2 18 -11 48 -12 48 -2 0 5 6 6 12 2 18 -11 48
-12 48 -2 0 5 5 6 12 2 20 -13 70 -11 75 1 2 8 23 12 54 11 27 0 49 3 49 7 0
5 5 5 12 1 16 -10 69 -11 75 0 3 4 9 2 13 -5 5 -7 8 18 9 54 0 37 -3 67 -7 68
-4 0 -170 2 -369 2 -354 2 -362 2 -367 -18 -4 -12 -9 -16 -13 -10 -10 13 -73
13 -73 0 0 -6 -3 -6 -8 0 -9 14 -65 13 -74 0 -5 -7 -8 -6 -8 1 0 8 -27 10 -83
5 -5 -1 -6 -5 -3 -10 3 -5 -26 -8 -65 -7 -39 0 -79 -4 -88 -10 -9 -6 -24 -10
-33 -8 -10 1 -18 -2 -18 -7 0 -6 -5 -7 -12 -3 -17 11 -108 11 -108 1 0 -5 -4
-5 -10 -2 -5 3 -10 2 -10 -3 0 -6 -71 -9 -180 -8 -99 0 -180 -3 -180 -7 0 -5
-6 -5 -12 0 -7 4 -35 6 -62 5 -30 -1 -52 2 -57 10 -9 14 -129 18 -129 4 0 -6
-6 -3 -12 6 -16 20 -98 33 -99 15 0 -7 -4 -3 -8 8 -7 16 -17 20 -52 19 -24 -1
-47 3 -50 9 -4 5 -35 10 -70 11 -35 1 -71 6 -79 11 -23 15 -170 13 -170 -2z"/>
<path d="M7580 2060 c-11 -7 -17 -110 -7 -110 5 0 5 -6 1 -12 -6 -10 -5 -10 7
-1 9 7 20 8 29 3 7 -4 24 -4 37 1 12 5 23 5 23 0 0 -8 95 -5 110 4 6 4 10 2
10 -3 0 -9 94 -7 110 3 6 4 10 2 10 -3 0 -9 94 -7 110 3 6 4 10 2 10 -3 0 -14
61 -4 81 14 9 8 15 23 12 33 -2 10 1 24 9 32 15 17 21 39 11 40 -32 4 -557 3
-563 -1z"/>
<path d="M4405 1444 c-14 -33 -14 -44 2 -52 8 -5 14 -11 12 -13 -5 -10 13 -49
22 -44 5 4 9 -1 9 -9 0 -16 22 -21 68 -17 15 1 21 -2 17 -8 -7 -12 -6 -12 48
-15 20 -1 43 -8 50 -16 10 -10 9 -11 -2 -5 -10 6 -12 4 -7 -4 6 -9 11 -9 21
-1 10 8 19 8 36 0 13 -8 19 -8 15 -1 -11 18 68 2 82 -16 6 -9 12 -12 12 -6 0
7 9 11 20 10 11 -1 20 -5 20 -10 0 -4 6 -5 13 0 17 11 67 12 73 1 3 -5 13 -3
21 4 19 16 16 16 36 -1 10 -7 17 -9 17 -4 0 6 18 10 40 9 22 0 40 -5 40 -9 0
-5 6 -5 13 0 19 12 57 11 57 -1 0 -8 3 -8 8 0 8 12 82 14 82 1 0 -4 6 -5 13 0
17 11 67 12 73 1 3 -5 11 -5 17 0 14 10 27 10 45 -1 6 -5 12 -4 12 1 0 5 18 9
40 8 22 0 40 -5 40 -9 0 -5 6 -5 13 0 17 11 67 12 73 1 3 -5 12 -4 20 3 8 6
14 8 14 3 0 -5 4 -3 9 4 10 17 176 24 205 10 12 -7 16 -7 12 1 -6 9 18 9 59 1
6 -1 12 -1 15 0 15 7 138 5 154 -3 12 -6 16 -6 12 2 -4 7 5 9 27 6 38 -5 97
30 90 52 -3 7 2 16 11 19 27 10 6 32 -31 32 -20 0 -38 5 -42 10 -8 14 -162 12
-179 -1 -18 -14 -1162 -16 -1176 -2 -6 6 -38 11 -71 12 -33 1 -61 6 -63 12 -2
6 -21 11 -43 11 -21 0 -39 4 -39 8 0 4 -17 9 -37 10 -21 2 -40 8 -44 14 -4 6
-14 8 -22 5 -9 -3 -17 -1 -20 6 -2 6 -7 2 -12 -9z"/>
<path d="M5687 845 c-3 -7 -45 -10 -121 -10 -72 1 -120 -3 -126 -10 -6 -7
-128 -11 -385 -10 -207 0 -381 -3 -386 -6 -6 -3 -5 -17 2 -35 7 -16 11 -33 10
-37 -1 -5 3 -6 8 -3 5 3 12 -1 15 -10 5 -13 19 -15 71 -12 39 2 65 -1 65 -7 0
-7 3 -7 8 0 4 6 39 10 77 10 39 0 73 -4 77 -10 5 -7 8 -7 8 0 0 6 32 10 75 10
43 0 75 -4 75 -10 0 -7 3 -7 8 0 4 6 39 10 77 10 39 0 73 -4 77 -10 5 -7 8 -7
8 0 0 6 26 9 63 7 34 -1 71 2 82 7 23 12 175 20 175 9 0 -3 11 -1 24 5 14 7
20 15 14 18 -6 4 -3 11 8 18 11 6 15 11 9 11 -5 0 1 8 15 18 14 9 26 26 28 38
2 17 -3 20 -27 20 -17 0 -32 -5 -34 -11z"/>
</g>
</svg>
