<svg width="155" height="299" viewBox="0 0 155 299" fill="none" xmlns="http://www.w3.org/2000/svg">
<path d="M49.2538 148.431C49.2538 146.816 49.2899 145.202 49.1336 143.622C48.9774 142.042 49.0014 140.37 48.7009 138.801C48.3884 137.21 47.8473 135.664 47.3905 134.13C46.9337 132.597 46.525 130.994 45.924 129.506C45.323 128.018 44.5295 126.554 43.7842 125.124C43.039 123.682 42.3057 122.206 41.4282 120.857C40.5507 119.496 39.6851 118.077 38.6754 116.797C37.6656 115.517 36.0909 114.675 34.973 113.487C33.843 112.299 32.7852 111.065 31.5591 109.981C30.321 108.897 29.0467 107.871 27.7123 106.914C26.378 105.945 25.0077 105.045 23.5772 104.192C22.1468 103.339 20.7163 102.531 19.2257 101.816C17.7351 101.101 16.1002 100.709 14.5375 100.121C12.9868 99.5444 11.4601 98.9217 9.84935 98.4834C8.25057 98.0452 6.72394 97.2379 5.06506 96.9381C3.43022 96.6497 1.74727 96.3961 0.0763699 96.2577C-1.57049 96.1077 -3.27738 96.7305 -4.96031 96.7305C-6.64323 96.7305 -8.33824 96.2807 -9.9851 96.4191C-11.632 96.5575 -13.3028 96.9727 -14.9257 97.261C-16.5485 97.5493 -18.2554 97.7569 -19.8542 98.1951C-21.453 98.6334 -22.8354 99.7174 -24.3861 100.294C-25.9368 100.871 -27.7639 100.882 -29.2545 101.586C-30.7571 102.301 -32.3079 102.993 -33.7143 103.835C-35.1207 104.676 -36.4671 105.703 -37.8014 106.672C-39.1357 107.64 -40.0853 109.059 -41.3114 110.131C-42.5376 111.204 -43.7157 112.334 -44.8336 113.51C-45.9515 114.687 -47.2498 115.736 -48.2595 117.016C-49.2693 118.296 -50.3271 119.553 -51.2046 120.914C-52.0821 122.275 -52.4428 123.901 -53.2001 125.343C-53.9574 126.784 -54.9671 128.076 -55.5682 129.575C-56.1692 131.063 -56.7343 132.585 -57.1911 134.13C-57.6479 135.676 -57.6718 137.29 -57.9844 138.882C-58.2849 140.45 -58.3691 142.019 -58.5134 143.633C-58.6576 145.248 -58.7778 146.782 -58.7778 148.396C-58.7778 150.011 -58.8019 151.591 -58.6576 153.171C-58.5134 154.751 -58.8739 156.446 -58.5734 158.014C-58.2608 159.606 -57.3113 161.036 -56.8665 162.57C-56.4217 164.104 -55.8207 165.591 -55.2197 167.079C-54.6186 168.567 -54.5224 170.285 -53.7771 171.715C-53.0318 173.145 -52.2504 174.61 -51.3729 175.959C-50.4954 177.308 -49.4617 178.623 -48.4519 179.903C-47.4421 181.183 -45.8914 182.025 -44.7734 183.213C-43.6435 184.401 -42.766 185.808 -41.5399 186.892C-40.3017 187.976 -38.9313 188.898 -37.597 189.867C-36.2627 190.836 -34.7961 191.574 -33.3656 192.427C-31.9352 193.281 -30.6008 194.227 -29.1102 194.942C-27.6196 195.657 -26.2493 196.671 -24.6746 197.248C-23.1239 197.825 -21.3809 197.928 -19.7701 198.367C-18.1713 198.805 -16.4883 198.828 -14.8414 199.116C-13.1946 199.405 -11.6199 199.808 -9.93697 199.958C-8.25404 200.108 -6.64323 200.004 -4.96031 200.004C-3.27738 200.004 -1.60644 200.258 0.0404188 200.108C1.68728 199.958 3.37021 199.774 5.00505 199.485C6.66393 199.185 8.28667 198.84 9.88545 198.401C11.4842 197.963 13.2633 197.894 14.8019 197.317C16.3406 196.741 17.9515 196.095 19.4301 195.391C20.9087 194.688 22.3632 193.777 23.7816 192.935C25.2001 192.093 26.4382 190.94 27.7605 189.983C29.0948 189.014 30.5133 188.126 31.7515 187.042C32.9896 185.958 33.6507 184.343 34.7806 183.167C35.9106 181.991 37.6056 181.252 38.6033 179.972C39.6131 178.692 40.1179 177.078 40.9955 175.705C41.873 174.333 42.9308 173.087 43.6881 171.646C44.4455 170.204 44.9745 168.693 45.5755 167.194C46.1765 165.695 46.3447 164.092 46.8015 162.547C47.2583 161.001 48.0758 159.571 48.3883 157.98C48.7009 156.388 48.5567 154.797 48.7129 153.182C48.8692 151.602 49.2899 150.034 49.2899 148.408L49.2538 148.431Z" stroke="white" stroke-width="2" stroke-miterlimit="10"/>
<path d="M60.8293 148.431C60.8293 146.759 61.0938 145.098 60.9615 143.449C60.8293 141.8 60.661 140.128 60.3966 138.49C60.1201 136.841 59.6753 135.227 59.2665 133.623C58.8578 132.02 58.8939 130.244 58.365 128.676C57.8361 127.108 57.3072 125.458 56.6461 123.936C55.9849 122.414 54.302 121.307 53.5207 119.831C52.7393 118.354 52.5228 116.567 51.6093 115.148C50.6957 113.73 49.2292 112.692 48.2074 111.343C47.1856 109.993 46.9452 108.056 45.8153 106.787C44.6853 105.519 42.6056 105.104 41.3795 103.927C40.1533 102.751 39.0355 101.517 37.7132 100.444C36.3909 99.3604 35.5734 97.6881 34.167 96.7078C32.7605 95.7276 31.1979 94.9434 29.7193 94.0669C28.2407 93.202 26.6299 92.5446 25.0792 91.7835C23.5406 91.0339 21.7615 90.7916 20.1628 90.1458C18.564 89.5 17.1094 88.5544 15.4505 88.0354C13.7916 87.5165 12.0125 87.5856 10.3176 87.1935C8.62264 86.8014 7.16819 85.406 5.43719 85.1523C3.70618 84.8986 1.96305 84.7717 0.220022 84.6449C-1.523 84.518 -3.266 84.5872 -5.00903 84.5872C-6.75206 84.5872 -8.47095 85.2791 -10.1779 85.406C-11.8849 85.5328 -13.64 85.5559 -15.347 85.8096C-17.0659 86.0749 -18.9292 85.7058 -20.6121 86.0864C-22.295 86.467 -23.8938 87.3089 -25.5406 87.8163C-27.1875 88.3237 -28.5339 89.6038 -30.1327 90.2381C-31.7315 90.8724 -33.3422 91.4259 -34.8809 92.1756C-36.4316 92.9367 -37.9342 93.6979 -39.4007 94.5743C-40.8673 95.4508 -42.6464 95.9006 -44.0408 96.8693C-45.4352 97.838 -46.481 99.2681 -47.7913 100.352C-49.1016 101.436 -50.4358 102.474 -51.662 103.65C-52.8881 104.827 -54.0903 106.003 -55.2202 107.272C-56.3502 108.54 -57.7085 109.624 -58.7302 110.974C-59.752 112.323 -61.0503 113.511 -61.9639 114.929C-62.8775 116.348 -63.4305 117.985 -64.2239 119.473C-65.0052 120.949 -65.7384 122.483 -66.3996 124.017C-67.0607 125.551 -67.8301 127.073 -68.371 128.665C-68.9119 130.256 -68.5033 132.067 -68.912 133.693C-69.3207 135.319 -70.7392 136.726 -71.0037 138.386C-71.2681 140.024 -70.3906 141.8 -70.5228 143.472C-70.655 145.121 -70.9555 146.748 -70.9555 148.42C-70.9555 150.092 -71.244 151.764 -71.1118 153.413C-70.9796 155.086 -71.1598 156.804 -70.8954 158.43C-70.6309 160.056 -69.8616 161.659 -69.4529 163.262C-69.0442 164.865 -68.3109 166.41 -67.782 167.99C-67.2411 169.582 -67.0487 171.277 -66.3875 172.811C-65.7264 174.356 -64.3079 175.544 -63.5145 177.02C-62.7212 178.497 -62.1443 180.065 -61.2427 181.484C-60.3411 182.902 -59.139 184.101 -58.1292 185.451C-57.1194 186.8 -56.6507 188.553 -55.5208 189.822C-54.3908 191.09 -53.2127 192.324 -51.9866 193.5C-50.7604 194.677 -49.4983 195.842 -48.176 196.926C-46.8537 198.01 -45.0385 198.459 -43.6321 199.44C-42.2377 200.42 -41.0956 201.758 -39.617 202.623C-38.1385 203.488 -36.5397 204.133 -34.989 204.895C-33.4383 205.656 -31.7435 206.013 -30.1447 206.659C-28.5459 207.305 -26.9952 207.939 -25.3364 208.458C-23.6775 208.977 -22.223 210.05 -20.528 210.442C-18.8331 210.834 -17.1621 211.376 -15.4431 211.63C-13.7241 211.883 -11.933 211.56 -10.202 211.687C-8.47098 211.814 -6.76408 211.537 -5.00903 211.537C-3.25398 211.537 -1.52288 211.964 0.196103 211.837C1.91509 211.71 3.64599 211.41 5.35296 211.145C7.05992 210.88 8.81499 210.719 10.4859 210.338C12.1808 209.946 13.6474 208.873 15.2942 208.366C16.9531 207.847 18.8404 207.997 20.4392 207.363C22.038 206.728 23.7089 206.152 25.2476 205.391C26.7862 204.629 27.82 202.992 29.2986 202.127C30.7772 201.25 32.3278 200.547 33.7342 199.578C35.1407 198.609 37.1001 198.286 38.4224 197.202C39.7447 196.118 40.442 194.377 41.6681 193.201C42.8942 192.024 44.0002 190.767 45.1301 189.499C46.2601 188.23 47.5343 187.1 48.5561 185.751C49.5778 184.401 51.0443 183.329 51.9579 181.91C52.8595 180.492 53.3163 178.796 54.0977 177.32C54.879 175.844 55.3478 174.218 56.0089 172.673C56.6701 171.127 56.8504 169.467 57.3914 167.875C57.9323 166.284 58.9902 164.888 59.3989 163.262C59.7956 161.659 59.5311 159.929 59.8076 158.28C60.0841 156.631 60.7452 155.074 60.8774 153.402C61.0097 151.73 60.8173 150.104 60.8173 148.42L60.8293 148.431Z" stroke="white" stroke-width="2" stroke-miterlimit="10"/>
<path d="M72.7897 148.432C72.7897 146.714 73.7995 144.961 73.6793 143.266C73.5591 141.547 73.2224 139.829 72.982 138.145C72.7416 136.462 72.7657 134.663 72.4051 133.002C72.0444 131.318 71.6958 129.588 71.215 127.951C70.7342 126.313 68.8349 125.067 68.2459 123.464C67.6569 121.861 66.8515 120.351 66.1422 118.794C65.433 117.237 65.9859 115.069 65.1685 113.558C64.351 112.036 63.4856 110.479 62.56 109.026C61.6344 107.561 60.5284 106.154 59.5067 104.759C58.4849 103.363 56.3331 102.775 55.2151 101.449C54.0972 100.123 53.2798 98.5542 52.0657 97.3086C50.8516 96.0631 49.4452 95.0137 48.135 93.8489C46.8247 92.6841 46.0313 90.9657 44.6489 89.8817C43.2665 88.8092 41.5836 88.0711 40.129 87.0793C38.6745 86.0875 37.268 85.0265 35.7414 84.1385C34.2147 83.2505 32.2313 83.2044 30.6445 82.4202C29.0698 81.636 27.8436 80.1713 26.2088 79.4793C24.5739 78.7874 22.9993 77.9456 21.3163 77.3805C19.6334 76.8154 17.5778 77.4612 15.8588 76.9999C14.1398 76.5386 12.7696 74.8318 11.0145 74.4858C9.25946 74.1398 7.39609 74.5089 5.617 74.2782C3.83791 74.0476 2.14297 73.2518 0.363881 73.1364C-1.41521 73.0211 -3.2183 73.8169 -5.00942 73.8169C-6.80053 73.8169 -8.53156 74.1513 -10.2986 74.2667C-12.0897 74.382 -13.9409 73.6323 -15.696 73.863C-17.451 74.0936 -19.1218 74.9586 -20.8528 75.2931C-22.5839 75.6275 -24.363 75.8812 -26.07 76.331C-27.777 76.7807 -29.7844 76.4809 -31.4553 77.0575C-33.1262 77.6341 -34.6889 78.6144 -36.3237 79.2948C-37.9585 79.9752 -39.401 81.0823 -40.9758 81.8666C-42.5625 82.6508 -44.2575 83.2505 -45.7841 84.1385C-47.3108 85.0265 -49.162 85.4993 -50.6045 86.4911C-52.047 87.4829 -53.3574 88.74 -54.7398 89.824C-56.1222 90.9081 -57.3363 92.2113 -58.6466 93.3761C-59.9568 94.5409 -61.3031 95.6941 -62.5172 96.9396C-63.7313 98.1851 -64.0799 100.157 -65.2099 101.483C-66.3399 102.81 -68.4797 103.386 -69.5135 104.782C-70.5473 106.177 -70.6915 108.149 -71.6171 109.602C-72.5427 111.055 -74.3939 112.036 -75.2234 113.558C-76.0528 115.08 -75.644 117.156 -76.3533 118.736C-77.0625 120.316 -78.7815 121.492 -79.3705 123.107C-79.9596 124.721 -80.6688 126.336 -81.1496 127.997C-81.6304 129.657 -80.5125 131.653 -80.8852 133.336C-81.2578 135.02 -81.9911 136.577 -82.2315 138.284C-82.4719 139.991 -83.049 141.617 -83.1692 143.335C-83.2894 145.03 -83.3494 146.737 -83.3494 148.467C-83.3494 150.197 -83.085 151.892 -82.9648 153.587C-82.8446 155.306 -83.3494 157.082 -83.121 158.765C-82.8926 160.449 -82.0992 162.098 -81.7506 163.759C-81.39 165.443 -81.378 167.219 -80.8972 168.856C-80.4164 170.494 -79.7431 172.132 -79.1541 173.735C-78.5651 175.338 -76.6898 176.468 -75.9806 178.025C-75.2713 179.582 -76.1008 181.865 -75.2834 183.387C-74.466 184.91 -72.9273 186.075 -72.0017 187.539C-71.0761 189.004 -70.0303 190.399 -69.0085 191.795C-67.9868 193.19 -66.6885 194.39 -65.5586 195.716C-64.4286 197.042 -63.503 198.518 -62.2889 199.775C-61.0748 201.032 -59.2475 201.667 -57.9493 202.831C-56.651 203.996 -55.485 205.265 -54.1147 206.349C-52.7443 207.433 -51.8307 209.105 -50.3762 210.097C-48.9217 211.089 -47.0825 211.504 -45.5558 212.392C-44.0292 213.28 -42.6107 214.306 -41.0239 215.102C-39.4492 215.886 -38.175 217.351 -36.5401 218.031C-34.9053 218.712 -33.1744 219.265 -31.4914 219.842C-29.8205 220.407 -27.6448 219.484 -25.9258 219.946C-24.2068 220.407 -22.8725 222.333 -21.1295 222.679C-19.3864 223.025 -17.5592 223.082 -15.7801 223.313C-14.001 223.544 -12.1377 222.575 -10.3466 222.69C-8.57954 222.806 -6.84851 222.771 -5.0574 222.771C-3.26629 222.771 -1.47525 223.475 0.279799 223.359C2.07091 223.244 3.86195 223.255 5.617 223.025C7.37205 222.794 9.27147 222.99 11.0025 222.644C12.7575 222.298 14.2601 220.937 15.9671 220.476C17.6861 220.015 19.441 219.692 21.1119 219.115C22.7948 218.539 24.6582 218.389 26.293 217.708C27.9278 217.028 29.0217 215.275 30.6084 214.491C32.1952 213.706 34.2388 213.73 35.7534 212.842C37.2801 211.954 38.1096 210.085 39.5641 209.105C41.0186 208.125 43.2544 208.125 44.6248 207.052C45.9952 205.98 47.3174 204.769 48.6157 203.604C49.9139 202.439 50.7916 200.848 52.0177 199.602C53.2438 198.357 53.9409 196.708 55.0589 195.381C56.1768 194.055 58.2685 193.432 59.2902 192.037C60.312 190.641 60.9973 189.004 61.9229 187.539C62.8485 186.075 63.8342 184.633 64.6516 183.122C65.4691 181.612 66.8273 180.297 67.5365 178.717C68.2458 177.16 68.0294 175.199 68.6305 173.585C69.2315 171.97 70.1451 170.459 70.626 168.799C71.1068 167.138 70.6981 165.316 71.0708 163.632C71.4314 161.972 71.9122 160.345 72.1527 158.639C72.3931 156.932 72.7416 155.283 72.8618 153.564C72.9821 151.869 72.7296 150.174 72.7296 148.444L72.7897 148.432Z" stroke="white" stroke-width="2" stroke-miterlimit="10"/>
<path d="M83.9696 148.431C83.9696 146.678 86.0613 144.879 85.9531 143.149C85.8449 141.419 84.5947 139.736 84.3783 138.017C84.1619 136.276 83.6811 134.604 83.3565 132.897C83.032 131.19 84.2341 129.114 83.8013 127.43C83.3686 125.747 80.4114 124.709 79.8705 123.06C79.3295 121.41 80.9884 119 80.3393 117.386C79.6902 115.771 78.1155 114.456 77.3702 112.876C76.6249 111.285 76.132 109.555 75.2786 108.021C74.4251 106.487 72.8864 105.311 71.9367 103.823C70.9871 102.336 70.6865 100.433 69.6527 99.0027C68.6189 97.5726 66.4913 96.9153 65.3734 95.5429C64.2554 94.1705 63.6784 92.3945 62.4643 91.0913C61.2501 89.7881 59.3749 89.1308 58.1007 87.8968C56.8265 86.6628 56.0451 84.956 54.6868 83.8027C53.3284 82.6495 51.982 81.4962 50.5515 80.4122C49.121 79.3396 48.3638 77.333 46.8732 76.3412C45.3826 75.3494 42.6298 76.2259 41.0791 75.3148C39.5284 74.4037 39.1077 71.5782 37.4969 70.7594C35.8861 69.9406 34.071 69.3986 32.4121 68.6836C30.7532 67.9686 28.313 69.0872 26.606 68.4645C24.8991 67.8417 23.1921 67.5073 21.449 66.9883C19.706 66.4694 18.1554 65.616 16.3763 65.2008C14.5972 64.7856 12.8661 64.578 11.075 64.2666C9.28391 63.9552 7.64908 63.0212 5.83393 62.8136C4.04282 62.606 2.22766 62.6751 0.412506 62.5714C-1.39063 62.4676 -3.16973 62.4445 -5.00892 62.4445C-6.84811 62.4445 -8.63925 62.26 -10.4424 62.3638C-12.2696 62.4676 -14.229 61.2797 -16.0201 61.4873C-17.8112 61.6949 -19.2777 64.1629 -21.0568 64.4743C-22.8479 64.7856 -25.0957 63.0327 -26.8508 63.4478C-28.6058 63.863 -30.1806 65.1431 -31.8996 65.6505C-33.6186 66.158 -35.2895 66.9538 -36.9724 67.5765C-38.6553 68.1993 -40.8191 67.8763 -42.466 68.5913C-44.1129 69.3063 -44.9783 71.6244 -46.5891 72.4317C-48.1999 73.2389 -49.8828 73.8617 -51.4335 74.7613C-52.9842 75.6608 -55.0278 75.8453 -56.5183 76.8371C-58.0089 77.8289 -58.658 79.9163 -60.0765 80.9888C-61.507 82.0613 -62.8173 83.1915 -64.1756 84.3448C-65.534 85.498 -66.8082 86.6744 -68.0945 87.8968C-69.3807 89.1308 -71.3161 89.7305 -72.5182 91.0452C-73.7203 92.3599 -75.4872 93.2364 -76.6052 94.6088C-77.7231 95.9811 -78.6007 97.5726 -79.6345 99.0027C-80.6683 100.433 -81.7622 101.874 -82.6998 103.362C-83.6375 104.85 -83.5052 106.925 -84.3467 108.471C-85.1882 110.005 -85.4045 111.792 -86.1498 113.384C-86.8951 114.964 -87.6644 116.474 -88.3015 118.112C-88.9386 119.75 -90.85 120.926 -91.3909 122.598C-91.9319 124.259 -91.8116 126.093 -92.2443 127.799C-92.6771 129.483 -93.7951 131.04 -94.1197 132.758C-94.4442 134.477 -93.6748 136.333 -93.8912 138.075C-94.1076 139.816 -93.6749 141.535 -93.7831 143.276C-93.8912 145.006 -94.937 146.678 -94.937 148.431C-94.937 150.184 -93.8551 151.856 -93.747 153.586C-93.6388 155.339 -94.1196 157.069 -93.9032 158.799C-93.6869 160.529 -95.1655 162.535 -94.8409 164.242C-94.5163 165.949 -92.8574 167.437 -92.4247 169.12C-91.9919 170.816 -91.1986 172.407 -90.6697 174.056C-90.1408 175.706 -91.0183 177.885 -90.3692 179.511C-89.72 181.137 -86.7989 181.864 -86.0536 183.444C-85.3083 185.035 -86.3421 187.446 -85.5007 188.979C-84.6592 190.513 -82.2069 191.194 -81.2693 192.681C-80.3317 194.169 -79.358 195.576 -78.3242 197.006C-77.2904 198.436 -76.1846 199.751 -75.0666 201.112C-73.9487 202.473 -74.5256 205.217 -73.3235 206.52C-72.1214 207.824 -69.4288 207.801 -68.1426 209.035C-66.8563 210.269 -66.9885 212.956 -65.6301 214.109C-64.2718 215.262 -61.6753 215.031 -60.2448 216.104C-58.8143 217.177 -57.7445 218.699 -56.2419 219.691C-54.7393 220.682 -53.3688 221.859 -51.8181 222.77C-50.2674 223.669 -48.5245 224.292 -46.9137 225.099C-45.3149 225.907 -43.7281 226.806 -42.0692 227.521C-40.4224 228.236 -38.6433 228.686 -36.9363 229.309C-35.2293 229.932 -33.3902 230.07 -31.6472 230.589C-29.9042 231.108 -28.3775 232.273 -26.6104 232.688C-24.8433 233.103 -23.2565 234.498 -21.4654 234.81C-19.6863 235.121 -17.5586 233.414 -15.7555 233.622C-13.9644 233.83 -12.1613 233.46 -10.3461 233.564C-8.53097 233.668 -6.8 234.014 -4.97282 234.014C-3.14565 234.014 -1.39063 233.841 0.412506 233.749C2.23968 233.645 4.09095 234.36 5.88206 234.152C7.69721 233.945 9.58442 234.21 11.3635 233.899C13.1546 233.587 14.8736 232.907 16.6287 232.492C18.3837 232.077 19.9104 230.866 21.6414 230.347C23.3724 229.828 24.9111 228.928 26.606 228.305C28.301 227.683 30.1401 227.521 31.799 226.806C33.4579 226.091 35.5856 226.31 37.1964 225.491C38.8072 224.673 40.4781 223.9 42.0288 223C43.5795 222.101 44.1324 219.737 45.623 218.745C47.1136 217.753 49.8544 218.387 51.2849 217.315C52.7154 216.242 53.052 213.878 54.4103 212.725C55.7687 211.572 56.9948 210.338 58.281 209.104C59.5673 207.87 61.3824 207.155 62.5965 205.852C63.8106 204.548 64.58 202.911 65.6979 201.538C66.8159 200.166 69.184 199.659 70.2178 198.217C71.2516 196.787 70.915 194.481 71.8647 192.993C72.8023 191.505 74.329 190.34 75.1824 188.795C76.0239 187.261 76.2762 185.439 77.0215 183.847C77.7668 182.256 79.1252 180.918 79.7743 179.281C80.4115 177.655 81.2409 176.052 81.7819 174.379C82.3228 172.707 81.8178 170.77 82.2506 169.074C82.6833 167.391 83.3205 165.753 83.645 164.035C83.9696 162.328 85.2198 160.725 85.4361 158.983C85.6525 157.265 85.1717 155.443 85.2799 153.69C85.388 151.96 84.0178 150.207 84.0178 148.454L83.9696 148.431Z" stroke="white" stroke-width="2" stroke-miterlimit="10"/>
<path d="M98.0464 148.431C98.0464 146.586 98.2749 144.694 98.1667 142.872C98.0585 141.05 98.371 139.09 98.1667 137.279C97.9623 135.468 97.6618 133.542 97.3492 131.743C97.0367 129.944 95.6422 128.26 95.2215 126.484C94.8008 124.685 94.32 122.886 93.7911 121.122C93.2622 119.357 91.5552 117.95 90.9301 116.22C90.305 114.491 90.3411 112.518 89.6078 110.835C88.8746 109.151 87.456 107.744 86.6265 106.095C85.7971 104.446 85.7731 102.381 84.8595 100.778C83.9339 99.1754 83.5252 97.2264 82.5035 95.6695C81.4817 94.1126 78.3563 93.9281 77.2503 92.4289C76.1444 90.9296 75.0145 89.5457 73.8244 88.1157C72.6344 86.6857 73.0791 83.9294 71.8048 82.5686C70.5306 81.2077 69.8093 79.2472 68.451 77.944C67.0926 76.6408 65.3736 75.6029 63.9552 74.3804C62.5367 73.158 60.3249 72.7544 58.8343 71.6126C57.3437 70.4709 55.3603 69.975 53.7976 68.9025C52.2469 67.8415 50.9726 66.3999 49.3498 65.4196C47.739 64.4393 46.1162 63.4591 44.4453 62.5711C42.7744 61.6831 40.8992 61.1872 39.1802 60.3914C37.4612 59.5957 36.5837 56.8971 34.8166 56.1936C33.0495 55.4901 30.441 56.8048 28.6378 56.1936C26.8347 55.5824 25.5124 53.4489 23.6732 52.9415C21.834 52.434 19.2736 54.7059 17.3984 54.3023C15.5471 53.8987 14.1286 51.4307 12.2414 51.1309C10.3661 50.831 8.52699 49.8392 6.61567 49.6316C4.72839 49.4241 2.76893 48.8243 0.845588 48.7205C-1.07775 48.6167 -3.06117 50.7156 -4.98451 50.7156C-6.90785 50.7156 -8.79513 50.8656 -10.6944 50.9694C-12.5937 51.0732 -14.6132 50.1736 -16.5005 50.3812C-18.3877 50.5888 -19.9505 53.0452 -21.8258 53.3451C-23.701 53.6449 -25.5282 53.8756 -27.3794 54.2792C-29.2306 54.6829 -31.5266 53.4258 -33.3537 53.9217C-35.1809 54.4176 -37.3568 54.1178 -39.1479 54.7175C-40.939 55.3171 -41.7683 58.4194 -43.5234 59.1229C-45.2904 59.8264 -48.0553 58.3617 -49.7743 59.1575C-51.4933 59.9532 -52.0222 62.9517 -53.6931 63.8397C-55.364 64.7277 -57.7561 64.3817 -59.3669 65.3504C-60.9777 66.3191 -61.9274 68.2221 -63.4781 69.2946C-65.0288 70.3671 -66.0626 71.9817 -67.5532 73.1234C-69.0438 74.2651 -72.3254 73.354 -73.7439 74.5764C-75.1743 75.7989 -76.9174 76.7907 -78.2758 78.0824C-79.6221 79.374 -80.3073 81.3576 -81.5815 82.73C-82.8557 84.0908 -84.9474 84.8751 -86.1375 86.3166C-87.3275 87.7467 -87.3876 90.0647 -88.4935 91.5639C-89.5994 93.0516 -91.5228 94.078 -92.5445 95.6349C-93.5663 97.1802 -92.3642 99.9942 -93.2898 101.597C-94.2154 103.2 -97.7857 103.5 -98.6272 105.149C-99.4686 106.798 -97.1846 109.785 -97.9178 111.481C-98.6511 113.176 -100.118 114.525 -100.755 116.255C-101.392 117.985 -102.33 119.588 -102.859 121.352C-103.387 123.117 -104.505 124.72 -104.926 126.519C-105.347 128.318 -103.796 130.429 -104.121 132.239C-104.433 134.038 -105.78 135.653 -105.984 137.486C-106.188 139.32 -106.345 141.096 -106.441 142.941C-106.549 144.763 -106.369 146.563 -106.369 148.408C-106.369 150.253 -107.39 152.098 -107.282 153.92C-107.174 155.766 -106.441 157.542 -106.224 159.352C-106.008 161.163 -106.91 163.169 -106.597 164.968C-106.284 166.768 -105.563 168.555 -105.142 170.343C-104.722 172.142 -104.024 173.883 -103.496 175.636C-102.967 177.389 -103.279 179.465 -102.642 181.195C-102.005 182.925 -99.9134 184.159 -99.1921 185.842C-98.4709 187.526 -98.9757 189.798 -98.1463 191.447C-97.3169 193.096 -96.247 194.699 -95.3214 196.302C-94.3958 197.905 -92.5927 199.047 -91.5709 200.604C-90.5491 202.161 -90.8256 204.606 -89.7197 206.094C-88.6137 207.593 -85.9571 208.019 -84.7671 209.449C-83.577 210.879 -81.5816 211.618 -80.3074 212.99C-79.0331 214.362 -78.42 216.277 -77.0616 217.568C-75.7153 218.86 -74.6936 220.509 -73.2631 221.732C-71.8327 222.954 -69.4284 223.023 -67.9378 224.165C-66.4472 225.307 -65.666 227.313 -64.1032 228.374C-62.5405 229.435 -61.8793 231.857 -60.2565 232.837C-58.6457 233.818 -56.4339 233.979 -54.763 234.867C-53.0921 235.755 -51.0485 235.997 -49.3175 236.793C-47.5865 237.589 -45.8796 238.396 -44.1005 239.1C-42.3214 239.803 -40.7105 240.899 -38.9074 241.51C-37.1043 242.121 -35.3372 242.94 -33.486 243.447C-31.6347 243.955 -29.7476 244.381 -27.8723 244.785C-26.0211 245.189 -24.1578 245.892 -22.2585 246.204C-20.3832 246.503 -18.3877 246.446 -16.4764 246.642C-14.5651 246.838 -12.4976 244.647 -10.5863 244.751C-8.67496 244.854 -6.87175 245.812 -4.94841 245.812C-3.02507 245.812 -1.21 244.658 0.677278 244.554C2.56456 244.451 4.60821 246.065 6.49549 245.869C8.38277 245.673 10.4263 246.157 12.3015 245.858C14.1888 245.546 16.016 244.774 17.8792 244.37C19.7425 243.966 21.6659 243.655 23.493 243.148C25.3202 242.64 26.7988 241.002 28.5899 240.403C30.381 239.803 32.701 240.414 34.4561 239.722C36.2231 239.019 38.3989 239.019 40.1178 238.223C41.8368 237.427 42.0412 233.795 43.7121 232.907C45.383 232.019 47.102 231.35 48.7128 230.381C50.3236 229.412 52.1267 228.778 53.6774 227.717C55.2401 226.656 57.1874 226.137 58.678 224.995C60.1686 223.854 61.539 222.573 62.9695 221.363C64.4 220.152 65.013 218.156 66.3594 216.865C67.7057 215.573 70.5667 215.654 71.8409 214.293C73.1152 212.932 74.197 211.352 75.387 209.922C76.5771 208.492 76.0843 205.863 77.1902 204.364C78.2961 202.864 81.7822 202.899 82.804 201.354C83.8258 199.808 84.8956 198.182 85.8212 196.579C86.7468 194.976 85.8332 192.427 86.6626 190.778C87.4921 189.129 89.0788 187.803 89.8121 186.108C90.5454 184.412 89.2592 182.025 89.8963 180.295C90.5334 178.565 92.6611 177.343 93.19 175.578C93.719 173.814 92.9136 171.773 93.3463 169.974C93.767 168.198 95.2215 166.641 95.534 164.83C95.8466 163.031 96.2674 161.243 96.4837 159.41C96.7001 157.576 97.3732 155.8 97.4814 153.966C97.5896 152.133 98.0704 150.288 98.0704 148.442L98.0464 148.431Z" stroke="white" stroke-width="2" stroke-miterlimit="10"/>
<path d="M111.473 148.432C111.473 146.506 109.946 144.557 109.838 142.654C109.73 140.74 109.525 138.791 109.321 136.9C109.117 135.008 109.477 132.956 109.177 131.076C108.864 129.185 105.366 127.858 104.945 126.002C104.525 124.145 105.21 122.057 104.705 120.224C104.2 118.39 103.479 116.614 102.866 114.803C102.253 112.993 101.832 111.125 101.111 109.349C100.39 107.561 99.3077 105.958 98.5023 104.217C97.6969 102.475 97.9012 100.272 96.9997 98.5656C96.0981 96.8588 95.9659 94.7022 94.9682 93.053C93.9705 91.3924 89.8473 91.6115 88.7654 90.0084C87.6835 88.4054 89.8232 84.692 88.6452 83.1466C87.4672 81.6013 85.7121 80.4019 84.462 78.9257C83.2118 77.4495 80.423 77.2074 79.0887 75.7889C77.7543 74.3704 77.3936 72.0869 75.9752 70.7376C74.5567 69.3883 73.8715 67.2432 72.393 65.9631C70.9144 64.683 69.4238 63.2876 67.8851 62.0767C66.3344 60.8773 64.6274 59.7471 63.0166 58.6169C61.4058 57.4983 58.4247 58.2479 56.7538 57.1984C55.0829 56.1605 54.9987 52.5508 53.2797 51.5936C51.5607 50.6364 48.5316 51.8589 46.7525 50.9939C44.9854 50.129 43.9635 47.6379 42.1484 46.8653C40.3332 46.0926 38.6504 44.7086 36.7871 44.0167C34.9239 43.3247 32.5558 43.7745 30.6565 43.1748C28.7692 42.5867 26.8098 41.9754 24.8744 41.4911C22.939 41.0067 21.2081 39.3922 19.2487 38.9885C17.2893 38.5849 14.5966 42.0562 12.6132 41.7679C10.6538 41.4681 8.74245 41.4565 6.74698 41.2605C4.75152 41.0644 3.05659 37.7776 1.0491 37.6853C-0.958387 37.5931 -3.00197 37.1895 -4.99744 37.1895C-6.9929 37.1895 -8.89222 40.8107 -10.8757 40.903C-12.8711 41.0068 -15.0469 38.5618 -17.0183 38.7579C-19.0138 38.9539 -21.2256 37.9621 -23.185 38.262C-25.1444 38.5618 -26.6711 41.4911 -28.6065 41.8832C-30.5418 42.2753 -32.5734 42.333 -34.4967 42.8173C-36.4201 43.3017 -38.4395 43.5208 -40.3268 44.109C-42.2261 44.6971 -43.897 45.885 -45.7482 46.577C-47.5995 47.2689 -50.1478 46.4501 -51.9629 47.2343C-53.7781 48.0185 -55.7015 48.7682 -57.4686 49.6331C-59.2357 50.498 -60.4256 52.5046 -62.1566 53.4618C-63.8876 54.419 -65.6908 55.2725 -67.3617 56.3104C-69.0326 57.3599 -69.4654 60.0585 -71.0762 61.1771C-72.687 62.2958 -73.9251 63.7489 -75.4638 64.9483C-77.0145 66.1477 -79.3826 66.3206 -80.8612 67.6007C-82.3397 68.8808 -84.9723 69.0077 -86.3787 70.357C-87.7851 71.7063 -86.9197 75.0969 -88.254 76.5154C-89.5884 77.9339 -91.5237 78.7527 -92.7859 80.2404C-94.0481 81.7281 -95.9715 82.6738 -97.1375 84.2192C-98.3035 85.7645 -101.092 86.295 -102.186 87.898C-103.268 89.5011 -104.735 91.0003 -105.732 92.6494C-106.73 94.2986 -106.381 96.7434 -107.295 98.4503C-108.197 100.146 -110.348 101.357 -111.154 103.109C-111.959 104.862 -108.786 108.184 -109.507 109.971C-110.228 111.759 -114.147 112.416 -114.76 114.238C-115.373 116.06 -113.57 118.563 -114.087 120.408C-114.604 122.253 -117.417 123.568 -117.825 125.448C-118.234 127.316 -118.739 129.231 -119.052 131.122C-119.364 133.002 -117.861 135.135 -118.066 137.05C-118.27 138.964 -119.773 140.752 -119.881 142.678C-119.989 144.604 -119.965 146.529 -119.965 148.455C-119.965 150.381 -120.458 152.353 -120.35 154.256C-120.242 156.159 -117.585 157.9 -117.381 159.792C-117.176 161.683 -120.41 164.07 -120.109 165.95C-119.809 167.83 -116.167 169.191 -115.758 171.048C-115.349 172.904 -114.772 174.703 -114.255 176.549C-113.738 178.405 -115.962 181.046 -115.349 182.857C-114.736 184.667 -110.745 185.359 -110.036 187.135C-109.327 188.911 -108.137 190.422 -107.331 192.164C-106.526 193.905 -105.444 195.404 -104.542 197.111C-103.641 198.818 -106.91 202.693 -105.913 204.354C-104.915 206.014 -101.405 206.245 -100.323 207.848C-99.229 209.451 -99.3252 211.85 -98.1592 213.395C-96.9812 214.94 -93.7356 214.94 -92.4854 216.428C-91.2352 217.916 -90.7062 219.934 -89.3719 221.352C-88.0376 222.771 -87.7011 225.101 -86.2946 226.461C-84.8882 227.822 -82.9408 228.664 -81.4622 229.944C-79.9836 231.224 -78.5412 232.551 -76.9905 233.761C-75.4398 234.972 -74.7425 237.302 -73.1317 238.432C-71.5209 239.551 -69.201 239.805 -67.5301 240.842C-65.8592 241.88 -65.0538 244.418 -63.3228 245.375C-61.5917 246.332 -58.9592 245.848 -57.1801 246.713C-55.413 247.577 -54.283 249.942 -52.4558 250.726C-50.6287 251.51 -47.1906 248.558 -45.3274 249.25C-43.4762 249.93 -42.3583 252.548 -40.459 253.136C-38.5717 253.724 -36.4921 253.747 -34.5567 254.243C-32.6214 254.739 -30.662 254.993 -28.7026 255.397C-26.7432 255.8 -24.9161 256.734 -22.9326 257.034C-20.9492 257.334 -18.9657 257.507 -16.9822 257.703C-14.9988 257.899 -13.0994 259.744 -11.092 259.837C-9.08447 259.929 -7.01695 259.387 -5.00947 259.387C-3.00198 259.387 -1.0425 257.369 0.92892 257.276C2.90034 257.184 4.69148 255.258 6.6629 255.062C8.63432 254.866 10.9904 257.588 12.9498 257.299C14.9092 257.011 17.0969 257.449 19.0443 257.057C20.9917 256.665 22.0375 252.686 23.9608 252.202C25.8842 251.718 27.6994 251.222 29.5866 250.634C31.4859 250.045 34.5152 252.606 36.3785 251.914C38.2417 251.222 40.141 250.449 41.9562 249.676C43.7713 248.904 44.4324 245.79 46.2115 244.925C47.9905 244.06 50.9238 245.236 52.6427 244.279C54.3617 243.322 54.554 239.989 56.2249 238.94C57.8958 237.89 60.8168 238.64 62.4156 237.51C64.0143 236.379 65.1684 234.661 66.7191 233.45C68.2698 232.251 70.3855 231.651 71.8641 230.382C73.3427 229.102 75.5425 228.457 76.9489 227.107C78.3554 225.758 79.2088 223.809 80.5431 222.39C81.8775 220.972 83.3801 219.623 84.6303 218.135C85.8804 216.647 85.1711 213.718 86.3492 212.173C87.5152 210.627 89.8833 209.901 90.9651 208.286C92.047 206.672 91.398 204.1 92.3957 202.439C93.3934 200.778 95.0282 199.533 95.9298 197.826C96.8313 196.131 99.1154 195.058 99.9208 193.305C100.726 191.552 102.758 190.226 103.467 188.439C104.176 186.651 103.912 184.46 104.537 182.638C105.162 180.816 104.393 178.601 104.909 176.745C105.426 174.888 108.239 173.539 108.648 171.67C109.057 169.802 105.534 167.242 105.847 165.339C106.16 163.459 107.891 161.81 108.095 159.896C108.299 157.981 111.076 156.251 111.184 154.325C111.293 152.399 111.461 150.404 111.461 148.478L111.473 148.432Z" stroke="white" stroke-width="2" stroke-miterlimit="10"/>
<path d="M120.657 148.432C120.657 146.379 120.609 144.361 120.501 142.32C120.392 140.278 121.919 138.087 121.703 136.069C121.486 134.028 118.241 132.367 117.916 130.36C117.591 128.331 119.07 126.047 118.637 124.052C118.204 122.045 115.356 120.638 114.827 118.655C114.298 116.671 118.072 113.511 117.435 111.574C116.798 109.613 112.158 108.979 111.413 107.065C110.667 105.15 114.033 101.644 113.192 99.7645C112.35 97.8847 107.049 97.9654 106.112 96.1432C105.174 94.3096 109.129 89.9848 108.095 88.1973C107.061 86.4098 105.018 85.0374 103.888 83.3075C102.758 81.5776 101.712 79.6517 100.486 77.9795C99.2716 76.2957 95.2807 76.538 93.9704 74.9234C92.6601 73.3089 93.5497 69.9413 92.1673 68.3844C90.7728 66.8391 88.1042 66.3201 86.6377 64.8439C85.1711 63.3678 82.8392 62.7219 81.3005 61.315C79.7618 59.908 79.6416 56.9672 78.0188 55.6294C76.396 54.2917 72.3209 55.9063 70.638 54.6607C68.9551 53.4152 68.1256 51.1894 66.3825 50.0246C64.6395 48.8599 65.3367 44.0393 63.5216 42.9552C61.7064 41.8711 58.9898 42.0211 57.1265 41.0293C55.2633 40.0375 52.4623 40.6602 50.551 39.7607C48.6397 38.8611 46.8486 37.6733 44.8892 36.8661C42.9298 36.0588 40.742 35.805 38.7345 35.09C36.727 34.375 35.6692 30.8575 33.6377 30.2463C31.6062 29.6351 28.3966 32.8181 26.3291 32.3107C24.2735 31.8033 22.0375 32.3453 19.9459 31.9416C17.8663 31.538 16.2435 28.9201 14.1278 28.6087C12.0122 28.2973 10.1369 25.8871 7.99722 25.691C5.88155 25.4834 3.58547 26.3945 1.44576 26.2907C-0.693958 26.1869 -2.86973 29.4506 -5.00945 29.4506C-7.14916 29.4506 -9.10847 30.823 -11.2241 30.9268C-13.3639 31.0306 -15.3474 30.9037 -17.451 31.1113C-19.5547 31.3188 -21.9468 28.9317 -24.0505 29.2315C-26.1661 29.5429 -28.919 26.7404 -30.9986 27.1556C-33.0782 27.5708 -34.2682 31.9416 -36.3237 32.4491C-38.3913 32.9565 -40.3267 33.683 -42.3462 34.2943C-44.3657 34.9055 -46.5656 34.9286 -48.561 35.6436C-50.5565 36.3586 -53.0087 35.9896 -54.9561 36.7853C-56.9155 37.5926 -59.512 37.212 -61.4233 38.1115C-63.3346 39.0111 -63.8637 42.5055 -65.7269 43.4973C-67.5901 44.4891 -71.0641 42.9322 -72.8672 44.0047C-74.6704 45.0888 -76.6658 46.1036 -78.4088 47.2684C-80.1519 48.4331 -79.0219 53.3691 -80.7049 54.6261C-82.3878 55.8832 -84.1909 56.8288 -85.8017 58.1551C-87.4125 59.4928 -89.7806 59.9195 -91.3313 61.3265C-92.8699 62.7335 -94.5168 64.0021 -95.9833 65.4898C-97.4499 66.9775 -98.7843 68.5344 -100.167 70.0797C-101.549 71.6251 -105.42 71.2906 -106.73 72.9167C-108.04 74.5428 -106.73 78.0487 -107.944 79.7325C-109.158 81.4162 -111.25 82.5233 -112.38 84.2532C-113.51 85.9831 -116.299 86.8595 -117.332 88.6471C-118.366 90.4346 -115.409 94.2288 -116.347 96.0625C-117.284 97.8962 -123.259 97.5387 -124.1 99.4301C-124.942 101.298 -123.199 104.285 -123.944 106.2C-124.689 108.114 -125.158 110.144 -125.807 112.093C-126.444 114.042 -128.848 115.576 -129.377 117.559C-129.906 119.531 -126.492 122.403 -126.913 124.409C-127.334 126.405 -128.235 128.25 -128.56 130.28C-128.885 132.309 -131.337 134.051 -131.553 136.092C-131.77 138.122 -129.966 140.301 -130.075 142.354C-130.183 144.384 -129.329 146.391 -129.329 148.443C-129.329 150.496 -130.387 152.514 -130.279 154.544C-130.171 156.597 -131.938 158.788 -131.733 160.806C-131.517 162.847 -128.019 164.462 -127.694 166.48C-127.37 168.498 -128.055 170.632 -127.634 172.627C-127.202 174.634 -126.637 176.56 -126.108 178.532C-125.579 180.504 -124.016 182.13 -123.379 184.079C-122.742 186.039 -121.72 187.735 -120.975 189.649C-120.229 191.563 -121.347 194.124 -120.506 195.992C-119.664 197.86 -120.614 200.57 -119.677 202.404C-118.739 204.238 -118.643 206.625 -117.609 208.401C-116.575 210.188 -115.529 212.126 -114.399 213.856C-113.269 215.586 -111.755 217.235 -110.529 218.907C-109.303 220.579 -107.596 222.044 -106.297 223.658C-104.999 225.273 -102.475 226.023 -101.08 227.568C-99.6858 229.113 -100.275 232.504 -98.7963 233.98C-97.3298 235.456 -91.0427 232.319 -89.5041 233.726C-87.9654 235.133 -86.9557 236.898 -85.3449 238.224C-83.7341 239.55 -83.4697 242.353 -81.7868 243.598C-80.1038 244.844 -80.2 248.5 -78.457 249.664C-76.7139 250.829 -73.9612 250.691 -72.158 251.775C-70.3549 252.859 -69.237 255.223 -67.3738 256.215C-65.5105 257.207 -63.7794 258.717 -61.8681 259.617C-59.9568 260.516 -57.8772 261.393 -55.9058 262.2C-53.9584 263.007 -51.7586 263.63 -49.7631 264.334C-47.7677 265.037 -45.2313 264.553 -43.1998 265.164C-41.1683 265.775 -38.4996 264.288 -36.432 264.807C-34.3765 265.314 -32.0444 264.357 -29.9407 264.772C-27.8371 265.187 -26.0339 266.513 -23.9183 266.813C-21.8026 267.113 -19.9754 269.339 -17.8477 269.546C-15.732 269.754 -13.5081 268.624 -11.3684 268.728C-9.22867 268.831 -7.14916 266.975 -5.00945 266.975C-2.86973 266.975 -0.874178 266.652 1.2415 266.548C3.35717 266.444 5.32848 265.914 7.43213 265.706C9.53578 265.499 12.4689 271.276 14.5606 270.976C16.6522 270.677 18.9843 270.55 21.0639 270.135C23.1555 269.719 24.9225 267.448 26.9781 266.94C29.0457 266.433 31.4379 266.663 33.4694 266.052C35.5009 265.441 37.0637 263.25 39.0591 262.546C41.0546 261.843 42.0523 258.775 44.0117 257.979C45.9711 257.184 49.7938 260.205 51.7051 259.306C53.6164 258.406 55.2874 256.815 57.1506 255.823C59.0138 254.831 60.8048 253.539 62.608 252.455C64.4111 251.371 64.1227 247.254 65.8657 246.078C67.6208 244.913 70.0249 244.717 71.7079 243.471C73.3908 242.226 75.5544 241.545 77.1652 240.219C78.776 238.893 78.0789 235.214 79.6175 233.796C81.1562 232.377 84.5821 232.908 86.0487 231.431C87.5152 229.955 86.6498 226.576 88.0442 225.019C89.4386 223.462 91.5904 222.701 92.8886 221.087C94.1869 219.472 99.2115 220.475 100.438 218.803C101.664 217.131 99.1995 213.118 100.329 211.376C101.459 209.646 106.532 210.131 107.578 208.343C108.624 206.556 106.34 203.073 107.29 201.239C108.227 199.406 109.405 197.722 110.247 195.842C111.088 193.974 113.793 192.786 114.526 190.871C115.259 188.957 115.969 186.962 116.606 185.001C117.243 183.052 117.183 180.861 117.712 178.878C118.241 176.906 121.294 175.383 121.715 173.377C122.135 171.37 118.385 168.602 118.709 166.572C119.034 164.543 117.592 162.421 117.808 160.368C118.024 158.315 118.986 156.47 119.094 154.417C119.202 152.387 120.645 150.427 120.645 148.374L120.657 148.432Z" stroke="white" stroke-width="2" stroke-miterlimit="10"/>
<path d="M135.154 148.431C135.154 146.321 132.666 144.233 132.57 142.146C132.474 140.059 134.289 137.775 134.085 135.688C133.88 133.6 133.712 131.409 133.411 129.333C133.111 127.257 130.214 125.551 129.805 123.498C129.396 121.445 127.569 119.727 127.052 117.685C126.535 115.644 128.062 113.119 127.449 111.112C126.836 109.105 125.357 107.364 124.648 105.38C123.939 103.397 126.632 100.133 125.814 98.1839C124.997 96.2233 124.191 94.136 123.278 92.2216C122.364 90.3072 118.95 89.4883 117.953 87.62C116.943 85.7518 113.95 84.9791 112.856 83.157C111.762 81.3348 112.351 78.5785 111.161 76.8141C109.971 75.0496 107.374 74.2424 106.1 72.5355C104.826 70.8287 104.381 68.5914 103.023 66.9307C101.664 65.2816 97.9379 65.6391 96.5074 64.0476C95.077 62.4561 96.0866 58.858 94.5719 57.3357C93.0573 55.8134 91.639 54.2334 90.0522 52.7803C88.4655 51.3272 84.9793 52.0076 83.3204 50.6237C81.6615 49.2514 81.2889 46.5412 79.5699 45.238C77.8509 43.9348 74.966 44.2924 73.1869 43.0699C71.4078 41.8475 71.3236 38.3646 69.4844 37.2229C67.6452 36.0812 64.5318 37.073 62.6325 36.0235C60.7332 34.974 59.0022 33.9131 57.0548 32.9443C55.1075 31.9756 54.7108 28.0776 52.7033 27.2012C50.6958 26.3247 47.7988 27.5587 45.7672 26.7745C43.7357 25.9902 41.572 25.7942 39.4924 25.1022C37.4127 24.4103 35.9703 22.0807 33.8546 21.4925C31.739 20.9044 30.2002 18.2173 28.0605 17.7214C25.9328 17.2255 23.2161 19.2091 21.0524 18.817C18.8886 18.4249 16.3161 21.1927 14.1283 20.9044C11.9646 20.6045 10.6903 13.0276 8.50251 12.8316C6.31471 12.6355 3.9466 12.8316 1.74678 12.7393C-0.453037 12.6471 -2.78506 13.512 -4.98488 13.512C-7.1847 13.512 -9.24024 18.8747 -11.416 18.9784C-13.5918 19.0822 -16.0802 14.9305 -18.256 15.1266C-20.4317 15.3226 -22.92 14.0656 -25.0717 14.3654C-27.2234 14.6653 -29.6157 14.7575 -31.7554 15.1496C-33.9191 15.5417 -35.3976 19.2783 -37.5133 19.7742C-39.629 20.2701 -42.1053 19.6935 -44.197 20.2816C-46.2886 20.8698 -46.7213 26.3016 -48.7889 26.9936C-50.8565 27.6855 -55.6769 21.2849 -57.7084 22.0576C-59.7399 22.8303 -61.543 24.5486 -63.5265 25.4251C-65.5099 26.3016 -64.7767 32.5522 -66.7241 33.5094C-68.6715 34.4666 -73.576 30.2457 -75.4633 31.2952C-77.3626 32.3446 -80.1754 32.2754 -82.0146 33.4171C-83.8538 34.5589 -83.6134 38.849 -85.4046 40.0714C-87.1957 41.2939 -88.9387 42.5971 -90.6577 43.9002C-92.3767 45.2034 -94.324 46.299 -95.9828 47.6714C-97.6417 49.0438 -100.839 48.9284 -102.426 50.3815C-104.013 51.8346 -101.104 57.5894 -102.618 59.1117C-104.133 60.6339 -110.54 57.8892 -111.971 59.4807C-113.401 61.0722 -113.101 64.1745 -114.447 65.8351C-115.793 67.4958 -114.88 70.7595 -116.154 72.4779C-117.428 74.1847 -119.147 75.534 -120.337 77.2985C-121.527 79.063 -122.104 81.1157 -123.21 82.9378C-124.316 84.76 -129.509 84.4601 -130.507 86.3284C-131.505 88.1967 -131.829 90.5263 -132.743 92.4407C-133.656 94.3436 -128.824 98.5875 -129.641 100.536C-130.459 102.485 -139.198 101.621 -139.907 103.616C-140.616 105.599 -133.692 109.959 -134.317 111.977C-134.943 113.995 -136.818 115.552 -137.335 117.605C-137.852 119.657 -139.847 121.318 -140.256 123.394C-140.665 125.447 -139.066 127.776 -139.366 129.864C-139.679 131.94 -141.181 133.808 -141.398 135.907C-141.614 138.006 -146.302 139.839 -146.398 141.95C-146.495 144.06 -142.708 146.298 -142.708 148.408C-142.708 150.519 -139.619 152.468 -139.523 154.566C-139.426 156.665 -144.896 159.133 -144.691 161.209C-144.487 163.285 -141.746 165.165 -141.434 167.241C-141.121 169.328 -140.845 171.404 -140.436 173.468C-140.027 175.533 -140.568 177.828 -140.051 179.857C-139.535 181.887 -142.323 184.92 -141.698 186.938C-141.085 188.956 -134.594 189.245 -133.885 191.228C-133.175 193.212 -135.892 196.453 -135.087 198.402C-134.269 200.362 -131.985 201.769 -131.084 203.683C-130.17 205.598 -127.514 206.67 -126.504 208.539C-125.494 210.407 -129.473 214.974 -128.379 216.796C-127.285 218.618 -123.475 219.01 -122.297 220.775C-121.119 222.539 -120.445 224.742 -119.171 226.46C-117.897 228.179 -115.781 229.366 -114.423 231.027C-113.065 232.676 -112.692 235.213 -111.249 236.805C-109.819 238.396 -108.244 240.022 -106.73 241.545C-105.215 243.067 -100.346 241.383 -98.7597 242.836C-97.173 244.29 -98.976 249.329 -97.3171 250.713C-95.6583 252.097 -92.3165 251.636 -90.5975 252.939C-88.8785 254.242 -85.3685 253.181 -83.5894 254.404C-81.8103 255.626 -79.382 255.672 -77.5308 256.814C-75.6916 257.956 -74.8021 260.32 -72.9028 261.369C-71.0035 262.419 -68.6354 262.373 -66.688 263.341C-64.7406 264.31 -63.5866 266.559 -61.5911 267.435C-59.6077 268.312 -59.8242 274.251 -57.7806 275.035C-55.7371 275.819 -52.7438 274.47 -50.6642 275.151C-48.5966 275.831 -46.3488 276.212 -44.2451 276.811C-42.1535 277.399 -39.7854 277.203 -37.6456 277.699C-35.518 278.195 -32.5006 274.355 -30.3369 274.747C-28.1971 275.139 -26.971 280.479 -24.7953 280.778C-22.6195 281.078 -20.6601 283.984 -18.4723 284.181C-16.2845 284.377 -13.7241 280.294 -11.5123 280.398C-9.30044 280.502 -7.16063 282.451 -4.96081 282.451C-2.76099 282.451 -0.657321 278.968 1.51846 278.876C3.69424 278.783 5.80992 278.61 7.98569 278.414C10.1735 278.218 12.3853 278.864 14.549 278.564C16.7248 278.264 19.4897 281.217 21.6414 280.825C23.7931 280.432 25.8246 279.026 27.9403 278.53C30.056 278.034 32.388 277.884 34.4796 277.296C36.5833 276.707 39.1677 277.18 41.2353 276.488C43.3029 275.796 45.2624 274.447 47.2939 273.663C49.3254 272.879 49.8303 268.589 51.8138 267.724C53.7972 266.859 57.9323 270.065 59.8797 269.108C61.8271 268.139 62.7047 265.083 64.592 264.033C66.4792 262.984 68.2583 261.646 70.0975 260.504C71.9367 259.363 71.0832 254.53 72.8623 253.308C74.6414 252.086 76.7571 251.543 78.4761 250.24C80.1951 248.937 86.6141 253.043 88.261 251.659C89.9199 250.286 86.8066 243.828 88.3933 242.375C89.9801 240.922 95.2572 243.032 96.7719 241.51C98.2865 239.988 100.005 238.489 101.436 236.897C102.866 235.306 101.328 231.315 102.686 229.666C104.044 228.017 108.156 228.317 109.43 226.599C110.704 224.892 110.884 222.378 112.074 220.613C113.264 218.849 112.375 215.873 113.469 214.051C114.563 212.229 113.012 209.161 114.022 207.293C115.032 205.425 116.33 203.903 117.243 201.988C118.157 200.085 126.379 201.169 127.197 199.209C128.014 197.248 120.585 192.37 121.307 190.375C122.028 188.38 127.617 187.988 128.242 185.97C128.868 183.951 130.478 182.141 130.995 180.088C131.512 178.035 128.663 175.302 129.084 173.238C129.505 171.173 131.981 169.466 132.282 167.379C132.594 165.303 129.192 162.858 129.409 160.759C129.625 158.66 128.507 156.665 128.615 154.555C128.711 152.468 135.178 150.553 135.178 148.443L135.154 148.431Z" stroke="white" stroke-width="2" stroke-miterlimit="10"/>
<path d="M145.276 148.431C145.276 146.205 146.587 143.921 146.491 141.707C146.394 139.493 149.424 136.921 149.207 134.718C148.991 132.504 146.623 130.359 146.31 128.18C145.998 125.977 147.272 123.37 146.851 121.202C146.43 119.011 144.591 116.947 144.062 114.802C143.533 112.634 144.243 109.993 143.618 107.871C142.98 105.726 143.738 102.946 143.004 100.847C142.271 98.737 133.869 99.1982 133.039 97.1339C132.21 95.0696 133.256 92.2903 132.318 90.2721C131.38 88.2539 130.407 86.2241 129.385 84.2405C128.351 82.2569 127.245 80.308 126.115 78.3705C124.985 76.433 124.216 74.2765 123.002 72.3967C121.776 70.5053 117.592 70.5515 116.294 68.7293C114.984 66.8957 114.984 64.2893 113.589 62.5248C112.195 60.7603 115.344 55.4439 113.866 53.737C112.387 52.0302 110.945 50.0351 109.382 48.3975C107.819 46.7599 99.6452 51.1768 98.0104 49.6084C96.3756 48.0399 99.4648 41.7893 97.7458 40.3016C96.0389 38.8024 92.661 39.0676 90.882 37.6491C89.1029 36.2306 88.622 33.1745 86.7708 31.8367C84.9195 30.4989 78.4884 35.4233 76.5771 34.1663C74.6658 32.9092 77.7912 24.3636 75.8198 23.1988C73.8483 22.0341 72.5141 19.4739 70.4946 18.3898C68.4751 17.3057 65.518 17.5249 63.4504 16.5331C61.3828 15.5413 56.4782 20.3388 54.3505 19.4392C52.2228 18.5397 50.2514 17.7324 48.0877 16.9251C45.9239 16.1179 45.0705 12.07 42.8706 11.355C40.6828 10.6515 38.9037 8.46026 36.6799 7.84904C34.456 7.23782 30.6694 12.6351 28.4095 12.1276C26.1496 11.6202 24.9715 6.6958 22.6876 6.28063C20.4036 5.86546 18.1556 5.19655 15.8596 4.88517C13.5636 4.57379 10.8349 8.62171 8.51489 8.41412C6.21891 8.21807 3.99511 9.86721 1.67509 9.77495C-0.620901 9.67116 -2.68856 9.15222 -5.00859 9.15222C-7.32862 9.15222 -9.48036 7.95282 -11.7763 8.05662C-14.0723 8.16041 -16.9212 1.07943 -19.2172 1.27548C-21.5132 1.47153 -23.0038 8.70245 -25.2878 9.00229C-27.5838 9.30214 -29.5672 10.3977 -31.8271 10.8014C-34.1111 11.205 -37.9938 4.21634 -40.2297 4.72377C-42.4656 5.2312 -45.0981 5.15043 -47.31 5.76165C-49.5218 6.37288 -51.6375 7.98747 -53.8253 8.67942C-56.0131 9.37137 -55.5202 17.2019 -57.672 17.9977C-59.8357 18.8049 -63.8989 14.9762 -66.0145 15.8642C-68.1302 16.7637 -69.5246 19.151 -71.5802 20.1428C-73.6358 21.1346 -74.4892 24.1792 -76.5087 25.2632C-78.5282 26.3473 -81.7739 25.2631 -83.7333 26.4279C-85.6927 27.5927 -90.489 24.7673 -92.4003 26.0243C-94.3116 27.2814 -92.9173 33.0476 -94.7565 34.3854C-96.5957 35.7232 -95.4777 40.4169 -97.2568 41.8239C-99.0359 43.2309 -102.197 42.8388 -103.904 44.3265C-105.611 45.8257 -105.623 48.7434 -107.258 50.3118C-108.893 51.8803 -113.437 50.5771 -114.988 52.2263C-116.55 53.8639 -118.317 55.2593 -119.796 56.9661C-121.274 58.673 -122.801 60.299 -124.196 62.0635C-125.59 63.828 -131.961 62.2826 -133.271 64.1163C-134.582 65.9385 -136.337 67.7836 -137.563 69.6749C-138.789 71.5663 -138.849 74.3457 -139.979 76.2947C-141.109 78.2321 -139.053 81.8994 -140.087 83.8946C-141.121 85.8897 -144.355 86.9622 -145.292 88.9919C-146.23 91.0217 -138.825 96.3036 -139.654 98.3794C-140.484 100.444 -150.87 99.1752 -151.603 101.286C-152.336 103.385 -146.554 107.467 -147.192 109.612C-147.829 111.757 -151.832 113.014 -152.36 115.182C-152.889 117.339 -151.519 119.888 -151.94 122.079C-152.36 124.27 -148.069 127.026 -148.382 129.241C-148.694 131.455 -154.632 132.896 -154.837 135.111C-155.041 137.313 -150.678 139.735 -150.786 141.961C-150.894 144.164 -153.274 146.205 -153.274 148.431C-153.274 150.656 -149.596 152.64 -149.487 154.843C-149.379 157.045 -160.294 160.009 -160.078 162.212C-159.862 164.415 -150.521 165.683 -150.209 167.874C-149.896 170.066 -155.714 173.214 -155.294 175.394C-154.873 177.585 -156.916 180.445 -156.387 182.602C-155.858 184.758 -153.887 186.788 -153.262 188.921C-152.625 191.066 -144.03 190.824 -143.297 192.923C-142.563 195.034 -148.442 199.393 -147.612 201.457C-146.771 203.533 -139.991 203.21 -139.053 205.24C-138.116 207.27 -144.535 212.644 -143.501 214.627C-142.467 216.611 -133.596 214.639 -132.478 216.576C-131.348 218.514 -135.832 223.577 -134.618 225.456C-133.391 227.348 -128.583 226.99 -127.285 228.824C-125.975 230.658 -121.96 230.415 -120.565 232.18C-119.171 233.944 -121.142 238.108 -119.664 239.814C-118.185 241.521 -120.974 246.907 -119.423 248.545C-117.873 250.182 -114.158 250.055 -112.523 251.624C-110.888 253.192 -106.188 251.67 -104.481 253.158C-102.774 254.657 -106.212 261.934 -104.445 263.352C-102.666 264.771 -95.9946 260.377 -94.1434 261.715C-92.3042 263.052 -89.6235 263.064 -87.7242 264.321C-85.8249 265.578 -86.5221 270.549 -84.5506 271.725C-82.5792 272.901 -79.5861 272.382 -77.5666 273.466C-75.5471 274.55 -72.8303 274.181 -70.7507 275.173C-68.6711 276.165 -70.0656 284.353 -67.9499 285.241C-65.8342 286.129 -62.9372 285.795 -60.7734 286.59C-58.6097 287.386 -54.2341 282.416 -52.0463 283.131C-49.8585 283.834 -47.5865 283.949 -45.3626 284.549C-43.1387 285.149 -40.7827 284.664 -38.5228 285.172C-36.2629 285.679 -35.6738 293.798 -33.3899 294.202C-31.1059 294.605 -27.7641 288.955 -25.4681 289.254C-23.1842 289.554 -21.5372 295.701 -19.2292 295.897C-16.9332 296.093 -14.481 297.097 -12.161 297.2C-9.86497 297.304 -7.31659 293.279 -4.99656 293.279C-2.67653 293.279 -0.128151 297.373 2.16784 297.27C4.46382 297.166 7.00028 296.647 9.28425 296.439C11.5923 296.232 13.0588 288.609 15.3308 288.297C17.6027 287.986 19.514 286.279 21.774 285.875C24.0339 285.472 28.1691 293.441 30.405 292.933C32.6409 292.426 32.8332 284.145 35.0571 283.546C37.2809 282.946 40.3222 285.172 42.51 284.468C44.7098 283.765 45.7195 280.213 47.8712 279.417C50.035 278.61 52.2228 278.298 54.3385 277.41C56.4541 276.511 59.7119 278.114 61.7674 277.122C63.823 276.13 68.1024 278.944 70.1219 277.86C72.1414 276.776 71.3841 271.033 73.3435 269.868C75.315 268.692 81.073 272.936 82.9723 271.679C84.8836 270.422 80.1954 260.4 82.0346 259.062C83.8738 257.724 88.4057 259.869 90.1848 258.451C91.9639 257.032 97.7338 259.881 99.4408 258.382C101.148 256.883 95.8225 248.337 97.4573 246.769C99.0922 245.2 108.493 250.724 110.043 249.087C111.606 247.449 106.449 240.137 107.928 238.431C109.406 236.724 117.039 239.665 118.434 237.9C119.828 236.136 115.32 230.231 116.631 228.397C117.941 226.564 117.785 224.015 119.011 222.124C120.237 220.232 122.377 219.067 123.507 217.13C124.637 215.193 128.447 214.697 129.481 212.701C130.515 210.718 127.534 207.027 128.471 204.998C129.409 202.968 129.445 200.811 130.286 198.736C131.116 196.671 136.08 196.164 136.814 194.053C137.547 191.954 142.632 191.066 143.269 188.921C143.906 186.776 143.113 184.158 143.642 181.99C144.171 179.834 143.365 177.32 143.786 175.128C144.207 172.937 143.485 170.562 143.81 168.359C144.122 166.168 147.777 164.253 147.993 162.039C148.198 159.836 144.086 157.288 144.182 155.062C144.279 152.836 145.24 150.668 145.24 148.442L145.276 148.431Z" stroke="white" stroke-width="2" stroke-miterlimit="10"/>
</svg>
