<svg xmlns="http://www.w3.org/2000/svg" width="155" height="299" fill="none"><path stroke="#fff" stroke-miterlimit="10" stroke-width="2" d="M49.254 148.431c0-1.615.036-3.229-.12-4.809-.157-1.58-.133-3.252-.433-4.821-.313-1.591-.854-3.137-1.31-4.671-.457-1.533-.866-3.136-1.467-4.624s-1.395-2.952-2.14-4.382c-.745-1.442-1.478-2.918-2.356-4.267-.877-1.361-1.743-2.78-2.753-4.06s-2.584-2.122-3.702-3.31c-1.13-1.188-2.188-2.422-3.414-3.506a51 51 0 0 0-3.847-3.067 55 55 0 0 0-4.135-2.722c-1.43-.853-2.86-1.661-4.351-2.376-1.49-.715-3.126-1.107-4.688-1.695-1.551-.577-3.078-1.2-4.689-1.638-1.598-.438-3.125-1.245-4.784-1.545-1.635-.288-3.318-.542-4.989-.68-1.646-.15-3.353.473-5.036.473s-3.378-.45-5.025-.312c-1.647.139-3.318.554-4.94.842s-3.33.496-4.93.934c-1.598.438-2.98 1.522-4.531 2.099s-3.378.588-4.869 1.292c-1.502.715-3.053 1.407-4.46 2.249-1.406.841-2.752 1.868-4.086 2.837-1.335.968-2.284 2.387-3.51 3.459a53 53 0 0 0-3.523 3.379c-1.117 1.177-2.416 2.226-3.425 3.506-1.01 1.28-2.068 2.537-2.946 3.898-.877 1.361-1.238 2.987-1.995 4.429-.757 1.441-1.767 2.733-2.368 4.232-.601 1.488-1.166 3.01-1.623 4.555-.457 1.546-.48 3.16-.793 4.752-.3 1.568-.385 3.137-.53 4.751-.144 1.615-.264 3.149-.264 4.763 0 1.615-.024 3.195.12 4.775.145 1.58-.216 3.275.085 4.843.312 1.592 1.262 3.022 1.706 4.556.445 1.534 1.046 3.021 1.647 4.509s.698 3.206 1.443 4.636 1.527 2.895 2.404 4.244c.878 1.349 1.911 2.664 2.921 3.944s2.56 2.122 3.679 3.31c1.13 1.188 2.007 2.595 3.233 3.679 1.238 1.084 2.609 2.006 3.943 2.975s2.8 1.707 4.231 2.56c1.43.854 2.765 1.8 4.256 2.515 1.49.715 2.86 1.729 4.435 2.306 1.551.577 3.294.68 4.905 1.119 1.599.438 3.282.461 4.929.749 1.646.289 3.221.692 4.904.842s3.294.046 4.977.046 3.354.254 5 .104c1.647-.15 3.33-.334 4.965-.623 1.659-.3 3.282-.645 4.88-1.084 1.6-.438 3.378-.507 4.917-1.084 1.539-.576 3.15-1.222 4.628-1.926 1.479-.703 2.933-1.614 4.352-2.456 1.418-.842 2.656-1.995 3.979-2.952 1.334-.969 2.752-1.857 3.99-2.941s1.9-2.699 3.03-3.875 2.825-1.915 3.822-3.195c1.01-1.28 1.515-2.894 2.392-4.267.878-1.372 1.936-2.618 2.693-4.059s1.286-2.953 1.887-4.452.77-3.102 1.226-4.647c.457-1.546 1.275-2.976 1.587-4.567s.169-3.183.325-4.798c.156-1.58.577-3.148.577-4.774z"/><path stroke="#fff" stroke-miterlimit="10" stroke-width="2" d="M60.83 148.431c0-1.672.264-3.333.132-4.982-.133-1.649-.301-3.321-.565-4.959-.277-1.649-.722-3.263-1.13-4.867-.41-1.603-.373-3.379-.902-4.947s-1.058-3.218-1.719-4.74-2.344-2.629-3.125-4.105-.998-3.264-1.912-4.683c-.913-1.418-2.38-2.456-3.402-3.805-1.021-1.35-1.262-3.287-2.392-4.556-1.13-1.268-3.21-1.683-4.435-2.86-1.227-1.176-2.345-2.41-3.667-3.483-1.322-1.084-2.14-2.756-3.546-3.736-1.407-.98-2.97-1.765-4.448-2.641-1.478-.865-3.09-1.522-4.64-2.283-1.538-.75-3.317-.992-4.916-1.638s-3.054-1.592-4.712-2.11c-1.66-.52-3.439-.45-5.133-.843-1.695-.392-3.15-1.787-4.88-2.04-1.732-.254-3.475-.381-5.218-.508s-3.486-.058-5.229-.058-3.462.692-5.169.819-3.462.15-5.169.404c-1.719.265-3.582-.104-5.265.276-1.683.381-3.282 1.223-4.929 1.73-1.646.508-2.993 1.788-4.592 2.422s-3.21 1.188-4.748 1.938c-1.55.76-3.053 1.522-4.52 2.398s-3.245 1.327-4.64 2.295c-1.394.969-2.44 2.4-3.75 3.483s-2.645 2.122-3.871 3.298-2.428 2.353-3.558 3.622-2.489 2.352-3.51 3.702c-1.022 1.349-2.32 2.537-3.234 3.955-.913 1.419-1.467 3.056-2.26 4.544a64 64 0 0 0-2.176 4.544c-.66 1.534-1.43 3.056-1.971 4.648-.54 1.591-.132 3.402-.541 5.028s-1.827 3.033-2.092 4.693c-.264 1.638.613 3.414.481 5.086-.132 1.649-.433 3.276-.433 4.948s-.288 3.344-.156 4.993c.132 1.673-.048 3.391.217 5.017.264 1.626 1.033 3.229 1.442 4.832s1.142 3.148 1.671 4.728c.54 1.592.733 3.287 1.394 4.821.662 1.545 2.08 2.733 2.874 4.209.793 1.477 1.37 3.045 2.271 4.464.902 1.418 2.104 2.617 3.114 3.967 1.01 1.349 1.478 3.102 2.608 4.371a65 65 0 0 0 3.534 3.678c1.227 1.177 2.489 2.342 3.811 3.426s3.138 1.533 4.544 2.514c1.394.98 2.536 2.318 4.015 3.183s3.077 1.51 4.628 2.272c1.55.761 3.245 1.118 4.844 1.764s3.15 1.28 4.809 1.799 3.113 1.592 4.808 1.984 3.366.934 5.085 1.188 3.51-.07 5.241.057 3.438-.15 5.193-.15 3.486.427 5.205.3c1.72-.127 3.45-.427 5.157-.692s3.462-.426 5.133-.807c1.695-.392 3.161-1.465 4.808-1.972 1.66-.519 3.546-.369 5.145-1.003 1.599-.635 3.27-1.211 4.809-1.972 1.538-.762 2.572-2.399 4.05-3.264 1.48-.877 3.03-1.58 4.436-2.549s3.366-1.292 4.688-2.376c1.323-1.084 2.02-2.825 3.246-4.001s2.332-2.434 3.462-3.702c1.13-1.269 2.404-2.399 3.426-3.748s2.488-2.422 3.402-3.841c.901-1.418 1.358-3.114 2.14-4.59.781-1.476 1.25-3.102 1.91-4.647.662-1.546.842-3.206 1.383-4.798.541-1.591 1.6-2.987 2.008-4.613.397-1.603.132-3.333.409-4.982s.937-3.206 1.07-4.878c.132-1.672-.06-3.298-.06-4.982z"/><path stroke="#fff" stroke-miterlimit="10" stroke-width="2" d="M72.79 148.432c0-1.718 1.01-3.471.89-5.166-.12-1.719-.458-3.437-.698-5.121-.24-1.683-.216-3.482-.577-5.143-.36-1.684-.71-3.414-1.19-5.051s-2.38-2.884-2.97-4.487c-.588-1.603-1.394-3.113-2.103-4.67s-.156-3.725-.974-5.236c-.817-1.522-1.682-3.079-2.608-4.532-.926-1.465-2.032-2.872-3.053-4.267-1.022-1.396-3.174-1.984-4.292-3.31s-1.935-2.895-3.15-4.14c-1.213-1.246-2.62-2.295-3.93-3.46s-2.104-2.883-3.486-3.967c-1.383-1.073-3.065-1.81-4.52-2.803-1.454-.991-2.861-2.052-4.388-2.94s-3.51-.935-5.096-1.719c-1.575-.784-2.801-2.249-4.436-2.94-1.635-.693-3.21-1.534-4.893-2.1-1.683-.565-3.738.081-5.457-.38-1.72-.461-3.09-2.168-4.844-2.514-1.756-.346-3.619.023-5.398-.208-1.78-.23-3.474-1.026-5.253-1.142-1.78-.115-3.582.68-5.373.68s-3.523.335-5.29.45c-1.79.116-3.642-.634-5.397-.403s-3.426 1.096-5.157 1.43-3.51.588-5.217 1.038-3.714.15-5.385.727c-1.671.576-3.234 1.556-4.869 2.237-1.635.68-3.077 1.787-4.652 2.572-1.587.784-3.282 1.383-4.808 2.271-1.527.888-3.378 1.361-4.82 2.353s-2.753 2.249-4.136 3.333c-1.382 1.084-2.596 2.387-3.907 3.552s-2.656 2.318-3.87 3.564-1.563 3.217-2.693 4.543-3.27 1.903-4.303 3.299c-1.034 1.395-1.178 3.367-2.104 4.82s-2.777 2.434-3.606 3.956c-.83 1.522-.421 3.598-1.13 5.178-.71 1.58-2.428 2.756-3.018 4.371-.589 1.614-1.298 3.229-1.779 4.89s.638 3.656.265 5.339-1.106 3.241-1.346 4.948-.818 3.333-.938 5.051a73 73 0 0 0-.18 5.132c0 1.73.264 3.425.384 5.12.12 1.719-.384 3.495-.156 5.178.228 1.684 1.022 3.333 1.37 4.994.361 1.684.373 3.46.854 5.097.48 1.638 1.154 3.276 1.743 4.879s2.464 2.733 3.173 4.29-.12 3.84.698 5.362c.817 1.523 2.356 2.688 3.281 4.152.926 1.465 1.972 2.86 2.993 4.256 1.022 1.395 2.32 2.595 3.45 3.921s2.056 2.802 3.27 4.059 3.041 1.892 4.34 3.056 2.464 2.434 3.834 3.518 2.284 2.756 3.739 3.748c1.454.992 3.293 1.407 4.82 2.295s2.945 1.914 4.532 2.71c1.575.784 2.849 2.249 4.484 2.929 1.635.681 3.366 1.234 5.049 1.811 1.67.565 3.846-.358 5.565.104s3.053 2.387 4.796 2.733 3.57.403 5.35.634 3.642-.738 5.433-.623c1.767.116 3.498.081 5.29.081 1.79 0 3.582.704 5.337.588 1.79-.115 3.582-.104 5.337-.334s3.654-.035 5.385-.381c1.755-.346 3.258-1.707 4.965-2.168 1.72-.461 3.474-.784 5.145-1.361 1.683-.576 3.546-.726 5.181-1.407 1.635-.68 2.729-2.433 4.315-3.217s3.63-.761 5.145-1.649c1.527-.888 2.357-2.757 3.811-3.737 1.455-.98 3.69-.98 5.06-2.053 1.371-1.072 2.693-2.283 3.992-3.448s2.176-2.756 3.402-4.002 1.923-2.894 3.04-4.221c1.119-1.326 3.21-1.949 4.232-3.344 1.022-1.396 1.707-3.033 2.633-4.498.925-1.464 1.911-2.906 2.729-4.417.817-1.51 2.175-2.825 2.885-4.405.709-1.557.492-3.518 1.093-5.132.602-1.615 1.515-3.126 1.996-4.786.48-1.661.072-3.483.445-5.167.36-1.66.841-3.287 1.082-4.993.24-1.707.589-3.356.709-5.075.12-1.695-.132-3.39-.132-5.12z"/><path stroke="#fff" stroke-miterlimit="10" stroke-width="2" d="M83.97 148.431c0-1.753 2.091-3.552 1.983-5.282s-1.358-3.413-1.575-5.132c-.216-1.741-.697-3.413-1.022-5.12-.324-1.707.878-3.783.445-5.467-.432-1.683-3.39-2.721-3.93-4.37-.541-1.65 1.117-4.06.468-5.674s-2.224-2.93-2.969-4.51c-.745-1.591-1.238-3.321-2.091-4.855s-2.393-2.71-3.342-4.198c-.95-1.487-1.25-3.39-2.284-4.82s-3.162-2.088-4.28-3.46c-1.118-1.373-1.695-3.149-2.909-4.452s-3.09-1.96-4.363-3.194-2.056-2.941-3.414-4.094-2.705-2.307-4.135-3.39c-1.431-1.073-2.188-3.08-3.679-4.072s-4.243-.115-5.794-1.026-1.971-3.737-3.582-4.556c-1.61-.818-3.426-1.36-5.085-2.075s-4.099.403-5.806-.22c-1.707-.622-3.414-.957-5.157-1.476s-3.294-1.372-5.073-1.787-3.51-.623-5.301-.934-3.426-1.246-5.241-1.453c-1.791-.208-3.606-.139-5.421-.243-1.804-.103-3.583-.127-5.422-.127-1.84 0-3.63-.184-5.433-.08-1.828.104-3.787-1.084-5.578-.877s-3.258 2.676-5.037 2.987c-1.79.312-4.039-1.441-5.794-1.026s-3.33 1.695-5.049 2.202c-1.719.508-3.39 1.304-5.072 1.926-1.683.623-3.847.3-5.494 1.015s-2.512 3.033-4.123 3.84c-1.61.808-3.294 1.43-4.845 2.33s-3.594 1.084-5.084 2.076-2.14 3.08-3.559 4.152c-1.43 1.072-2.74 2.203-4.099 3.356a94 94 0 0 0-3.918 3.552c-1.287 1.234-3.222 1.834-4.424 3.148s-2.97 2.191-4.087 3.564c-1.118 1.372-1.996 2.964-3.03 4.394s-2.127 2.871-3.065 4.359c-.937 1.488-.805 3.563-1.647 5.109-.841 1.534-1.058 3.321-1.803 4.913-.745 1.58-1.514 3.09-2.151 4.728-.638 1.638-2.549 2.814-3.09 4.486-.54 1.661-.42 3.495-.853 5.201-.433 1.684-1.551 3.241-1.876 4.959-.324 1.719.445 3.575.229 5.317-.217 1.741.216 3.46.108 5.201-.108 1.73-1.154 3.402-1.154 5.155s1.082 3.425 1.19 5.155c.108 1.753-.373 3.483-.156 5.213.216 1.73-1.262 3.736-.938 5.443s1.984 3.195 2.416 4.878c.433 1.696 1.226 3.287 1.755 4.936.53 1.65-.348 3.829.3 5.455.65 1.626 3.571 2.353 4.316 3.933.746 1.591-.288 4.002.553 5.535.842 1.534 3.294 2.215 4.232 3.702a81 81 0 0 0 2.945 4.325c1.034 1.43 2.14 2.745 3.257 4.106 1.118 1.361.541 4.105 1.743 5.408 1.203 1.304 3.895 1.281 5.181 2.515s1.154 3.921 2.513 5.074 3.955.922 5.385 1.995 2.5 2.595 4.003 3.587c1.503.991 2.873 2.168 4.424 3.079 1.55.899 3.293 1.522 4.904 2.329 1.6.808 3.186 1.707 4.845 2.422 1.647.715 3.426 1.165 5.133 1.788s3.546.761 5.289 1.28 3.27 1.684 5.037 2.099 3.354 1.81 5.145 2.122c1.779.311 3.906-1.396 5.71-1.188 1.79.208 3.594-.162 5.409-.058s3.546.45 5.373.45 3.582-.173 5.386-.265c1.827-.104 3.678.611 5.47.403 1.814-.207 3.701.058 5.48-.253 1.792-.312 3.51-.992 5.266-1.407 1.755-.415 3.281-1.626 5.012-2.145s3.27-1.419 4.965-2.042 3.534-.784 5.193-1.499 3.787-.496 5.397-1.315c1.611-.818 3.282-1.591 4.833-2.491 1.55-.899 2.103-3.263 3.594-4.255s4.231-.358 5.662-1.43c1.43-1.073 1.767-3.437 3.125-4.59s2.585-2.387 3.871-3.621 3.101-1.949 4.316-3.252c1.214-1.304 1.983-2.941 3.1-4.314 1.119-1.372 3.487-1.879 4.52-3.321 1.035-1.43.698-3.736 1.648-5.224.937-1.488 2.464-2.653 3.317-4.198.842-1.534 1.094-3.356 1.84-4.948.745-1.591 2.103-2.929 2.752-4.566.638-1.626 1.467-3.229 2.008-4.902.54-1.672.036-3.609.469-5.305.432-1.683 1.07-3.321 1.394-5.039.325-1.707 1.575-3.31 1.791-5.052.216-1.718-.264-3.54-.156-5.293.108-1.73-1.262-3.483-1.262-5.236z"/><path stroke="#fff" stroke-miterlimit="10" stroke-width="2" d="M98.046 148.431c0-1.845.229-3.737.12-5.559-.108-1.822.205-3.782 0-5.593a96 96 0 0 0-.817-5.536c-.312-1.799-1.707-3.483-2.127-5.259a90 90 0 0 0-1.43-5.362c-.53-1.765-2.237-3.172-2.862-4.902s-.589-3.702-1.322-5.385c-.733-1.684-2.152-3.091-2.982-4.74-.829-1.649-.853-3.714-1.767-5.317-.925-1.603-1.334-3.552-2.355-5.109-1.022-1.556-4.148-1.74-5.254-3.24s-2.236-2.883-3.426-4.313-.745-4.187-2.02-5.547c-1.273-1.361-1.995-3.322-3.353-4.625s-3.077-2.341-4.496-3.564c-1.418-1.222-3.63-1.626-5.12-2.767s-3.475-1.638-5.037-2.71c-1.551-1.062-2.825-2.503-4.448-3.483-1.611-.98-3.234-1.96-4.905-2.849-1.67-.888-3.546-1.384-5.265-2.18-1.719-.795-2.596-3.494-4.363-4.197-1.767-.704-4.376.61-6.18 0-1.802-.612-3.125-2.745-4.964-3.253-1.839-.507-4.4 1.765-6.275 1.361-1.85-.403-3.27-2.871-5.157-3.171-1.875-.3-3.714-1.292-5.625-1.5-1.888-.207-3.847-.807-5.77-.91-1.924-.104-3.907 1.995-5.83 1.995s-3.811.15-5.71.253-3.92-.795-5.806-.588c-1.888.208-3.45 2.664-5.326 2.964s-3.702.53-5.553.934c-1.852.404-4.148-.853-5.975-.357s-4.003.196-5.794.796-2.62 3.701-4.375 4.405c-1.767.703-4.532-.761-6.251.035-1.72.795-2.248 3.794-3.92 4.682-1.67.888-4.062.542-5.673 1.51-1.61.97-2.56 2.872-4.111 3.945s-2.585 2.687-4.075 3.828-4.772.231-6.19 1.453c-1.431 1.223-3.174 2.215-4.533 3.506-1.346 1.292-2.031 3.276-3.306 4.648-1.274 1.36-3.365 2.145-4.556 3.587-1.19 1.43-1.25 3.748-2.355 5.247-1.106 1.488-3.03 2.514-4.052 4.07-1.021 1.546.18 4.36-.745 5.963s-4.496 1.903-5.337 3.552c-.842 1.649 1.442 4.636.71 6.332-.734 1.695-2.201 3.044-2.838 4.774s-1.575 3.333-2.104 5.097c-.528 1.765-1.646 3.368-2.067 5.167s1.13 3.91.805 5.72c-.312 1.799-1.659 3.414-1.863 5.247a92 92 0 0 0-.457 5.455c-.108 1.822.072 3.622.072 5.467s-1.021 3.69-.913 5.512c.108 1.846.841 3.622 1.058 5.432.216 1.811-.686 3.817-.373 5.616.313 1.8 1.034 3.587 1.455 5.375.42 1.799 1.118 3.54 1.646 5.293.529 1.753.217 3.829.854 5.559s2.729 2.964 3.45 4.647.216 3.956 1.046 5.605 1.899 3.252 2.825 4.855c.925 1.603 2.728 2.745 3.75 4.302s.745 4.002 1.851 5.49c1.106 1.499 3.763 1.925 4.953 3.355s3.185 2.169 4.46 3.541 1.887 3.287 3.245 4.578c1.347 1.292 2.368 2.941 3.799 4.164 1.43 1.222 3.835 1.291 5.325 2.433s2.272 3.148 3.835 4.209c1.562 1.061 2.224 3.483 3.846 4.463 1.611.981 3.823 1.142 5.494 2.03s3.715 1.13 5.445 1.926 3.438 1.603 5.218 2.307c1.779.703 3.39 1.799 5.193 2.41s3.57 1.43 5.421 1.937 3.738.934 5.614 1.338c1.85.404 3.714 1.107 5.613 1.419 1.876.299 3.871.242 5.783.438 1.91.196 3.978-1.995 5.89-1.891 1.911.103 3.714 1.061 5.638 1.061s3.738-1.154 5.625-1.258c1.888-.103 3.931 1.511 5.818 1.315 1.888-.196 3.931.288 5.807-.011 1.887-.312 3.714-1.084 5.577-1.488s3.787-.715 5.614-1.222c1.827-.508 3.306-2.146 5.097-2.745s4.111.011 5.866-.681c1.767-.703 3.943-.703 5.662-1.499s1.923-4.428 3.594-5.316 3.39-1.557 5-2.526c1.612-.969 3.415-1.603 4.965-2.664 1.563-1.061 3.51-1.58 5.001-2.722 1.49-1.141 2.861-2.422 4.291-3.632 1.431-1.211 2.044-3.207 3.39-4.498s4.208-1.211 5.482-2.572 2.356-2.941 3.546-4.371.697-4.059 1.803-5.558c1.106-1.5 4.592-1.465 5.614-3.01 1.022-1.546 2.092-3.172 3.017-4.775.926-1.603.012-4.152.842-5.801s2.416-2.975 3.15-4.67c.732-1.696-.554-4.083.083-5.813s2.765-2.952 3.294-4.717-.276-3.805.156-5.604c.421-1.776 1.876-3.333 2.188-5.144.313-1.799.733-3.587.95-5.42.216-1.834.89-3.61.997-5.444.109-1.833.59-3.678.59-5.524z"/><path stroke="#fff" stroke-miterlimit="10" stroke-width="2" d="M111.473 148.432c0-1.926-1.527-3.875-1.635-5.778-.108-1.914-.313-3.863-.517-5.754-.204-1.892.156-3.944-.144-5.824-.313-1.891-3.811-3.218-4.232-5.074-.42-1.857.265-3.945-.24-5.778-.505-1.834-1.226-3.61-1.839-5.421-.613-1.81-1.034-3.678-1.755-5.454-.721-1.788-1.803-3.391-2.609-5.132-.805-1.742-.6-3.945-1.502-5.651-.902-1.707-1.034-3.864-2.032-5.513-.998-1.66-5.12-1.441-6.203-3.045-1.082-1.603 1.058-5.316-.12-6.861-1.178-1.546-2.933-2.745-4.183-4.221-1.25-1.477-4.039-1.719-5.373-3.137-1.335-1.419-1.695-3.702-3.114-5.051s-2.103-3.495-3.582-4.775-2.97-2.675-4.508-3.886c-1.55-1.2-3.258-2.33-4.868-3.46-1.611-1.119-4.592-.37-6.263-1.419-1.671-1.038-1.755-4.647-3.474-5.604-1.72-.958-4.748.265-6.528-.6-1.767-.865-2.788-3.356-4.604-4.129-1.815-.772-3.498-2.156-5.36-2.848-1.864-.692-4.232-.242-6.131-.842-1.888-.588-3.847-1.2-5.783-1.684-1.935-.484-3.666-2.099-5.625-2.502-1.96-.404-4.652 3.067-6.636 2.779-1.96-.3-3.87-.312-5.866-.508s-3.69-3.482-5.698-3.575c-2.007-.092-4.051-.495-6.046-.495s-3.895 3.62-5.879 3.713c-1.995.104-4.17-2.341-6.142-2.145-1.996.196-4.208-.796-6.167-.496-1.96.3-3.486 3.23-5.422 3.621-1.935.392-3.966.45-5.89.934s-3.943.704-5.83 1.292c-1.9.588-3.57 1.776-5.421 2.468s-4.4-.127-6.215.657c-1.815.785-3.739 1.534-5.506 2.4-1.767.864-2.957 2.87-4.688 3.828s-3.534 1.81-5.205 2.848c-1.67 1.05-2.103 3.749-3.714 4.867-1.611 1.119-2.85 2.572-4.388 3.771-1.55 1.2-3.919 1.373-5.397 2.653s-4.111 1.407-5.518 2.756c-1.406 1.35-.54 4.74-1.875 6.158s-3.27 2.238-4.532 3.725-3.186 2.434-4.352 3.98c-1.165 1.544-3.954 2.075-5.048 3.678-1.082 1.603-2.549 3.102-3.546 4.751-.998 1.65-.649 4.094-1.563 5.801-.902 1.696-3.053 2.907-3.859 4.659-.805 1.753 2.368 5.075 1.647 6.862-.721 1.788-4.64 2.445-5.253 4.267s1.19 4.325.673 6.17-3.33 3.16-3.738 5.04c-.409 1.868-.914 3.783-1.227 5.674-.312 1.88 1.191 4.013.986 5.928-.204 1.914-1.707 3.702-1.815 5.628s-.084 3.851-.084 5.777-.493 3.898-.385 5.801 2.765 3.644 2.969 5.536c.205 1.891-3.029 4.278-2.728 6.158s3.942 3.241 4.351 5.098.986 3.655 1.503 5.501c.517 1.856-1.707 4.497-1.094 6.308s4.604 2.502 5.313 4.278 1.899 3.287 2.705 5.029c.805 1.741 1.887 3.24 2.789 4.947.901 1.707-2.368 5.582-1.371 7.243.998 1.66 4.508 1.891 5.59 3.494 1.094 1.603.998 4.002 2.164 5.547 1.178 1.545 4.423 1.545 5.674 3.033 1.25 1.488 1.779 3.506 3.113 4.924s1.67 3.749 3.077 5.109c1.407 1.361 3.354 2.203 4.833 3.483 1.478 1.28 2.92 2.607 4.472 3.817 1.55 1.211 2.247 3.541 3.858 4.671 1.611 1.119 3.931 1.373 5.602 2.41 1.67 1.038 2.476 3.576 4.207 4.533s4.364.473 6.143 1.338c1.767.864 2.897 3.229 4.724 4.013s5.265-2.168 7.129-1.476c1.85.68 2.969 3.298 4.868 3.886 1.887.588 3.967.611 5.902 1.107s3.895.75 5.854 1.154 3.787 1.337 5.77 1.637c1.984.3 3.967.473 5.95.669s3.884 2.041 5.891 2.134 4.075-.45 6.083-.45 3.967-2.018 5.938-2.111c1.971-.092 3.762-2.018 5.734-2.214s4.327 2.526 6.287 2.237 4.147.15 6.094-.242 2.994-4.371 4.917-4.855 3.738-.98 5.626-1.568c1.899-.589 4.928 1.972 6.792 1.28a129 129 0 0 0 5.577-2.238c1.815-.772 2.476-3.886 4.255-4.751 1.78-.865 4.713.311 6.432-.646s1.911-4.29 3.582-5.339 4.592-.3 6.19-1.43c1.6-1.131 2.753-2.849 4.304-4.06 1.55-1.199 3.666-1.799 5.145-3.068 1.479-1.28 3.678-1.925 5.085-3.275 1.406-1.349 2.26-3.298 3.594-4.717s2.837-2.767 4.087-4.255.541-4.417 1.72-5.962c1.165-1.546 3.533-2.272 4.615-3.887 1.082-1.614.433-4.186 1.43-5.847.998-1.661 2.633-2.906 3.535-4.613.901-1.695 3.185-2.768 3.99-4.521s2.838-3.079 3.547-4.866c.709-1.788.445-3.979 1.07-5.801s-.144-4.037.372-5.893c.517-1.857 3.33-3.206 3.739-5.075.409-1.868-3.114-4.428-2.801-6.331.313-1.88 2.044-3.529 2.248-5.443.204-1.915 2.981-3.645 3.089-5.571s.277-3.921.277-5.847z"/><path stroke="#fff" stroke-miterlimit="10" stroke-width="2" d="M120.657 148.432c0-2.053-.048-4.071-.156-6.112-.109-2.042 1.418-4.233 1.202-6.251-.217-2.041-3.462-3.702-3.787-5.709-.325-2.029 1.154-4.313.721-6.308-.433-2.007-3.281-3.414-3.81-5.397s3.245-5.144 2.608-7.081c-.637-1.961-5.277-2.595-6.022-4.509s2.62-5.421 1.779-7.3c-.842-1.88-6.143-1.8-7.08-3.622-.938-1.833 3.017-6.158 1.983-7.946s-3.077-3.16-4.207-4.89-2.176-3.655-3.402-5.328c-1.214-1.683-5.205-1.441-6.516-3.056s-.42-4.982-1.803-6.539c-1.394-1.545-4.063-2.064-5.53-3.54-1.466-1.476-3.798-2.122-5.337-3.529s-1.658-4.348-3.281-5.686c-1.623-1.337-5.698.277-7.381-.968s-2.512-3.472-4.256-4.636c-1.743-1.165-1.045-5.986-2.86-7.07-1.816-1.084-4.532-.934-6.395-1.926-1.864-.992-4.665-.369-6.576-1.268-1.911-.9-3.702-2.088-5.662-2.895s-4.147-1.061-6.155-1.776-3.065-4.233-5.096-4.844c-2.032-.61-5.241 2.572-7.309 2.065-2.056-.508-4.291.034-6.383-.37-2.08-.403-3.703-3.02-5.818-3.332-2.116-.312-3.991-2.722-6.13-2.918-2.116-.208-4.413.704-6.552.6-2.14-.104-4.316 3.16-6.455 3.16s-4.1 1.372-6.215 1.476c-2.14.104-4.123-.023-6.227.184-2.104.208-4.496-2.18-6.6-1.88-2.115.312-4.868-2.49-6.948-2.075s-3.27 4.786-5.325 5.293c-2.067.508-4.003 1.234-6.022 1.845-2.02.612-4.22.635-6.215 1.35s-4.448.346-6.395 1.141c-1.96.808-4.556.427-6.467 1.327-1.912.9-2.44 4.393-4.304 5.385-1.863.992-5.337-.565-7.14.508-1.803 1.084-3.799 2.099-5.542 3.263-1.743 1.165-.613 6.101-2.296 7.358s-3.486 2.203-5.097 3.53c-1.61 1.337-3.979 1.764-5.53 3.17-1.538 1.407-3.185 2.676-4.651 4.164-1.467 1.488-2.801 3.044-4.184 4.59-1.382 1.545-5.253 1.21-6.563 2.837-1.31 1.626 0 5.132-1.214 6.816-1.214 1.683-3.306 2.79-4.436 4.52s-3.919 2.606-4.952 4.394c-1.034 1.788 1.923 5.582.985 7.415-.937 1.834-6.912 1.477-7.753 3.368-.842 1.868.901 4.855.156 6.77s-1.214 3.944-1.863 5.893c-.637 1.949-3.041 3.483-3.57 5.466-.529 1.972 2.885 4.844 2.464 6.85-.421 1.996-1.322 3.841-1.647 5.871-.325 2.029-2.777 3.771-2.993 5.812-.217 2.03 1.587 4.209 1.478 6.262-.108 2.03.746 4.037.746 6.089s-1.058 4.071-.95 6.101c.108 2.053-1.659 4.244-1.454 6.262.216 2.041 3.714 3.656 4.039 5.674s-.361 4.152.06 6.147c.432 2.007.997 3.933 1.526 5.905s2.092 3.598 2.729 5.547c.637 1.96 1.659 3.656 2.404 5.57.746 1.914-.372 4.475.469 6.343.842 1.868-.108 4.578.829 6.412.938 1.834 1.034 4.221 2.068 5.997 1.034 1.787 2.08 3.725 3.21 5.455s2.644 3.379 3.87 5.051 2.933 3.137 4.232 4.751c1.298 1.615 3.822 2.365 5.217 3.91s.805 4.936 2.284 6.412c1.466 1.476 7.753-1.661 9.292-.254s2.548 3.172 4.16 4.498c1.61 1.326 1.874 4.129 3.557 5.374s1.587 4.902 3.33 6.066c1.743 1.165 4.496 1.027 6.299 2.111s2.921 3.448 4.784 4.44c1.864.992 3.595 2.502 5.506 3.402 1.911.899 3.99 1.776 5.962 2.583 1.948.807 4.147 1.43 6.143 2.134 1.995.703 4.532.219 6.563.83 2.032.611 4.7-.876 6.768-.357 2.056.507 4.388-.45 6.491-.035 2.104.415 3.907 1.741 6.023 2.041s3.943 2.526 6.07 2.733c2.116.208 4.34-.922 6.48-.818 2.14.103 4.219-1.753 6.359-1.753s4.135-.323 6.25-.427 4.087-.634 6.191-.842 5.037 5.57 7.129 5.27c2.091-.299 4.423-.426 6.503-.841 2.092-.416 3.858-2.687 5.914-3.195 2.068-.507 4.46-.277 6.491-.888 2.032-.611 3.595-2.802 5.59-3.506 1.996-.703 2.993-3.771 4.953-4.567 1.96-.795 5.782 2.226 7.693 1.327 1.911-.9 3.582-2.491 5.446-3.483s3.654-2.284 5.457-3.368 1.515-5.201 3.258-6.377c1.755-1.165 4.159-1.361 5.842-2.607 1.683-1.245 3.846-1.926 5.457-3.252s.914-5.005 2.453-6.423 4.964-.888 6.43-2.365c1.467-1.476.602-4.855 1.996-6.412s3.546-2.318 4.845-3.932c1.298-1.615 6.323-.612 7.549-2.284s-1.239-5.685-.109-7.427c1.13-1.73 6.203-1.245 7.249-3.033s-1.238-5.27-.288-7.104c.937-1.833 2.115-3.517 2.957-5.397.841-1.868 3.546-3.056 4.279-4.971a122 122 0 0 0 2.08-5.87c.637-1.949.577-4.14 1.106-6.123.529-1.972 3.582-3.495 4.003-5.501.42-2.007-3.33-4.775-3.006-6.805s-1.117-4.151-.901-6.204 1.178-3.898 1.286-5.951c.108-2.03 1.551-3.99 1.551-6.043z"/><path stroke="#fff" stroke-miterlimit="10" stroke-width="2" d="M135.154 148.431c0-2.11-2.488-4.198-2.584-6.285s1.719-4.371 1.515-6.458c-.205-2.088-.373-4.279-.674-6.355-.3-2.076-3.197-3.782-3.606-5.835s-2.236-3.771-2.753-5.813 1.01-4.566.397-6.573-2.092-3.748-2.801-5.732 1.984-5.247 1.166-7.196c-.817-1.96-1.623-4.048-2.536-5.962-.914-1.915-4.328-2.734-5.325-4.602-1.01-1.868-4.003-2.64-5.097-4.463s-.505-4.578-1.695-6.343-3.787-2.572-5.061-4.278c-1.274-1.707-1.719-3.945-3.077-5.605-1.359-1.65-5.085-1.292-6.516-2.883-1.43-1.592-.42-5.19-1.935-6.712-1.515-1.523-2.933-3.103-4.52-4.556s-5.073-.772-6.732-2.156c-1.658-1.373-2.031-4.083-3.75-5.386-1.72-1.303-4.604-.946-6.383-2.168-1.78-1.223-1.863-4.705-3.703-5.847s-4.952-.15-6.851-1.2c-1.9-1.049-3.63-2.11-5.578-3.079-1.947-.968-2.344-4.866-4.352-5.743-2.007-.876-4.904.358-6.936-.427s-4.195-.98-6.275-1.672-3.522-3.021-5.637-3.61c-2.116-.588-3.655-3.275-5.794-3.77-2.128-.497-4.845 1.487-7.009 1.095-2.163-.392-4.736 2.376-6.924 2.087-2.163-.3-3.438-7.876-5.625-8.072-2.188-.197-4.556 0-6.756-.093-2.2-.092-4.532.773-6.732.773s-4.255 5.363-6.431 5.466c-2.176.104-4.664-4.048-6.84-3.851-2.176.196-4.664-1.061-6.816-.762-2.151.3-4.544.393-6.683.785-2.164.392-3.643 4.128-5.758 4.624s-4.592-.08-6.684.508-2.524 6.02-4.592 6.712-6.888-5.71-8.92-4.936c-2.03.772-3.834 2.49-5.817 3.367s-1.25 7.127-3.198 8.084c-1.947.958-6.852-3.263-8.74-2.214-1.899 1.05-4.711.98-6.55 2.122-1.84 1.142-1.6 5.432-3.39 6.654-1.792 1.223-3.535 2.526-5.254 3.83-1.719 1.302-3.666 2.398-5.325 3.77-1.659 1.373-4.856 1.257-6.443 2.71s1.322 7.208-.192 8.73-7.922-1.222-9.353.37c-1.43 1.591-1.13 4.693-2.476 6.354-1.346 1.66-.433 4.925-1.707 6.643-1.274 1.707-2.993 3.056-4.183 4.82s-1.767 3.818-2.873 5.64-6.299 1.522-7.297 3.39-1.322 4.198-2.236 6.113c-.913 1.903 3.919 6.147 3.102 8.095s-9.557 1.085-10.266 3.08c-.709 1.983 6.215 6.343 5.59 8.361-.626 2.018-2.501 3.575-3.018 5.628s-2.512 3.713-2.921 5.789c-.409 2.053 1.19 4.382.89 6.47-.313 2.076-1.815 3.944-2.032 6.043-.216 2.099-4.904 3.932-5 6.043-.097 2.11 3.69 4.348 3.69 6.458s3.089 4.06 3.185 6.158-5.373 4.567-5.168 6.643c.204 2.076 2.945 3.956 3.257 6.032.313 2.087.589 4.163.998 6.227s-.132 4.36.385 6.389c.516 2.03-2.272 5.063-1.647 7.081.613 2.018 7.104 2.307 7.813 4.29.71 1.984-2.007 5.225-1.202 7.174.818 1.96 3.102 3.367 4.003 5.281.914 1.915 3.57 2.987 4.58 4.856s-2.969 6.435-1.875 8.257 4.904 2.214 6.082 3.979c1.178 1.764 1.852 3.967 3.126 5.685 1.274 1.719 3.39 2.906 4.748 4.567 1.358 1.649 1.731 4.186 3.174 5.778 1.43 1.591 3.005 3.217 4.519 4.74 1.515 1.522 6.384-.162 7.97 1.291 1.587 1.454-.216 6.493 1.443 7.877s5 .923 6.72 2.226c1.718 1.303 5.228.242 7.008 1.465 1.779 1.222 4.207 1.268 6.058 2.41 1.84 1.142 2.729 3.506 4.628 4.555 1.9 1.05 4.268 1.004 6.215 1.972 1.947.969 3.101 3.218 5.097 4.094 1.983.877 1.767 6.816 3.81 7.6s5.037-.565 7.117.116c2.067.68 4.315 1.061 6.419 1.66 2.091.588 4.46.392 6.6.888 2.127.496 5.144-3.344 7.308-2.952 2.14.392 3.366 5.732 5.542 6.031 2.176.3 4.135 3.206 6.323 3.403 2.188.196 4.748-3.887 6.96-3.783s4.351 2.053 6.551 2.053 4.304-3.483 6.48-3.575c2.175-.093 4.29-.266 6.467-.462 2.188-.196 4.4.45 6.563.15 2.176-.3 4.94 2.653 7.092 2.261 2.152-.393 4.184-1.799 6.3-2.295s4.447-.646 6.539-1.234c2.103-.589 4.688-.116 6.755-.808s4.027-2.041 6.059-2.825 2.536-5.074 4.52-5.939 6.118 2.341 8.066 1.384c1.947-.969 2.825-4.025 4.712-5.075s3.666-2.387 5.505-3.529c1.84-1.141.986-5.974 2.765-7.196s3.895-1.765 5.614-3.068c1.72-1.303 8.138 2.803 9.785 1.419 1.659-1.373-1.454-7.831.132-9.284 1.587-1.453 6.864.657 8.379-.865s3.233-3.021 4.664-4.613c1.43-1.591-.108-5.582 1.25-7.231s5.47-1.349 6.744-3.067c1.274-1.707 1.454-4.221 2.644-5.986s.301-4.74 1.395-6.562-.457-4.89.553-6.758 2.308-3.39 3.221-5.305c.914-1.903 9.136-.819 9.954-2.779.817-1.961-6.612-6.839-5.89-8.834.721-1.995 6.31-2.387 6.935-4.405.626-2.019 2.236-3.829 2.753-5.882s-2.332-4.786-1.911-6.85 2.897-3.772 3.198-5.859c.312-2.076-3.09-4.521-2.873-6.62s-.902-4.094-.794-6.204c.096-2.087 6.563-4.002 6.563-6.112z"/><path stroke="#fff" stroke-miterlimit="10" stroke-width="2" d="M145.276 148.431c0-2.226 1.311-4.51 1.215-6.724-.097-2.214 2.933-4.786 2.716-6.989-.216-2.214-2.584-4.359-2.897-6.538-.312-2.203.962-4.81.541-6.978-.421-2.191-2.26-4.255-2.789-6.4-.529-2.168.181-4.809-.444-6.931-.638-2.145.12-4.925-.614-7.024-.733-2.11-9.135-1.649-9.965-3.713-.829-2.064.217-4.844-.721-6.862a165 165 0 0 0-2.933-6.032c-1.034-1.983-2.14-3.932-3.27-5.87-1.13-1.937-1.899-4.094-3.113-5.973-1.226-1.892-5.41-1.846-6.708-3.668-1.31-1.833-1.31-4.44-2.705-6.204-1.394-1.765 1.755-7.081.277-8.788-1.479-1.707-2.921-3.702-4.484-5.34s-9.737 2.78-11.372 1.211 1.455-7.819-.264-9.306c-1.707-1.5-5.085-1.234-6.864-2.653-1.78-1.418-2.26-4.474-4.111-5.812-1.852-1.338-8.283 3.586-10.194 2.33-1.911-1.258 1.214-9.803-.757-10.968s-3.306-3.725-5.325-4.81c-2.02-1.083-4.977-.864-7.045-1.856s-6.972 3.806-9.1 2.906-4.099-1.707-6.262-2.514c-2.164-.807-3.017-4.855-5.217-5.57-2.188-.703-3.967-2.895-6.191-3.506s-6.01 4.786-8.27 4.279c-2.26-.508-3.439-5.432-5.722-5.847s-4.532-1.084-6.828-1.396-5.025 3.737-7.345 3.53c-2.296-.197-4.52 1.452-6.84 1.36-2.296-.104-4.364-.623-6.684-.623s-4.471-1.2-6.767-1.095c-2.296.103-5.145-6.978-7.441-6.782-2.296.197-3.787 7.427-6.07 7.727-2.297.3-4.28 1.396-6.54 1.8-2.284.403-6.167-6.586-8.403-6.078-2.236.507-4.868.426-7.08 1.038-2.212.61-4.328 2.225-6.515 2.917-2.188.692-1.695 8.523-3.847 9.319-2.164.807-6.227-3.022-8.343-2.134-2.115.9-3.51 3.287-5.565 4.279s-2.91 4.036-4.929 5.12-5.265 0-7.224 1.165-6.756-1.66-8.667-.404c-1.912 1.257-.517 7.024-2.356 8.361-1.84 1.338-.722 6.032-2.5 7.439-1.78 1.407-4.941 1.015-6.648 2.503-1.707 1.499-1.719 4.416-3.354 5.985s-6.179.265-7.73 1.914c-1.562 1.638-3.329 3.033-4.808 4.74s-3.005 3.333-4.4 5.097c-1.394 1.765-7.765.22-9.075 2.053-1.311 1.823-3.066 3.668-4.292 5.559s-1.286 4.67-2.416 6.62c-1.13 1.937.926 5.604-.108 7.6s-4.268 3.067-5.205 5.097 6.467 7.312 5.638 9.387c-.83 2.065-11.216.796-11.949 2.907-.733 2.099 5.049 6.181 4.411 8.326-.637 2.145-4.64 3.402-5.168 5.57-.529 2.157.841 4.706.42 6.897-.42 2.191 3.871 4.947 3.558 7.162-.312 2.214-6.25 3.655-6.455 5.87-.204 2.202 4.159 4.624 4.051 6.85-.108 2.203-2.488 4.244-2.488 6.47s3.678 4.209 3.787 6.412c.108 2.202-10.807 5.166-10.591 7.369s9.557 3.471 9.869 5.662c.313 2.192-5.505 5.34-5.085 7.52.421 2.191-1.622 5.051-1.093 7.208s2.5 4.186 3.125 6.319c.637 2.145 9.232 1.903 9.965 4.002.734 2.111-5.145 6.47-4.315 8.534.841 2.076 7.621 1.753 8.559 3.783s-5.482 7.404-4.448 9.387 9.905.012 11.023 1.949c1.13 1.938-3.354 7.001-2.14 8.88 1.227 1.892 6.035 1.534 7.333 3.368 1.31 1.834 5.325 1.591 6.72 3.356s-.577 5.928.901 7.634c1.479 1.707-1.31 7.093.241 8.731 1.55 1.637 5.265 1.51 6.9 3.079 1.635 1.568 6.335.046 8.042 1.534 1.707 1.499-1.731 8.776.036 10.194 1.779 1.419 8.45-2.975 10.302-1.637 1.839 1.337 4.52 1.349 6.419 2.606s1.202 6.228 3.173 7.404 4.965.657 6.984 1.741 4.737.715 6.816 1.707c2.08.992.685 9.18 2.801 10.068s5.013.554 7.177 1.349c2.163.796 6.539-4.174 8.727-3.459 2.188.703 4.46.818 6.683 1.418 2.224.6 4.58.115 6.84.623 2.26.507 2.85 8.626 5.133 9.03s5.626-5.247 7.922-4.948c2.284.3 3.93 6.447 6.239 6.643 2.296.196 4.748 1.2 7.068 1.303 2.296.104 4.844-3.921 7.164-3.921s4.869 4.094 7.165 3.991 4.832-.623 7.116-.831c2.308-.207 3.775-7.83 6.047-8.142s4.183-2.018 6.443-2.422c2.26-.403 6.395 7.566 8.631 7.058 2.236-.507 2.428-8.788 4.652-9.387s5.265 1.626 7.453.922c2.2-.703 3.21-4.255 5.361-5.051 2.164-.807 4.352-1.119 6.468-2.007 2.115-.899 5.373.704 7.428-.288 2.056-.992 6.335 1.822 8.355.738s1.262-6.827 3.222-7.992c1.971-1.176 7.729 3.068 9.628 1.811 1.912-1.257-2.777-11.279-.937-12.617 1.839-1.338 6.37.807 8.15-.611 1.779-1.419 7.549 1.43 9.256-.069s-3.618-10.045-1.984-11.613c1.635-1.569 11.036 3.955 12.586 2.318 1.563-1.638-3.594-8.95-2.115-10.656s9.111 1.234 10.506-.531c1.394-1.764-3.114-7.669-1.803-9.503 1.31-1.833 1.154-4.382 2.38-6.273s3.366-3.057 4.496-4.994 4.94-2.433 5.974-4.429c1.034-1.983-1.947-5.674-1.01-7.703s.974-4.187 1.815-6.262c.83-2.065 5.794-2.572 6.528-4.683.733-2.099 5.818-2.987 6.455-5.132s-.156-4.763.373-6.931c.529-2.156-.277-4.67.144-6.862.421-2.191-.301-4.566.024-6.769.312-2.191 3.967-4.106 4.183-6.32.205-2.203-3.907-4.751-3.811-6.977s1.058-4.394 1.058-6.62z"/></svg>