<svg xmlns="http://www.w3.org/2000/svg" width="1203" height="8" fill="none"><path fill="#fff" d="M1.1 4v2h.069l.068-.005zm3.863-.266L5.1 5.729zm12.689-.496-.27 1.982zm3.936.536-.269 1.981zm5.32-.215-.133-1.996zm1.384-.099-.15-1.994zm3.936-.296-.15-1.994zm3.352.45-.371 1.966zM64.148 3.1l.45 1.949zm1.384-.117-.123 1.996zm3.936.24-.122 1.997zm10.64.85-.055-2zm6.704-.643-.055 2zm9.256-.138-.114-1.997zm1.384-.072-.096-1.998zm3.936-.189-.095-1.997zm10.64 1.346-.189-1.991zm10.64-.303-.519 1.932zm5.32-.383-.244-1.985zm1.384.049.38-1.964zm3.936.763-.38 1.963zm1.384-.029-.458-1.947zm3.936-.924.458 1.947zm5.32-.058-.045 2zm1.384.021-.016 2zm3.936.03-.015 2zm5.32.66-.279 1.98zm1.384.034.181 1.992zm3.936-.358-.181-1.992zm3.352 0-.046 1.999zm3.352.172-.318 1.975zm7.288.64-.079-2zm17.928-1.498-.172-1.993zm5.32.102-.069 1.999zm5.32.324-.129 1.996zm1.384.148-.295 1.978zm5.32.682-.022-2zm3.936-.043-.022-2zm12.024-.375-.506-1.935zM229.068 3l-.506-1.935zm3.352.708-.634 1.897zm12.608-.664-.38-1.964zm3.352.55-.499 1.937zm3.352.698.036-2zm3.936.072-.036 2zm1.384.116-.294 1.978zm3.936.584.294-1.978zm5.32-1.227-.552-1.923zm1.384-.084-.329 1.973zm3.936.655.329-1.973zm1.384.019-.276-1.981zm3.936-.548-.276-1.981zm1.384-.188-.262-1.983zm3.936-.52-.261-1.982zm1.384.018.308-1.977zm3.936.613-.308 1.976zm1.384.083-.074-2zm5.32-.05-.345 1.97zm3.936.688.345-1.97zm1.384.167-.131 1.995zm1.968.129-.131 1.996zm1.968.13.131-1.997zm6.704-1.456-.62 1.901zm21.28.499L331.35 2zm3.936-.36-.181-1.991zm22.664.075-.047 2zm9.256-.278-.166-1.993zm10.64-.286-.191-1.99zm8.672.506-.482-1.94zm5.32.152-.584 1.913zm7.288-.314-.473-1.943zm1.384-.125-.127 1.996zm7.288.512-.163 1.993zm8.672-.79-.681 1.88zm5.32 1.651-.067-1.998zm15.96.003-.769-1.846zm3.936-1.638-.768-1.847zm1.384-.207-.233 1.986zm9.256.205.146 1.995zm1.384-.035-.046 2zm5.32.08-.079-2zm10.64 1.296-.218-1.988zm3.936-.43-.217-1.989zm6.704-.892-.578 1.915zm10.64.613-.233-1.986zm7.288.136-.494 1.938zm1.968.502.494-1.938zm6.704-.616-.17-1.993zm5.32-.249-.413 1.957zm3.936.83.413-1.956zm1.384-.012.447 1.949zm3.936-.904-.447-1.95zm6.704 1.21-.325-1.973zm5.32-.805-.123-1.996zm5.32-.09.536-1.927zm3.936 1.096-.536 1.926zm5.32-.835-.433-1.953zm1.384-.015.394-1.96zm1.968.397-.395 1.96zm1.968.396-.394 1.96zm6.704-.922-.322-1.974zm5.32-.657-.279 1.98zm3.936.555.279-1.981zm5.32-.283-.163-1.993zm12.024 1.168.269 1.981zm3.936-.535-.268-1.981zm6.704.195-.112-1.996zm3.936-.219.112 1.997zm10.64-.091-.31-1.976zm1.384-.116-.021-2zm3.936-.04-.02-2zm1.384-.03-.065-1.998zm9.256-.07-.034 2zm1.384.16-.417 1.956zm3.936.838-.416 1.956zm15.96.303-.073 1.999zm1.384-.025-.144-1.994zm5.32-.438-.299-1.978zm15.96-1.13.528-1.929zm1.968.54-.528 1.928zm1.968.538-.528 1.929zm5.32.575-.166 1.993zm1.384-.03-.251-1.984zm5.32-.737-.432-1.953zm3.936-.87-.431-1.953zm12.024.787-.381-1.963zm9.256.16-.445 1.95zm5.32-.749-.384-1.963zm10.64.294-.432-1.953zm1.384.003-.441 1.95zm3.936.89-.441 1.95zm1.384-.114-.728-1.863zm9.256-1.404-.174 1.992zm6.704.95-.066-2zm14.576-1.302-.418-1.956zm1.384-.063-.245 1.985zm5.32.79-.605 1.907zm5.32 1.311-.441-1.95zm3.936-.889.441 1.95zm6.704.956-.428-1.953zm14.576-1.873-.177-1.992zm1.384.095-.442 1.95zm3.936.89-.441 1.951zm5.32.442-.123 1.996zm6.704-1.326-.179-1.992zm9.256 1.359-.716 1.867zm1.384.132-.379-1.964zm3.936-.759-.378-1.964zm1.384-.183-.146-1.995zm5.32-.21-.368 1.966zm3.936.738-.368 1.966zm1.384.193-.184 1.992zm5.32.367-.175-1.992zm3.936-.344-.174-1.993zm5.32-.452-.168-1.993zm6.704.691-.683-1.88zm1.968-.714-.682-1.88zm1.968-.714.683 1.88zm1.384-.192L874 5.203zm9.256.55-.065 1.998zm1.384.203.508-1.934zm3.936 1.034-.508 1.935zm3.352-.925-.768-1.846zm3.352-1.084-.067 1.999zm10.64-.14.039-2zm3.936.077-.039 2zm10.64-.08L920.56.846zm1.384-.021-.05 2zm14.576 1.746-.609 1.904zm12.024-.855-.114-1.997zm7.288.088-.262 1.983zm7.288.691-.146 1.995zm12.024-.985-.129 1.995zm5.32.29-.024-2zm5.32.048-.294 1.978zM998.5 3.9l-.408-1.958zm12.61-.092-.4-1.96zm1.38.034-.49 1.939zm15.96-.571-.57 1.915zm9.26 1.427-.02 2zm35.27-.069-.31 1.977zm3.35.418-.01 2zm3.94.032-.02 2zm1.38-.098.3 1.978zm3.94-.588-.3-1.978zm6.7-.225-.32 1.974zm3.94.645-.32 1.974zm8.67-1.098-.25-1.985zm3.35-.414.23 1.987zm3.94-.452-.23-1.987zm1.38.15-.63 1.898zm5.32 1.326-.6-1.907zm3.94-1.244-.6-1.908zm6.7.376.4-1.96zm3.94.798-.4 1.96zm22.66.15-.61-1.905zm5.32-1.284-.56 1.92zm10.64.245-.34 1.97zm5.32.763.15 1.994zm3.94-.293-.15-1.995zm6.7 1.22-.22-1.988zm3.94-.429-.22-1.988zm1.38-.115-.11-1.997zm1.97-.114.12 1.997zm1.97-.113-.12-1.997zm1.08.013.27-1.981zm2.22.303-.27 1.982zm.39-.274h2V4.03l-.09-.286zm-.1-.328V2h-2.7l.79 2.583zM1 4v2h.1V2H1zm.1 0 .137 1.995L5.1 5.73l-.137-1.995-.138-1.995-3.862.266zm3.863-.266L5.1 5.729c.884-.06 1.46-.069 1.784-.048l.128-1.996.128-1.996c-.598-.038-1.388-.014-2.315.05zm2.049-.05-.128 1.997 1.968.126.128-1.996.128-1.996L7.14 1.69zm1.968.127-.128 1.996 1.968.126.128-1.996.128-1.996-1.968-.126zm1.968.126-.128 1.996q.916.059 1.822-.085l-.31-1.975-.311-1.976q-.476.075-.945.044zm1.384-.064.31 1.975 1.969-.31-.311-1.975-.31-1.976-1.97.31zm1.968-.31.31 1.976 1.97-.31-.312-1.976-.31-1.975-1.969.31zm1.968-.31.311 1.976q.403-.063.803-.009l.27-1.982.269-1.981a6.7 6.7 0 0 0-1.963.02zm1.384-.015-.27 1.982 1.969.268.269-1.982.27-1.982-1.969-.267zm1.968.268-.27 1.982 1.969.267.27-1.981.269-1.982-1.969-.268zm1.968.268-.269 1.981q.892.122 1.786.062l-.133-1.996-.134-1.995q-.489.032-.98-.034zm1.384.047.133 1.996 1.968-.131-.133-1.996-.133-1.996-1.969.132zm1.968-.131.133 1.996 1.969-.132-.134-1.995-.133-1.996-1.968.131zm1.968-.131.134 1.995q.7-.046 1.4-.1l-.15-1.994-.15-1.994q-.684.052-1.367.097zm1.384-.099.15 1.995 1.968-.149-.15-1.994-.15-1.994-1.969.148zm1.968-.148.15 1.994 1.969-.148-.15-1.994-.15-1.994-1.97.148zm1.968-.148.15 1.994q.426-.032.862.05l.372-1.966.37-1.965a7.3 7.3 0 0 0-1.904-.107zm1.384.078-.372 1.966 1.969.372.371-1.966.371-1.965-1.968-.372zm1.968.372-.371 1.966 1.968.371.371-1.965.372-1.965-1.969-.372zm1.968.372-.37 1.965c.715.136 1.438.13 2.152-.015l-.398-1.96-.398-1.96a1.6 1.6 0 0 1-.614.005zm1.384-.01.398 1.96 1.968-.4-.398-1.96-.398-1.96-1.968.4zm1.968-.4.398 1.96 1.968-.399-.398-1.96-.398-1.96-1.968.4zm1.968-.399.398 1.96c.191-.039.374-.038.567.003l.419-1.955.418-1.956a5.35 5.35 0 0 0-2.2-.012zm1.384.008-.419 1.955 1.968.422.419-1.956.419-1.956-1.969-.421zm1.968.421-.419 1.956 1.969.421.418-1.956.419-1.955-1.968-.422zm1.968.421-.418 1.956q.822.176 1.654.238l.148-1.995.147-1.994a8 8 0 0 1-1.112-.16zm1.384.2-.148 1.994 1.968.146.148-1.995.148-1.994-1.969-.146zm1.968.145-.148 1.995 1.969.145.147-1.994.148-1.995-1.968-.145zm1.968.146-.147 1.994q.84.063 1.68 0l-.15-1.995-.15-1.994a7 7 0 0 1-1.085 0zm1.384 0 .15 1.993 1.968-.148-.15-1.994-.15-1.994-1.968.148zm1.968-.149.15 1.994 1.968-.148-.15-1.994-.15-1.994-1.968.148zm1.968-.148.15 1.994a11 11 0 0 0 1.684-.257l-.45-1.949-.45-1.948q-.547.126-1.084.166zm1.384-.212.45 1.949 1.968-.455-.45-1.949-.45-1.948-1.969.455zm1.968-.455.45 1.949 1.969-.455-.45-1.949-.451-1.948-1.968.455zm1.968-.455.45 1.949q.417-.095.811-.07l.123-1.996.122-1.997a6.8 6.8 0 0 0-1.956.166zm1.384-.117-.123 1.996 1.969.12.122-1.996.122-1.996-1.968-.12zm1.968.12L67.378 5.1l1.968.12.122-1.996.123-1.996-1.969-.121zm1.968.12-.122 1.997q.578.036 1.16.138l.346-1.97.346-1.97a14 14 0 0 0-1.607-.19zm1.384.165-.347 1.97 1.969.345.346-1.97.346-1.97-1.968-.345zm1.968.346-.346 1.97 1.968.345.346-1.97.347-1.97-1.969-.345zm1.968.345-.346 1.97a9 9 0 0 0 1.785.132l-.055-2-.056-1.998a5 5 0 0 1-.981-.073zm1.384.103.055 1.999 1.968-.055-.055-1.999-.055-2-1.969.056zm1.968-.055.055 2 1.969-.055-.056-2-.055-1.999-1.968.055zm1.968-.055.056 2a17 17 0 0 0 1.567-.117l-.24-1.985-.24-1.986q-.6.072-1.198.09zm1.384-.102.24 1.985 1.968-.237-.24-1.986-.24-1.986-1.968.238zm1.968-.238.24 1.986 1.968-.238-.24-1.986-.24-1.985-1.968.237zm1.968-.238.24 1.986q.546-.065 1.089-.05l.055-2 .054-2q-.84-.023-1.677.079zm1.384-.064-.055 2 1.968.053.055-2 .055-1.999-1.969-.053zm1.968.054-.055 1.999 1.969.054.054-2 .055-1.999-1.968-.054zm1.968.054-.054 1.999q.775.02 1.552-.023l-.114-1.997-.115-1.997q-.607.035-1.214.018zm1.384-.02.114 1.996 1.968-.113-.114-1.996-.114-1.997-1.969.112zm1.968-.113.114 1.996 1.969-.112-.115-1.997-.114-1.997-1.968.113zm1.968-.113.115 1.997q.682-.039 1.364-.072l-.095-1.997-.096-1.998q-.7.034-1.402.073zm1.384-.072.095 1.997 1.969-.094-.096-1.998-.096-1.997-1.968.094zm1.968-.095.096 1.998 1.968-.094-.096-1.998-.095-1.997-1.969.094zm1.968-.094.096 1.998c.195-.01.405.017.641.098l.647-1.892.646-1.893a5.7 5.7 0 0 0-2.125-.308zm1.384.204-.647 1.892 1.968.673.647-1.893.647-1.892-1.969-.673zm1.968.672-.647 1.893 1.969.673.646-1.893.647-1.892-1.968-.673zm1.968.673-.646 1.893c.715.244 1.46.34 2.219.269l-.189-1.991-.189-1.991a1.3 1.3 0 0 1-.548-.072zm1.384.17.189 1.992 1.968-.187-.189-1.991-.189-1.991-1.968.187zm1.968-.186.189 1.99 1.968-.186-.189-1.991-.189-1.991-1.968.187zm1.968-.187.189 1.991a10 10 0 0 0 1.731-.323l-.536-1.926-.537-1.927a6 6 0 0 1-1.036.194zm1.384-.258.536 1.926 1.969-.548-.537-1.926-.537-1.927-1.968.548zm1.968-.548.537 1.926 1.968-.548-.537-1.927-.536-1.926-1.969.548zm1.968-.549.537 1.927a.6.6 0 0 1 .327-.002l.52-1.931.519-1.932a4.6 4.6 0 0 0-2.439.012zm1.384-.006-.52 1.931 1.969.53.519-1.932.519-1.931-1.968-.53zm1.968.529-.519 1.931 1.968.53.519-1.932.52-1.931-1.969-.53zm1.968.53-.519 1.93a5.6 5.6 0 0 0 2.147.155l-.244-1.985-.245-1.985c-.198.025-.4.012-.619-.047zm1.384.1.244 1.985 1.968-.242-.244-1.985-.244-1.985-1.969.242zm1.968-.242.244 1.985 1.969-.242-.245-1.985-.244-1.985-1.968.242zm1.968-.242.245 1.985c.25-.031.5-.023.758.027l.381-1.963.38-1.964a6.4 6.4 0 0 0-2.008-.07zm1.384.049-.381 1.963 1.968.382.381-1.964.381-1.963-1.969-.382zm1.968.381-.381 1.964 1.969.381.38-1.963.381-1.964-1.968-.381zm1.968.382-.38 1.963a5.3 5.3 0 0 0 2.221-.044l-.457-1.948-.458-1.947a1.3 1.3 0 0 1-.545.012zm1.384-.029.457 1.948 1.968-.463-.457-1.947-.457-1.947-1.969.462zm1.968-.462.457 1.947 1.969-.462-.458-1.947-.457-1.947-1.968.462zm1.968-.462.458 1.947q.45-.104.88-.094l.046-2 .045-2a7.5 7.5 0 0 0-1.886.2zm1.384-.147-.046 2 1.969.044.045-2 .045-1.999-1.968-.044zm1.968.045-.045 2 1.968.044.045-2 .046-2-1.969-.044zm1.968.044-.045 2q.706.016 1.413.021l.016-2 .015-2q-.677-.005-1.353-.02zm1.384.021-.016 2 1.969.015.015-2 .015-2-1.968-.015zm1.968.016-.015 2 1.968.015.015-2 .016-2-1.969-.015zm1.968.015-.015 2q.558.004 1.119.083l.28-1.98.279-1.98a12.5 12.5 0 0 0-1.647-.123zm1.384.103-.28 1.98 1.969.278.279-1.98.279-1.981-1.968-.278zm1.968.277-.279 1.98 1.968.279.279-1.98.28-1.981-1.969-.278zm1.968.278-.279 1.98a8 8 0 0 0 1.844.047l-.181-1.992-.181-1.992a4 4 0 0 1-.923-.023zm1.384.035.181 1.992 1.968-.18-.181-1.991-.181-1.992-1.968.18zm1.968-.179.181 1.992 1.968-.179-.181-1.992-.181-1.992-1.968.18zm1.968-.179.181 1.992q.579-.052 1.156-.04l.047-1.999.046-1.999a14 14 0 0 0-1.611.054zm1.384-.047-.047 2 1.969.046.046-2 .046-2-1.968-.045zm1.968.046-.046 2 1.968.045.046-2 .047-1.999-1.969-.045zm1.968.046-.046 2q.554.012 1.112.102l.318-1.975.317-1.974a12 12 0 0 0-1.654-.153zm1.384.127-.318 1.975 1.968.316.318-1.974.318-1.975-1.969-.316zm1.968.317-.318 1.974 1.969.317.317-1.975.318-1.974-1.968-.317zm1.968.316-.317 1.975q.886.143 1.78.108l-.079-1.999-.08-1.998a5 5 0 0 1-.986-.06zm1.384.084.079 1.999 1.968-.078-.079-1.999-.079-1.998-1.969.078zm1.968-.078.079 1.999 1.969-.078-.08-1.999-.079-1.998-1.968.078zm1.968-.078.08 1.999q.584-.023 1.169.016l.135-1.995.134-1.996a15 15 0 0 0-1.597-.022zm1.384.02-.135 1.995 1.968.133.135-1.996.135-1.995-1.969-.133zm1.968.132-.135 1.996 1.969.133.134-1.996.135-1.995-1.968-.133zm1.968.133-.134 1.996a6.4 6.4 0 0 0 2.01-.186l-.492-1.939-.492-1.938a2.4 2.4 0 0 1-.757.072zm1.384-.129.492 1.939 1.968-.5-.492-1.938-.492-1.939-1.968.5zm1.968-.5.492 1.94 1.968-.5-.492-1.939-.492-1.938-1.968.5zm1.968-.499L187 5.707q.54-.136 1.064-.182l-.172-1.992-.173-1.993q-.858.075-1.703.29zm1.384-.235.172 1.992 1.968-.17-.172-1.993-.172-1.992-1.969.17zm1.968-.17.172 1.992 1.969-.17-.173-1.993-.172-1.993-1.968.17zm1.968-.171.173 1.993a9 9 0 0 1 1.141-.03l.07-1.999.069-1.998a13 13 0 0 0-1.625.041zm1.384-.036-.07 2 1.968.068.07-1.999.07-1.999-1.969-.068zm1.968.07-.07 1.998 1.969.069.069-2 .07-1.998-1.968-.069zm1.968.068-.069 1.999q.661.022 1.323.066l.13-1.996.129-1.996a49 49 0 0 0-1.443-.072zm1.384.069-.13 1.996 1.969.127.129-1.996.129-1.995-1.968-.128zm1.968.127-.129 1.996 1.968.128.129-1.996.13-1.996-1.969-.127zm1.968.128-.129 1.996q.608.04 1.218.13l.295-1.978.294-1.978a19 19 0 0 0-1.548-.166zm1.384.148-.295 1.978 1.968.293.295-1.978.295-1.978-1.969-.293zm1.968.293-.295 1.978 1.969.294.294-1.978.295-1.979-1.968-.293zm1.968.294-.294 1.978q.846.126 1.7.117l-.022-2-.022-2a7 7 0 0 1-1.067-.074zm1.384.095.022 2 1.968-.022-.022-2-.022-2-1.968.022zm1.968-.021.022 2 1.968-.022-.022-2-.022-2-1.968.022zm1.968-.022.022 2a8.2 8.2 0 0 0 1.831-.23l-.469-1.945-.47-1.944a4.2 4.2 0 0 1-.936.12zm1.384-.175.469 1.944 1.969-.475-.47-1.944-.47-1.944-1.968.475zm1.968-.475.47 1.944 1.968-.475-.47-1.944-.469-1.945-1.969.476zm1.968-.475.47 1.944c.177-.043.339-.045.509-.01l.405-1.959.404-1.958a5.1 5.1 0 0 0-2.257.038zm1.384-.025-.405 1.959 1.969.406.404-1.958.404-1.96-1.968-.405zm1.968.407-.404 1.958 1.968.407.404-1.96.405-1.958-1.969-.406zm1.968.406-.404 1.959a5 5 0 0 0 2.294-.062l-.506-1.935-.506-1.935a1 1 0 0 1-.473.014zm1.384-.038.506 1.935 1.968-.515-.506-1.935-.506-1.935-1.968.515zm1.968-.515.506 1.935 1.968-.515L229.068 3l-.506-1.935-1.968.515zM229.068 3l.506 1.935a.4.4 0 0 1 .244.012l.634-1.897.634-1.896a4.4 4.4 0 0 0-2.524-.089zm1.384.05-.634 1.897 1.968.658.634-1.897.634-1.896-1.968-.658zm1.968.658-.634 1.897 1.968.658.634-1.897.635-1.896-1.969-.658zm1.968.658-.634 1.897c.731.244 1.492.33 2.263.234l-.245-1.985-.246-1.985a1.1 1.1 0 0 1-.503-.057zm1.384.146.245 1.985 1.968-.243-.245-1.985-.245-1.985-1.969.243zm1.968-.243.245 1.985 1.969-.243-.246-1.985-.245-1.985-1.968.243zm1.968-.243.246 1.985a23 23 0 0 0 1.518-.241l-.38-1.963-.381-1.964q-.625.12-1.248.198zm1.384-.22.38 1.964 1.969-.382-.381-1.963-.381-1.963-1.968.381zm1.968-.381.381 1.963 1.968-.381-.381-1.963-.38-1.964-1.969.382zm1.968-.381.381 1.963a1.1 1.1 0 0 1 .504.017l.499-1.936.498-1.937a5.1 5.1 0 0 0-2.262-.07zm1.384.044-.499 1.936 1.968.507.499-1.937.499-1.937-1.969-.506zm1.968.506-.499 1.937 1.969.507.498-1.937.499-1.937-1.968-.507zm1.968.507-.498 1.937a8 8 0 0 0 1.845.254l.037-2 .036-2a4 4 0 0 1-.921-.128zm1.384.19-.037 2 1.968.037.037-2 .037-2-1.969-.036zm1.968.037-.037 2 1.969.036.036-2 .037-2-1.968-.036zm1.968.036-.036 2q.56.01 1.126.094l.294-1.978.293-1.979a13 13 0 0 0-1.64-.136zm1.384.116-.294 1.978 1.968.292.294-1.978.294-1.978-1.969-.293zm1.968.292-.294 1.978 1.969.292.293-1.978.294-1.978-1.968-.292zm1.968.292-.293 1.978a5.2 5.2 0 0 0 2.229-.152l-.552-1.922-.553-1.922a1.2 1.2 0 0 1-.537.04zm1.384-.096.552 1.922 1.968-.566-.552-1.922-.552-1.922-1.969.566zm1.968-.566.552 1.922 1.969-.565-.553-1.922-.552-1.923-1.968.566zm1.968-.565.553 1.922c.182-.053.343-.06.502-.033l.329-1.973.328-1.973a5.1 5.1 0 0 0-2.264.134zm1.384-.084-.329 1.973 1.969.327.328-1.972.328-1.973-1.968-.328zm1.968.328-.328 1.972 1.968.328.328-1.973.329-1.973-1.969-.327zm1.968.327-.328 1.973q.992.166 1.988.027l-.276-1.981-.276-1.981q-.388.054-.779-.01zm1.384.019.276 1.98 1.968-.273-.276-1.981-.276-1.981-1.968.274zm1.968-.274.276 1.98 1.968-.274-.276-1.98-.276-1.981-1.968.274zm1.968-.274.276 1.98q.685-.095 1.369-.185l-.261-1.983-.262-1.983q-.699.093-1.398.19zm1.384-.188.261 1.983 1.968-.26-.261-1.983-.261-1.982-1.969.26zm1.968-.26.261 1.983 1.969-.26-.262-1.982-.261-1.983-1.968.26zm1.968-.26.262 1.984q.405-.054.814.01l.308-1.976.308-1.977a6.8 6.8 0 0 0-1.953-.023zm1.384.018-.308 1.976 1.968.306.308-1.976.308-1.976-1.968-.307zm1.968.306-.308 1.976 1.968.307.308-1.976.308-1.976-1.968-.307zm1.968.307-.308 1.976a9.2 9.2 0 0 0 1.765.105l-.073-1.998-.074-2a5.2 5.2 0 0 1-1.002-.059zm1.384.083.073 1.998 1.969-.072-.074-1.999-.074-1.999-1.968.073zm1.968-.073.074 1.999 1.968-.073-.074-1.999-.073-1.998-1.969.072zm1.968-.073.074 2q.478-.019.965.066l.345-1.97.344-1.97a8.6 8.6 0 0 0-1.801-.124zm1.384.096-.345 1.97 1.968.344.345-1.97.345-1.97-1.969-.344zm1.968.344-.345 1.97 1.969.345.344-1.97.345-1.97-1.968-.345zm1.968.344-.344 1.97a15 15 0 0 0 1.597.192l.131-1.995.131-1.996a11 11 0 0 1-1.17-.14zm1.384.167-.131 1.995 1.968.13.131-1.996.131-1.996-1.968-.129zm1.968.129-.131 1.996 1.968.129.131-1.996.131-1.996-1.968-.129zm1.968.13-.131 1.995a5.7 5.7 0 0 0 2.132-.273l-.617-1.902-.618-1.902a1.7 1.7 0 0 1-.635.085zm1.384-.18.617 1.902 1.968-.638-.617-1.903-.617-1.902-1.969.639zm1.968-.639.617 1.903 1.969-.639-.618-1.902-.617-1.903-1.968.639zm1.968-.638.618 1.902a.2.2 0 0 1 .146 0l.62-1.901.619-1.902a4.2 4.2 0 0 0-2.62-.002zm1.384 0-.62 1.902 1.968.642.62-1.902.62-1.901-1.969-.642zm1.968.642-.62 1.902 1.969.641.619-1.901.62-1.902-1.968-.641zm1.968.642-.619 1.901a4.6 4.6 0 0 0 2.438.122l-.435-1.952-.436-1.952a.6.6 0 0 1-.328-.021zm1.384.07.435 1.953 1.968-.439-.435-1.952-.435-1.952-1.969.439zm1.968-.438.435 1.952 1.969-.439-.436-1.952-.435-1.952-1.968.439zm1.968-.439.436 1.952a.96.96 0 0 1 .46.007l.488-1.94.488-1.939a4.96 4.96 0 0 0-2.307-.032zm1.384.02-.488 1.94 1.968.495.488-1.94.488-1.94-1.968-.495zm1.968.495-.488 1.94 1.968.495.488-1.94.488-1.94-1.968-.494zm1.968.495-.488 1.94a5.1 5.1 0 0 0 2.276.05l-.404-1.958-.405-1.959a1.1 1.1 0 0 1-.491-.012zm1.384.032.404 1.958 1.968-.406-.404-1.959-.404-1.958-1.969.406zm1.968-.407.404 1.959 1.969-.407-.405-1.958-.404-1.959-1.968.407zm1.968-.406.405 1.958q.583-.12 1.16-.172l-.181-1.992L331.35 2q-.806.074-1.606.24zm1.384-.206.181 1.992 1.969-.18-.182-1.992-.182-1.991-1.968.18zm1.968-.18.182 1.992 1.968-.18-.182-1.991-.181-1.992-1.969.18zm1.968-.18.182 1.992q.503-.046 1.006.004l.196-1.99.195-1.99a9.3 9.3 0 0 0-1.76-.007zm1.384.005-.196 1.99 1.969.194.195-1.99.195-1.99-1.968-.194zm1.968.194-.195 1.99 1.968.194.195-1.99.196-1.991-1.969-.194zm1.968.193-.195 1.99q.64.064 1.281.16l.298-1.978.297-1.978a29 29 0 0 0-1.485-.184zm1.384.172-.298 1.978 1.969.296.297-1.978.297-1.978-1.968-.296zm1.968.296-.297 1.978 1.968.295.297-1.977.298-1.978-1.969-.296zm1.968.296-.297 1.977q.899.135 1.803.08l-.122-1.996-.123-1.996a4.6 4.6 0 0 1-.963-.043zm1.384.061.122 1.997 1.968-.121-.122-1.996-.122-1.997-1.969.121zm1.968-.12.122 1.996 1.969-.12-.123-1.997-.122-1.996-1.968.12zm1.968-.12.123 1.995a16 16 0 0 0 1.585-.179l-.324-1.973-.325-1.974q-.592.098-1.181.134zm1.384-.157.324 1.973 1.969-.323-.325-1.974-.325-1.973-1.968.323zm1.968-.324.325 1.974 1.968-.324-.325-1.974-.324-1.973-1.969.324zm1.968-.324.325 1.974q.51-.084 1.012-.072l.047-2 .046-1.999a9.4 9.4 0 0 0-1.754.124zm1.384-.097-.047 2 1.968.045.047-2 .047-1.999-1.969-.046zm1.968.046-.047 1.999 1.969.046.046-2 .047-2-1.968-.045zm1.968.045-.046 2q.798.018 1.596-.048l-.166-1.993-.166-1.993q-.586.048-1.171.035zm1.384-.041.166 1.993 1.968-.164-.166-1.993-.166-1.993-1.968.164zm1.968-.164.166 1.993 1.968-.164-.166-1.993-.166-1.993-1.968.164zm1.968-.164.166 1.993q.569-.048 1.136-.024l.082-1.999.081-1.998a13 13 0 0 0-1.631.035zm1.384-.03-.082 1.999 1.969.08.081-1.998.082-1.999-1.969-.08zm1.968.08-.081 1.999 1.968.08.081-1.998.082-1.998-1.968-.08zm1.968.081-.081 1.998q.829.035 1.656-.046l-.191-1.99-.192-1.991a8 8 0 0 1-1.11.03zm1.384-.038.191 1.99 1.968-.189-.191-1.99-.191-1.991-1.969.189zm1.968-.19.191 1.991 1.969-.189-.192-1.99-.191-1.992-1.968.19zm1.968-.189.192 1.991q.36-.036.74.051l.452-1.948.451-1.948a6.3 6.3 0 0 0-2.026-.137zm1.384.094-.452 1.948 1.969.456.451-1.948.451-1.948-1.968-.456zm1.968.456-.451 1.948 1.968.456.451-1.948.452-1.948-1.969-.456zm1.968.456-.451 1.948c.77.179 1.55.172 2.316-.018l-.481-1.941-.482-1.941a.9.9 0 0 1-.45.004zm1.384-.011.481 1.94 1.969-.488-.482-1.94-.482-1.942-1.968.489zm1.968-.489.482 1.941 1.968-.488-.482-1.941-.481-1.941-1.969.488zm1.968-.488.482 1.94a.55.55 0 0 1 .317.012l.585-1.913.584-1.912a4.55 4.55 0 0 0-2.449-.068zm1.384.04-.585 1.912 1.969.601.584-1.913.584-1.912-1.968-.601zm1.968.6-.584 1.913 1.968.601.584-1.912.585-1.913-1.969-.601zm1.968.602-.584 1.912a4.57 4.57 0 0 0 2.441.074l-.473-1.944-.474-1.943a.57.57 0 0 1-.325-.012zm1.384.043.473 1.943 1.968-.48-.473-1.943-.473-1.943-1.969.48zm1.968-.48.473 1.943 1.969-.479-.474-1.943-.473-1.943-1.968.479zm1.968-.48.474 1.944q.404-.098.783-.072l.127-1.996.126-1.996a6.6 6.6 0 0 0-1.983.178zm1.384-.124-.127 1.996 1.969.125.126-1.996.126-1.996-1.968-.125zm1.968.125-.126 1.996 1.968.125.126-1.996.127-1.996-1.969-.125zm1.968.125-.126 1.996q.673.041 1.346.098l.164-1.994.163-1.993a77 77 0 0 0-1.42-.103zm1.384.1-.164 1.994 1.969.161.163-1.993.163-1.994-1.968-.161zm1.968.162-.163 1.993 1.968.161.163-1.993.164-1.993-1.969-.162zm1.968.161-.163 1.993a6.4 6.4 0 0 0 2.007-.153l-.46-1.947-.461-1.946q-.39.091-.759.06zm1.384-.107.46 1.947 1.968-.466-.46-1.946-.46-1.946-1.969.465zm1.968-.465.46 1.946 1.969-.465-.461-1.946-.46-1.947-1.968.466zm1.968-.465.461 1.946a.4.4 0 0 1 .242.02l.681-1.88.68-1.88a4.4 4.4 0 0 0-2.524-.153zm1.384.086-.681 1.88 1.969.713.68-1.88.68-1.882-1.968-.712zm1.968.712-.68 1.881 1.968.712.68-1.88.681-1.881-1.969-.713zm1.968.712-.68 1.881c.685.248 1.399.37 2.13.345l-.066-1.999-.067-1.998a1.7 1.7 0 0 1-.636-.11zm1.384.227.066 2 1.969-.066-.067-1.999-.066-1.999-1.969.066zm1.968-.065.067 1.999 1.968-.066-.067-1.999-.066-1.998-1.968.065zm1.968-.066.067 2q.648-.022 1.295-.015l.022-2 .021-2q-.735-.008-1.471.017zm1.384-.015-.022 2 1.969.02.021-2 .021-1.999-1.968-.021zm1.968.02-.021 2 1.968.022.021-2 .022-2-1.969-.021zm1.968.022-.021 2q.63.007 1.259.052l.146-1.994.145-1.995a24 24 0 0 0-1.507-.063zm1.384.058-.146 1.994 1.969.144.145-1.995.145-1.995-1.968-.143zm1.968.143-.145 1.995 1.968.143.145-1.994.146-1.995-1.969-.144zm1.968.144-.145 1.994a5 5 0 0 0 2.297-.385l-.768-1.847-.769-1.846a1 1 0 0 1-.469.089zm1.384-.238.768 1.847 1.968-.82-.768-1.846-.768-1.847-1.969.82zm1.968-.819.768 1.846 1.969-.819-.769-1.846-.768-1.847-1.968.82zm1.968-.82.769 1.847a.73.73 0 0 1 .382-.067l.233-1.986.232-1.986a4.7 4.7 0 0 0-2.384.346zm1.384-.206-.233 1.986 1.968.231.233-1.986.233-1.987-1.969-.23zm1.968.23-.233 1.987 1.969.23.232-1.986.233-1.986-1.968-.23zm1.968.231-.232 1.987a9.3 9.3 0 0 0 1.761.039l-.145-1.995-.146-1.995a5.3 5.3 0 0 1-1.005-.022zm1.384.031.145 1.995 1.969-.144-.146-1.995-.145-1.994-1.969.143zm1.968-.144.146 1.995 1.968-.143-.146-1.995-.145-1.995-1.968.144zm1.968-.143.146 1.995a13 13 0 0 1 1.192-.03l.046-2 .045-2q-.788-.017-1.574.04zm1.384-.035-.046 2 1.968.045.046-2 .046-2-1.969-.044zm1.968.045-.046 2 1.969.045.045-2 .046-1.999-1.968-.045zm1.968.045-.045 2q.754.016 1.507-.012l-.078-1.999-.079-1.998q-.63.024-1.259.01zm1.384-.01.078 1.998 1.969-.078-.079-1.999-.079-1.998-1.968.078zm1.968-.079.079 1.999 1.968-.078-.079-1.998-.078-1.999-1.969.078zm1.968-.077.079 1.998c.236-.009.481.02.743.096l.562-1.92.561-1.919a6.3 6.3 0 0 0-2.023-.254zm1.384.175-.562 1.92 1.969.575.561-1.92.561-1.92-1.968-.575zm1.968.575-.561 1.92 1.968.575.561-1.92.562-1.919-1.969-.575zm1.968.576-.561 1.92c.705.205 1.43.274 2.162.194l-.217-1.988-.218-1.988c-.19.02-.387.006-.604-.058zm1.384.126.217 1.988 1.969-.215-.218-1.988-.218-1.988-1.968.215zm1.968-.215.218 1.988 1.968-.216-.218-1.988-.217-1.988-1.969.216zm1.968-.216.218 1.988q.774-.084 1.544-.233l-.378-1.964-.379-1.963q-.613.117-1.222.184zm1.384-.209.378 1.964 1.968-.379-.378-1.964-.378-1.963-1.969.379zm1.968-.379.378 1.964 1.969-.379-.379-1.963-.378-1.964-1.968.379zm1.968-.378.379 1.963a.85.85 0 0 1 .427.027l.578-1.915.577-1.915a4.86 4.86 0 0 0-2.339-.124zm1.384.075-.578 1.915 1.969.593.577-1.915.577-1.915-1.968-.593zm1.968.593-.577 1.915 1.968.594.577-1.915.578-1.915-1.969-.594zm1.968.594-.577 1.915c.723.217 1.47.284 2.222.185l-.261-1.983-.262-1.983c-.17.023-.345.01-.544-.05zm1.384.117.261 1.983 1.968-.26-.261-1.982-.261-1.983-1.969.26zm1.968-.26.261 1.983 1.969-.259-.262-1.983-.261-1.983-1.968.26zm1.968-.259.262 1.983q.677-.09 1.354-.168l-.232-1.987-.233-1.986a98 98 0 0 0-1.412.175zm1.384-.172.232 1.987 1.969-.231L493.1 3.5l-.233-1.987-1.968.23zm1.968-.23.233 1.986 1.968-.23-.233-1.987-.232-1.986-1.969.23zm1.968-.23.233 1.986a1.8 1.8 0 0 1 .657.046l.494-1.938.494-1.938a5.8 5.8 0 0 0-2.11-.143zm1.384.094-.494 1.938 1.968.502.494-1.938.494-1.938-1.968-.502zm1.968.502-.494 1.938 1.969.502.493-1.938.494-1.938-1.968-.502zm1.968.502-.493 1.938c.705.18 1.427.223 2.15.124l-.273-1.981-.273-1.982c-.2.028-.4.018-.617-.037zm1.384.08.273 1.982 1.968-.271-.273-1.982-.273-1.981-1.968.271zm1.968-.27.273 1.98 1.968-.27-.273-1.982-.273-1.981-1.968.271zm1.968-.272.273 1.981q.64-.087 1.281-.142l-.17-1.993-.17-1.993q-.743.064-1.487.166zm1.384-.154.17 1.993 1.968-.168-.17-1.993-.17-1.993-1.968.168zm1.968-.168.17 1.993 1.968-.168-.17-1.993-.169-1.993-1.969.168zm1.968-.168.17 1.993q.393-.034.801.051l.413-1.957.412-1.957a6.7 6.7 0 0 0-1.965-.123zm1.384.087-.413 1.957 1.968.415.413-1.957.413-1.957-1.969-.415zm1.968.415-.413 1.957 1.969.415.412-1.957.413-1.956-1.968-.416zm1.968.415-.412 1.957c.746.158 1.5.15 2.243-.02l-.447-1.95-.448-1.949a1.2 1.2 0 0 1-.523.006zm1.384-.012.447 1.949 1.969-.452-.448-1.95-.447-1.949-1.969.452zm1.968-.452.448 1.949 1.968-.452-.448-1.95-.447-1.948-1.968.451zm1.968-.452.448 1.95a.77.77 0 0 1 .399.01l.537-1.926.537-1.927a4.8 4.8 0 0 0-2.368-.056zm1.384.034-.537 1.926 1.968.55L525.02 4l.537-1.927-1.968-.549zM525.02 4l-.537 1.926 1.968.549.537-1.927.537-1.926-1.968-.549zm1.968.548-.537 1.927c.735.205 1.49.25 2.246.126l-.325-1.974-.325-1.973c-.167.027-.334.02-.522-.032zm1.384.08.325 1.973 1.968-.325-.325-1.973-.325-1.973-1.968.324zm1.968-.325.325 1.973 1.968-.324-.325-1.973-.325-1.974-1.968.325zm1.968-.324.325 1.973q.593-.098 1.181-.133l-.122-1.997-.123-1.996q-.794.049-1.586.18zm1.384-.157.122 1.997 1.968-.121-.122-1.996-.122-1.997-1.969.121zm1.968-.12.122 1.996 1.969-.12-.123-1.997-.122-1.996-1.968.12zm1.968-.12.123 1.995c.231-.014.469.01.724.081l.537-1.927.536-1.926a6.2 6.2 0 0 0-2.042-.22zm1.384.15-.537 1.926 1.968.548.537-1.927.537-1.926-1.969-.548zm1.968.547-.537 1.927 1.969.548.536-1.926.537-1.927-1.968-.548zm1.968.549-.536 1.926c.773.216 1.567.24 2.353.065l-.433-1.952-.434-1.953a.8.8 0 0 1-.413-.013zm1.384.039.433 1.952 1.969-.437-.434-1.952-.433-1.953-1.969.437zm1.968-.437.434 1.952 1.968-.437-.434-1.952-.433-1.953-1.968.437zm1.968-.437.434 1.952c.19-.042.369-.044.555-.006l.395-1.96.394-1.961a5.3 5.3 0 0 0-2.211.022zm1.384-.015-.395 1.96 1.968.397.395-1.96.395-1.961-1.969-.396zm1.968.397-.395 1.96 1.969.396.394-1.96.395-1.96-1.968-.397zm1.968.396-.394 1.96c.706.143 1.42.151 2.129.025l-.351-1.97-.351-1.968a1.7 1.7 0 0 1-.638-.008zm1.384.016.351 1.969 1.968-.351-.351-1.97-.351-1.968-1.968.35zm1.968-.351.351 1.969 1.968-.351-.351-1.969-.351-1.969-1.968.351zm1.968-.351.351 1.969q.678-.12 1.354-.23l-.321-1.975-.322-1.974q-.707.115-1.413.241zm1.384-.236.321 1.974 1.969-.32-.322-1.975-.322-1.974-1.968.321zm1.968-.32.322 1.973 1.968-.32-.322-1.974-.321-1.974-1.969.32zm1.968-.321.322 1.974q.393-.064.783-.01l.279-1.98.278-1.98a6.6 6.6 0 0 0-1.983.022zm1.384-.016-.279 1.98 1.968.278.279-1.98.279-1.981-1.969-.277zm1.968.277-.279 1.98 1.969.278.278-1.98.279-1.981-1.968-.277zm1.968.278-.278 1.98a8.2 8.2 0 0 0 1.825.053l-.163-1.993-.164-1.993a4.2 4.2 0 0 1-.941-.028zm1.384.04.163 1.993 1.969-.161-.164-1.993-.164-1.994-1.968.162zm1.968-.161.164 1.993 1.968-.162-.164-1.993-.163-1.993-1.969.161zm1.968-.162.164 1.993c.231-.019.467 0 .718.065l.502-1.936.502-1.935a6.1 6.1 0 0 0-2.049-.18zm1.384.122-.502 1.936 1.968.51.502-1.935.502-1.936-1.968-.51zm1.968.51-.502 1.937 1.968.51.502-1.936.502-1.936-1.968-.51zm1.968.511-.502 1.936a7.3 7.3 0 0 0 1.909.236l-.023-2-.023-2a3.3 3.3 0 0 1-.859-.108zm1.384.172.023 2 1.968-.023-.023-2-.023-2-1.968.023zm1.968-.023.023 2 1.968-.023-.023-2-.023-2-1.968.023zm1.968-.023.023 2a13 13 0 0 0 1.63-.12l-.269-1.981-.269-1.982q-.571.077-1.138.084zm1.384-.101.269 1.981 1.968-.267-.269-1.981-.269-1.982-1.968.267zm1.968-.267.269 1.981 1.968-.267-.269-1.982-.268-1.981-1.969.267zm1.968-.268.269 1.982q.498-.067.992-.037l.123-1.996.122-1.996a9 9 0 0 0-1.774.066zm1.384-.05-.123 1.995 1.968.122.123-1.997.123-1.996-1.969-.121zm1.968.12-.123 1.997 1.969.12.122-1.996.123-1.996-1.968-.12zm1.968.121-.122 1.997a14 14 0 0 0 1.617.004l-.111-1.997-.112-1.996a10 10 0 0 1-1.149-.004zm1.384.004.111 1.997 1.968-.11-.111-1.996-.111-1.997-1.969.11zm1.968-.11.111 1.998 1.969-.11-.112-1.997-.111-1.997-1.968.11zm1.968-.109.112 1.997a5.6 5.6 0 0 1 1.02.037l.252-1.984.251-1.984a9.6 9.6 0 0 0-1.746-.063zm1.384.05-.252 1.984 1.968.25.252-1.985.252-1.984-1.969-.25zm1.968.25-.252 1.984 1.969.25.251-1.985.252-1.984-1.968-.25zm1.968.25-.251 1.983a6.9 6.9 0 0 0 1.945-.03l-.31-1.975-.311-1.975a2.9 2.9 0 0 1-.821.012zm1.384-.022.31 1.976 1.969-.31-.311-1.975-.311-1.976-1.968.31zm1.968-.31.311 1.976 1.968-.31-.311-1.975-.31-1.976-1.969.31zm1.968-.31.311 1.977q.549-.087 1.093-.092l-.02-2-.021-2q-.839.01-1.673.14zm1.384-.115.02 2 1.968-.02-.02-2-.02-2-1.969.02zm1.968-.02.02 2 1.969-.02-.021-2-.02-2-1.968.02zm1.968-.02.021 2a65 65 0 0 0 1.427-.03l-.064-2-.065-1.998q-.67.022-1.339.028zm1.384-.03.064 2 1.968-.064-.064-1.999-.064-1.999-1.969.064zm1.968-.063.064 2 1.969-.064-.065-1.999-.064-1.999-1.968.063zm1.968-.063.065 1.999q.642-.02 1.285-.01l.034-2 .034-2a30 30 0 0 0-1.482.012zm1.384-.01-.034 2 1.968.033.034-2 .034-2-1.968-.033zm1.968.033-.034 2 1.968.033.034-2 .034-2-1.968-.033zm1.968.034-.034 2q.495.007 1.001.115l.417-1.956.416-1.957a9.2 9.2 0 0 0-1.766-.202zm1.384.159-.417 1.956 1.969.419.416-1.956.416-1.957-1.968-.419zm1.968.419-.416 1.956 1.968.419.416-1.956.417-1.957-1.969-.419zm1.968.419-.416 1.956a5.2 5.2 0 0 0 2.233-.01l-.433-1.953-.434-1.952c-.182.04-.353.04-.533.002zm1.384-.007.433 1.953 1.969-.438-.434-1.952-.434-1.952-1.968.437zm1.968-.437.434 1.952 1.968-.437-.434-1.952-.433-1.953-1.969.438zm1.968-.437.434 1.952c.177-.04.344-.04.52 0l.43-1.954.429-1.953a5.2 5.2 0 0 0-2.246.002zm1.384-.002-.43 1.953 1.969.433.429-1.953.429-1.954-1.968-.432zm1.968.433-.429 1.953 1.968.432.429-1.953.43-1.953-1.969-.433zm1.968.432-.429 1.953a10 10 0 0 0 1.74.223l.073-1.999.073-1.998a5.7 5.7 0 0 1-1.027-.132zm1.384.177-.073 1.999 1.968.072.073-1.999.073-1.999-1.968-.071zm1.968.072-.073 1.999 1.968.072.073-1.999.073-1.999-1.968-.072zm1.968.072-.073 1.999q.801.03 1.601-.029l-.144-1.995-.144-1.994q-.583.042-1.167.02zm1.384-.025.144 1.995 1.968-.142-.144-1.995-.144-1.995-1.968.143zm1.968-.142.144 1.995 1.969-.142-.145-1.995-.144-1.995-1.968.142zm1.968-.142.145 1.995a20 20 0 0 0 1.538-.172l-.299-1.977-.299-1.978q-.615.093-1.229.137zm1.384-.154.299 1.977 1.968-.297-.299-1.978-.299-1.978-1.968.298zm1.968-.298.299 1.978 1.968-.298-.299-1.978-.298-1.977-1.969.297zm1.968-.298.299 1.978c.207-.031.413-.024.631.027l.454-1.948.453-1.948a5.65 5.65 0 0 0-2.135-.086zm1.384.057-.454 1.948 1.969.458.453-1.948.453-1.948-1.968-.458zm1.968.458-.453 1.948 1.968.458.453-1.948.454-1.948-1.969-.458zm1.968.458-.453 1.948a4.44 4.44 0 0 0 2.496-.14l-.659-1.889-.659-1.888a.45.45 0 0 1-.271.02zm1.384-.08.659 1.887 1.968-.686-.659-1.889-.659-1.888-1.968.687zm1.968-.688.659 1.889 1.968-.687-.659-1.889-.659-1.888-1.968.687zm1.968-.687.659 1.889a.3.3 0 0 1 .197-.012l.528-1.929.528-1.929a4.3 4.3 0 0 0-2.571.093zm1.384-.052-.528 1.93 1.968.538.528-1.929.528-1.929-1.968-.539zm1.968.54-.528 1.928 1.968.539.528-1.93.528-1.928-1.968-.539zm1.968.538-.528 1.929a9.6 9.6 0 0 0 1.746.31l.166-1.992.166-1.993a5.6 5.6 0 0 1-1.022-.183zm1.384.247-.166 1.993 1.968.164.166-1.993.166-1.993-1.968-.164zm1.968.164-.166 1.993 1.968.164.166-1.993.166-1.994-1.968-.163zm1.968.164-.166 1.993q.902.075 1.8-.039l-.25-1.984-.251-1.984q-.484.06-.967.02zm1.384-.03.25 1.984 1.968-.248-.25-1.985-.25-1.984-1.969.249zm1.968-.249.25 1.985 1.969-.249-.251-1.984-.25-1.984-1.968.248zm1.968-.248.251 1.984a17 17 0 0 0 1.564-.271l-.431-1.953-.432-1.953q-.603.133-1.202.209zm1.384-.24.431 1.953 1.969-.435-.432-1.953-.432-1.953-1.968.435zm1.968-.435.432 1.953 1.968-.435-.432-1.953-.431-1.953-1.969.435zm1.968-.435.432 1.953a2.6 2.6 0 0 1 .785-.055l.167-1.993.166-1.993a6.6 6.6 0 0 0-1.981.135zm1.384-.095-.167 1.993 1.968.165.167-1.994.167-1.993-1.969-.164zm1.968.164-.167 1.994 1.969.164.166-1.993.167-1.993-1.968-.165zm1.968.165-.166 1.993q.657.055 1.315.133l.235-1.986.235-1.986a43 43 0 0 0-1.452-.147zm1.384.14-.235 1.986 1.968.233.235-1.986.235-1.986-1.968-.233zm1.968.233-.235 1.986 1.968.233.235-1.986.236-1.986-1.969-.233zm1.968.233-.235 1.986q1.005.119 2-.075l-.381-1.964-.381-1.963q-.39.075-.767.03zm1.384-.053.381 1.964 1.968-.382-.381-1.964-.381-1.963-1.968.382zm1.968-.382.381 1.964 1.969-.382-.382-1.964-.381-1.963-1.968.382zm1.968-.382.382 1.964a1.3 1.3 0 0 1 .556.01l.446-1.95.445-1.95a5.3 5.3 0 0 0-2.21-.037zm1.384.024-.446 1.95 1.968.45.446-1.95.446-1.95-1.969-.45zm1.968.45-.446 1.95 1.969.45.445-1.95.446-1.95-1.968-.45zm1.968.45-.445 1.95a5.3 5.3 0 0 0 2.213.036l-.384-1.963-.385-1.963a1.3 1.3 0 0 1-.553-.01zm1.384.023.384 1.963 1.969-.386-.385-1.963-.385-1.963-1.968.386zm1.968-.386.385 1.963 1.968-.386-.385-1.963-.384-1.963-1.969.386zm1.968-.386.385 1.963a1 1 0 0 1 .471.02l.528-1.93.527-1.929a5 5 0 0 0-2.295-.087zm1.384.053-.528 1.93 1.969.538.527-1.93.528-1.928-1.969-.539zm1.968.539-.527 1.929 1.968.538.527-1.93.528-1.928-1.968-.538zm1.968.538-.527 1.93c.77.21 1.561.232 2.343.058l-.432-1.952-.433-1.953a.84.84 0 0 1-.423-.012zm1.384.036.432 1.952 1.969-.436-.433-1.952-.433-1.953-1.968.436zm1.968-.436.433 1.952 1.968-.436-.433-1.952-.432-1.953-1.969.436zm1.968-.436.433 1.952c.173-.038.336-.038.51.001l.441-1.95.441-1.951a5.1 5.1 0 0 0-2.257-.005zm1.384.003-.441 1.95 1.968.445.441-1.95.441-1.951-1.968-.445zm1.968.445-.441 1.95 1.968.445.441-1.95.441-1.951-1.968-.445zm1.968.445-.441 1.95c.87.197 1.738.117 2.552-.201l-.727-1.863-.728-1.863c-.108.042-.162.038-.215.026zm1.384-.114.727 1.863 1.969-.77-.728-1.862-.728-1.863-1.968.769zm1.968-.77.728 1.864 1.968-.77-.728-1.862-.727-1.863-1.969.769zm1.968-.768.728 1.863c.195-.076.348-.092.481-.08l.175-1.993.174-1.992a5 5 0 0 0-2.285.339zm1.384-.21-.175 1.992 1.969.172.174-1.992.174-1.992-1.968-.172zm1.968.172-.174 1.992 1.968.172.174-1.992.175-1.992-1.969-.172zm1.968.172-.174 1.992q.608.053 1.22.158l.338-1.97.337-1.972a19 19 0 0 0-1.546-.2zm1.384.179-.338 1.971 1.968.338.338-1.972.338-1.97-1.969-.338zm1.968.337-.338 1.972 1.969.337.337-1.971.338-1.972-1.968-.337zm1.968.338-.337 1.971a9 9 0 0 0 1.786.123l-.065-1.998-.066-2q-.486.017-.98-.068zm1.384.096.065 1.998 1.969-.064-.066-1.999-.065-1.999-1.969.065zm1.968-.065.066 1.999 1.968-.065-.066-1.998-.065-2-1.968.065zm1.968-.064.066 1.998 1.378-.043-.06-1.999-.061-1.999q-.693.02-1.388.044zm1.384-.044.06 2 1.968-.06-.06-2-.06-1.998-1.969.059zm1.968-.06.06 2 1.969-.06-.061-1.998-.06-2-1.968.06zm1.968-.058.061 1.999a9.7 9.7 0 0 0 1.741-.212l-.418-1.956-.419-1.956a5.7 5.7 0 0 1-1.025.125zm1.384-.17.418 1.957 1.968-.422-.418-1.955-.418-1.956-1.969.421zm1.968-.42.418 1.955 1.969-.42-.419-1.956-.418-1.956-1.968.42zm1.968-.421.419 1.955c.246-.052.483-.062.72-.033l.245-1.985.245-1.985a6.2 6.2 0 0 0-2.047.092zm1.384-.063-.245 1.985 1.968.243.245-1.985.245-1.985-1.968-.243zm1.968.243-.245 1.985 1.969.243.244-1.985.245-1.985-1.968-.243zm1.968.243-.244 1.985a5.7 5.7 0 0 1 1.023.226l.605-1.907.604-1.906a9.7 9.7 0 0 0-1.743-.383zm1.384.304-.605 1.907 1.969.624.604-1.907.604-1.906-1.968-.624zm1.968.624-.604 1.907 1.968.624.604-1.907.605-1.906-1.969-.624zm1.968.624-.604 1.907c.791.25 1.613.291 2.428.107l-.44-1.95-.441-1.952a.6.6 0 0 1-.338-.018zm1.384.063.44 1.951 1.969-.444-.441-1.951-.441-1.951-1.968.444zm1.968-.444.441 1.95 1.968-.444-.441-1.95-.44-1.952-1.969.445zm1.968-.445.441 1.95c.163-.036.315-.035.48.004l.463-1.946.462-1.946a5 5 0 0 0-2.286-.013zm1.384.008-.463 1.946 1.969.468.462-1.946.462-1.946-1.968-.468zm1.968.468-.462 1.946 1.968.467.462-1.946.463-1.945-1.969-.468zm1.968.467-.462 1.946a5.1 5.1 0 0 0 2.273.021l-.427-1.954-.428-1.953a1.1 1.1 0 0 1-.493-.005zm1.384.013.427 1.954 1.969-.43-.428-1.954-.427-1.954-1.969.43zm1.968-.43.428 1.954 1.968-.431-.428-1.954-.427-1.954-1.968.431zm1.968-.43.428 1.953q.565-.125 1.123-.17L794.372 4l-.168-1.993q-.825.07-1.643.248zm1.384-.21.167 1.993 1.969-.166-.168-1.993-.168-1.993-1.968.166zm1.968-.166.168 1.993 1.968-.166-.168-1.993-.167-1.993-1.969.166zm1.968-.166.168 1.993q.697-.06 1.393-.12l-.177-1.993-.178-1.992-1.373.12zm1.384-.12.177 1.992 1.969-.175-.178-1.992-.178-1.992-1.968.175zm1.968-.175.178 1.992 1.968-.176-.178-1.992-.177-1.992-1.969.176zm1.968-.176.178 1.992a2.4 2.4 0 0 1 .764.054l.442-1.951.441-1.95a6.5 6.5 0 0 0-2.002-.137zm1.384.095-.442 1.95 1.969.446.441-1.95.441-1.952-1.968-.445zm1.968.445-.441 1.95 1.968.446.441-1.95.442-1.952-1.969-.445zm1.968.445-.441 1.951q.846.192 1.701.244l.124-1.996.123-1.996a6.7 6.7 0 0 1-1.065-.154zm1.384.2-.124 1.995 1.969.122.123-1.996.123-1.997-1.968-.12zm1.968.12-.123 1.997 1.968.121.123-1.996.124-1.996-1.969-.122zm1.968.122-.123 1.996a6.6 6.6 0 0 0 1.984-.18l-.477-1.943-.478-1.942a2.6 2.6 0 0 1-.782.073zm1.384-.127.477 1.942 1.968-.484-.477-1.942-.477-1.942-1.969.484zm1.968-.484.477 1.942 1.969-.483-.478-1.942-.477-1.943-1.968.484zm1.968-.483.478 1.942q.548-.134 1.085-.182l-.179-1.992-.179-1.992q-.846.076-1.682.281zm1.384-.232.179 1.992 1.968-.177-.179-1.992-.179-1.992-1.968.177zm1.968-.177.179 1.992 1.968-.177-.179-1.992-.178-1.992-1.969.177zm1.968-.177.179 1.992c.137-.012.293.004.489.079l.716-1.868.716-1.867a5.06 5.06 0 0 0-2.278-.328zm1.384.203-.716 1.868 1.968.754.716-1.867.716-1.867-1.968-.755zm1.968.755-.716 1.867 1.968.755.716-1.867.717-1.868-1.969-.754zm1.968.755-.716 1.867a4.5 4.5 0 0 0 2.478.229l-.378-1.964-.379-1.964a.5.5 0 0 1-.288-.036zm1.384.132.378 1.964 1.968-.38-.378-1.963-.378-1.964-1.969.379zm1.968-.38.378 1.964 1.969-.379-.379-1.964-.378-1.964-1.968.38zm1.968-.379.379 1.964a10 10 0 0 1 1.151-.153l-.146-1.994-.146-1.995a14 14 0 0 0-1.616.214zm1.384-.183.146 1.994 1.968-.144-.146-1.994-.146-1.995-1.968.144zm1.968-.144.146 1.994 1.968-.144-.146-1.994-.145-1.995-1.969.144zm1.968-.144.146 1.994q.429-.031.87.05l.368-1.965.368-1.966a7.4 7.4 0 0 0-1.897-.108zm1.384.079-.368 1.965 1.968.369.368-1.966.368-1.966-1.968-.368zm1.968.368-.368 1.966 1.968.369.368-1.966.369-1.966-1.969-.369zm1.968.369-.368 1.966q.782.146 1.568.219l.184-1.992.184-1.991a13 13 0 0 1-1.199-.168zm1.384.193-.184 1.992 1.968.182.184-1.992.184-1.991-1.968-.182zm1.968.182-.184 1.992 1.968.182.184-1.992.185-1.991-1.969-.182zm1.968.182-.184 1.992a9.7 9.7 0 0 0 1.742.004l-.174-1.993-.175-1.992q-.513.046-1.024-.002zm1.384.003.174 1.993 1.969-.173-.175-1.992-.175-1.992-1.968.172zm1.968-.172.175 1.992 1.968-.172-.175-1.992-.174-1.993-1.969.173zm1.968-.172.175 1.992q.688-.06 1.377-.118l-.168-1.993-.169-1.993-1.389.12zm1.384-.12.168 1.994 1.968-.167-.168-1.993-.168-1.993-1.969.167zm1.968-.166.168 1.993 1.969-.166-.169-1.993-.168-1.993-1.968.166zm1.968-.166.169 1.993q.417-.036.845.044l.37-1.965.369-1.966a7.1 7.1 0 0 0-1.921-.099zm1.384.072-.37 1.965 1.968.37.37-1.965.37-1.965-1.969-.37zm1.968.37-.37 1.966 1.969.37.369-1.966.37-1.965-1.968-.37zm1.968.37-.369 1.966a4.6 4.6 0 0 0 2.435-.207l-.682-1.88-.683-1.88a.6.6 0 0 1-.331.036zm1.384-.12.682 1.88 1.968-.715-.682-1.88-.682-1.88-1.969.714zm1.968-.715.682 1.88 1.969-.714-.683-1.88-.682-1.88-1.968.714zm1.968-.714.683 1.88a1.2 1.2 0 0 1 .529-.08l.172-1.992.171-1.993a5.2 5.2 0 0 0-2.237.305zm1.384-.192L874 5.203l1.969.169.171-1.993.171-1.993-1.968-.169zm1.968.169-.171 1.993 1.968.169.171-1.993.172-1.993-1.969-.169zm1.968.17-.171 1.992q.745.063 1.489.088l.066-1.999.065-1.999a24 24 0 0 1-1.277-.076zm1.384.081-.066 2 1.969.064.065-2 .066-1.998-1.969-.065zm1.968.065-.065 1.999 1.968.064.065-1.999.066-1.999-1.968-.064zm1.968.064-.065 1.999q.46.014.941.14l.508-1.935.508-1.934a8.2 8.2 0 0 0-1.826-.269zm1.384.204-.508 1.935 1.968.517.508-1.935.508-1.934-1.968-.517zm1.968.517-.508 1.935 1.968.517.508-1.935.508-1.934-1.968-.517zm1.968.517-.508 1.935a4.1 4.1 0 0 0 2.66-.194l-.768-1.847-.769-1.846a.3.3 0 0 1-.084.022l-.023-.004zm1.384-.106.768 1.847 1.968-.82-.768-1.846-.768-1.846-1.969.819zm1.968-.819.768 1.847 1.969-.82-.769-1.846-.768-1.847-1.968.82zm1.968-.82.769 1.847a1.3 1.3 0 0 1 .548-.112l.067-1.999.066-1.999a5.3 5.3 0 0 0-2.218.417zm1.384-.264-.067 1.999 1.969.065.066-1.999.066-1.999-1.968-.065zm1.968.065-.066 2 1.968.064.066-1.998.067-2-1.969-.065zm1.968.066-.066 1.998q.783.027 1.565-.019l-.115-1.996-.116-1.997q-.6.034-1.201.015zm1.384-.017.115 1.996 1.968-.113-.115-1.997-.115-1.997-1.969.114zm1.968-.114.115 1.997 1.969-.114-.116-1.997-.115-1.996-1.968.113zm1.968-.114.116 1.997q.614-.035 1.228-.023l.04-2 .039-2q-.769-.015-1.538.03zm1.384-.026-.04 2 1.969.038.039-2 .039-1.999-1.968-.039zm1.968.039-.039 2 1.968.038.039-2 .04-2-1.969-.038zm1.968.038-.039 2q.682.013 1.363.034l.06-2 .059-1.999q-.702-.02-1.403-.034zm1.384.035-.06 1.999 1.969.058.059-1.999.059-2-1.968-.058zm1.968.058-.059 2 1.968.058.059-2 .06-1.999-1.969-.058zm1.968.058-.059 2q.776.022 1.552-.02l-.109-1.997-.109-1.997q-.607.033-1.215.015zm1.384-.017.109 1.997 1.968-.107-.109-1.997-.109-1.997-1.968.107zm1.968-.107.109 1.997 1.968-.108-.109-1.997-.108-1.997-1.969.108zm1.968-.108.109 1.997q.613-.033 1.225-.018l.05-2 .049-1.999a20 20 0 0 0-1.541.023zm1.384-.02-.05 2 1.969.048.049-2 .049-2-1.968-.048zm1.968.048-.049 2 1.968.048.049-2 .05-1.999-1.969-.048zm1.968.049-.049 1.999q.688.017 1.376.036l.057-1.999.056-1.999-1.39-.037zm1.384.036-.057 2 1.968.055.057-1.999.057-2-1.969-.055zm1.968.056-.057 2 1.969.055.056-1.999.057-2-1.968-.055zm1.968.056-.056 2q.395.008.83.146l.61-1.905.609-1.905a7 7 0 0 0-1.936-.335zm1.384.24-.61 1.906 1.969.63.609-1.905.61-1.905-1.969-.63zm1.968.63-.609 1.906 1.968.63.609-1.905.61-1.905-1.968-.63zm1.968.63-.609 1.905a4.86 4.86 0 0 0 2.336.167l-.343-1.97-.344-1.971a.87.87 0 0 1-.43-.035zm1.384.101.343 1.97 1.968-.343-.343-1.97-.343-1.97-1.969.343zm1.968-.343.343 1.97 1.969-.343-.344-1.97-.343-1.97-1.968.343zm1.968-.343.344 1.97a7 7 0 0 1 1.081-.105l-.041-2-.041-2q-.847.018-1.686.165zm1.384-.135.041 2 1.968-.04-.041-2-.041-2-1.968.04zm1.968-.04.041 2 1.969-.041-.042-2-.041-2-1.968.041zm1.968-.04.042 1.999q.728-.015 1.455-.056l-.113-1.997-.114-1.997q-.655.038-1.311.05zm1.384-.054.113 1.997 1.968-.112-.113-1.997-.113-1.997-1.969.112zm1.968-.112.113 1.997 1.969-.112-.114-1.997-.113-1.996-1.968.111zm1.968-.112.114 1.997a5.4 5.4 0 0 1 1.008.038l.262-1.983.261-1.983a9.4 9.4 0 0 0-1.758-.065zm1.384.052-.262 1.983 1.968.26.262-1.983.262-1.983-1.969-.26zm1.968.26-.262 1.983 1.969.26.261-1.983.262-1.983-1.968-.26zm1.968.26-.261 1.983q.748.098 1.498.153l.147-1.994.146-1.995a22 22 0 0 1-1.268-.13zm1.384.142-.147 1.994 1.968.145.147-1.994.147-1.995-1.969-.145zm1.968.145-.147 1.994 1.969.145.146-1.995.147-1.994-1.968-.145zm1.968.144-.146 1.995q.741.054 1.484.071l.046-1.999.046-2q-.641-.015-1.283-.061zm1.384.067-.046 2 1.968.045.046-2 .046-2-1.968-.044zm1.968.045-.046 2 1.968.045.046-2 .047-1.999-1.969-.045zm1.968.046-.046 2a7.7 7.7 0 0 0 1.871-.19l-.441-1.95-.442-1.952a3.7 3.7 0 0 1-.895.092zm1.384-.14.441 1.95 1.968-.445-.441-1.951-.441-1.95-1.969.444zm1.968-.446.441 1.95 1.969-.445-.442-1.95-.441-1.951-1.968.445zm1.968-.446.442 1.951q.416-.093.813-.067l.129-1.995.128-1.996a6.8 6.8 0 0 0-1.953.157zm1.384-.111-.129 1.995 1.968.127.129-1.995.129-1.996-1.969-.127zm1.968.127-.129 1.995 1.969.127.128-1.996.129-1.995-1.968-.127zm1.968.126-.128 1.996q.767.05 1.535.04l-.023-2-.024-1.999q-.615.007-1.231-.032zm1.384.037.023 2 1.969-.024-.024-2-.024-2-1.968.024zm1.968-.023.024 2 1.968-.024-.024-2-.023-2-1.969.024zm1.968-.024.024 2q.53-.006 1.066.073l.294-1.978.293-1.978a11 11 0 0 0-1.7-.117zm1.384.095-.294 1.978 1.968.293.294-1.979.294-1.978-1.969-.292zm1.968.292-.294 1.979 1.969.292.293-1.978.294-1.979-1.968-.292zm1.968.293-.293 1.978q.85.126 1.706.114l-.029-2-.03-2a6.6 6.6 0 0 1-1.06-.07zm1.384.092.029 2 1.968-.029-.029-2-.029-2-1.969.03zm1.968-.029.029 2 1.969-.029-.03-2-.029-2-1.968.03zm1.968-.029.03 2a9.3 9.3 0 0 0 1.762-.196l-.408-1.958-.409-1.958a5.3 5.3 0 0 1-1.004.113zm1.384-.154.408 1.958 1.969-.41L998.5 3.9l-.408-1.958-1.969.411zm1.968-.41.409 1.957 1.971-.41-.41-1.958-.41-1.958-1.968.41zm1.97-.411.41 1.957c.15-.032.3-.029.46.015l.51-1.934.51-1.934a4.96 4.96 0 0 0-2.3-.062zm1.38.038-.51 1.934 1.97.52.51-1.934.51-1.934-1.97-.52zm1.97.52-.51 1.934 1.97.52.51-1.934.51-1.934-1.97-.52zm1.97.52-.51 1.934c.75.199 1.52.224 2.29.067l-.4-1.96-.4-1.959a1 1 0 0 1-.47-.016zm1.38.042.4 1.96 1.97-.402-.4-1.96-.4-1.96-1.97.402zm1.97-.401.4 1.96 1.97-.402-.4-1.96-.4-1.96-1.97.402zm1.97-.401.4 1.96c.16-.034.32-.031.49.013l.49-1.939.49-1.938c-.75-.19-1.51-.21-2.27-.056zm1.38.034-.49 1.939 1.97.5.49-1.939.49-1.938-1.97-.5zm1.97.5-.49 1.939 1.97.5.49-1.939.49-1.938-1.97-.5zm1.97.5-.49 1.939c.71.181 1.44.22 2.18.107l-.31-1.977-.3-1.976c-.19.029-.38.021-.59-.031zm1.38.07.31 1.976 1.96-.303-.3-1.977-.3-1.976-1.97.303zm1.97-.304.3 1.977 1.97-.303-.3-1.976-.31-1.977-1.96.303zm1.97-.302.3 1.976q.75-.115 1.5-.275l-.42-1.956-.42-1.955c-.42.09-.84.168-1.27.233zm1.38-.255.42 1.956 1.97-.42-.42-1.956-.42-1.956-1.97.42zm1.97-.42.42 1.956 1.97-.42-.42-1.956-.42-1.956-1.97.42zm1.97-.42.42 1.956a.75.75 0 0 1 .39.02l.57-1.916.58-1.916a4.77 4.77 0 0 0-2.38-.1zm1.38.06-.57 1.915 1.97.59.57-1.915.57-1.916-1.96-.59zm1.97.59-.57 1.916 1.96.59.58-1.916.57-1.916-1.97-.59zm1.97.59-.58 1.916c.64.19 1.29.291 1.94.297l.02-2 .02-2a3 3 0 0 1-.83-.129zm1.38.213-.02 2 1.97.017.02-2 .02-2-1.97-.017zm1.97.017-.02 2 1.97.017.02-2 .02-2-1.97-.017zm1.97.017-.02 2q.81.007 1.62-.083l-.22-1.988-.22-1.987a10 10 0 0 1-1.14.059zm1.38-.07.22 1.987 1.97-.22-.22-1.987-.22-1.988-1.97.22zm1.97-.22.22 1.988 1.97-.22-.22-1.988-.22-1.987-1.97.22zm1.97-.22.22 1.988c.44-.049.87-.089 1.31-.121l-.15-1.995-.15-1.994c-.48.036-.97.08-1.45.135zm1.38-.128.15 1.995 1.97-.145-.15-1.995-.15-1.994-1.97.145zm1.97-.145.15 1.995 1.97-.145-.15-1.995-.15-1.994-1.97.145zm1.97-.145.15 1.995c.43-.032.87-.057 1.31-.075l-.08-1.998-.08-1.999c-.48.02-.97.047-1.45.083zm1.38-.078.08 1.998 1.97-.079-.08-1.998-.08-1.999-1.97.08zm1.97-.08.08 1.999 1.97-.08-.08-1.997-.08-1.999-1.97.08zm1.97-.078.08 1.998c.21-.009.44.02.68.1l.62-1.901.62-1.902a5.9 5.9 0 0 0-2.08-.294zm1.38.197-.62 1.902 1.97.64.62-1.902.62-1.902-1.97-.64zm1.97.64-.62 1.902 1.97.64.62-1.902.62-1.902-1.97-.64zm1.97.64-.62 1.902c.88.287 1.8.272 2.67-.037l-.67-1.885-.67-1.886c-.03.014-.05.013-.05.013h-.01c0-.001-.02-.004-.03-.01zm1.38-.02.67 1.885 1.97-.696-.67-1.886-.67-1.885-1.97.696zm1.97-.697.67 1.886 1.97-.697-.67-1.886-.67-1.885-1.97.697zm1.97-.697.67 1.886a.75.75 0 0 1 .39-.044l.32-1.974.32-1.974a4.75 4.75 0 0 0-2.37.221zm1.38-.132-.32 1.974 1.97.32.32-1.974.32-1.974-1.97-.32zm1.97.32-.32 1.974 1.97.32.32-1.974.32-1.974-1.97-.32zm1.97.32-.32 1.974c.46.075.93.15 1.4.222l.3-1.977.31-1.976c-.46-.07-.91-.143-1.37-.217zm1.38.22-.3 1.976 1.96.305.31-1.977.31-1.976-1.97-.305zm1.97.304-.31 1.977 1.97.305.31-1.977.3-1.976-1.96-.305zm1.97.305-.31 1.977q.84.129 1.68.136l.01-2 .02-2a7.6 7.6 0 0 1-1.1-.09zm1.38.113-.01 2 1.96.016.02-2 .02-2-1.97-.016zm1.97.016-.02 2 1.97.016.02-2 .01-2-1.96-.016zm1.97.016-.02 2c.57.004 1.13-.036 1.7-.12l-.3-1.978-.29-1.978q-.54.08-1.08.076zm1.38-.098.3 1.978 1.97-.294-.3-1.978-.3-1.978-1.96.294zm1.97-.294.3 1.978 1.96-.294-.29-1.978-.3-1.978-1.97.294zm1.97-.294.29 1.978c.4-.059.79-.097 1.18-.114l-.09-1.998-.09-1.998q-.795.036-1.59.154zm1.38-.134.09 1.998 1.97-.087-.09-1.998-.09-1.998-1.97.087zm1.97-.087.09 1.998 1.97-.087-.09-1.998-.09-1.998-1.97.087zm1.97-.087.09 1.998c.32-.014.64.005.97.059l.32-1.974.32-1.974a8.6 8.6 0 0 0-1.79-.107zm1.38.083-.32 1.974 1.97.322.32-1.974.32-1.973-1.97-.323zm1.97.322-.32 1.974 1.97.323.32-1.974.32-1.974-1.97-.322zm1.97.323-.32 1.974c.67.11 1.35.11 2.03-.002l-.33-1.973-.32-1.973c-.25.04-.49.04-.74 0zm1.38 0 .33 1.972 1.97-.324-.33-1.973-.33-1.974-1.96.325zm1.97-.325.33 1.973 1.96-.325-.32-1.973-.33-1.973-1.97.324zm1.97-.325.32 1.973c.44-.071.88-.135 1.31-.19l-.25-1.984-.25-1.984c-.48.06-.97.132-1.46.212zm1.38-.2.25 1.984 1.97-.248-.25-1.984-.25-1.985-1.97.248zm1.97-.248.25 1.984 1.97-.247-.25-1.985-.25-1.984-1.97.247zm1.97-.248.25 1.985c.45-.057.91-.112 1.36-.164l-.23-1.987-.23-1.987c-.46.054-.93.11-1.4.169zm1.38-.166.23 1.987 1.97-.226-.23-1.987-.23-1.987-1.97.226zm1.97-.226.23 1.987 1.97-.227-.23-1.986-.23-1.987-1.97.226zm1.97-.226.23 1.986c.15-.018.32-.004.52.062l.63-1.897.63-1.898a5.2 5.2 0 0 0-2.24-.24zm1.38.15-.63 1.898 1.97.656.63-1.897.63-1.897-1.97-.657zm1.97.657-.63 1.897 1.97.657.63-1.898.63-1.897-1.97-.656zm1.97.656-.63 1.898a4.16 4.16 0 0 0 2.61.022l-.6-1.907-.6-1.907a.2.2 0 0 1-.15-.003zm1.38.013.6 1.907 1.97-.622-.6-1.907-.6-1.908-1.97.622zm1.97-.622.6 1.907 1.97-.622-.6-1.907-.6-1.908-1.97.622zm1.97-.622.6 1.907c.22-.07.42-.09.61-.074l.17-1.993.17-1.993a5.5 5.5 0 0 0-2.15.245zm1.38-.16-.17 1.993 1.97.168.17-1.992.17-1.993-1.97-.169zm1.97.169-.17 1.992 1.97.169.17-1.993.17-1.992-1.97-.169zm1.97.168-.17 1.993c.38.033.77.088 1.15.167l.4-1.96.4-1.96c-.54-.109-1.07-.186-1.61-.233zm1.38.2-.4 1.96 1.97.398.4-1.96.4-1.96-1.97-.399zm1.97.398-.4 1.96 1.97.399.4-1.96.4-1.96-1.97-.4zm1.97.399-.4 1.96c.57.116 1.15.182 1.73.197l.05-1.999.06-2c-.35-.008-.69-.048-1.04-.119zm1.38.158-.05 2 1.97.052.05-2 .05-1.999-1.96-.052zm1.97.053-.05 1.999 1.96.052.06-1.999.05-2-1.97-.052zm1.97.052-.06 2q.855.022 1.71-.091l-.27-1.983-.26-1.982c-.36.048-.71.066-1.07.057zm1.38-.074.27 1.983 1.96-.263-.26-1.982-.26-1.982-1.97.262zm1.97-.262.26 1.982 1.97-.262-.26-1.983-.27-1.982-1.96.263zm1.97-.263.26 1.983c.42-.056.85-.1 1.27-.13l-.15-1.995-.14-1.995c-.5.037-1.01.088-1.51.155zm1.38-.142.15 1.995 1.97-.144-.15-1.995-.15-1.994-1.96.143zm1.97-.144.15 1.995 1.96-.144-.14-1.994-.15-1.995-1.97.144zm1.97-.143.14 1.994c.27-.019.53 0 .81.062l.43-1.952.44-1.952a6.8 6.8 0 0 0-1.97-.147zm1.38.104-.43 1.952 1.96.439.44-1.952.44-1.952-1.97-.44zm1.97.439-.44 1.952 1.97.439.44-1.952.43-1.952-1.96-.44zm1.97.439-.44 1.952c.82.182 1.64.138 2.43-.115l-.61-1.905-.61-1.904a.6.6 0 0 1-.34.02zm1.38-.068.61 1.905 1.97-.631-.61-1.905-.61-1.904-1.97.631zm1.97-.63.61 1.904 1.97-.632-.61-1.904-.61-1.905-1.97.632zm1.97-.632.61 1.904a.3.3 0 0 1 .21-.004l.56-1.921.56-1.921a4.3 4.3 0 0 0-2.55.037zm1.38-.021-.56 1.92 1.97.571.56-1.92.56-1.922-1.97-.57zm1.97.57-.56 1.921 1.97.57.56-1.92.56-1.921-1.97-.57zm1.97.57-.56 1.922c.78.226 1.59.253 2.39.07l-.45-1.95-.44-1.949a.7.7 0 0 1-.38-.013zm1.38.043.45 1.95 1.97-.451-.45-1.95-.45-1.95-1.96.451zm1.97-.45.45 1.949 1.96-.45-.44-1.95-.45-1.95-1.97.45zm1.97-.451.44 1.95c.21-.047.4-.052.6-.017l.34-1.97.35-1.97a5.5 5.5 0 0 0-2.18.057zm1.38-.037-.34 1.97 1.96.346.35-1.97.35-1.97-1.97-.346zm1.97.346-.35 1.97 1.97.346.35-1.97.34-1.97-1.96-.346zm1.97.346-.35 1.97c.62.11 1.25.142 1.88.095l-.15-1.994-.15-1.995c-.29.022-.59.007-.89-.045zm1.38.07.15 1.995 1.97-.146-.15-1.995-.15-1.994-1.97.146zm1.97-.146.15 1.995 1.97-.147-.15-1.994-.15-1.995-1.97.147zm1.97-.146.15 1.994c.24-.018.48.003.74.068l.49-1.939.49-1.939a6.3 6.3 0 0 0-2.02-.179zm1.38.123-.49 1.939 1.97.499.49-1.94.49-1.938-1.97-.499zm1.97.499-.49 1.939 1.97.498.49-1.939.49-1.938-1.97-.499zm1.97.498-.49 1.94c.68.173 1.38.225 2.09.148l-.22-1.988-.22-1.988c-.21.024-.43.01-.67-.05zm1.38.1.22 1.988 1.97-.214-.22-1.988-.22-1.989-1.97.215zm1.97-.214.22 1.988 1.97-.215-.22-1.988-.22-1.988-1.97.214zm1.97-.215.22 1.988c.42-.046.85-.082 1.28-.107l-.12-1.996-.11-1.997c-.5.029-.99.07-1.49.124zm1.38-.115.12 1.996 1.97-.113-.12-1.997-.12-1.997-1.96.114zm1.97-.114.12 1.997 1.96-.114-.11-1.996-.12-1.997-1.97.113zm1.97-.113.11 1.996c.42-.023.63-.011.7-.001l.27-1.982.27-1.981c-.45-.062-.96-.058-1.47-.029zm1.08.013-.27 1.982 1.11.151.27-1.981.27-1.982-1.11-.151zm1.11.152-.27 1.981 1.11.152.27-1.982.27-1.981-1.11-.152zm1.11.151-.27 1.982c.16.022.43.054.73.03.12-.01.46-.043.83-.234.45-.236 1.1-.825 1.1-1.81h-4c0-.402.12-.805.37-1.146.23-.318.5-.498.68-.595.34-.174.63-.196.69-.201.16-.013.24.007.14-.007zm.39-.031h2v-.243h-4v.243zm0-.243 1.91-.584-.1-.327-1.91.583-1.91.583.1.328zm-.1-.328v2h.1V2h-.1z"/></svg>