<svg width="270" height="140" viewBox="0 0 270 140" fill="none" xmlns="http://www.w3.org/2000/svg">
<path d="M296.851 185.907C296.923 185.161 296.578 184.47 296.542 183.742C296.505 182.997 296.978 182.233 296.814 181.505C296.651 180.778 296.306 180.123 296.033 179.432C295.761 178.741 295.325 178.159 294.943 177.522C294.58 176.886 294.689 175.885 294.217 175.322C293.763 174.758 292.51 174.94 291.946 174.449C291.402 173.958 291.202 173.085 290.584 172.684C289.967 172.284 289.349 171.884 288.677 171.593C288.023 171.302 287.406 170.72 286.679 170.52C285.953 170.338 285.19 170.047 284.463 169.975C283.718 169.902 282.919 170.175 282.193 170.211C281.448 170.247 280.667 170.284 279.959 170.429C279.232 170.593 278.396 170.557 277.706 170.811C277.016 171.084 276.562 171.939 275.926 172.303C275.29 172.666 274.855 173.303 274.292 173.758C273.728 174.212 273.365 174.831 272.875 175.376C272.384 175.922 271.567 176.176 271.167 176.795C270.768 177.395 270.187 177.941 269.878 178.614C269.569 178.268 269.424 177.85 268.733 177.668C267.662 177.377 267.48 178.068 266.409 177.795C265.337 177.504 265.428 177.213 264.356 176.922C263.284 176.631 263.448 176.031 262.376 175.758C261.305 175.467 261.032 176.522 259.961 176.231C258.889 175.94 258.961 175.667 257.89 175.394C256.818 175.122 257.036 174.321 255.965 174.03C254.893 173.739 254.62 174.776 253.549 174.485C252.477 174.194 252.459 174.303 251.387 174.012C250.673 173.818 249.964 173.624 249.262 173.43C248.191 173.139 248.354 172.575 247.282 172.284C246.211 171.993 246.356 171.466 245.284 171.175C244.213 170.884 244.195 171.011 243.123 170.72C242.051 170.429 242.069 170.375 240.998 170.084C240.653 169.993 240.38 170.029 240.144 170.12C240.417 169.483 241.325 168.992 241.47 168.32C241.615 167.592 241.034 166.719 241.179 165.992C241.325 165.264 241.234 164.5 241.343 163.773C241.47 163.045 242.306 162.427 242.396 161.699C242.505 160.972 242.778 160.244 242.869 159.517C242.959 158.789 242.215 157.953 242.287 157.225C242.36 156.498 242.215 155.752 242.287 155.006C242.342 154.279 242.614 153.551 242.651 152.824C242.687 152.078 243.286 151.369 243.305 150.623C243.305 149.877 242.76 149.132 242.76 148.404C242.76 147.677 243.068 146.931 243.05 146.185C243.05 145.44 242.832 144.712 242.796 143.985C242.76 143.239 242.542 142.53 242.487 141.784C242.433 141.038 242.632 140.293 242.56 139.565C242.487 138.82 241.942 138.147 241.851 137.419C241.851 137.31 241.833 137.183 241.815 137.074C241.997 136.983 242.197 136.91 242.378 136.819C243.05 136.51 243.722 136.182 244.34 135.8C244.957 135.4 245.212 134.564 245.757 134.073C246.302 133.581 247.155 133.4 247.609 132.836C248.063 132.254 248.3 131.526 248.663 130.89C249.026 130.253 249.716 129.744 249.989 129.071C250.243 128.38 250.08 127.561 250.243 126.834C250.388 126.125 250.134 125.397 250.189 124.651C250.225 123.924 250.207 123.269 250.134 122.524C250.061 121.796 250.352 121.032 250.152 120.323C249.952 119.595 250.098 118.741 249.807 118.086C249.498 117.413 249.244 116.631 248.844 116.031C248.445 115.412 247.718 114.958 247.228 114.412C246.737 113.866 246.229 113.266 245.648 112.811C245.085 112.357 244.576 111.666 243.94 111.302C243.305 110.938 242.36 111.12 241.67 110.847C240.98 110.574 240.217 110.647 239.508 110.484C238.8 110.338 238.092 110.447 237.365 110.411C236.639 110.374 235.93 109.901 235.185 109.974C235.004 109.992 234.822 110.047 234.659 110.138C234.568 110.047 234.495 109.938 234.441 109.829C234.132 109.156 234.477 108.174 234.15 107.519C233.823 106.846 233.296 106.282 232.951 105.627C232.624 104.973 231.843 104.536 231.498 103.881C231.444 103.772 231.389 103.645 231.335 103.518C231.462 103.336 231.644 103.154 231.952 102.972C232.915 102.426 232.806 102.226 233.75 101.681C234.713 101.135 234.586 100.917 235.531 100.353C236.493 99.8075 236.493 99.8075 237.438 99.2618C238.4 98.7162 238.891 99.571 239.853 99.0254C240.816 98.4798 240.852 98.5525 241.815 98.0069C242.778 97.4613 242.415 96.8429 243.377 96.2791C244.34 95.7334 244.14 95.3879 245.085 94.8423C246.047 94.2967 246.465 95.0423 247.428 94.4785C248.069 94.1148 248.705 93.745 249.335 93.3691C250.297 92.8235 249.916 92.1869 250.879 91.6231C251.841 91.0775 252.078 91.514 253.04 90.9502C254.003 90.4045 254.148 90.641 255.093 90.0954C256.055 89.5497 255.747 89.0223 256.709 88.4767C257.636 87.9492 257.999 88.4949 258.871 88.0402C259.234 88.2948 259.615 88.5131 259.942 88.8041C260.487 89.2951 260.796 90.0044 261.414 90.4046C262.031 90.8047 262.485 91.514 263.157 91.8232C263.829 92.1142 264.592 92.2051 265.319 92.387C265.918 92.5507 266.554 92.4779 267.153 92.5507C267.771 92.6416 268.352 92.7871 268.97 92.7871C269.787 92.7871 270.677 93.2236 271.476 93.0781C272.275 92.9326 273.056 92.4779 273.819 92.1869C274.582 91.9141 274.964 90.8956 275.69 90.4773C276.344 90.0954 277.107 90.0226 277.67 89.5498C278.251 89.0769 278.796 88.6222 279.268 88.0766C279.759 87.531 279.959 86.8034 280.34 86.1851C280.74 85.5667 281.466 85.1484 281.757 84.4754C282.047 83.8025 281.902 83.0023 282.084 82.293C282.265 81.5836 282.701 80.9471 282.792 80.2196C282.865 79.4921 283.464 78.7464 283.428 78.0007C283.391 77.2732 282.847 76.5639 282.683 75.8364C282.538 75.1271 282.756 74.2541 282.483 73.5448C282.229 72.8719 281.575 72.308 281.212 71.6533C280.83 70.9986 280.594 70.2347 280.14 69.6709C279.668 69.0889 279.105 68.5251 278.56 68.0522C278.015 67.5611 276.871 67.8521 276.271 67.452C275.654 67.0519 275.309 66.2516 274.637 65.9424C273.965 65.6514 273.42 64.8512 272.711 64.6693C272.003 64.4875 271.149 64.7057 270.423 64.6148C269.696 64.542 268.97 65.124 268.225 65.1604C267.498 65.1968 266.735 64.7967 266.009 64.9422C265.301 65.0877 264.81 65.8879 264.12 66.1607C263.448 66.4153 262.703 66.4153 262.049 66.7791C261.414 67.1428 260.76 67.452 260.178 67.9067C259.597 68.3796 259.125 68.907 258.635 69.4345C258.144 69.9801 257.745 70.5621 257.345 71.1804C256.945 71.7988 256.618 72.4172 256.328 73.0901C256.037 73.7631 256.11 74.5087 255.928 75.218C255.728 75.9274 254.675 76.473 254.602 77.2005C254.53 77.928 255.492 78.6918 255.529 79.4193C255.565 80.1468 255.365 80.8562 255.529 81.5655C255.674 82.2384 255.656 82.9295 255.874 83.5843C255.347 83.948 255.292 84.1663 254.511 84.6209C253.549 85.1666 253.385 84.8756 252.423 85.4394C251.46 85.985 251.478 86.0032 250.515 86.567C249.553 87.1126 249.662 87.3127 248.717 87.8583C247.755 88.4039 247.537 88.0038 246.574 88.5676C245.611 89.1132 245.866 89.5497 244.921 90.1136C243.958 90.6592 244.031 90.7865 243.068 91.3321C242.106 91.8777 242.16 91.9687 241.216 92.5325C240.253 93.0781 239.69 92.1142 238.745 92.6598C237.783 93.2054 238.055 93.6965 237.111 94.2421C236.148 94.7877 236.275 94.9878 235.313 95.5516C234.35 96.0972 234.223 95.879 233.278 96.4246C232.316 96.9702 232.461 97.2066 231.498 97.7704C230.536 98.3161 230.463 98.207 229.518 98.7526C229.228 98.9163 229.01 99.0254 228.828 99.0982C228.701 98.7162 228.574 98.3343 228.356 98.0069C227.956 97.3885 227.557 96.7702 227.157 96.1518C226.739 95.5334 226.085 95.0969 225.668 94.4967C225.25 93.8966 225.05 93.1327 224.614 92.5325C224.178 91.9323 224.124 91.0411 223.67 90.4591C223.216 89.8771 222.525 89.477 222.053 88.9132C221.581 88.3312 221.272 87.6401 220.8 87.0763C220.328 86.5125 219.746 86.0214 219.256 85.4758C218.766 84.9301 218.221 84.4209 217.73 83.8753C217.222 83.3296 216.695 82.8204 216.168 82.293C215.66 81.7655 215.151 81.2199 214.624 80.6925C214.098 80.1832 213.317 79.9286 212.772 79.4193C212.227 78.9101 211.609 78.5282 211.046 78.0371C210.501 77.546 210.356 76.5821 209.793 76.091C209.23 75.6182 208.176 75.7273 207.595 75.2726C207.359 75.0907 207.141 74.8725 206.905 74.6724C206.905 74.6724 206.941 74.636 206.941 74.6179C207.377 74.0722 207.504 73.3629 207.867 72.7446C208.231 72.108 208.939 71.6533 209.193 70.9804C209.466 70.2892 209.266 69.489 209.43 68.7797C209.575 68.0522 209.993 67.4156 210.029 66.67C210.065 65.9425 210.61 65.1604 210.537 64.4147C210.465 63.6872 209.684 63.0688 209.484 62.3413C209.284 61.632 209.484 60.759 209.193 60.0861C208.885 59.4132 208.358 58.8312 207.958 58.2128C207.559 57.5944 206.632 57.4307 206.124 56.8851C205.633 56.3395 205.488 55.4847 204.907 55.0118C204.344 54.5571 203.835 53.9751 203.181 53.5932C202.546 53.2113 201.728 53.2112 201.038 52.9566C200.348 52.6838 199.803 51.8654 199.094 51.7017C198.368 51.5562 197.514 52.3564 196.788 52.3201C196.061 52.2837 195.316 51.7017 194.59 51.7744C193.863 51.8472 193.155 52.12 192.428 52.3201C191.702 52.5201 191.03 52.8111 190.376 53.1021C189.704 53.3931 189.25 54.0479 188.632 54.448C188.015 54.8481 187.197 54.9573 186.652 55.4483C186.108 55.9394 185.98 56.7942 185.508 57.358C185.054 57.9218 184.763 58.5402 184.4 59.1767C184.11 59.686 183.674 60.0679 183.365 60.5408C183.274 60.5408 183.183 60.5044 183.111 60.468C182.42 60.1952 181.766 59.8497 181.076 59.595C180.386 59.3404 179.66 59.1767 178.969 58.9403C178.279 58.7039 177.589 58.4129 176.88 58.1946C176.336 58.0309 175.881 57.5762 175.373 57.3034C175.373 57.2489 175.391 57.2125 175.409 57.1579C175.7 56.0849 175.391 56.0121 175.682 54.9391C175.972 53.866 176.445 53.9933 176.717 52.9384C177.008 51.8654 176.717 51.7926 176.989 50.7196C177.28 49.6465 177.098 49.6101 177.371 48.5371C177.662 47.464 178.297 47.6459 178.588 46.5728C178.878 45.4998 178.751 45.4816 179.042 44.4085C179.333 43.3355 179.333 43.3355 179.623 42.2806C179.914 41.2075 179.659 41.153 179.95 40.0799C180.241 39.0069 180.586 39.116 180.876 38.0429C181.167 36.9699 181.476 37.0608 181.766 35.9877C182.057 34.9147 181.821 34.8601 182.112 33.7871C182.402 32.714 181.803 32.5685 182.093 31.4955C182.384 30.4224 182.493 30.4588 182.784 29.3857C182.983 28.6582 183.383 28.5309 183.71 28.1853C184.001 28.3127 184.291 28.4036 184.564 28.4036C185.327 28.4036 186.126 28.058 186.889 27.9307C187.651 27.8034 188.541 27.9671 189.268 27.7307C189.995 27.476 190.612 26.8031 191.284 26.4393C191.956 26.0756 192.501 25.4754 193.119 25.0025C193.718 24.5297 194.063 23.8203 194.59 23.2565C195.117 22.6927 195.952 22.4017 196.37 21.7652C196.788 21.1286 196.642 20.2011 196.969 19.4918C197.278 18.8006 198.15 18.3278 198.35 17.5639L197.823 17.4184C198.023 16.6909 198.422 16.0543 198.513 15.3268C198.586 14.5812 198.858 13.8355 198.822 13.108C198.786 12.3623 198.513 11.6348 198.368 10.9255C198.204 10.198 197.805 9.56142 197.551 8.8703C197.278 8.17918 196.661 7.72447 196.297 7.08791C195.934 6.45135 196.297 5.30557 195.843 4.72357C195.389 4.15976 194.554 3.85057 194.009 3.35951C193.464 2.86845 193.101 2.06819 192.483 1.66806C191.865 1.26794 190.921 1.43164 190.231 1.14064C189.577 0.849642 188.778 1.03152 188.069 0.831458C187.343 0.631396 186.761 0.085751 186.035 0.0130013C185.29 -0.0597484 184.6 0.194895 183.873 0.231269C183.129 0.267644 182.439 0.231263 181.73 0.39495C181.004 0.558636 180.204 0.394948 179.514 0.649573C178.824 0.922384 178.043 1.04969 177.407 1.41344C176.771 1.77719 176.463 2.6502 175.881 3.10489C175.318 3.55957 174.265 3.57776 173.775 4.12338C173.284 4.669 173.702 5.90575 173.302 6.54231C172.903 7.16068 171.867 7.39711 171.559 8.07005C171.268 8.7248 171.45 9.5796 171.268 10.3071C171.068 11.0346 170.886 11.7075 170.814 12.435C170.741 13.1807 170.233 13.9082 170.287 14.6357C170.323 15.3814 170.632 16.1089 170.778 16.8182C170.941 17.5457 171.74 18.0367 172.013 18.7097C172.285 19.4008 172.103 20.2556 172.467 20.8922C172.83 21.5288 173.102 22.2562 173.557 22.8382C174.011 23.402 174.774 23.7112 175.318 24.2023C175.863 24.6934 176.081 25.6573 176.699 26.0756C177.316 26.4757 178.388 26.021 179.078 26.3302C179.115 26.3302 179.133 26.3666 179.169 26.3666C178.842 27.2396 178.116 27.1123 177.861 28.1126C177.571 29.1857 177.498 29.1675 177.226 30.2223C176.935 31.2954 177.189 31.35 176.899 32.423C176.608 33.4961 176.771 33.5324 176.481 34.6055C176.19 35.6786 176.572 35.7695 176.299 36.8426C176.009 37.9156 175.9 37.8792 175.609 38.9523C175.318 40.0254 175.264 40.0072 174.973 41.0802C174.683 42.1533 174.065 41.9896 173.775 43.0445C173.484 44.1175 173.938 44.2267 173.647 45.2997C173.357 46.3728 173.502 46.4092 173.23 47.4822C172.939 48.5553 172.249 48.3552 171.958 49.4283C171.668 50.5013 172.685 50.7741 172.412 51.829C172.122 52.9021 171.559 52.7384 171.286 53.8114C170.995 54.8845 171.395 54.9936 171.104 56.0485C170.977 56.5032 170.832 56.7396 170.669 56.9397C170.596 56.9397 170.523 56.9215 170.451 56.9033C169.742 56.7396 169.088 56.2849 168.362 56.1394C167.635 55.9939 166.927 55.8666 166.2 55.7211C165.474 55.5756 164.856 54.8299 164.13 54.7208C163.403 54.5935 162.586 55.1028 161.841 54.9936C161.115 54.8845 160.479 54.0661 159.734 53.9751C159.008 53.8842 158.19 54.5753 157.446 54.5026C156.719 54.4298 156.029 53.7751 155.284 53.7205C154.557 53.6659 153.776 54.1206 153.05 54.0843C152.305 54.0479 151.597 53.4841 150.852 53.4841C150.107 53.4841 149.363 53.2658 148.636 53.2658C147.91 53.2658 147.165 53.9933 146.42 53.9933C145.676 53.9933 144.949 53.9388 144.204 53.9933C143.46 54.0297 142.733 54.1388 142.007 54.1934C141.262 54.2479 140.481 53.6659 139.736 53.7205C139.01 53.7932 138.374 54.7208 137.647 54.8299C137.629 54.4298 137.611 54.0479 137.484 53.5932C137.338 53.4477 137.338 53.4659 137.338 53.4659C137.139 52.7384 137.102 52.0291 136.812 51.3743C136.503 50.7014 136.321 49.9739 135.94 49.3555C135.54 48.7371 135.449 47.8278 134.959 47.2821C134.469 46.7365 133.906 46.1363 133.324 45.6816C132.743 45.227 131.599 45.6089 130.963 45.227C130.327 44.8632 129.819 44.3358 129.129 44.0812C128.438 43.8084 127.803 43.4992 127.076 43.3537C126.368 43.2082 125.641 43.1536 124.896 43.1172C124.17 43.0809 123.443 42.8808 122.699 42.9717C121.972 43.0445 121.409 43.772 120.682 43.972C119.956 44.1721 119.139 43.9175 118.485 44.2085C117.813 44.4995 117.213 44.9178 116.596 45.3179C115.978 45.718 115.088 45.809 114.543 46.3C113.998 46.7911 113.29 47.2276 112.818 47.8096C112.364 48.3734 112.709 49.5192 112.327 50.1739C111.946 50.8105 111.492 51.3743 111.219 52.0472C110.947 52.7384 110.62 53.3931 110.456 54.1024C110.311 54.8299 110.057 55.5392 110.02 56.2849C109.984 57.0124 109.875 57.7945 109.948 58.522C110.021 59.2495 110.493 59.9224 110.693 60.6317C110.783 60.9773 110.838 61.341 110.892 61.6866C110.62 61.923 110.329 62.1595 110.02 62.305C109.348 62.6141 108.676 62.9233 108.023 63.2507C107.35 63.5781 106.715 63.9237 106.061 64.251C105.407 64.5784 104.462 64.3783 103.827 64.7239C103.809 64.6693 103.772 64.6148 103.754 64.5602C103.209 63.5963 102.555 63.9782 102.01 63.0143C101.465 62.0503 101.593 61.9776 101.048 61.0318C100.503 60.0679 101.011 59.7769 100.466 58.8312C99.9216 57.8672 99.8489 57.9218 99.2858 56.9579C98.7409 55.9939 98.087 56.3759 97.5421 55.4119C96.9972 54.448 97.1788 54.3571 96.6158 53.3931C96.0709 52.4292 96.6703 52.0836 96.1254 51.1379C95.5805 50.1739 95.3807 50.3013 94.8176 49.3373C94.2727 48.3734 94.4362 48.2825 93.8731 47.3185C93.3282 46.3546 92.6017 46.7729 92.0568 45.809C91.5119 44.845 91.53 44.845 90.9669 43.8811C90.422 42.9172 90.9306 42.6262 90.3676 41.6804C89.8227 40.7165 89.6592 40.8256 89.0961 39.8617C88.7147 39.2069 88.7692 38.8796 88.6602 38.4431C88.8237 37.9156 88.8781 37.2609 89.2051 36.8971C89.6955 36.3515 90.313 35.9514 90.7126 35.333C91.1122 34.7146 91.5482 34.1508 91.8569 33.4779C92.1476 32.805 91.8933 32.0047 92.0931 31.2772C92.2929 30.5497 93.1829 30.0041 93.2737 29.2766C93.3464 28.5491 93.4554 27.767 93.419 27.0395C93.3827 26.312 92.7833 25.6391 92.638 24.9116C92.4927 24.2023 92.529 23.4202 92.2747 22.7291C92.0204 22.0562 91.3665 21.5651 91.0033 20.9285C90.64 20.292 90.9851 19.128 90.531 18.5642C90.0588 17.9822 88.9508 18.0004 88.4059 17.5093C87.861 17.0183 87.3524 16.509 86.7349 16.1089C86.1173 15.7088 85.645 15.0358 84.9548 14.7267C84.2828 14.4357 83.4109 14.763 82.6844 14.5629C81.976 14.3629 81.3584 13.6718 80.6319 13.5808C79.9053 13.5081 79.1243 13.4535 78.3978 13.4899C77.6712 13.5263 76.8539 13.4353 76.1273 13.599C75.4189 13.7445 74.7106 14.1628 74.0204 14.4356C73.3483 14.6903 72.6036 14.9449 71.9497 15.3268C71.2958 15.7088 70.8963 16.4545 70.3332 16.9091C69.752 17.382 68.7529 17.4548 68.2625 17.9822C67.7721 18.5278 68.0991 19.7282 67.7176 20.3466C67.318 20.9649 66.4643 21.3287 66.1737 21.9834C65.8831 22.6564 65.4472 23.3293 65.2656 24.0386C65.0839 24.7479 65.429 25.5845 65.3563 26.312C65.2837 27.0395 65.0294 27.767 65.0657 28.4945C65.1021 29.222 65.6106 29.8768 65.756 30.6043C65.9013 31.3136 66.0829 31.9683 66.3554 32.6595C66.6097 33.3324 66.8639 33.9871 67.2272 34.6237C67.5905 35.2421 67.3725 36.2606 67.7903 36.788C68.2262 37.3518 69.316 37.2973 69.8246 37.7701C70.3513 38.243 70.5693 39.0614 71.1505 39.4615C71.7318 39.8617 72.2766 40.4073 72.8942 40.6983C73.5299 41.0075 74.2565 41.2076 74.9286 41.4076C75.6006 41.6077 76.3453 41.5895 77.0355 41.6804C77.7257 41.7895 78.4341 41.3712 79.1425 41.3712C79.9598 41.3712 80.7227 41.5167 81.5401 41.3712C82.2484 41.2439 82.975 41.2076 83.6652 41.0075C84.1012 41.4986 84.5189 41.444 84.973 42.2442C85.5179 43.2082 85.1364 43.4264 85.6814 44.3904C86.2263 45.3543 85.9175 45.5362 86.4806 46.4819C87.0255 47.4458 86.971 47.4822 87.5159 48.428C88.0608 49.3919 88.2606 49.2828 88.8055 50.2285C89.3504 51.1924 89.5139 51.1015 90.0588 52.0472C90.6037 53.0112 90.5128 53.0658 91.0577 54.0297C91.6026 54.9936 91.3484 55.1391 91.9114 56.0849C92.4563 57.0488 93.0557 56.7032 93.6188 57.649C94.1637 58.6129 94.2182 58.5766 94.7631 59.5405C95.308 60.5044 95.0356 60.6681 95.5805 61.6139C96.1254 62.5778 96.1254 62.5778 96.6703 63.5417C97.2152 64.5057 97.2152 64.5056 97.7601 65.4696C98.305 66.4335 98.7591 66.1607 99.3222 67.1246C99.4312 67.3065 99.4856 67.4884 99.522 67.6339C99.1042 67.8703 98.7046 68.1068 98.2868 68.3614C97.6693 68.7615 96.7429 68.7069 96.1254 69.1252C95.5078 69.5436 94.8358 69.8709 94.2364 70.2892C93.637 70.7076 93.1284 71.3077 92.5472 71.7442C91.9478 72.1807 91.2213 72.4535 90.64 72.9082C90.0588 73.3629 89.7318 74.145 89.1506 74.6179C88.5694 75.0907 87.8791 75.4181 87.3161 75.891C86.753 76.3638 86.1899 76.8731 85.645 77.3642C85.1001 77.8552 84.5916 78.4008 84.0466 78.9101C83.5017 79.4193 83.1929 80.165 82.6662 80.6743C82.1395 81.1835 81.5764 81.6746 81.0678 82.202C80.5592 82.7294 80.0325 83.2569 79.5239 83.8025C79.0154 84.3481 78.3433 84.7301 77.8529 85.2757C77.3625 85.8213 77.4896 86.9126 77.0174 87.4764C76.5451 88.0402 75.9275 88.4767 75.4553 89.0405C75.3463 89.1678 75.2373 89.2951 75.1283 89.4224C74.8741 89.186 74.6016 88.9859 74.311 88.8586C73.6207 88.5858 72.8579 88.4039 72.1314 88.2584C71.4048 88.1129 70.6238 88.0038 69.8972 87.9492C69.1707 87.9129 68.4805 88.804 67.7358 88.8768C67.0092 88.9495 66.1011 88.0765 65.3927 88.2766C64.6662 88.4767 64.3392 89.6952 63.6672 89.9862C62.9951 90.2772 61.9961 89.9317 61.3785 90.3136C60.761 90.7137 59.9254 90.9502 59.3805 91.4412C58.8356 91.9323 58.5632 92.7507 58.0909 93.3327C57.6368 93.8966 57.8185 94.8969 57.4552 95.5334C57.0919 96.17 56.4199 96.6247 56.1656 97.2976C55.8932 97.9887 54.985 98.5161 54.8396 99.2436C54.6943 99.9711 54.767 100.79 54.7307 101.535C54.6943 102.263 55.0395 103.027 55.1121 103.772C55.1848 104.5 54.9305 105.336 55.1121 106.064C55.3119 106.773 56.2928 107.228 56.5834 107.901C56.874 108.574 57.2372 109.174 57.6368 109.774C58.0364 110.393 58.2544 111.12 58.7449 111.666C59.2353 112.211 59.3987 113.157 59.98 113.612C60.0708 113.684 60.1979 113.739 60.3251 113.775C60.2887 114.43 60.6702 115.249 60.4704 115.849C60.2161 116.54 59.762 117.158 59.5259 117.849C59.2897 118.541 58.3997 119.032 58.1818 119.741C58.0365 120.196 58.0001 120.687 57.9457 121.16C57.8367 121.141 57.7277 121.105 57.6187 121.087C56.5471 120.796 56.4925 121.032 55.4209 120.741C54.3492 120.45 54.2403 120.923 53.1686 120.632C52.097 120.341 52.3876 119.25 51.3341 118.959C50.2625 118.668 50.1353 119.177 49.0637 118.886C47.992 118.595 48.101 118.195 47.0475 117.922C45.9759 117.631 45.9395 117.831 44.8679 117.54C43.7962 117.249 43.6873 117.649 42.6338 117.377C41.5622 117.086 41.6348 116.813 40.5813 116.522C39.5097 116.231 39.5823 116.012 38.5106 115.721C37.439 115.43 37.2211 116.267 36.1494 115.994C35.0778 115.703 35.2231 115.194 34.1514 114.903C33.0798 114.612 33.0979 114.612 32.0262 114.321C30.9546 114.03 30.991 113.939 29.9193 113.648C29.0112 113.393 28.7387 113.848 28.0121 113.794C28.0121 113.739 28.0121 113.684 28.0121 113.612C28.0848 112.866 28.3028 112.175 28.2664 111.447C28.2301 110.702 28.666 109.883 28.5025 109.156C28.339 108.428 27.8305 107.774 27.5762 107.082C27.3038 106.391 27.2493 105.555 26.886 104.918C26.5227 104.282 25.5964 103.991 25.1423 103.409C24.6882 102.845 24.3612 102.135 23.7982 101.644C23.2533 101.153 22.2906 101.244 21.6731 100.844C21.0555 100.444 20.5288 100.044 19.8567 99.7529C19.2028 99.4619 18.6398 98.9527 17.9314 98.7708C17.2048 98.5707 16.5328 98.3525 15.8062 98.2615C15.0615 98.1888 14.3713 98.5343 13.6448 98.5707C12.9001 98.6071 12.228 98.6071 11.5197 98.7708C10.7931 98.9345 9.99392 98.7162 9.30371 98.989C8.61349 99.2618 7.99592 99.662 7.36019 100.026C6.72447 100.389 6.05242 100.735 5.48935 101.19C4.92628 101.644 4.59936 102.372 4.09078 102.918C3.60036 103.463 3.12811 103.991 2.72852 104.609C2.32892 105.227 1.40255 105.591 1.11193 106.264C0.821317 106.919 1.25724 107.883 1.05745 108.61C0.857646 109.338 0.0766388 109.938 0.00398467 110.665C-0.0686695 111.411 0.875834 112.157 0.912161 112.884C0.948488 113.63 0.60335 114.357 0.766822 115.067C0.91213 115.794 0.71236 116.631 0.96665 117.322C1.2391 118.013 1.56604 118.722 1.92932 119.359C2.29259 119.995 2.783 120.614 3.23709 121.178C3.69118 121.741 4.19973 122.36 4.74464 122.851C5.28955 123.342 6.03423 123.651 6.65179 124.051C7.26935 124.451 7.95961 124.742 8.63166 125.052C9.28555 125.343 9.88494 125.997 10.6115 126.197C11.2109 126.361 11.9374 125.997 12.5368 126.088C13.1544 126.161 13.7537 126.143 14.3713 126.143C15.1523 126.143 15.9697 126.525 16.7144 126.398C17.4773 126.27 18.2583 126.034 18.9848 125.779C19.7114 125.524 20.4743 125.215 21.1463 124.852C21.8184 124.488 21.9818 123.342 22.5812 122.887C23.1806 122.414 24.4339 122.669 24.9607 122.105C25.4874 121.541 25.1423 120.305 25.5782 119.668C25.9415 119.123 26.7589 118.85 27.1948 118.359C27.6307 118.541 27.8305 118.722 28.5934 118.922C29.665 119.213 29.6287 119.341 30.7003 119.632C31.772 119.923 31.7357 120.014 32.8073 120.305C33.879 120.596 33.9153 120.45 34.9688 120.741C36.0404 121.032 36.0586 120.941 37.1302 121.214C38.2018 121.487 38.3109 121.05 39.3825 121.341C40.4542 121.632 40.3815 121.851 41.4531 122.142C42.5248 122.433 42.5248 122.396 43.5965 122.687C44.6681 122.978 44.5409 123.451 45.5944 123.742C46.6661 124.033 46.7569 123.633 47.8285 123.924C48.9002 124.215 49.0818 123.542 50.1353 123.833C51.2069 124.124 51.1161 124.451 52.1878 124.742C53.2594 125.033 53.096 125.634 54.1676 125.925C55.2393 126.216 55.2029 126.307 56.2746 126.579C56.5107 126.634 56.6742 126.688 56.8376 126.743C56.8013 127.343 56.874 127.962 56.765 128.544C56.6197 129.271 55.5662 129.817 55.4391 130.544C55.2938 131.272 55.4027 132.054 55.2937 132.781C55.1666 133.509 55.5844 134.327 55.4936 135.055C55.3846 135.782 55.4572 136.528 55.3664 137.274C55.2756 138.001 54.985 138.71 54.9123 139.456C54.8397 140.184 54.9123 140.929 54.8396 141.675C54.7852 142.402 54.2403 143.112 54.204 143.857C54.1676 144.603 53.7136 145.331 53.6954 146.058C53.6954 146.804 54.3856 147.549 54.3856 148.295C54.3856 149.041 54.3311 149.768 54.3493 150.514C54.3493 151.26 53.9315 152.005 53.9678 152.751C54.0042 153.497 54.3129 154.224 54.3674 154.952C54.4219 155.697 54.8397 156.389 54.9123 157.134C54.9668 157.807 54.6035 158.535 54.6217 159.226C54.4401 159.226 54.2766 159.244 54.095 159.299C53.3685 159.499 52.66 159.644 52.0061 159.935C51.3341 160.226 50.4986 160.281 49.881 160.681C49.2635 161.081 49.1727 162.136 48.6278 162.645C48.0828 163.136 47.5742 163.573 47.1201 164.155C46.6661 164.718 45.9396 165.082 45.5763 165.719C45.213 166.355 45.3402 167.192 45.0677 167.883C44.7953 168.574 43.8326 169.029 43.6873 169.756C43.542 170.484 43.6691 171.266 43.6328 171.993C43.5965 172.721 43.433 173.485 43.5238 174.23C43.5965 174.958 44.3593 175.54 44.5591 176.267C44.7589 177.013 44.4683 177.922 44.7771 178.595C45.104 179.305 45.322 180.105 45.7579 180.723C46.1938 181.36 47.2655 181.487 47.7741 182.033C48.3008 182.597 48.5914 183.361 49.1908 183.815C49.7902 184.288 50.4986 184.579 51.1706 184.943C51.8427 185.307 52.5874 185.398 53.3139 185.652C54.0405 185.907 54.6217 186.634 55.3846 186.762C56.1293 186.889 56.9285 186.616 57.6913 186.616C58.2907 186.616 58.9447 186.962 59.5441 186.889C60.1434 186.816 60.8518 187.016 61.4512 186.834C61.7963 186.743 62.0688 186.416 62.3231 186.052C62.3231 186.398 62.3594 186.743 62.5047 187.034C62.8134 187.707 62.6682 188.599 62.9951 189.253C63.3221 189.926 64.0123 190.399 64.3392 191.072C64.6661 191.727 65.538 192.109 65.9013 192.745C65.9194 192.8 65.9557 192.836 65.9739 192.891C65.6833 192.891 65.3745 192.909 64.9386 193.164C63.976 193.709 63.9759 193.691 63.0132 194.237C62.0506 194.782 62.5955 195.728 61.651 196.274C60.6883 196.819 60.7247 196.874 59.762 197.419C58.7993 197.965 58.7085 197.82 57.764 198.365C56.8013 198.911 56.8013 198.893 55.8387 199.456C54.876 200.002 54.6762 199.638 53.7135 200.202C52.7509 200.748 52.8962 201.002 51.9517 201.548C50.989 202.094 51.0617 202.221 50.1172 202.785C49.1545 203.33 48.8639 202.803 47.9012 203.367C46.9386 203.912 47.1747 204.331 46.2301 204.876C45.2675 205.422 44.9769 204.913 44.0142 205.458C43.0515 206.004 43.3603 206.531 42.3977 207.077C41.435 207.623 41.6348 207.95 40.6721 208.496C39.7821 209.005 39.5097 208.696 38.6923 209.096C38.329 208.55 38.1292 207.895 37.6388 207.459C37.0939 206.968 36.2584 206.913 35.6408 206.513C35.0233 206.113 34.769 205.076 34.0969 204.767C33.4249 204.476 32.771 203.967 32.0444 203.767C31.3361 203.567 30.446 204.167 29.7195 204.076C28.993 204.003 28.2664 203.676 27.5399 203.73C26.8133 203.767 26.1776 204.422 25.4511 204.567C24.7427 204.713 24.1433 205.04 23.4531 205.313C22.781 205.567 22.1453 205.767 21.4914 206.131L21.4188 206.004C20.7649 206.386 20.0929 206.622 19.5298 207.077C18.9486 207.55 18.331 207.95 17.8587 208.496C17.3683 209.041 17.0595 209.732 16.6781 210.332C16.2785 210.951 15.5156 211.387 15.225 212.06C14.9344 212.733 14.9162 213.533 14.7164 214.243C14.5348 214.952 14.0989 215.643 14.0262 216.389C13.9536 217.116 13.9717 217.898 14.0081 218.644C14.0444 219.372 14.7709 220.008 14.9162 220.736C15.0615 221.445 14.5166 222.391 14.7891 223.082C15.0434 223.755 15.4611 224.446 15.8244 225.101C16.1877 225.719 16.8234 226.156 17.2593 226.701C17.6953 227.265 18.5852 227.338 19.0938 227.811C19.6206 228.283 19.6206 229.393 20.2018 229.775C20.7831 230.175 21.5459 230.302 22.1816 230.611C22.8174 230.921 23.6166 230.739 24.2704 230.939C24.9425 231.139 25.4329 232.139 26.1413 232.248C26.8315 232.357 27.5944 231.794 28.3027 231.794C29.1201 231.794 29.8648 231.557 30.6822 231.412C31.4814 231.266 32.4077 231.594 33.1706 231.303C33.9153 231.03 34.6055 230.484 35.3138 230.084C35.9496 229.72 36.658 229.393 37.2211 228.938C37.8023 228.465 38.0929 227.72 38.5833 227.174C39.0737 226.628 39.8184 226.265 40.218 225.664C40.6176 225.046 40.4541 224.137 40.7629 223.464C41.0535 222.791 41.1807 222.136 41.3805 221.409C41.5803 220.681 42.4158 220.117 42.5066 219.39C42.5793 218.662 42.1979 217.898 42.1615 217.171C42.1252 216.443 42.107 215.716 41.9617 214.988C41.8164 214.297 41.9254 213.497 41.6893 212.824C42.0162 212.624 42.216 212.479 42.8336 212.115C43.7962 211.569 43.9052 211.769 44.8679 211.205C45.8306 210.66 45.9032 210.787 46.8477 210.223C47.8104 209.678 47.5016 209.15 48.4643 208.605C49.427 208.059 49.6268 208.405 50.5713 207.841C51.5339 207.295 51.5702 207.368 52.5329 206.822C53.4956 206.277 53.2413 205.822 54.1858 205.276C55.1485 204.731 55.2574 204.913 56.2201 204.367C57.1828 203.821 57.5642 204.494 58.5269 203.93C59.4896 203.385 59.4532 203.312 60.3977 202.767C61.3604 202.221 61.1969 201.948 62.1596 201.384C63.1223 200.839 62.9587 200.548 63.9214 200.002C64.8841 199.456 64.7025 199.147 65.6652 198.602C66.6278 198.056 66.9366 198.602 67.8992 198.056C67.9537 198.02 68.0082 198.001 68.0446 197.965C68.2444 198.256 68.4442 198.547 68.6258 198.856C69.0254 199.475 69.6248 199.966 70.0426 200.584C70.4603 201.202 70.9144 201.766 71.3503 202.385C71.7681 202.985 72.204 203.585 72.6399 204.185C73.0759 204.785 73.3846 205.476 73.8206 206.058C74.2747 206.64 74.7469 207.222 75.201 207.786C75.6733 208.368 76.418 208.696 76.8902 209.259C77.3625 209.823 77.7621 210.442 78.2525 211.005C78.7429 211.551 78.7429 212.57 79.2514 213.097C79.76 213.624 80.9588 213.497 81.4856 214.043C81.9942 214.57 81.8125 215.807 82.3393 216.334C82.866 216.844 83.5199 217.262 84.0648 217.753C84.6097 218.262 85.4089 218.48 85.9538 218.972C86.4987 219.463 87.4614 219.481 88.0245 219.954C88.5875 220.426 88.9689 221.118 89.532 221.591C89.5865 221.645 89.641 221.7 89.6955 221.754C89.5138 222.027 89.3504 222.318 89.2414 222.609C88.9689 223.3 88.8236 224.119 88.6783 224.828C88.533 225.555 89.4049 226.41 89.3685 227.138C89.3322 227.883 89.1688 228.556 89.2596 229.284C89.3322 230.011 88.8236 230.866 89.0234 231.575C89.2051 232.285 89.4049 233.049 89.7137 233.721C90.0043 234.394 90.7671 234.849 91.1667 235.467C91.5663 236.086 92.2384 236.45 92.7288 236.995C93.2192 237.541 93.4372 238.323 94.0184 238.796C94.5815 239.25 94.9992 240.014 95.6531 240.378C96.3615 240.796 97.2333 241.033 97.978 241.306C98.7591 241.597 99.5401 242.088 100.321 242.233C101.12 242.379 102.029 241.706 102.846 241.706C103.554 241.706 104.263 241.942 104.953 241.833C105.643 241.724 106.188 241.033 106.86 240.833C107.532 240.633 108.059 240.269 108.695 239.96C109.33 239.651 109.912 239.432 110.493 239.05C111.074 238.65 111.673 238.378 112.182 237.905C112.691 237.432 113.29 237.068 113.726 236.522C113.817 236.413 113.907 236.322 114.016 236.231C114.071 236.231 114.107 236.268 114.162 236.286C114.852 236.559 115.724 236.322 116.414 236.577C117.104 236.832 117.449 238.068 118.158 238.305C118.848 238.541 119.756 238.159 120.465 238.396C121.064 238.578 121.609 238.978 122.208 239.214C122.172 239.323 122.154 239.432 122.117 239.578C121.827 240.651 121.79 240.633 121.5 241.706C121.209 242.779 120.537 242.597 120.247 243.652C119.956 244.707 120.646 244.907 120.356 245.962C120.065 247.035 119.466 246.871 119.193 247.926C118.902 248.999 119.684 249.199 119.411 250.272C119.139 251.345 119.175 251.345 118.884 252.418C118.594 253.491 118.666 253.509 118.376 254.564C118.085 255.637 118.012 255.601 117.722 256.674C117.431 257.747 117.449 257.747 117.159 258.82C116.868 259.893 116.305 259.73 116.014 260.803C115.724 261.876 115.742 261.876 115.47 262.949C115.179 264.022 114.743 263.894 114.452 264.967C114.162 266.041 114.616 266.15 114.343 267.223C114.18 267.859 114.125 268.132 114.053 268.478C113.381 268.387 112.672 268.205 112.037 268.223C111.31 268.259 110.656 269.151 109.93 269.296C109.221 269.442 108.24 268.878 107.55 269.151C106.878 269.405 106.642 270.66 106.006 271.042C105.371 271.424 104.517 271.424 103.954 271.879C103.373 272.352 102.773 272.788 102.283 273.334C101.792 273.879 101.32 274.48 100.921 275.098C100.521 275.716 100.194 276.389 99.9034 277.08C99.6128 277.753 99.9034 278.608 99.7036 279.317C99.5038 280.045 98.3777 280.591 98.2868 281.3C98.2142 282.046 98.8318 282.828 98.8681 283.555C98.9044 284.301 98.3777 285.137 98.523 285.865C98.6865 286.592 99.3222 287.211 99.5764 287.902C99.8489 288.593 100.194 289.248 100.575 289.884C100.939 290.521 101.429 291.085 101.883 291.667C102.337 292.23 103.137 292.449 103.681 292.958C104.226 293.449 104.808 293.758 105.425 294.158C106.043 294.558 106.588 294.922 107.26 295.231C107.914 295.522 108.259 296.796 108.985 296.977C109.585 297.141 110.384 296.359 110.983 296.45C111.601 296.541 112.164 296.595 112.763 296.595C113.544 296.595 114.325 297.032 115.088 296.905C115.851 296.777 116.596 296.486 117.304 296.232C118.031 295.977 118.866 295.904 119.538 295.541C120.21 295.177 120.446 294.14 121.064 293.667C121.663 293.194 122.444 292.976 122.971 292.412C123.498 291.849 124.352 291.521 124.787 290.885C125.205 290.248 125.078 289.284 125.405 288.575C125.714 287.884 126.495 287.338 126.695 286.574C126.894 285.847 126.949 285.065 127.022 284.337C127.094 283.591 126.876 282.828 126.84 282.1C126.804 281.354 126.259 280.718 126.095 279.99C125.95 279.263 126.132 278.463 125.877 277.79C125.605 277.099 125.078 276.553 124.715 275.916C124.352 275.28 124.243 274.461 123.77 273.898C123.316 273.334 122.59 272.988 122.045 272.497C121.5 272.006 121.3 271.006 120.682 270.606C120.247 270.333 119.72 270.151 119.211 269.969C119.284 269.569 119.284 269.314 119.484 268.605C119.774 267.532 118.975 267.314 119.248 266.259C119.538 265.186 119.883 265.277 120.174 264.222C120.465 263.149 121.046 263.312 121.336 262.239C121.627 261.166 121.173 261.057 121.464 259.984C121.754 258.911 121.627 258.893 121.918 257.82C122.208 256.747 121.899 256.674 122.19 255.601C122.481 254.528 122.789 254.619 123.08 253.546C123.371 252.473 123.607 252.546 123.897 251.472C124.188 250.399 124.261 250.418 124.533 249.363C124.824 248.29 125.024 248.344 125.314 247.289C125.605 246.216 125.423 246.18 125.696 245.107C125.986 244.034 125.587 243.925 125.859 242.87C126.15 241.797 126.186 241.815 126.477 240.742C126.586 240.305 126.767 240.087 126.949 239.905C127.657 240.087 128.311 240.469 129.02 240.633C129.746 240.778 130.454 240.906 131.181 241.033C131.908 241.178 132.489 242.088 133.233 242.197C133.96 242.324 134.814 241.578 135.558 241.669C136.285 241.779 136.957 242.342 137.684 242.415C138.41 242.506 139.209 241.906 139.954 241.96C140.681 242.033 141.353 242.815 142.097 242.87C142.824 242.924 143.587 242.779 144.313 242.815C145.058 242.852 145.785 242.579 146.529 242.597C147.274 242.597 148 242.815 148.745 242.815C149.49 242.815 150.235 243.033 150.961 243.033C151.706 243.033 152.451 243.143 153.177 243.106C153.922 243.07 154.666 243.143 155.393 243.088C156.138 243.033 156.882 243.033 157.609 242.961C158.336 242.888 159.044 242.633 159.752 242.542C159.807 242.724 159.879 242.888 159.916 243.07C160.116 243.816 160.497 244.434 160.824 245.125C161.151 245.834 160.606 247.017 161.024 247.653C161.46 248.29 162.077 248.89 162.604 249.435C163.131 249.999 163.984 250.272 164.584 250.745C165.201 251.218 166.073 251.236 166.745 251.6C167.417 251.964 167.944 252.618 168.671 252.873C169.397 253.127 170.142 253.346 170.887 253.473C171.631 253.6 172.412 253.237 173.193 253.237C173.793 253.237 174.447 253.837 175.064 253.746C175.663 253.673 176.263 253.364 176.844 253.2C177.571 253 178.297 252.782 178.951 252.491C179.623 252.182 180.495 252.127 181.094 251.727C181.712 251.327 182.184 250.618 182.729 250.127C183.274 249.636 183.347 248.69 183.801 248.126C184.255 247.544 184.437 246.871 184.818 246.234C185.181 245.598 186.307 245.343 186.58 244.652C186.852 243.961 187.088 243.215 187.234 242.488C187.379 241.779 187.706 240.996 187.742 240.269C187.779 239.541 186.979 238.796 186.889 238.068C186.816 237.341 187.488 236.45 187.288 235.722C187.179 235.304 186.707 234.995 186.271 234.685C186.598 234.558 186.925 234.449 187.234 234.303C187.906 233.994 188.959 234.522 189.631 234.194C190.303 233.867 190.685 232.994 191.357 232.667C192.011 232.339 192.683 232.012 193.318 231.648C193.591 231.503 193.827 231.284 194.045 231.048C194.136 231.23 194.245 231.43 194.408 231.721C194.953 232.685 194.081 233.194 194.626 234.14C195.171 235.104 196.152 234.54 196.697 235.486C197.242 236.45 196.315 236.977 196.86 237.941C197.405 238.905 197.405 238.905 197.95 239.869C198.495 240.833 199.149 240.451 199.694 241.415C200.239 242.379 199.748 242.67 200.293 243.615C200.838 244.579 201.347 244.288 201.892 245.234C202.437 246.198 202.037 246.435 202.582 247.38C203.127 248.344 203.635 248.053 204.18 248.999C204.725 249.963 204.489 250.108 205.034 251.054C205.579 252.018 205.216 252.218 205.779 253.182C206.324 254.146 206.778 253.873 207.341 254.837C207.886 255.801 208.194 255.619 208.739 256.583C208.994 257.02 209.139 257.238 209.284 257.438C209.212 257.492 209.139 257.565 209.066 257.62C208.485 258.093 208.049 258.784 207.559 259.329C207.068 259.875 207.195 260.894 206.796 261.512C206.396 262.13 205.833 262.621 205.543 263.294C205.252 263.967 204.562 264.531 204.38 265.24C204.198 265.95 203.999 266.714 203.908 267.441C203.835 268.169 203.962 268.951 203.999 269.696C204.035 270.424 204.053 271.206 204.198 271.933C204.344 272.643 204.834 273.297 205.107 273.988C205.361 274.661 205.361 275.516 205.742 276.171L206.196 275.898C206.56 276.517 206.778 277.189 207.214 277.735C207.65 278.299 208.54 278.372 209.048 278.845C209.575 279.317 209.811 280.063 210.374 280.463C210.955 280.863 211.3 281.7 211.936 282.009C212.572 282.318 213.371 282.282 214.043 282.5C214.715 282.7 215.496 282.264 216.205 282.373C216.895 282.482 217.53 283.282 218.221 283.282C219.038 283.282 219.801 282.718 220.618 282.573C221.417 282.427 222.271 282.573 223.052 282.282C223.797 282.009 224.469 281.5 225.195 281.082C225.849 280.7 226.685 280.609 227.248 280.154C227.829 279.681 227.975 278.772 228.465 278.226C228.955 277.681 229.337 277.08 229.736 276.48C230.136 275.862 230.626 275.316 230.917 274.643C231.208 273.97 231.117 273.206 231.298 272.497C231.48 271.788 232.043 271.188 232.116 270.442C232.188 269.714 232.406 268.969 232.37 268.241C232.334 267.514 231.916 266.823 231.771 266.095C231.625 265.386 231.589 264.64 231.317 263.949C231.062 263.276 230.554 262.712 230.172 262.076C229.791 261.421 229.119 261.075 228.665 260.512C228.192 259.93 228.41 258.729 227.884 258.238C227.339 257.747 226.467 257.602 225.868 257.201C225.25 256.801 224.614 256.401 223.942 256.11C223.27 255.819 222.634 255.31 221.926 255.128C221.218 254.946 220.437 254.892 219.71 254.819C218.984 254.746 218.239 255.255 217.512 255.31C216.786 255.346 216.059 255.237 215.351 255.401C214.733 255.528 213.97 255.328 213.335 255.455C213.135 255.165 212.971 254.946 212.644 254.364C212.1 253.4 212.027 253.437 211.464 252.491C210.919 251.527 210.919 251.527 210.356 250.581C209.811 249.617 210.41 249.272 209.865 248.308C209.321 247.344 208.54 247.799 207.976 246.835C207.432 245.871 207.649 245.743 207.086 244.798C206.542 243.834 206.868 243.652 206.324 242.688C205.779 241.724 205.978 241.615 205.415 240.651C204.87 239.687 204.071 240.142 203.526 239.196C202.981 238.232 203.472 237.959 202.927 236.995C202.382 236.031 202.128 236.177 201.565 235.231C201.02 234.267 201.419 234.049 200.856 233.085C200.311 232.121 200.202 232.194 199.639 231.23C199.094 230.266 198.786 230.448 198.241 229.484C198.15 229.338 198.096 229.211 198.041 229.084C198.241 228.647 198.441 228.174 198.786 227.956C199.403 227.556 200.184 227.429 200.802 227.01C201.419 226.592 202.2 226.447 202.818 226.028C203.417 225.61 203.654 224.664 204.253 224.228C204.852 223.791 205.888 223.955 206.469 223.5C207.05 223.045 207.595 222.554 208.176 222.082C208.757 221.609 209.448 221.299 210.011 220.808C210.574 220.336 211.173 219.881 211.736 219.39C212.281 218.899 212.717 218.262 213.262 217.753C213.807 217.244 214.352 216.734 214.879 216.225C215.405 215.716 215.859 215.116 216.386 214.588C216.895 214.061 217.694 213.788 218.202 213.242C218.711 212.697 218.82 211.806 219.311 211.242C219.801 210.696 219.983 209.878 220.455 209.314C220.927 208.75 221.454 208.223 221.908 207.659C221.981 207.568 222.053 207.495 222.108 207.423C222.289 207.513 222.471 207.623 222.634 207.714L222.598 207.768C223.306 208.186 224.087 208.605 224.85 208.877C225.631 209.15 226.558 208.932 227.357 209.078C228.156 209.223 228.974 209.332 229.773 209.332C230.481 209.332 231.099 208.787 231.789 208.696C232.479 208.587 233.224 208.841 233.878 208.641C234.55 208.441 235.313 208.441 235.948 208.15C236.584 207.841 236.856 206.95 237.438 206.549C238.019 206.149 239.2 206.513 239.726 206.04C240.235 205.567 240.38 204.676 240.834 204.131C241.27 203.585 241.87 203.112 242.215 202.494C242.578 201.857 242.832 201.111 243.087 200.42C243.359 199.729 243.958 199.074 244.104 198.365C244.249 197.638 244.304 196.819 244.34 196.074C244.376 195.346 244.158 194.546 244.067 193.8C243.995 193.073 243.141 192.491 242.959 191.763C242.76 191.054 242.778 190.308 242.487 189.635C242.197 188.962 242.233 188.089 241.833 187.471C241.434 186.853 240.998 186.198 240.507 185.652C240.017 185.107 239.345 184.688 238.764 184.215C238.201 183.761 237.238 183.906 236.584 183.524C236.584 183.524 236.584 183.524 236.566 183.506C236.584 183.361 236.62 183.215 236.675 183.088C236.947 182.397 237.147 181.687 237.401 180.996C237.656 180.305 237.674 179.523 237.91 178.832C238.146 178.141 238.201 177.377 238.419 176.668C238.527 176.304 238.764 175.976 238.982 175.667C239.145 175.758 239.363 175.831 239.672 175.922C240.743 176.213 240.925 175.54 241.979 175.813C243.05 176.104 243.087 175.922 244.158 176.213C245.23 176.504 245.23 176.449 246.301 176.74C247.373 177.031 247.373 176.977 248.445 177.268C249.516 177.559 249.353 178.159 250.406 178.432C251.478 178.723 251.369 179.123 252.423 179.414C253.494 179.705 253.73 178.795 254.802 179.086C255.874 179.377 255.856 179.396 256.927 179.687C257.999 179.978 257.854 180.469 258.925 180.76C259.997 181.051 260.088 180.651 261.159 180.942C262.231 181.233 262.231 181.214 263.284 181.505C264.356 181.796 264.247 182.197 265.301 182.469C266.372 182.76 266.263 183.142 267.335 183.433C268.116 183.633 268.37 183.524 268.861 183.561C268.77 184.124 268.643 184.688 268.679 185.234C268.715 185.979 268.643 186.798 268.806 187.507C268.97 188.235 269.678 188.835 269.932 189.508C270.205 190.199 270.368 190.945 270.731 191.581C271.095 192.218 271.694 192.727 272.148 193.291C272.602 193.855 273.093 194.418 273.638 194.91C274.183 195.401 274.51 196.237 275.127 196.637C275.745 197.037 276.435 197.456 277.107 197.747C277.761 198.038 278.742 197.51 279.468 197.71C280.068 197.874 280.558 198.583 281.157 198.674C281.775 198.747 282.429 198.729 283.046 198.729C283.864 198.729 284.681 198.529 285.48 198.402C286.279 198.256 287.188 198.329 287.951 198.056C288.713 197.783 289.149 196.801 289.858 196.383C290.493 196.019 291.111 195.673 291.674 195.219C292.255 194.746 292.691 194.218 293.182 193.673C293.672 193.127 294.181 192.636 294.58 192.018C294.98 191.399 295.67 190.945 295.979 190.272C296.269 189.599 296.742 188.944 296.941 188.217C297.141 187.489 296.76 186.652 296.832 185.925L296.851 185.907ZM226.558 106.61C226.794 106.464 226.957 106.337 227.084 106.209C227.103 106.282 227.139 106.337 227.175 106.391C227.52 107.028 228.628 107.282 228.974 107.937C229.3 108.592 228.792 109.665 229.101 110.32C229.337 110.811 229.918 111.12 230.318 111.52C229.845 111.629 229.373 111.72 228.992 111.957C228.374 112.357 227.884 112.957 227.339 113.448C226.794 113.939 226.431 114.594 225.976 115.176C225.522 115.74 225.032 116.285 224.651 116.922C224.269 117.558 223.488 118.031 223.216 118.722C222.943 119.414 222.961 120.232 222.798 120.959C222.653 121.687 222.562 122.451 222.525 123.178C222.489 123.906 222.834 124.633 222.907 125.379C222.943 125.652 222.998 125.906 223.088 126.161C222.634 126.052 222.308 125.797 221.599 125.979C220.527 126.27 220.527 126.252 219.456 126.543C218.384 126.834 218.529 127.325 217.458 127.616C216.386 127.907 216.277 127.471 215.206 127.762C214.134 128.053 214.188 128.216 213.117 128.489C212.045 128.78 212.027 128.671 210.955 128.962C209.884 129.253 209.902 129.326 208.848 129.617C207.777 129.908 207.722 129.689 206.651 129.98C205.579 130.271 205.633 130.453 204.562 130.744C203.49 131.035 203.635 131.545 202.564 131.836C201.492 132.127 201.347 131.581 200.275 131.872C199.203 132.163 199.094 131.763 198.041 132.054C196.969 132.345 197.205 133.181 196.134 133.472C195.062 133.763 194.935 133.272 193.863 133.563C192.792 133.854 192.919 134.327 191.847 134.618C190.776 134.909 190.594 134.218 189.522 134.491C188.451 134.782 188.396 134.545 187.324 134.836C186.725 135 186.489 135.182 186.217 135.364C186.217 135.328 186.18 135.273 186.162 135.237C185.908 134.527 185.472 133.909 185.181 133.218C184.891 132.527 185.254 131.545 184.927 130.872C184.854 130.744 184.763 130.617 184.654 130.508C185.363 130.199 185.635 130.453 186.471 129.98C187.433 129.435 187.016 128.707 187.96 128.162C188.923 127.616 188.868 127.525 189.813 126.961C190.776 126.416 190.885 126.598 191.829 126.052C192.774 125.506 192.592 125.161 193.536 124.597C194.499 124.051 194.717 124.433 195.68 123.888C196.642 123.342 196.969 123.888 197.914 123.36C198.877 122.815 198.55 122.251 199.494 121.687C200.457 121.141 200.475 121.159 201.419 120.614C202.382 120.068 202.437 120.177 203.399 119.632C204.362 119.086 204.271 118.941 205.234 118.395C206.196 117.849 206.087 117.686 207.05 117.122C208.013 116.576 208.085 116.704 209.048 116.158C210.011 115.612 209.956 115.521 210.919 114.976C211.882 114.43 212.172 114.921 213.117 114.376C214.079 113.83 213.843 113.448 214.806 112.884C215.769 112.339 215.987 112.721 216.949 112.175C217.912 111.629 217.621 111.138 218.584 110.574C219.547 110.029 219.619 110.174 220.582 109.61C221.545 109.065 221.363 108.774 222.326 108.21C223.288 107.664 223.488 108.028 224.451 107.464C225.413 106.919 225.522 107.119 226.467 106.555L226.558 106.61ZM188.723 83.3478C189.268 82.3839 189.304 82.4021 189.867 81.4563C190.412 80.4924 190.721 80.6743 191.266 79.7103C191.32 79.6012 191.393 79.5103 191.448 79.4375C192.174 79.7285 192.919 80.2014 193.664 80.3469C194.463 80.4924 195.371 79.9104 196.188 79.9104C196.897 79.9104 197.605 80.0559 198.295 79.965C198.985 79.8558 199.767 79.9468 200.42 79.7467C201.092 79.5467 201.783 79.2738 202.418 78.9647C202.963 78.71 203.163 77.837 203.581 77.346C203.672 77.4187 203.781 77.5097 203.871 77.5824C204.453 78.0371 204.58 79.0374 205.143 79.5103C205.706 79.9832 206.723 79.9104 207.286 80.3833C207.849 80.8561 207.976 81.8201 208.521 82.3111C209.066 82.8022 210.156 82.7113 210.683 83.2205C211.21 83.7298 211.773 84.2026 212.299 84.7301C212.826 85.2393 213.389 85.7304 213.88 86.276C214.388 86.8034 214.824 87.4036 215.314 87.9492C215.805 88.4949 216.313 89.0405 216.786 89.6043C217.258 90.1499 217.294 91.0957 217.748 91.6777C218.221 92.2415 218.693 92.8053 219.129 93.3873C219.583 93.9693 219.656 94.8241 220.092 95.4061C220.527 95.9881 221.345 96.2973 221.763 96.8975C222.18 97.4977 222.653 98.0614 223.07 98.6798C223.47 99.28 224.088 99.7711 224.469 100.389C224.76 100.844 225.123 101.244 225.45 101.681C224.869 101.844 224.542 101.644 223.779 102.081C222.816 102.626 222.598 102.226 221.635 102.79C220.673 103.336 221.163 104.172 220.201 104.718C219.238 105.264 219.311 105.391 218.366 105.955C217.403 106.5 216.895 105.609 215.932 106.155C214.969 106.701 215.206 107.101 214.243 107.664C213.28 108.21 213.553 108.683 212.59 109.229C211.627 109.774 211.464 109.465 210.501 110.029C209.539 110.574 209.702 110.847 208.739 111.411C207.777 111.957 207.74 111.884 206.778 112.43C205.815 112.975 205.797 112.939 204.852 113.503C203.89 114.048 203.817 113.903 202.854 114.466C201.892 115.012 201.728 114.721 200.766 115.267C199.803 115.812 200.093 116.303 199.131 116.849C198.168 117.395 197.714 116.594 196.751 117.158C195.789 117.704 196.279 118.541 195.316 119.104C194.354 119.65 194.263 119.486 193.3 120.032C192.338 120.578 192.265 120.432 191.302 120.996C190.34 121.541 190.412 121.669 189.468 122.214C188.505 122.76 188.324 122.433 187.361 122.978C186.398 123.524 186.344 123.415 185.381 123.979C184.418 124.524 184.527 124.706 183.565 125.252C182.62 125.797 182.729 126.016 181.803 126.561C181.349 126.325 180.858 126.143 180.604 125.779C180.168 125.179 180.368 124.106 179.896 123.524C179.423 122.942 178.915 122.378 178.424 121.832C177.934 121.287 177.589 120.541 177.062 120.014C176.535 119.486 175.863 119.086 175.3 118.595C174.755 118.104 173.865 117.977 173.284 117.522C172.703 117.049 172.285 116.376 171.668 115.958C171.377 115.74 170.977 115.667 170.596 115.594C170.687 115.121 170.578 114.794 170.959 114.121C171.504 113.157 171.958 113.412 172.503 112.466C173.048 111.502 172.993 111.466 173.557 110.52C174.101 109.556 174.428 109.738 174.973 108.792C175.518 107.828 175.3 107.701 175.845 106.737C176.39 105.773 176.463 105.809 177.026 104.864C177.571 103.9 177.752 104.009 178.315 103.045C178.86 102.081 177.898 101.535 178.443 100.571C178.806 99.9287 179.175 99.2922 179.55 98.6617C180.095 97.6977 180.204 97.7523 180.749 96.8065C181.294 95.8426 182.021 96.2609 182.566 95.297C183.111 94.3331 182.457 93.9511 183.02 93.0053C183.565 92.0414 184.037 92.3142 184.6 91.3685C185.145 90.4046 185.072 90.3682 185.617 89.4043C186.162 88.4403 186.017 88.3494 186.562 87.4036C187.107 86.4397 187.07 86.4215 187.615 85.4576C188.16 84.4936 188.069 84.4391 188.614 83.4751L188.723 83.3478ZM174.41 152.715C174.283 153.424 173.865 154.061 173.684 154.752C173.502 155.461 173.756 156.279 173.52 156.952C173.284 157.643 173.339 158.462 173.048 159.117C172.757 159.771 171.613 160.026 171.268 160.663C170.923 161.299 170.778 162.027 170.378 162.627C169.978 163.227 169.997 164.136 169.542 164.7C169.107 165.264 168.743 165.955 168.253 166.483C167.762 167.01 167.072 167.392 166.545 167.883C166.019 168.374 165.51 168.938 164.947 169.393C164.384 169.829 163.494 169.847 162.895 170.247C162.295 170.648 161.478 170.629 160.842 170.975C160.206 171.32 159.898 172.284 159.225 172.575C158.572 172.866 157.863 173.066 157.173 173.303C156.501 173.539 155.684 173.303 154.975 173.467C154.285 173.648 153.649 174.049 152.941 174.176C152.233 174.285 151.56 174.74 150.834 174.812C150.126 174.867 149.381 174.376 148.654 174.376C147.928 174.376 147.219 174.412 146.511 174.376C145.784 174.321 145.076 174.303 144.368 174.176C143.659 174.049 142.824 174.449 142.134 174.267C141.425 174.085 141.044 172.885 140.372 172.648C139.682 172.412 139.028 172.248 138.374 171.957C137.72 171.666 136.721 172.066 136.085 171.721C135.449 171.375 134.65 171.23 134.051 170.829C133.451 170.429 133.088 169.647 132.507 169.211C131.944 168.774 131.799 167.828 131.272 167.337C130.745 166.846 130.073 166.537 129.583 166.01C129.092 165.482 128.765 164.846 128.329 164.264C127.893 163.7 126.695 163.664 126.295 163.045C125.895 162.445 126.023 161.499 125.677 160.863C125.332 160.226 125.478 159.389 125.187 158.717C124.896 158.062 124.261 157.553 124.025 156.88C123.788 156.207 123.007 155.661 122.826 154.952C122.644 154.261 122.553 153.497 122.444 152.787C122.335 152.078 122.971 151.26 122.917 150.532C122.862 149.823 122.771 149.114 122.771 148.386C122.771 147.659 122.553 146.931 122.608 146.222C122.662 145.494 122.699 144.767 122.808 144.057C122.935 143.348 123.062 142.621 123.244 141.93C123.425 141.22 123.807 140.584 124.043 139.911C124.279 139.22 124.515 138.547 124.806 137.892C125.096 137.237 125.096 136.419 125.441 135.782C125.786 135.146 126.259 134.564 126.658 133.963C127.058 133.363 128.021 133.181 128.457 132.618C128.892 132.054 128.62 130.872 129.11 130.344C129.601 129.817 130.818 130.017 131.363 129.544C131.889 129.053 132.307 128.489 132.87 128.053C133.433 127.616 133.797 126.889 134.396 126.507C134.995 126.107 135.322 125.197 135.958 124.852C136.594 124.506 137.393 124.433 138.065 124.142C138.719 123.851 139.7 124.379 140.372 124.142C141.044 123.906 141.607 123.378 142.315 123.197C143.005 123.015 143.587 122.196 144.295 122.069C145.003 121.96 145.748 121.76 146.475 121.705C147.183 121.651 147.946 122.669 148.672 122.669C149.399 122.669 150.126 122.214 150.834 122.269C151.56 122.323 152.233 122.669 152.941 122.778C153.649 122.905 154.539 122.251 155.23 122.433C155.938 122.614 156.61 123.015 157.282 123.251C157.972 123.487 158.626 123.851 159.28 124.142C159.934 124.433 160.769 124.451 161.405 124.797C162.041 125.143 162.095 126.47 162.695 126.87C163.294 127.27 164.202 127.216 164.765 127.652C165.328 128.089 165.456 129.035 165.982 129.526C166.509 130.017 167.417 130.09 167.908 130.635C168.398 131.163 168.816 131.745 169.27 132.327C169.706 132.89 170.105 133.491 170.505 134.091C170.905 134.691 171.613 135.127 171.958 135.764C172.303 136.401 172.685 137.055 172.975 137.71C173.266 138.365 173.139 139.201 173.375 139.893C173.611 140.565 173.72 141.275 173.902 141.984C174.083 142.675 174.065 143.403 174.174 144.112C174.283 144.821 175.3 145.44 175.355 146.167C175.409 146.877 175.209 147.659 175.209 148.386C175.209 149.114 174.483 149.805 174.428 150.514C174.374 151.242 174.556 151.969 174.428 152.678L174.41 152.715ZM170.796 76.5094C171.086 75.4363 170.469 75.2726 170.741 74.2177C171.032 73.1447 171.922 73.3993 172.212 72.3262C172.503 71.2532 171.867 71.0895 172.14 70.0164C172.43 68.9434 172.812 69.0525 173.084 67.9795C173.375 66.9064 172.885 66.7791 173.175 65.706C173.466 64.633 173.611 64.6875 173.902 63.6145C174.101 62.9051 173.956 62.596 173.938 62.1595C174.247 62.0685 174.537 62.014 174.81 62.1049C175.518 62.3231 176.118 62.8324 176.826 63.0689C177.516 63.3053 178.116 63.8509 178.806 64.0873C179.496 64.342 180.404 63.9964 181.094 64.2692C181.639 64.4874 182.003 65.1422 182.475 65.5605C182.511 66.1789 182.747 66.7609 182.82 67.3793C182.893 68.1068 182.057 68.9979 182.239 69.7254C182.439 70.4347 182.82 71.1441 183.111 71.817C183.401 72.4899 184.091 72.981 184.491 73.5994C184.891 74.2177 185.49 74.636 185.999 75.1817C186.489 75.7273 186.925 76.2729 187.506 76.7458C187.542 76.7822 187.579 76.8185 187.615 76.8549C187.542 77.0004 187.434 77.2005 187.306 77.4369C186.761 78.4008 186.126 78.0371 185.563 78.9829C185.018 79.9468 185.49 80.2196 184.927 81.1835C184.382 82.1475 184.037 81.9474 183.474 82.9113C182.929 83.8753 183.183 84.0208 182.638 84.9847C182.093 85.9486 182.257 86.0396 181.694 87.0035C181.149 87.9674 181.094 87.9311 180.531 88.895C179.986 89.8589 179.369 89.5134 178.824 90.4591C178.279 91.4231 178.878 91.7686 178.334 92.7326C177.789 93.6965 177.062 93.2782 176.517 94.2421C175.972 95.206 176.027 95.2424 175.464 96.1882C174.919 97.1521 175.645 97.5704 175.1 98.5343C174.556 99.4983 174.156 99.2618 173.593 100.226C173.048 101.19 172.667 100.971 172.122 101.935C171.577 102.899 172.43 103.39 171.867 104.354C171.322 105.318 171.177 105.245 170.632 106.191C170.087 107.155 169.488 106.81 168.943 107.774C168.398 108.737 168.834 108.992 168.271 109.938C167.726 110.902 167.127 110.556 166.564 111.52C166.237 112.084 166.091 112.302 165.91 112.575C165.238 112.248 164.42 112.284 163.73 111.993C163.04 111.702 162.422 111.302 161.714 111.065C161.478 110.993 161.26 110.902 161.024 110.811C161.024 110.72 161.042 110.629 161.078 110.52C161.369 109.447 161.768 109.556 162.059 108.501C162.35 107.428 161.95 107.337 162.241 106.264C162.531 105.191 162.731 105.245 163.004 104.191C163.294 103.118 163.894 103.281 164.166 102.208C164.457 101.135 163.93 101.008 164.202 99.9348C164.493 98.8617 164.729 98.9345 165.02 97.8614C165.31 96.7884 165.219 96.7702 165.51 95.6971C165.801 94.6241 165.71 94.6059 166.001 93.5328C166.291 92.4597 166.364 92.4961 166.654 91.4231C166.945 90.35 167.217 90.4227 167.49 89.3679C167.781 88.2948 166.909 88.0766 167.199 87.0035C167.49 85.9304 168.053 86.0941 168.344 85.0211C168.634 83.948 168.071 83.8025 168.344 82.7295C168.634 81.6564 168.798 81.711 169.088 80.6379C169.379 79.5648 169.942 79.7285 170.233 78.6555C170.523 77.5824 170.487 77.5824 170.778 76.5094H170.796ZM132.035 69.1071C132.652 68.7069 132.798 67.6884 133.342 67.1974C133.887 66.7063 134.432 66.2698 134.886 65.706C135.34 65.1422 136.14 64.7966 136.503 64.1601C136.866 63.5235 137.484 62.9415 137.756 62.2686C138.029 61.5775 137.575 60.6681 137.738 59.9406C137.756 59.8133 137.793 59.686 137.829 59.5587C138.519 59.4132 139.137 58.7402 139.845 58.6675C140.572 58.5947 141.371 59.2677 142.097 59.2131C142.824 59.1585 143.55 58.9221 144.277 58.8857C145.003 58.8494 145.73 58.522 146.457 58.5038C147.183 58.5038 147.928 58.6675 148.654 58.6675C149.381 58.6675 150.126 58.9039 150.852 58.9221C151.579 58.9221 152.342 58.4674 153.068 58.5038C153.795 58.5402 154.503 59.2131 155.23 59.2677C155.956 59.3222 156.719 59.0676 157.446 59.1404C158.172 59.2131 158.953 58.9221 159.68 59.013C160.406 59.104 161.133 59.304 161.859 59.395C162.586 59.5041 163.167 60.5226 163.875 60.6499C164.602 60.7772 165.419 60.3044 166.146 60.4499C166.872 60.5954 167.581 60.759 168.289 60.9227C168.834 61.05 169.452 60.9227 170.015 60.9227C169.851 61.5411 169.797 61.6866 169.561 62.5778C169.27 63.6508 168.834 63.5235 168.543 64.5966C168.253 65.6696 168.344 65.6878 168.071 66.7609C167.781 67.834 167.399 67.7248 167.109 68.7979C166.818 69.8709 166.636 69.8164 166.364 70.8894C166.073 71.9625 166.2 71.9807 165.91 73.0537C165.619 74.1268 166.509 74.3632 166.218 75.4181C165.928 76.4912 165.728 76.4366 165.437 77.4915C165.147 78.5645 165.31 78.6009 165.038 79.674C164.747 80.747 164.366 80.6379 164.075 81.711C163.785 82.784 164.021 82.8386 163.73 83.9116C163.439 84.9847 163.585 85.0211 163.294 86.0759C163.004 87.149 162.459 87.0035 162.168 88.0584C161.877 89.1314 162.259 89.2224 161.986 90.2954C161.696 91.3685 161.26 91.2412 160.969 92.3142C160.679 93.3873 160.497 93.3327 160.206 94.4058C159.916 95.4788 159.661 95.4061 159.389 96.4792C159.098 97.5522 160.188 97.8432 159.898 98.8981C159.607 99.9711 159.226 99.862 158.935 100.935C158.644 102.008 158.844 102.063 158.553 103.118C158.263 104.191 158.227 104.172 157.936 105.246C157.645 106.319 157.409 106.246 157.119 107.319C156.828 108.392 156.901 108.41 156.628 109.483C156.628 109.52 156.61 109.574 156.592 109.61C156.12 109.738 155.647 109.92 155.211 109.847C154.485 109.72 153.904 108.592 153.159 108.501C152.432 108.41 151.597 109.374 150.852 109.338C150.107 109.301 149.399 109.083 148.654 109.083C147.91 109.083 147.183 109.01 146.438 109.047C145.694 109.083 144.913 108.701 144.186 108.774C143.441 108.865 142.642 108.647 141.916 108.774C141.589 108.828 141.28 109.028 140.971 109.247C140.735 109.028 140.481 108.792 140.335 108.265C140.045 107.192 140.027 107.192 139.736 106.137C139.445 105.064 139.464 105.064 139.191 103.991C138.9 102.918 138.719 102.972 138.428 101.899C138.138 100.826 138.737 100.662 138.446 99.6074C138.156 98.5343 137.992 98.5889 137.702 97.5159C137.411 96.4428 136.848 96.6065 136.557 95.5334C136.267 94.4604 137.175 94.2239 136.903 93.1509C136.612 92.0778 136.521 92.1142 136.231 91.0411C135.94 89.968 135.413 90.1136 135.141 89.0405C134.85 87.9674 134.596 88.0402 134.305 86.9671C134.015 85.8941 134.178 85.8577 133.887 84.7846C133.597 83.7116 134.087 83.5843 133.815 82.5112C133.524 81.4381 133.778 81.3836 133.488 80.3105C133.197 79.2375 132.38 79.4557 132.107 78.3827C131.817 77.3096 132.58 77.1095 132.289 76.0365C131.998 74.9634 131.926 74.9816 131.653 73.9267C131.381 72.8719 131.508 72.8173 131.217 71.7442C130.945 70.7257 130.999 70.653 130.763 69.7436C131.199 69.5618 131.635 69.3799 132.017 69.1434L132.035 69.1071ZM106.406 69.2344C107.042 68.8888 107.841 68.8161 108.495 68.4887C109.149 68.1613 109.839 67.9067 110.493 67.5793C111.147 67.2701 111.873 67.1064 112.545 66.7973C112.818 66.6699 113.054 66.5063 113.29 66.3244C113.344 66.4517 113.417 66.5608 113.508 66.67C113.998 67.2156 114.489 67.8703 115.07 68.325C115.633 68.7797 116.814 68.3796 117.449 68.7433C118.158 69.1616 118.793 69.5254 119.556 69.8164C120.319 70.1074 120.864 71.2532 121.663 71.3987C122.463 71.5442 123.371 71.5987 124.188 71.5987C124.751 71.5987 125.26 70.8349 125.805 70.6348C125.841 70.7076 125.859 70.7803 125.877 70.8712C126.071 71.5866 126.265 72.302 126.459 73.0174C126.749 74.0904 126.586 74.1268 126.876 75.1999C127.167 76.2729 126.277 76.5094 126.567 77.5824C126.858 78.6555 127.875 78.3827 128.148 79.4557C128.438 80.5288 127.585 80.747 127.875 81.8201C128.166 82.8932 128.475 82.8022 128.747 83.8753C129.038 84.9483 129.328 84.8756 129.619 85.9304C129.91 87.0035 129.183 87.1854 129.474 88.2584C129.764 89.3315 130.8 89.0587 131.09 90.1136C131.381 91.1866 130.854 91.3321 131.145 92.387C131.435 93.46 131.889 93.3327 132.18 94.4058C132.471 95.4788 132.489 95.4607 132.779 96.5337C133.07 97.6068 132.652 97.7159 132.943 98.7889C133.233 99.862 133.397 99.8074 133.669 100.88C133.96 101.954 133.342 102.117 133.633 103.19C133.924 104.263 133.742 104.3 134.033 105.373C134.323 106.446 134.832 106.3 135.122 107.373C135.413 108.446 135.976 108.283 136.267 109.356C136.503 110.211 135.94 110.538 135.867 111.193C135.813 111.211 135.758 111.247 135.722 111.266C135.014 111.52 134.305 111.666 133.633 111.957C132.943 112.248 132.18 112.32 131.508 112.648C131.254 112.775 130.963 112.811 130.672 112.848C130.128 111.884 130.164 111.866 129.601 110.92C129.056 109.956 129.365 109.792 128.802 108.828C128.257 107.865 127.694 108.192 127.149 107.228C126.604 106.264 126.695 106.209 126.15 105.264C125.605 104.3 125.859 104.154 125.314 103.19C124.769 102.226 124.606 102.336 124.043 101.372C123.498 100.408 123.77 100.244 123.225 99.2982C122.681 98.3343 122.68 98.3343 122.136 97.3885C121.591 96.4246 121.336 96.5883 120.773 95.6243C120.228 94.6604 120.537 94.4785 119.974 93.5328C119.429 92.5689 119.139 92.7507 118.576 91.7868C118.031 90.8229 118.43 90.6046 117.867 89.6407C117.322 88.6767 116.777 88.9859 116.232 88.0402C115.688 87.0944 115.669 87.0944 115.124 86.1305C114.58 85.1666 115.124 84.8392 114.598 83.8935C114.053 82.9295 113.78 83.0932 113.235 82.1293C112.691 81.1653 112.364 81.3654 111.819 80.4015C111.274 79.4375 111.401 79.3648 110.838 78.419C110.293 77.4551 110.148 77.546 109.603 76.5821C109.058 75.6182 109.312 75.4727 108.767 74.5087C108.222 73.5448 107.95 73.7085 107.387 72.7446C106.842 71.7806 107.786 71.235 107.223 70.2892C106.896 69.7254 106.551 69.6345 106.188 69.4526C106.261 69.3799 106.351 69.3071 106.442 69.2526L106.406 69.2344ZM79.3968 91.4958C79.869 90.932 80.8499 90.8047 81.3221 90.2591C81.7944 89.7134 81.5582 88.513 82.0486 87.9674C82.5391 87.4218 83.7742 87.5855 84.2828 87.0581C84.7914 86.5306 85.1728 85.8941 85.6995 85.3848C86.2081 84.8574 86.4806 84.0935 87.0073 83.5843C87.534 83.075 87.6612 82.1293 88.2061 81.6382C88.751 81.1471 89.4957 80.8744 90.0588 80.4015C90.6037 79.9286 91.7117 80.1105 92.2747 79.6376C92.8378 79.1647 93.1829 78.4554 93.7641 78.0007C94.3454 77.546 94.5088 76.5457 95.09 76.1092C95.6713 75.6727 96.2162 75.1635 96.8156 74.727C97.415 74.3087 98.6138 74.7634 99.2313 74.3632C99.8307 73.9631 100.485 73.6175 101.102 73.2174C101.411 73.0174 101.574 72.6173 101.756 72.2171C101.956 72.4172 102.156 72.6354 102.428 73.1083C102.973 74.0722 103.137 73.9813 103.681 74.9452C104.226 75.9092 104.499 75.7455 105.044 76.7094C105.589 77.6734 105.134 77.928 105.698 78.8919C106.242 79.8559 106.297 79.8195 106.86 80.7834C107.405 81.7473 107.587 81.6382 108.132 82.6021C108.676 83.5661 108.531 83.6388 109.094 84.6028C109.639 85.5667 109.239 85.7849 109.803 86.7489C110.347 87.7128 110.275 87.7492 110.82 88.7131C111.365 89.677 111.528 89.5861 112.073 90.5319C112.618 91.4776 113.272 91.1139 113.835 92.0778C114.38 93.0417 113.581 93.4964 114.125 94.4603C114.67 95.4243 115.451 94.9696 116.014 95.9336C116.559 96.8975 116.432 96.9702 116.995 97.916C117.54 98.8799 117.231 99.0618 117.776 100.008C118.321 100.971 118.594 100.808 119.139 101.772C119.684 102.736 119.883 102.608 120.428 103.572C120.973 104.536 120.937 104.554 121.482 105.518C122.027 106.482 121.282 106.919 121.827 107.865C122.372 108.828 123.171 108.356 123.716 109.319C124.261 110.283 123.389 110.774 123.952 111.738C124.497 112.702 125.369 112.193 125.914 113.157C126.458 114.121 126.386 114.157 126.949 115.121C126.64 115.576 126.404 116.14 125.968 116.431C125.369 116.867 124.406 116.813 123.825 117.286C123.244 117.758 122.354 117.886 121.809 118.377C121.264 118.868 121.118 119.832 120.592 120.359C120.065 120.887 119.538 121.396 119.03 121.96C118.539 122.505 118.031 123.069 117.577 123.651C117.122 124.233 117.159 125.179 116.723 125.779C116.487 126.125 116.069 126.343 115.706 126.579C115.379 126.179 115.361 125.779 114.67 125.379C113.708 124.833 113.744 124.779 112.781 124.215C111.819 123.669 111.692 123.888 110.729 123.342C109.766 122.796 109.476 123.306 108.513 122.76C107.55 122.214 108.004 121.414 107.06 120.869C106.097 120.323 105.661 121.069 104.717 120.523C103.754 119.977 104.117 119.359 103.155 118.813C102.192 118.268 101.938 118.722 100.975 118.159C100.012 117.595 100.158 117.358 99.2132 116.794C98.2505 116.249 98.414 115.976 97.4513 115.412C96.4887 114.867 96.3978 115.049 95.4352 114.485C94.4725 113.939 94.3998 114.048 93.4553 113.503C92.4927 112.957 92.3474 113.212 91.4029 112.648C90.4402 112.102 90.4402 112.12 89.4775 111.557C88.5149 111.011 88.86 110.429 87.8973 109.883C86.9346 109.338 86.8257 109.52 85.8812 108.974C84.9185 108.428 84.6824 108.847 83.7197 108.301C82.9024 107.828 82.866 107.61 82.2666 107.21C82.3937 106.591 82.2121 105.918 82.3393 105.3C82.4846 104.573 83.3564 103.972 83.3927 103.245C83.4291 102.499 83.4835 101.735 83.3927 101.008C83.3201 100.28 82.6843 99.6438 82.4846 98.9345C82.3029 98.2252 82.303 97.4613 82.0123 96.7883C81.7217 96.1154 81.0497 95.6607 80.6501 95.0423C80.2505 94.424 80.5411 93.26 80.0506 92.6962C79.7782 92.387 79.306 92.2779 78.8337 92.1505C79.0154 91.9505 79.2151 91.7322 79.3968 91.5322V91.4958ZM63.2312 122.469C63.4492 121.76 63.8124 121.123 64.0486 120.432C64.2847 119.741 63.6126 118.722 63.8669 118.031C64.1212 117.34 64.9204 116.849 65.1747 116.176C65.1929 116.103 65.2292 116.049 65.2656 115.976C65.756 116.049 66.2646 116.085 66.755 116.158C67.5542 116.303 68.3533 116.776 69.1707 116.776C69.8791 116.776 70.5875 116.504 71.2777 116.394C71.9679 116.285 72.5491 115.776 73.2212 115.576C73.8932 115.376 74.3836 114.885 75.0194 114.594C75.6551 114.285 76.7086 114.776 77.2898 114.376C77.871 113.975 77.9618 112.957 78.4704 112.484C78.9245 112.066 79.8872 112.12 80.4139 111.757C80.7409 111.757 81.0678 111.757 81.5583 112.048C82.5209 112.593 82.3393 112.902 83.3019 113.448C84.2646 113.994 84.2283 114.066 85.191 114.612C86.1536 115.158 86.1354 115.194 87.0799 115.758C88.0426 116.303 88.2424 115.94 89.2051 116.504C90.1677 117.049 89.7681 117.758 90.7126 118.304C91.6753 118.85 91.6027 118.977 92.5653 119.523C93.528 120.068 93.8549 119.486 94.8176 120.05C95.7803 120.596 95.5078 121.069 96.4705 121.614C97.4332 122.16 97.4876 122.051 98.4503 122.596C99.413 123.142 99.4856 123.033 100.43 123.578C101.393 124.124 101.484 123.979 102.428 124.542C103.391 125.088 103.118 125.579 104.063 126.125C105.026 126.67 105.026 126.652 105.988 127.216C106.951 127.762 107.441 126.925 108.404 127.471C109.367 128.016 109.076 128.525 110.039 129.071C111.001 129.617 111.02 129.58 111.982 130.126C112.672 130.526 112.818 130.744 113.199 131.035C113.163 131.108 113.126 131.181 113.09 131.254C112.763 131.926 111.946 132.363 111.655 133.054C111.365 133.745 111.165 134.473 110.929 135.182C110.838 135.473 110.856 135.782 110.911 136.128C110.856 136.128 110.82 136.128 110.765 136.11C109.694 135.819 109.948 134.873 108.894 134.582C107.823 134.291 107.55 135.328 106.479 135.037C105.407 134.746 105.516 134.345 104.462 134.054C103.409 133.763 103.536 133.254 102.464 132.963C101.393 132.672 101.266 133.163 100.212 132.872C99.1405 132.581 99.0861 132.818 98.0144 132.527C96.9428 132.236 97.1062 131.69 96.0346 131.399C94.9629 131.108 94.8176 131.672 93.746 131.399C92.6743 131.108 92.7833 130.726 91.7117 130.435C90.64 130.144 90.4766 130.817 89.4049 130.526C88.3333 130.235 88.5512 129.435 87.4977 129.144C86.4261 128.853 86.2262 129.635 85.1546 129.344C84.0829 129.053 84.1193 128.944 83.0658 128.653C81.9941 128.362 82.1758 127.725 81.1042 127.434C80.0325 127.143 79.8872 127.707 78.8337 127.434C77.7621 127.143 77.7439 127.27 76.6722 126.979C75.6006 126.688 75.6187 126.634 74.5471 126.361C73.4754 126.07 73.5844 125.725 72.5128 125.434C71.4411 125.143 71.5501 124.797 70.4785 124.506C69.4068 124.215 69.316 124.597 68.2443 124.306C67.1727 124.015 67.0456 124.524 65.9739 124.233C64.9023 123.942 64.9568 123.76 63.8851 123.488C63.5037 123.378 63.2675 123.269 63.0859 123.142C63.1222 122.924 63.1586 122.705 63.2131 122.487L63.2312 122.469ZM64.7206 160.572C64.0849 160.208 63.5037 159.59 62.8316 159.335C62.1414 159.062 61.2514 159.426 60.5248 159.262C60.325 159.226 60.1435 159.171 59.9437 159.098C59.9437 158.462 60.1979 157.789 60.1434 157.152C60.0708 156.425 59.2897 155.752 59.2352 155.025C59.1808 154.297 59.1989 153.551 59.1626 152.824C59.1263 152.096 59.5622 151.351 59.5441 150.605C59.5441 149.877 59.2534 149.15 59.2534 148.422C59.2534 147.695 58.9083 146.949 58.9083 146.222C58.9083 145.494 59.4714 144.767 59.5077 144.039C59.544 143.312 59.5077 142.566 59.5622 141.839C59.6167 141.111 59.5985 140.365 59.6712 139.638C59.7438 138.91 59.2716 138.11 59.3624 137.383C59.4532 136.655 60.5793 136.073 60.6883 135.346C60.7973 134.618 60.8336 133.891 60.9426 133.181C61.0698 132.454 60.4159 131.599 60.5612 130.872C60.7065 130.144 60.5793 129.362 60.7428 128.653C60.8336 128.216 61.088 127.816 61.3059 127.416C61.76 127.616 61.9416 127.798 62.7227 127.998C63.7943 128.289 63.7943 128.289 64.8478 128.58C65.9194 128.871 65.8649 129.035 66.9366 129.307C68.0082 129.598 67.9901 129.635 69.0617 129.926C70.1334 130.217 70.3332 129.471 71.3867 129.762C72.4583 130.053 72.2766 130.708 73.3483 130.999C74.4199 131.29 74.5835 130.635 75.6551 130.908C76.7267 131.199 76.5815 131.69 77.6531 131.981C78.7247 132.272 78.5794 132.818 79.6329 133.109C80.7046 133.4 80.9043 132.599 81.976 132.89C83.0476 133.181 83.084 132.981 84.1556 133.272C85.2273 133.563 85.0638 134.164 86.1173 134.455C87.1889 134.746 87.3342 134.182 88.4059 134.455C89.4775 134.746 89.2414 135.618 90.2949 135.91C91.3666 136.201 91.5845 135.327 92.6561 135.618C93.7278 135.909 93.5825 136.437 94.6541 136.71C95.7258 137.001 95.9074 136.31 96.9609 136.601C98.0325 136.892 97.8691 137.474 98.9408 137.765C100.012 138.056 100.049 137.892 101.12 138.165C102.192 138.456 102.174 138.51 103.246 138.801C104.317 139.092 104.154 139.656 105.225 139.947C106.297 140.238 106.569 139.201 107.641 139.492C108.622 139.765 108.622 140.111 109.457 140.384C109.457 140.838 109.476 141.293 109.403 141.729C109.276 142.457 109.022 143.184 108.931 143.93C108.84 144.658 108.549 145.403 108.513 146.149C108.477 146.895 108.695 147.659 108.695 148.404C108.695 149.15 108.368 149.932 108.404 150.66C108.44 151.405 109.131 152.115 109.203 152.842C109.294 153.588 108.858 154.406 108.985 155.134C109.04 155.443 109.221 155.734 109.403 156.025C109.13 156.079 108.876 156.152 108.349 156.279C107.278 156.57 107.26 156.498 106.188 156.789C105.116 157.08 105.316 157.825 104.244 158.116C103.173 158.407 102.973 157.607 101.901 157.898C100.83 158.189 100.993 158.753 99.9216 159.044C98.8499 159.335 98.7954 159.098 97.7238 159.389C96.6521 159.68 96.5795 159.408 95.526 159.699C94.4544 159.99 94.5633 160.408 93.5098 160.681C92.4382 160.972 92.2566 160.299 91.2031 160.59C90.1314 160.881 90.3131 161.554 89.2596 161.845C88.1879 162.136 88.2424 162.318 87.1708 162.609C86.0991 162.9 86.0991 162.845 85.0275 163.136C83.9558 163.427 83.7378 162.609 82.6662 162.881C81.5946 163.172 81.6491 163.373 80.5956 163.664C79.5239 163.955 79.7419 164.755 78.6702 165.046C77.5986 165.337 77.3806 164.482 76.309 164.773C75.2373 165.064 75.3281 165.41 74.2747 165.682C73.203 165.973 73.1122 165.591 72.0405 165.864C71.2595 166.082 71.1505 166.483 70.7146 166.81C70.3695 166.192 69.5158 165.864 69.1525 165.282C68.7529 164.664 68.4623 163.991 67.9719 163.445C67.4815 162.9 67.2817 161.99 66.7186 161.517C66.1374 161.063 65.32 160.863 64.6843 160.499L64.7206 160.572ZM70.8418 190.344C70.4603 190.563 70.2242 190.672 70.0062 190.781C69.9699 190.708 69.9336 190.635 69.8972 190.581C69.5521 189.944 69.3705 189.217 69.0435 188.562C68.7166 187.907 67.5723 187.653 67.2454 186.998C66.9366 186.343 66.8276 185.561 66.537 184.888C66.428 184.634 66.4099 184.324 66.4099 184.015C66.7731 183.961 67.1182 183.87 67.3543 183.652C67.8993 183.16 68.0446 182.215 68.4987 181.651C68.9528 181.069 69.0981 180.323 69.4795 179.687C69.8428 179.05 70.6601 178.65 70.9326 177.959C71.205 177.268 71.2595 176.504 71.4048 175.776C71.5501 175.067 71.7681 174.34 71.8044 173.594C71.8408 172.866 71.4048 172.157 71.314 171.411C71.314 171.411 71.314 171.411 71.314 171.393C72.3311 171.139 72.5491 171.866 73.6026 171.575C74.6743 171.284 74.42 170.375 75.4916 170.084C76.5633 169.793 76.5996 169.938 77.6712 169.647C78.7429 169.356 78.7974 169.574 79.869 169.283C80.9407 168.992 81.0678 169.52 82.1395 169.229C83.2111 168.938 83.2656 169.138 84.3373 168.865C85.4089 168.574 85.2817 168.138 86.3534 167.847C87.425 167.556 87.4432 167.628 88.5149 167.337C89.5865 167.046 89.4412 166.483 90.4947 166.192C91.5663 165.901 91.7116 166.428 92.7651 166.137C93.8368 165.846 93.7823 165.682 94.854 165.391C95.9256 165.1 95.9801 165.3 97.0517 165.009C98.1234 164.718 98.196 165.009 99.2677 164.737C100.339 164.446 100.158 163.773 101.229 163.482C102.301 163.191 102.246 163.027 103.318 162.736C104.39 162.445 104.372 162.39 105.443 162.118C106.515 161.827 106.497 161.79 107.568 161.499C108.64 161.208 108.804 161.808 109.857 161.517C110.729 161.281 110.965 161.517 111.619 161.445C111.819 162.136 111.474 163.045 111.746 163.7C112.037 164.391 112.255 165.118 112.563 165.791C112.709 166.101 112.909 166.392 113.108 166.664C112.273 167.137 112.182 167.101 111.274 167.628C110.311 168.174 109.893 167.446 108.949 168.01C107.986 168.556 108.386 169.247 107.441 169.811C106.479 170.357 106.588 170.52 105.625 171.084C104.662 171.63 104.626 171.575 103.681 172.121C102.719 172.666 102.483 172.248 101.52 172.794C100.557 173.339 100.721 173.594 99.7581 174.158C98.7954 174.703 98.6683 174.467 97.7056 175.031C96.7429 175.576 96.8882 175.831 95.9437 176.395C94.9811 176.94 94.8358 176.704 93.8913 177.25C92.9286 177.795 92.9831 177.904 92.0386 178.45C91.0759 178.996 90.7853 178.486 89.8226 179.032C88.86 179.578 88.9689 179.759 88.0063 180.305C87.0436 180.851 87.2616 181.233 86.3171 181.778C85.3544 182.324 84.973 181.669 84.0285 182.215C83.0658 182.76 83.5017 183.524 82.5572 184.07C81.5946 184.615 81.1768 183.888 80.2141 184.434C79.2514 184.979 79.4149 185.27 78.4704 185.816C77.5078 186.361 77.7802 186.834 76.8357 187.398C75.873 187.944 75.6914 187.635 74.7469 188.198C73.7843 188.744 73.6571 188.526 72.7126 189.09C71.7499 189.635 71.8226 189.762 70.8781 190.308L70.8418 190.344ZM111.982 207.768C111.437 208.732 111.092 208.532 110.529 209.478C109.984 210.442 110.093 210.514 109.548 211.46C109.003 212.424 109.094 212.479 108.549 213.443C108.004 214.406 108.041 214.425 107.496 215.389C106.842 215.134 106.261 214.898 105.57 214.752C104.844 214.607 104.226 214.061 103.5 214.006C102.755 213.97 102.029 213.934 101.302 214.006C100.575 214.079 99.9761 214.734 99.2677 214.916C98.5593 215.098 97.5785 214.497 96.9064 214.807C96.2344 215.098 95.8711 215.989 95.2535 216.407C94.636 216.807 94.2727 217.444 93.7278 217.935C93.4917 218.153 93.2192 218.335 92.9649 218.517C92.6198 218.226 92.2747 217.917 91.9114 217.626C91.3484 217.153 90.7853 216.68 90.2404 216.207C89.6773 215.734 89.3141 215.061 88.7692 214.57C88.2243 214.079 87.1345 214.17 86.6077 213.661C86.081 213.152 85.6814 212.497 85.1728 211.969C84.646 211.442 84.2101 210.86 83.7015 210.314C83.193 209.787 82.4482 209.478 81.9397 208.932C81.4492 208.386 81.7944 207.095 81.3221 206.549C80.8499 206.004 79.9417 205.804 79.4876 205.24C79.0153 204.676 79.0699 203.712 78.6158 203.13C78.1617 202.548 77.2535 202.33 76.8175 201.748C76.3816 201.166 76.0002 200.529 75.5642 199.929C75.1465 199.329 74.7469 198.711 74.3473 198.111C73.9477 197.51 73.2212 197.092 72.8216 196.474C72.5128 195.983 72.1858 195.51 71.8771 195.019C72.313 194.746 72.4764 194.619 73.1848 194.2C74.1475 193.655 74.6924 194.6 75.6551 194.055C76.6178 193.509 76.1455 192.691 77.1082 192.145C78.0708 191.599 78.1072 191.672 79.0699 191.127C80.0325 190.581 80.1051 190.708 81.0678 190.163C82.0305 189.617 82.1758 189.872 83.1203 189.308C84.083 188.762 84.0466 188.708 85.0093 188.144C85.972 187.598 86.0265 187.707 86.9891 187.162C87.9518 186.616 87.7883 186.343 88.751 185.798C89.7137 185.252 89.8771 185.543 90.8398 184.979C91.8025 184.434 91.8206 184.47 92.7651 183.906C93.7278 183.361 93.7641 183.415 94.7086 182.869C95.6713 182.324 95.2717 181.651 96.2344 181.087C97.197 180.541 97.5966 181.233 98.5593 180.687C99.522 180.141 99.2132 179.614 100.176 179.068C101.139 178.523 101.248 178.723 102.21 178.159C103.173 177.613 103.3 177.85 104.263 177.286C105.225 176.74 105.007 176.358 105.952 175.813C106.915 175.267 107.26 175.849 108.204 175.303C109.167 174.758 108.804 174.139 109.766 173.576C110.729 173.03 110.62 172.848 111.583 172.303C112.545 171.757 112.563 171.793 113.508 171.23C114.471 170.684 114.888 171.411 115.851 170.866C115.887 170.848 115.924 170.811 115.978 170.793C116.123 170.957 116.269 171.12 116.396 171.302C116.832 171.902 117.359 172.43 117.831 173.012C118.303 173.594 118.957 173.994 119.447 174.54C119.938 175.085 120.065 175.995 120.573 176.522C121.082 177.049 121.881 177.286 122.444 177.777C122.989 178.268 123.48 178.832 124.061 179.305C124.642 179.759 125.078 180.414 125.677 180.851C126.004 181.087 126.295 181.396 126.567 181.705C126.404 181.906 126.241 182.124 126.004 182.56C125.46 183.524 125.478 183.524 124.915 184.488C124.37 185.452 124.315 185.416 123.752 186.38C123.207 187.344 123.77 187.671 123.225 188.635C122.681 189.599 121.754 189.053 121.191 190.017C120.646 190.981 121.554 191.508 120.991 192.454C120.446 193.418 119.865 193.091 119.32 194.037C118.775 195 118.412 194.782 117.849 195.746C117.304 196.71 117.922 197.074 117.377 198.02C116.832 198.984 116.886 199.002 116.323 199.966C115.778 200.93 115.796 200.948 115.252 201.893C114.707 202.857 114.507 202.748 113.962 203.712C113.417 204.676 113.817 204.913 113.254 205.858C112.709 206.822 112.582 206.75 112.018 207.695L111.982 207.768ZM127.203 218.208C126.913 219.281 126.967 219.281 126.676 220.354C126.386 221.427 126.204 221.372 125.914 222.427C125.623 223.482 125.569 223.482 125.278 224.537C124.987 225.61 125.169 225.646 124.878 226.719C124.588 227.792 124.588 227.792 124.297 228.847C124.006 229.92 124.115 229.939 123.825 231.012C123.534 232.085 123.171 231.976 122.88 233.049C122.699 233.721 122.844 234.031 122.88 234.449C122.789 234.449 122.699 234.413 122.608 234.394C121.899 234.176 121.209 233.958 120.501 233.74C119.811 233.503 119.102 233.285 118.412 233.049C117.722 232.794 117.25 231.976 116.578 231.703C116.414 231.63 116.232 231.575 116.069 231.503C116.069 231.284 116.069 231.066 116.123 230.866C116.269 230.139 116.777 229.502 116.814 228.756C116.85 228.029 116.596 227.301 116.505 226.574C116.432 225.846 116.65 225.064 116.45 224.337C116.251 223.627 115.742 223.009 115.451 222.354C115.161 221.681 115.361 220.681 114.979 220.063C114.58 219.444 113.907 218.953 113.417 218.408C113.054 218.008 112.672 217.553 112.273 217.171C112.255 216.698 112.055 216.298 112.418 215.68C112.963 214.716 113.708 215.152 114.271 214.188C114.816 213.224 114.543 213.061 115.088 212.097C115.633 211.133 115.179 210.86 115.724 209.914C116.269 208.95 116.596 209.132 117.141 208.168C117.686 207.204 117.922 207.332 118.467 206.386C119.011 205.422 118.902 205.349 119.447 204.403C119.992 203.439 120.101 203.512 120.664 202.548C121.209 201.584 120.919 201.421 121.464 200.457C122.008 199.493 122.553 199.802 123.116 198.856C123.661 197.892 123.698 197.91 124.243 196.947C124.787 195.983 123.861 195.437 124.406 194.491C124.951 193.527 124.915 193.509 125.459 192.545C126.004 191.581 126.168 191.672 126.713 190.708C127.258 189.744 127.276 189.763 127.839 188.799C128.384 187.835 128.747 188.053 129.31 187.089C129.855 186.125 129.619 185.98 130.164 185.034C130.436 184.579 130.545 184.324 130.636 184.07C130.854 184.215 131.054 184.343 131.29 184.452C131.962 184.779 132.743 184.87 133.433 185.143C134.124 185.434 134.959 185.252 135.667 185.488C135.758 185.525 135.849 185.561 135.94 185.598C135.94 185.779 135.922 185.98 135.849 186.234C135.558 187.307 136.049 187.434 135.758 188.489C135.468 189.562 134.868 189.399 134.578 190.454C134.287 191.527 134.596 191.599 134.323 192.672C134.033 193.746 134.396 193.836 134.105 194.91C133.815 195.983 133.724 195.946 133.451 197.019C133.161 198.092 132.289 197.856 131.998 198.911C131.708 199.984 132.307 200.129 131.998 201.202C131.708 202.275 131.69 202.257 131.417 203.33C131.127 204.403 131.562 204.512 131.29 205.586C130.999 206.659 130.091 206.404 129.801 207.477C129.51 208.55 130.454 208.805 130.182 209.86C129.891 210.933 129.601 210.842 129.31 211.915C129.02 212.988 128.711 212.897 128.438 213.97C128.148 215.043 128.765 215.207 128.475 216.262C128.184 217.335 127.457 217.135 127.167 218.189L127.203 218.208ZM165.256 227.447C164.638 227.847 163.912 228.229 163.367 228.72C162.822 229.211 162.64 230.102 162.168 230.684C161.714 231.248 160.86 231.612 160.497 232.267C160.134 232.903 160.751 234.031 160.497 234.704C160.225 235.395 159.789 235.959 159.625 236.686C159.571 236.977 159.552 237.286 159.552 237.577C158.862 237.65 158.154 237.65 157.446 237.723C156.719 237.796 155.992 237.923 155.266 237.977C154.539 238.032 153.776 237.432 153.032 237.468C152.305 237.504 151.597 238.414 150.87 238.432C150.144 238.432 149.399 237.905 148.672 237.905C147.946 237.905 147.219 237.523 146.493 237.505C145.766 237.505 145.003 238.287 144.277 238.25C143.55 238.214 142.788 238.341 142.061 238.287C141.334 238.232 140.662 237.414 139.936 237.341C139.209 237.268 138.374 238.032 137.665 237.941C136.939 237.85 136.321 236.886 135.595 236.777C134.868 236.668 134.196 236.322 133.47 236.195C132.743 236.068 131.835 236.995 131.108 236.868C130.382 236.722 129.873 235.577 129.165 235.413C128.693 235.304 128.239 235.231 127.766 235.14C127.712 234.922 127.694 234.667 127.766 234.322C128.057 233.249 128.892 233.485 129.183 232.412C129.474 231.339 129.419 231.339 129.71 230.266C130 229.193 130.146 229.247 130.436 228.174C130.727 227.101 130 226.919 130.291 225.846C130.582 224.773 130.291 224.701 130.563 223.628C130.854 222.554 131.235 222.664 131.526 221.591C131.817 220.517 132.38 220.681 132.67 219.608C132.961 218.535 133.034 218.553 133.324 217.498C133.615 216.425 133.016 216.28 133.324 215.207C133.615 214.134 133.76 214.188 134.051 213.115C134.341 212.042 134.305 212.042 134.596 210.969C134.886 209.896 134.941 209.914 135.231 208.841C135.522 207.768 134.886 207.604 135.159 206.531C135.449 205.458 136.467 205.749 136.757 204.676C137.048 203.603 136.031 203.33 136.321 202.275C136.612 201.221 137.248 201.384 137.52 200.311C137.811 199.238 138.21 199.347 138.501 198.292C138.792 197.219 138.083 197.037 138.374 195.964C138.664 194.891 138.592 194.873 138.882 193.818C139.173 192.745 139.137 192.745 139.427 191.672C139.718 190.599 139.918 190.654 140.208 189.599C140.481 188.544 140.063 188.417 140.317 187.398C140.862 187.616 141.389 187.962 141.97 188.053C142.697 188.18 143.55 187.471 144.295 187.562C145.022 187.653 145.73 187.889 146.475 187.926C147.219 187.962 147.946 188.107 148.691 188.107C149.435 188.107 150.198 188.635 150.943 188.598C151.688 188.562 152.414 188.198 153.159 188.107C153.904 188.017 154.721 188.326 155.448 188.198C155.829 188.126 156.174 187.816 156.519 187.489C156.737 187.78 156.973 187.998 157.137 188.617C157.427 189.69 157.282 189.726 157.573 190.799C157.863 191.872 157.7 191.909 157.99 192.982C158.281 194.055 158.154 194.091 158.426 195.146C158.717 196.219 158.444 196.292 158.735 197.365C159.026 198.438 159.298 198.365 159.589 199.42C159.879 200.493 159.861 200.493 160.152 201.566C160.442 202.639 160.86 202.53 161.133 203.585C161.423 204.658 161.187 204.713 161.478 205.786C161.768 206.859 162.15 206.75 162.44 207.823C162.731 208.896 161.932 209.114 162.223 210.169C162.513 211.242 162.713 211.187 163.004 212.26C163.294 213.333 162.895 213.443 163.185 214.497C163.476 215.57 163.657 215.516 163.948 216.589C164.239 217.662 164.42 217.607 164.711 218.681C165.002 219.754 164.747 219.808 165.038 220.881C165.328 221.954 166.037 221.754 166.327 222.827C166.618 223.9 166.527 223.919 166.818 224.992C167.09 225.992 166.745 226.156 166.945 227.065C166.382 227.174 165.764 227.192 165.31 227.483L165.256 227.447ZM190.903 227.556C190.267 227.902 189.577 228.193 188.923 228.52C188.269 228.847 187.397 228.738 186.743 229.047C186.089 229.357 185.744 230.357 185.072 230.666C184.836 230.775 184.6 230.902 184.364 231.048C184.146 230.702 183.91 230.375 183.637 230.066C183.147 229.52 182.602 228.993 182.039 228.52C181.476 228.065 180.985 227.392 180.35 227.01C179.714 226.647 178.842 226.683 178.152 226.41C177.462 226.137 176.771 225.883 176.045 225.737C175.318 225.592 174.61 225.228 173.865 225.192C173.139 225.155 172.358 225.283 171.631 225.355C171.595 224.719 171.849 224.464 171.631 223.591C171.341 222.518 171.431 222.5 171.141 221.427C170.85 220.354 171.05 220.299 170.759 219.226C170.469 218.153 170.178 218.226 169.906 217.171C169.615 216.098 169.524 216.134 169.234 215.061C168.943 213.988 169.088 213.952 168.798 212.879C168.507 211.806 168.543 211.806 168.271 210.733C167.98 209.66 167.89 209.678 167.617 208.623C167.326 207.55 166.981 207.641 166.691 206.586C166.4 205.513 166.346 205.531 166.073 204.458C165.783 203.385 166.346 203.239 166.073 202.166C165.783 201.093 165.601 201.148 165.31 200.075C165.02 199.002 165.419 198.893 165.129 197.82C164.838 196.746 164.202 196.928 163.912 195.855C163.621 194.782 163.149 194.91 162.858 193.855C162.568 192.782 163.585 192.509 163.294 191.436C163.004 190.363 162.041 190.617 161.768 189.562C161.478 188.489 162.168 188.307 161.877 187.234C161.787 186.871 161.732 186.634 161.678 186.416C161.768 186.38 161.859 186.343 161.95 186.325C162.658 186.07 163.367 185.798 164.039 185.507C164.729 185.216 165.474 185.016 166.146 184.688C166.436 184.543 166.654 184.27 166.872 183.979C167.345 184.888 166.509 185.416 167.054 186.343C167.599 187.307 168.58 186.743 169.125 187.689C169.67 188.653 169.306 188.853 169.851 189.817C170.396 190.781 170.015 190.999 170.56 191.963C171.104 192.927 171.195 192.873 171.74 193.836C172.285 194.8 172.685 194.564 173.23 195.528C173.775 196.492 173.575 196.601 174.138 197.565C174.683 198.529 174.683 198.529 175.228 199.493C175.773 200.457 175.936 200.348 176.499 201.311C177.044 202.275 176.499 202.585 177.062 203.53C177.607 204.494 178.043 204.24 178.606 205.185C179.151 206.149 179.423 205.986 179.968 206.95C180.332 207.592 180.701 208.229 181.076 208.859C181.621 209.823 181.766 209.732 182.311 210.696C182.856 211.66 182.493 211.86 183.038 212.824C183.583 213.788 183.147 214.043 183.692 214.988C184.237 215.952 184.818 215.625 185.363 216.571C185.908 217.535 185.89 217.535 186.434 218.499C186.979 219.463 187.27 219.299 187.815 220.245C188.36 221.209 188.396 221.19 188.959 222.136C189.504 223.1 189.54 223.082 190.085 224.028C190.63 224.992 189.758 225.501 190.303 226.447C190.63 227.01 190.885 227.174 191.139 227.392C191.066 227.429 190.994 227.483 190.921 227.52L190.903 227.556ZM217.639 205.095C217.167 205.658 217.294 206.713 216.804 207.277C216.332 207.841 215.75 208.332 215.26 208.859C214.77 209.405 213.916 209.605 213.407 210.132C212.899 210.66 212.19 210.987 211.682 211.515C211.155 212.024 211.101 213.024 210.574 213.533C210.047 214.043 209.193 214.206 208.649 214.697C208.104 215.189 207.577 215.698 207.032 216.171C206.487 216.644 206.269 217.553 205.706 218.008C205.143 218.48 204.489 218.844 203.908 219.299C203.327 219.754 202.727 220.19 202.146 220.627C201.565 221.063 201.002 221.554 200.402 221.972C199.803 222.391 199.312 222.991 198.695 223.391C198.095 223.791 196.842 223.246 196.225 223.646C196.007 223.791 195.825 224.009 195.662 224.246C195.589 224.046 195.48 223.828 195.298 223.482C194.753 222.518 194.717 222.554 194.154 221.591C193.609 220.627 193.664 220.59 193.119 219.644C192.574 218.681 192.537 218.699 191.993 217.753C191.448 216.789 190.703 217.225 190.158 216.262C189.613 215.298 190.249 214.934 189.704 213.97C189.159 213.006 189.322 212.915 188.759 211.969C188.215 211.005 187.524 211.406 186.979 210.442C186.434 209.478 187.161 209.059 186.598 208.114C186.053 207.15 185.744 207.332 185.199 206.368C184.654 205.404 184.219 205.658 183.674 204.694C183.129 203.73 183.256 203.658 182.693 202.712C182.148 201.748 182.275 201.675 181.73 200.711C181.185 199.747 181.294 199.693 180.749 198.729C180.204 197.765 180.441 197.638 179.877 196.674C179.333 195.71 179.078 195.873 178.515 194.91C177.97 193.946 177.97 193.946 177.425 192.982C176.88 192.018 176.499 192.236 175.954 191.29C175.409 190.344 175.609 190.217 175.046 189.253C174.501 188.289 174.156 188.489 173.593 187.544C173.048 186.58 173.756 186.18 173.193 185.216C172.648 184.252 172.467 184.361 171.904 183.397C171.359 182.433 171.704 182.233 171.159 181.287C171.141 181.251 171.104 181.214 171.086 181.178C171.232 181.033 171.395 180.905 171.559 180.796C172.158 180.36 173.121 180.396 173.702 179.923C174.283 179.45 174.138 178.141 174.701 177.65C175.246 177.159 175.882 176.777 176.408 176.249C176.935 175.722 177.916 175.631 178.406 175.067C178.897 174.521 178.86 173.503 179.314 172.921C179.787 172.339 180.895 172.248 181.312 171.648C181.603 171.248 181.639 170.684 181.748 170.156C182.003 170.557 182.039 170.957 182.693 171.32C183.655 171.866 183.71 171.757 184.673 172.303C185.635 172.848 185.817 172.521 186.78 173.085C187.742 173.63 187.851 173.448 188.814 173.994C189.777 174.54 189.813 174.485 190.757 175.049C191.72 175.595 191.357 176.231 192.319 176.777C193.282 177.322 193.137 177.559 194.1 178.123C195.062 178.668 195.171 178.486 196.116 179.032C197.078 179.578 197.46 178.905 198.422 179.468C199.385 180.014 199.276 180.196 200.239 180.76C201.201 181.305 201.038 181.596 201.982 182.16C202.945 182.706 203.163 182.324 204.126 182.869C205.088 183.415 204.998 183.579 205.96 184.124C206.923 184.67 206.651 185.143 207.613 185.688C208.576 186.234 208.685 186.052 209.647 186.598C210.61 187.143 210.701 186.998 211.645 187.544C212.59 188.089 212.699 187.944 213.643 188.489C214.606 189.035 214.207 189.708 215.169 190.272C215.878 190.672 216.168 190.599 216.659 190.763C216.531 191.327 216.55 191.89 216.423 192.454C216.277 193.182 215.605 193.818 215.569 194.546C215.532 195.291 216.277 195.964 216.35 196.692C216.422 197.419 215.805 198.256 216.005 198.965C216.186 199.675 216.804 200.238 217.113 200.911C217.403 201.584 217.222 202.53 217.639 203.148C217.948 203.621 218.711 203.749 219.274 204.021C218.784 204.403 218.057 204.603 217.676 205.076L217.639 205.095ZM234.622 174.521C234.404 175.231 233.878 175.831 233.642 176.522C233.405 177.213 233.623 178.068 233.369 178.759C233.115 179.45 232.57 180.032 232.297 180.705C232.188 180.96 232.079 181.233 231.989 181.487C231.48 181.451 230.971 181.487 230.463 181.451C229.718 181.414 228.955 180.778 228.229 180.869C227.502 180.942 226.975 182.106 226.267 182.306C225.559 182.488 224.723 182.178 224.051 182.488C223.379 182.779 222.707 183.088 222.09 183.488C221.472 183.888 221.218 184.688 220.655 185.197C220.128 185.67 219.056 185.652 218.566 186.216C218.42 186.034 218.221 185.852 217.857 185.634C216.895 185.088 217.149 184.634 216.205 184.07C215.242 183.524 214.915 184.07 213.952 183.524C212.99 182.979 213.008 182.942 212.045 182.397C211.082 181.851 210.919 182.124 209.974 181.578C209.012 181.033 208.994 181.051 208.031 180.505C207.068 179.959 207.05 179.978 206.106 179.432C205.143 178.886 205.652 177.995 204.707 177.431C203.744 176.886 203.545 177.231 202.582 176.668C201.619 176.122 201.347 176.613 200.384 176.049C199.421 175.504 199.476 175.413 198.513 174.849C197.551 174.303 198.059 173.412 197.115 172.866C196.152 172.321 195.589 173.285 194.644 172.721C193.682 172.175 194.227 171.23 193.264 170.666C192.301 170.12 192.319 170.102 191.357 169.538C190.394 168.992 190.031 169.629 189.068 169.065C188.106 168.52 188.396 168.01 187.452 167.447C186.489 166.901 186.198 167.392 185.254 166.846C184.836 166.61 184.654 166.392 184.491 166.192C184.6 166.064 184.691 165.937 184.763 165.791C185.09 165.118 184.891 164.209 185.163 163.536C185.454 162.845 186.307 162.39 186.562 161.681C186.598 161.608 186.598 161.517 186.616 161.445C187.488 161.608 187.706 161.117 188.705 161.372C189.777 161.663 189.631 162.209 190.685 162.481C191.738 162.754 191.702 162.954 192.774 163.227C193.845 163.518 193.9 163.318 194.953 163.591C196.025 163.882 196.007 163.936 197.06 164.227C198.132 164.518 198.186 164.318 199.24 164.609C200.311 164.9 200.184 165.355 201.256 165.646C202.328 165.937 202.309 165.973 203.381 166.264C204.453 166.555 204.634 165.882 205.688 166.173C206.76 166.464 206.814 166.264 207.867 166.555C208.939 166.846 208.757 167.465 209.829 167.756C210.901 168.047 211.082 167.374 212.136 167.665C213.208 167.956 213.008 168.701 214.061 168.992C215.133 169.283 215.369 168.374 216.441 168.647C217.512 168.938 217.476 169.065 218.529 169.356C219.601 169.647 219.528 169.865 220.6 170.138C221.672 170.429 221.526 170.939 222.598 171.23C223.67 171.521 223.615 171.721 224.669 172.012C225.74 172.303 225.849 171.866 226.921 172.139C227.993 172.43 227.975 172.484 229.028 172.775C230.1 173.066 230.245 172.503 231.317 172.775C232.388 173.066 232.243 173.594 233.315 173.867C234.041 174.067 234.295 174.049 234.713 174.103C234.713 174.249 234.677 174.394 234.641 174.521H234.622ZM238.4 152.842C238.364 153.569 238.092 154.297 238.055 155.025C238.001 155.752 238.364 156.534 238.291 157.262C238.219 157.989 237.147 158.607 237.056 159.335C236.965 160.062 236.893 160.79 236.784 161.499C236.675 162.227 237.183 163.045 237.056 163.773C236.929 164.5 236.094 165.082 235.948 165.791C235.803 166.519 236.475 167.41 236.33 168.119C236.239 168.538 235.912 168.901 235.603 169.265C235.385 168.992 235.185 168.72 234.641 168.574C233.569 168.283 233.496 168.574 232.425 168.301C231.353 168.01 231.244 168.447 230.172 168.156C229.101 167.865 229.246 167.319 228.192 167.046C227.121 166.755 226.957 167.41 225.886 167.119C224.814 166.828 225.05 165.937 223.997 165.664C222.925 165.373 222.925 165.41 221.853 165.137C220.782 164.846 220.691 165.191 219.619 164.918C218.548 164.627 218.62 164.373 217.567 164.082C216.495 163.791 216.313 164.464 215.26 164.191C214.188 163.9 214.388 163.209 213.316 162.918C212.245 162.627 212.209 162.754 211.155 162.481C210.083 162.19 209.993 162.554 208.921 162.281C207.849 161.99 207.795 162.209 206.723 161.918C205.652 161.627 205.633 161.699 204.58 161.408C203.508 161.117 203.708 160.426 202.636 160.135C201.565 159.844 201.637 159.59 200.566 159.299C199.494 159.008 199.44 159.226 198.368 158.935C197.296 158.644 197.096 159.408 196.043 159.117C194.971 158.826 195.026 158.626 193.972 158.335C192.901 158.044 192.992 157.734 191.92 157.443C190.848 157.152 190.739 157.589 189.668 157.316C188.596 157.025 188.65 156.861 187.579 156.57C187.506 156.552 187.452 156.534 187.379 156.516C187.379 156.025 187.288 155.516 187.379 155.025C187.506 154.297 188.451 153.679 188.523 152.933C188.614 152.205 188.596 151.423 188.65 150.678C188.687 149.932 188.741 149.186 188.741 148.422C188.741 147.659 188.487 146.931 188.451 146.185C188.414 145.44 188.142 144.712 188.069 143.985C187.978 143.239 187.851 142.512 187.742 141.784C187.688 141.42 187.688 141.038 187.67 140.675C188.051 140.747 188.36 140.893 188.996 140.729C190.067 140.438 189.976 140.093 191.03 139.82C192.102 139.529 191.92 138.856 192.992 138.583C194.063 138.292 194.263 139.056 195.335 138.783C196.406 138.492 196.297 138.128 197.369 137.837C198.441 137.546 198.35 137.237 199.421 136.946C200.493 136.655 200.602 137.092 201.674 136.801C202.745 136.51 202.873 137.001 203.944 136.71C205.016 136.419 204.943 136.201 206.015 135.91C207.086 135.618 206.905 134.982 207.976 134.691C209.048 134.4 209.284 135.291 210.356 135C211.428 134.709 211.409 134.673 212.481 134.382C213.553 134.091 213.298 133.181 214.37 132.909C215.442 132.618 215.66 133.454 216.731 133.181C217.803 132.89 217.785 132.818 218.838 132.527C219.91 132.236 219.928 132.363 221 132.072C222.071 131.781 221.853 130.981 222.925 130.69C223.434 130.544 223.742 130.617 224.033 130.69C224.433 131.035 224.905 131.344 225.177 131.726C225.613 132.363 225.813 133.2 226.34 133.763C226.867 134.327 227.993 134.182 228.592 134.655C229.191 135.127 229.482 136.019 230.154 136.382C230.826 136.746 231.353 137.565 232.079 137.819C232.806 138.074 233.769 137.455 234.532 137.583C235.276 137.71 236.003 137.692 236.766 137.692C237.056 137.692 237.347 137.765 237.637 137.819C237.819 138.419 238.219 139.001 238.273 139.62C238.346 140.347 238.364 141.093 238.419 141.82C238.473 142.548 238.528 143.294 238.564 144.021C238.6 144.749 237.892 145.512 237.91 146.24C237.91 146.967 237.783 147.695 237.783 148.441C237.783 149.186 238.709 149.914 238.691 150.66C238.691 151.387 238.437 152.133 238.4 152.86V152.842Z" fill="white"/>
</svg>
