<svg width="24" height="21" viewBox="0 0 24 21" fill="none" xmlns="http://www.w3.org/2000/svg">
<path d="M23 1.99834C22.0424 2.67381 20.9821 3.19045 19.86 3.52834C19.2577 2.83585 18.4573 2.34503 17.567 2.12226C16.6767 1.8995 15.7395 1.95553 14.8821 2.28279C14.0247 2.61005 13.2884 3.19274 12.773 3.95205C12.2575 4.71137 11.9877 5.61067 12 6.52834V7.52834C10.2426 7.5739 8.50127 7.18415 6.93101 6.39378C5.36074 5.60342 4.01032 4.43697 3 2.99834C3 2.99834 -1 11.9983 8 15.9983C5.94053 17.3963 3.48716 18.0973 1 17.9983C10 22.9983 21 17.9983 21 6.49834C20.9991 6.21979 20.9723 5.94193 20.92 5.66834C21.9406 4.66183 22.6608 3.39105 23 1.99834V1.99834Z" stroke="white" stroke-width="2" stroke-linecap="round" stroke-linejoin="round"/>
</svg>
